%TF.GenerationSoftware,KiCad,Pcbnew,8.0.1-8.0.1-0~ubuntu20.04.1*%
%TF.CreationDate,2024-05-13T17:34:50+05:00*%
%TF.ProjectId,DeltaAnomalain,44656c74-6141-46e6-9f6d-616c61696e2e,rev?*%
%TF.SameCoordinates,Original*%
%TF.FileFunction,Legend,Top*%
%TF.FilePolarity,Positive*%
%FSLAX46Y46*%
G04 Gerber Fmt 4.6, Leading zero omitted, Abs format (unit mm)*
G04 Created by KiCad (PCBNEW 8.0.1-8.0.1-0~ubuntu20.04.1) date 2024-05-13 17:34:50*
%MOMM*%
%LPD*%
G01*
G04 APERTURE LIST*
%ADD10C,0.100000*%
%ADD11C,0.273607*%
%ADD12C,0.150000*%
%ADD13C,0.400000*%
%ADD14C,0.200000*%
%ADD15C,0.120000*%
%ADD16C,0.000000*%
%TA.AperFunction,Profile*%
%ADD17C,0.050000*%
%TD*%
G04 APERTURE END LIST*
D10*
X225500000Y-68600000D02*
X225000000Y-68900000D01*
X225000000Y-68300000D01*
X225500000Y-68600000D01*
G36*
X225500000Y-68600000D02*
G01*
X225000000Y-68900000D01*
X225000000Y-68300000D01*
X225500000Y-68600000D01*
G37*
X224000000Y-70100000D02*
X223700000Y-69600000D01*
X224300000Y-69600000D01*
X224000000Y-70100000D01*
G36*
X224000000Y-70100000D02*
G01*
X223700000Y-69600000D01*
X224300000Y-69600000D01*
X224000000Y-70100000D01*
G37*
X224000000Y-68600000D02*
X224000000Y-70100000D01*
X224000000Y-68600000D02*
X225500000Y-68600000D01*
D11*
X224136803Y-68600000D02*
G75*
G02*
X223863197Y-68600000I-136803J0D01*
G01*
X223863197Y-68600000D02*
G75*
G02*
X224136803Y-68600000I136803J0D01*
G01*
D12*
X236738095Y-98317438D02*
X236642857Y-98269819D01*
X236642857Y-98269819D02*
X236500000Y-98269819D01*
X236500000Y-98269819D02*
X236357143Y-98317438D01*
X236357143Y-98317438D02*
X236261905Y-98412676D01*
X236261905Y-98412676D02*
X236214286Y-98507914D01*
X236214286Y-98507914D02*
X236166667Y-98698390D01*
X236166667Y-98698390D02*
X236166667Y-98841247D01*
X236166667Y-98841247D02*
X236214286Y-99031723D01*
X236214286Y-99031723D02*
X236261905Y-99126961D01*
X236261905Y-99126961D02*
X236357143Y-99222200D01*
X236357143Y-99222200D02*
X236500000Y-99269819D01*
X236500000Y-99269819D02*
X236595238Y-99269819D01*
X236595238Y-99269819D02*
X236738095Y-99222200D01*
X236738095Y-99222200D02*
X236785714Y-99174580D01*
X236785714Y-99174580D02*
X236785714Y-98841247D01*
X236785714Y-98841247D02*
X236595238Y-98841247D01*
X237214286Y-99269819D02*
X237214286Y-98269819D01*
X237214286Y-98269819D02*
X237785714Y-99269819D01*
X237785714Y-99269819D02*
X237785714Y-98269819D01*
X238261905Y-99269819D02*
X238261905Y-98269819D01*
X238261905Y-98269819D02*
X238500000Y-98269819D01*
X238500000Y-98269819D02*
X238642857Y-98317438D01*
X238642857Y-98317438D02*
X238738095Y-98412676D01*
X238738095Y-98412676D02*
X238785714Y-98507914D01*
X238785714Y-98507914D02*
X238833333Y-98698390D01*
X238833333Y-98698390D02*
X238833333Y-98841247D01*
X238833333Y-98841247D02*
X238785714Y-99031723D01*
X238785714Y-99031723D02*
X238738095Y-99126961D01*
X238738095Y-99126961D02*
X238642857Y-99222200D01*
X238642857Y-99222200D02*
X238500000Y-99269819D01*
X238500000Y-99269819D02*
X238261905Y-99269819D01*
X233438095Y-98269819D02*
X234009523Y-98269819D01*
X233723809Y-99269819D02*
X233723809Y-98269819D01*
X234247619Y-98269819D02*
X234914285Y-99269819D01*
X234914285Y-98269819D02*
X234247619Y-99269819D01*
X233120364Y-120269819D02*
X233120364Y-119269819D01*
X233120364Y-119269819D02*
X233453697Y-119984104D01*
X233453697Y-119984104D02*
X233787030Y-119269819D01*
X233787030Y-119269819D02*
X233787030Y-120269819D01*
X234453697Y-119269819D02*
X234644173Y-119269819D01*
X234644173Y-119269819D02*
X234739411Y-119317438D01*
X234739411Y-119317438D02*
X234834649Y-119412676D01*
X234834649Y-119412676D02*
X234882268Y-119603152D01*
X234882268Y-119603152D02*
X234882268Y-119936485D01*
X234882268Y-119936485D02*
X234834649Y-120126961D01*
X234834649Y-120126961D02*
X234739411Y-120222200D01*
X234739411Y-120222200D02*
X234644173Y-120269819D01*
X234644173Y-120269819D02*
X234453697Y-120269819D01*
X234453697Y-120269819D02*
X234358459Y-120222200D01*
X234358459Y-120222200D02*
X234263221Y-120126961D01*
X234263221Y-120126961D02*
X234215602Y-119936485D01*
X234215602Y-119936485D02*
X234215602Y-119603152D01*
X234215602Y-119603152D02*
X234263221Y-119412676D01*
X234263221Y-119412676D02*
X234358459Y-119317438D01*
X234358459Y-119317438D02*
X234453697Y-119269819D01*
X235263221Y-120222200D02*
X235406078Y-120269819D01*
X235406078Y-120269819D02*
X235644173Y-120269819D01*
X235644173Y-120269819D02*
X235739411Y-120222200D01*
X235739411Y-120222200D02*
X235787030Y-120174580D01*
X235787030Y-120174580D02*
X235834649Y-120079342D01*
X235834649Y-120079342D02*
X235834649Y-119984104D01*
X235834649Y-119984104D02*
X235787030Y-119888866D01*
X235787030Y-119888866D02*
X235739411Y-119841247D01*
X235739411Y-119841247D02*
X235644173Y-119793628D01*
X235644173Y-119793628D02*
X235453697Y-119746009D01*
X235453697Y-119746009D02*
X235358459Y-119698390D01*
X235358459Y-119698390D02*
X235310840Y-119650771D01*
X235310840Y-119650771D02*
X235263221Y-119555533D01*
X235263221Y-119555533D02*
X235263221Y-119460295D01*
X235263221Y-119460295D02*
X235310840Y-119365057D01*
X235310840Y-119365057D02*
X235358459Y-119317438D01*
X235358459Y-119317438D02*
X235453697Y-119269819D01*
X235453697Y-119269819D02*
X235691792Y-119269819D01*
X235691792Y-119269819D02*
X235834649Y-119317438D01*
X236263221Y-120269819D02*
X236263221Y-119269819D01*
X225527255Y-67873200D02*
X225527255Y-68206533D01*
X225193922Y-67506533D02*
X225527255Y-67873200D01*
X225527255Y-67873200D02*
X225860588Y-67506533D01*
X227161905Y-98269819D02*
X227733333Y-98269819D01*
X227447619Y-99269819D02*
X227447619Y-98269819D01*
X227971429Y-98269819D02*
X228638095Y-99269819D01*
X228638095Y-98269819D02*
X227971429Y-99269819D01*
X229447619Y-98269819D02*
X229257143Y-98269819D01*
X229257143Y-98269819D02*
X229161905Y-98317438D01*
X229161905Y-98317438D02*
X229114286Y-98365057D01*
X229114286Y-98365057D02*
X229019048Y-98507914D01*
X229019048Y-98507914D02*
X228971429Y-98698390D01*
X228971429Y-98698390D02*
X228971429Y-99079342D01*
X228971429Y-99079342D02*
X229019048Y-99174580D01*
X229019048Y-99174580D02*
X229066667Y-99222200D01*
X229066667Y-99222200D02*
X229161905Y-99269819D01*
X229161905Y-99269819D02*
X229352381Y-99269819D01*
X229352381Y-99269819D02*
X229447619Y-99222200D01*
X229447619Y-99222200D02*
X229495238Y-99174580D01*
X229495238Y-99174580D02*
X229542857Y-99079342D01*
X229542857Y-99079342D02*
X229542857Y-98841247D01*
X229542857Y-98841247D02*
X229495238Y-98746009D01*
X229495238Y-98746009D02*
X229447619Y-98698390D01*
X229447619Y-98698390D02*
X229352381Y-98650771D01*
X229352381Y-98650771D02*
X229161905Y-98650771D01*
X229161905Y-98650771D02*
X229066667Y-98698390D01*
X229066667Y-98698390D02*
X229019048Y-98746009D01*
X229019048Y-98746009D02*
X228971429Y-98841247D01*
X234215601Y-101537438D02*
X234120363Y-101489819D01*
X234120363Y-101489819D02*
X233977506Y-101489819D01*
X233977506Y-101489819D02*
X233834649Y-101537438D01*
X233834649Y-101537438D02*
X233739411Y-101632676D01*
X233739411Y-101632676D02*
X233691792Y-101727914D01*
X233691792Y-101727914D02*
X233644173Y-101918390D01*
X233644173Y-101918390D02*
X233644173Y-102061247D01*
X233644173Y-102061247D02*
X233691792Y-102251723D01*
X233691792Y-102251723D02*
X233739411Y-102346961D01*
X233739411Y-102346961D02*
X233834649Y-102442200D01*
X233834649Y-102442200D02*
X233977506Y-102489819D01*
X233977506Y-102489819D02*
X234072744Y-102489819D01*
X234072744Y-102489819D02*
X234215601Y-102442200D01*
X234215601Y-102442200D02*
X234263220Y-102394580D01*
X234263220Y-102394580D02*
X234263220Y-102061247D01*
X234263220Y-102061247D02*
X234072744Y-102061247D01*
X234691792Y-102489819D02*
X234691792Y-101489819D01*
X234691792Y-101489819D02*
X235263220Y-102489819D01*
X235263220Y-102489819D02*
X235263220Y-101489819D01*
X235739411Y-102489819D02*
X235739411Y-101489819D01*
X235739411Y-101489819D02*
X235977506Y-101489819D01*
X235977506Y-101489819D02*
X236120363Y-101537438D01*
X236120363Y-101537438D02*
X236215601Y-101632676D01*
X236215601Y-101632676D02*
X236263220Y-101727914D01*
X236263220Y-101727914D02*
X236310839Y-101918390D01*
X236310839Y-101918390D02*
X236310839Y-102061247D01*
X236310839Y-102061247D02*
X236263220Y-102251723D01*
X236263220Y-102251723D02*
X236215601Y-102346961D01*
X236215601Y-102346961D02*
X236120363Y-102442200D01*
X236120363Y-102442200D02*
X235977506Y-102489819D01*
X235977506Y-102489819D02*
X235739411Y-102489819D01*
X222741541Y-67706533D02*
X223408207Y-67706533D01*
X223408207Y-67706533D02*
X222741541Y-68406533D01*
X222741541Y-68406533D02*
X223408207Y-68406533D01*
D13*
X193139347Y-122172533D02*
X194663157Y-122172533D01*
X193901252Y-122934438D02*
X193901252Y-121410628D01*
D12*
X231533333Y-99269819D02*
X231200000Y-98793628D01*
X230961905Y-99269819D02*
X230961905Y-98269819D01*
X230961905Y-98269819D02*
X231342857Y-98269819D01*
X231342857Y-98269819D02*
X231438095Y-98317438D01*
X231438095Y-98317438D02*
X231485714Y-98365057D01*
X231485714Y-98365057D02*
X231533333Y-98460295D01*
X231533333Y-98460295D02*
X231533333Y-98603152D01*
X231533333Y-98603152D02*
X231485714Y-98698390D01*
X231485714Y-98698390D02*
X231438095Y-98746009D01*
X231438095Y-98746009D02*
X231342857Y-98793628D01*
X231342857Y-98793628D02*
X230961905Y-98793628D01*
X231866667Y-98269819D02*
X232533333Y-99269819D01*
X232533333Y-98269819D02*
X231866667Y-99269819D01*
D10*
G36*
X221215282Y-64025802D02*
G01*
X221204738Y-64079155D01*
X221172522Y-64251934D01*
X221150854Y-64375561D01*
X221129311Y-64503926D01*
X221108128Y-64635304D01*
X221087545Y-64767969D01*
X221067797Y-64900193D01*
X221049121Y-65030251D01*
X221031754Y-65156416D01*
X221008678Y-65334589D01*
X220989882Y-65494293D01*
X220976166Y-65629702D01*
X220966765Y-65785572D01*
X220967231Y-65807466D01*
X221020614Y-65922135D01*
X221145062Y-65943108D01*
X221154536Y-65942919D01*
X221276465Y-65934850D01*
X221404570Y-65925401D01*
X221348394Y-66009665D01*
X221225662Y-66030425D01*
X221026605Y-66065230D01*
X220994691Y-66071011D01*
X220863458Y-66094639D01*
X220742672Y-66114078D01*
X220662072Y-66043859D01*
X220663079Y-66018135D01*
X220679780Y-65893039D01*
X220684234Y-65870602D01*
X220700540Y-65749546D01*
X220709601Y-65686274D01*
X220728628Y-65564532D01*
X220728982Y-65560582D01*
X220746336Y-65438136D01*
X220662054Y-65432986D01*
X220526795Y-65428113D01*
X220386951Y-65425515D01*
X220251088Y-65424372D01*
X220126570Y-65424092D01*
X220043948Y-65517940D01*
X219931768Y-65642039D01*
X219832076Y-65747332D01*
X219743049Y-65835174D01*
X219637793Y-65927485D01*
X219521764Y-66007508D01*
X219394200Y-66059930D01*
X219265614Y-66075000D01*
X219204082Y-66072172D01*
X219079989Y-66043859D01*
X219213101Y-65799005D01*
X219245580Y-65808968D01*
X219366974Y-65823429D01*
X219438770Y-65819679D01*
X219566003Y-65786575D01*
X219673261Y-65721935D01*
X219773028Y-65631699D01*
X219802980Y-65601698D01*
X219894233Y-65502778D01*
X219988114Y-65395394D01*
X220070939Y-65297611D01*
X220084970Y-65280600D01*
X220235258Y-65280600D01*
X220767096Y-65280600D01*
X220910589Y-64395219D01*
X220235258Y-65280600D01*
X220084970Y-65280600D01*
X220152718Y-65198460D01*
X220242585Y-65085816D01*
X220847697Y-64302407D01*
X220793776Y-64298503D01*
X220665736Y-64288363D01*
X220557048Y-64277372D01*
X220473394Y-64266992D01*
X220469103Y-64266704D01*
X220343946Y-64260275D01*
X220274812Y-64263382D01*
X220154136Y-64287661D01*
X220044977Y-64344692D01*
X219965360Y-64444717D01*
X219937892Y-64578401D01*
X219943572Y-64656517D01*
X219972551Y-64783257D01*
X220011165Y-64903855D01*
X219752267Y-65043684D01*
X219716424Y-64930509D01*
X219703419Y-64802494D01*
X219707244Y-64734264D01*
X219738678Y-64604099D01*
X219793648Y-64493673D01*
X219875818Y-64382786D01*
X219969033Y-64284699D01*
X219999978Y-64255419D01*
X220108644Y-64167813D01*
X220217397Y-64103349D01*
X220341007Y-64058012D01*
X220463014Y-64042899D01*
X220527824Y-64045562D01*
X220651570Y-64059277D01*
X220781140Y-64078314D01*
X220855341Y-64089625D01*
X220980809Y-64102739D01*
X221075835Y-64077775D01*
X221166434Y-63990997D01*
X221215282Y-64025802D01*
G37*
G36*
X221742847Y-66021877D02*
G01*
X221949232Y-65186566D01*
X222036549Y-65129780D01*
X222145723Y-65060738D01*
X222249676Y-64995906D01*
X222356932Y-64932965D01*
X222449930Y-64902023D01*
X222484734Y-64948429D01*
X222466005Y-65073385D01*
X222437302Y-65200430D01*
X222406231Y-65331047D01*
X222374047Y-65464454D01*
X222355286Y-65541939D01*
X222323642Y-65671449D01*
X222292689Y-65802373D01*
X222268725Y-65924637D01*
X222264305Y-65986461D01*
X222297687Y-66110092D01*
X222316817Y-66145219D01*
X222431822Y-66087385D01*
X222546193Y-66020901D01*
X222650003Y-65955324D01*
X222759408Y-65881915D01*
X222872411Y-65802002D01*
X222964061Y-65734281D01*
X222988485Y-65634752D01*
X222875307Y-65700902D01*
X222752581Y-65771533D01*
X222641697Y-65830408D01*
X222589759Y-65844190D01*
X222533583Y-65748325D01*
X222548970Y-65612792D01*
X222580750Y-65478149D01*
X222619277Y-65330811D01*
X222661806Y-65172743D01*
X222701500Y-65026587D01*
X222736611Y-64900202D01*
X222771022Y-64775066D01*
X222789427Y-64688921D01*
X222722871Y-64629082D01*
X222602810Y-64661978D01*
X222478409Y-64733925D01*
X222353961Y-64810290D01*
X222256978Y-64870272D01*
X222150589Y-64937522D01*
X222044801Y-65004594D01*
X221984036Y-65044295D01*
X222015454Y-64923563D01*
X222045269Y-64796564D01*
X222068300Y-64674877D01*
X222022505Y-64629082D01*
X221903687Y-64676899D01*
X221777320Y-64742411D01*
X221668563Y-64802447D01*
X221548670Y-64871315D01*
X221472958Y-64916067D01*
X221452198Y-65008879D01*
X221571483Y-64954444D01*
X221686196Y-64907216D01*
X221721475Y-64902023D01*
X221763607Y-64952093D01*
X221746244Y-65080929D01*
X221720788Y-65204045D01*
X221692187Y-65327228D01*
X221657719Y-65465205D01*
X221626456Y-65583770D01*
X221609734Y-65645132D01*
X221529134Y-65933339D01*
X221497192Y-66056300D01*
X221480286Y-66124459D01*
X221742847Y-66021877D01*
G37*
G36*
X224132461Y-64642614D02*
G01*
X224250913Y-64708903D01*
X224326402Y-64821251D01*
X224349528Y-64951482D01*
X224349204Y-64974440D01*
X224338295Y-65096527D01*
X224313315Y-65226552D01*
X224276179Y-65358757D01*
X224228802Y-65487385D01*
X224173098Y-65606676D01*
X224097958Y-65729396D01*
X224056716Y-65775470D01*
X223962862Y-65855868D01*
X223850594Y-65932639D01*
X223744417Y-65995621D01*
X223635881Y-66049421D01*
X223511835Y-66095904D01*
X223387212Y-66114078D01*
X223261293Y-66089521D01*
X223155598Y-66008128D01*
X223099062Y-65894450D01*
X223082519Y-65767864D01*
X223084343Y-65702034D01*
X223093125Y-65620708D01*
X223352407Y-65620708D01*
X223356597Y-65692176D01*
X223388761Y-65812588D01*
X223468914Y-65913708D01*
X223586880Y-65949825D01*
X223685073Y-65929723D01*
X223790261Y-65860456D01*
X223877293Y-65759255D01*
X223947138Y-65641468D01*
X223997212Y-65528194D01*
X224040906Y-65399064D01*
X224068958Y-65273519D01*
X224080251Y-65140771D01*
X224077977Y-65082832D01*
X224050687Y-64951085D01*
X223977102Y-64839000D01*
X223852494Y-64793946D01*
X223806527Y-64798763D01*
X223693099Y-64849715D01*
X223586662Y-64948312D01*
X223510631Y-65054828D01*
X223446077Y-65180405D01*
X223396113Y-65319965D01*
X223363852Y-65468426D01*
X223352407Y-65620708D01*
X223093125Y-65620708D01*
X223098534Y-65570622D01*
X223125895Y-65441596D01*
X223165360Y-65317424D01*
X223215863Y-65200577D01*
X223276337Y-65093522D01*
X223364326Y-64977234D01*
X223464148Y-64884926D01*
X223542173Y-64829755D01*
X223659710Y-64757404D01*
X223774260Y-64699302D01*
X223898747Y-64652166D01*
X224034455Y-64629082D01*
X224132461Y-64642614D01*
G37*
G36*
X224499738Y-66114078D02*
G01*
X224748255Y-66019434D01*
X224972348Y-65162142D01*
X225073120Y-65092974D01*
X225178344Y-65024789D01*
X225290093Y-64959616D01*
X225395498Y-64918510D01*
X225441294Y-64996057D01*
X225423431Y-65121702D01*
X225391416Y-65269842D01*
X225356343Y-65414933D01*
X225325435Y-65535555D01*
X225291236Y-65663651D01*
X225254334Y-65796843D01*
X225215318Y-65932752D01*
X225174776Y-66068999D01*
X225161025Y-66114078D01*
X225427250Y-66019434D01*
X225644016Y-65137107D01*
X225754329Y-65066777D01*
X225873011Y-64995652D01*
X225984873Y-64934975D01*
X226074494Y-64900802D01*
X226120289Y-64967969D01*
X226105284Y-65095974D01*
X226080317Y-65217808D01*
X226047592Y-65357235D01*
X226011413Y-65501831D01*
X225994504Y-65567585D01*
X225964860Y-65693898D01*
X225939702Y-65813507D01*
X225924496Y-65940595D01*
X225924284Y-65955931D01*
X225963290Y-66076597D01*
X226008548Y-66114078D01*
X226121891Y-66054338D01*
X226233937Y-65989067D01*
X226344808Y-65918145D01*
X226454625Y-65841452D01*
X226563508Y-65758866D01*
X226599616Y-65730006D01*
X226603279Y-65648796D01*
X226484348Y-65722188D01*
X226375937Y-65787717D01*
X226261512Y-65832583D01*
X226257065Y-65832588D01*
X226193562Y-65740997D01*
X226210789Y-65606520D01*
X226240401Y-65472122D01*
X226271435Y-65349988D01*
X226309577Y-65210990D01*
X226347353Y-65078198D01*
X226383831Y-64947999D01*
X226417731Y-64820812D01*
X226441474Y-64698445D01*
X226442079Y-64681594D01*
X226386514Y-64629082D01*
X226264389Y-64670267D01*
X226147027Y-64728936D01*
X226019764Y-64798386D01*
X225897735Y-64867866D01*
X225757011Y-64950075D01*
X225679431Y-64996057D01*
X225706393Y-64875328D01*
X225724616Y-64794556D01*
X225748772Y-64673133D01*
X225749040Y-64668161D01*
X225703855Y-64629082D01*
X225574889Y-64677290D01*
X225457789Y-64743521D01*
X225351120Y-64807976D01*
X225217477Y-64891043D01*
X225097435Y-64966779D01*
X225007152Y-65024145D01*
X225038638Y-64888388D01*
X225066891Y-64760823D01*
X225080425Y-64678541D01*
X225027913Y-64629082D01*
X224907679Y-64677442D01*
X224795428Y-64739768D01*
X224779396Y-64748761D01*
X224671973Y-64811319D01*
X224562929Y-64875575D01*
X224485694Y-64925226D01*
X224461270Y-65024145D01*
X224574108Y-64967454D01*
X224688043Y-64921620D01*
X224720167Y-64918510D01*
X224769016Y-64985066D01*
X224749909Y-65108837D01*
X224721953Y-65228079D01*
X224684592Y-65380722D01*
X224654818Y-65500921D01*
X224618806Y-65645743D01*
X224584438Y-65773985D01*
X224554659Y-65893142D01*
X224530879Y-65991346D01*
X224499738Y-66114078D01*
G37*
G36*
X227589706Y-64629461D02*
G01*
X227723187Y-64636731D01*
X227856187Y-64654702D01*
X227988136Y-64681594D01*
X227965117Y-64707607D01*
X227886775Y-64807990D01*
X227851682Y-64939877D01*
X227819322Y-65065046D01*
X227780697Y-65220115D01*
X227747583Y-65359945D01*
X227720350Y-65482656D01*
X227695147Y-65609103D01*
X227676727Y-65750157D01*
X227718859Y-65820376D01*
X227747008Y-65814206D01*
X227854778Y-65753532D01*
X227962553Y-65682386D01*
X228068736Y-65610327D01*
X228065073Y-65715352D01*
X227968208Y-65785359D01*
X227858861Y-65861769D01*
X227750000Y-65935781D01*
X227666674Y-65990776D01*
X227550886Y-66064645D01*
X227428210Y-66114078D01*
X227372034Y-66040806D01*
X227376465Y-65984469D01*
X227397653Y-65859449D01*
X227424546Y-65729396D01*
X227384491Y-65758220D01*
X227275102Y-65836386D01*
X227152463Y-65922424D01*
X227031822Y-66003649D01*
X226912316Y-66075438D01*
X226794399Y-66114078D01*
X226716410Y-66076724D01*
X226663681Y-65961533D01*
X226650907Y-65834420D01*
X226660829Y-65689469D01*
X226664051Y-65669556D01*
X226920795Y-65669556D01*
X226928131Y-65752317D01*
X227011775Y-65844801D01*
X227041881Y-65840091D01*
X227153861Y-65790810D01*
X227263346Y-65725732D01*
X227347254Y-65663494D01*
X227452634Y-65585293D01*
X227484385Y-65466224D01*
X227488244Y-65449207D01*
X227515803Y-65323685D01*
X227543614Y-65200000D01*
X227573850Y-65083303D01*
X227606761Y-64961841D01*
X227641311Y-64836078D01*
X227597980Y-64826046D01*
X227472937Y-64802647D01*
X227343946Y-64790282D01*
X227311528Y-64792267D01*
X227199247Y-64843576D01*
X227118732Y-64946821D01*
X227064288Y-65056507D01*
X227017261Y-65173308D01*
X226978904Y-65292823D01*
X226949772Y-65411838D01*
X226928186Y-65545773D01*
X226920795Y-65669556D01*
X226664051Y-65669556D01*
X226681535Y-65561516D01*
X226711636Y-65429431D01*
X226749328Y-65299239D01*
X226792810Y-65176964D01*
X226852556Y-65044433D01*
X226927512Y-64930722D01*
X226937250Y-64920784D01*
X227035347Y-64839919D01*
X227137510Y-64767690D01*
X227246249Y-64699302D01*
X227302042Y-64668190D01*
X227421605Y-64635201D01*
X227547278Y-64629082D01*
X227589706Y-64629461D01*
G37*
G36*
X228888782Y-65626814D02*
G01*
X228782552Y-65689252D01*
X228678393Y-65754380D01*
X228664689Y-65762979D01*
X228554056Y-65826103D01*
X228465631Y-65853960D01*
X228402739Y-65762979D01*
X228402739Y-65731228D01*
X228402739Y-65700087D01*
X228423411Y-65578755D01*
X228451044Y-65449366D01*
X228487465Y-65288034D01*
X228519238Y-65151721D01*
X228553813Y-65006682D01*
X228590271Y-64856876D01*
X228627696Y-64706266D01*
X228665168Y-64558812D01*
X228689724Y-64464218D01*
X228725454Y-64330335D01*
X228766465Y-64185989D01*
X228810807Y-64053904D01*
X228869257Y-63942904D01*
X228984038Y-63887382D01*
X229011514Y-63886584D01*
X229134193Y-63899989D01*
X229183094Y-63911618D01*
X229333304Y-63725994D01*
X229210944Y-63705472D01*
X229175767Y-63704623D01*
X229050950Y-63721516D01*
X228927273Y-63778235D01*
X228817657Y-63858370D01*
X228756280Y-63911618D01*
X228660253Y-64001082D01*
X228578116Y-64100879D01*
X228522363Y-64218152D01*
X228518143Y-64229745D01*
X228480258Y-64357035D01*
X228445568Y-64483325D01*
X228410638Y-64616660D01*
X228381143Y-64736408D01*
X228377704Y-64751203D01*
X228126133Y-65847243D01*
X228118806Y-65910136D01*
X228144135Y-66033989D01*
X228228991Y-66123543D01*
X228234211Y-66123848D01*
X228255582Y-66123848D01*
X228265963Y-66123848D01*
X228384965Y-66061392D01*
X228505934Y-65977974D01*
X228618591Y-65898035D01*
X228722272Y-65823732D01*
X228843969Y-65736090D01*
X228888782Y-65703750D01*
X228888782Y-65626814D01*
G37*
G36*
X229897801Y-64629461D02*
G01*
X230031282Y-64636731D01*
X230164282Y-64654702D01*
X230296231Y-64681594D01*
X230273211Y-64707607D01*
X230194870Y-64807990D01*
X230159777Y-64939877D01*
X230127417Y-65065046D01*
X230088792Y-65220115D01*
X230055678Y-65359945D01*
X230028445Y-65482656D01*
X230003242Y-65609103D01*
X229984822Y-65750157D01*
X230026953Y-65820376D01*
X230055103Y-65814206D01*
X230162873Y-65753532D01*
X230270648Y-65682386D01*
X230376831Y-65610327D01*
X230373168Y-65715352D01*
X230276303Y-65785359D01*
X230166956Y-65861769D01*
X230058094Y-65935781D01*
X229974769Y-65990776D01*
X229858980Y-66064645D01*
X229736304Y-66114078D01*
X229680129Y-66040806D01*
X229684560Y-65984469D01*
X229705748Y-65859449D01*
X229732641Y-65729396D01*
X229692586Y-65758220D01*
X229583197Y-65836386D01*
X229460558Y-65922424D01*
X229339917Y-66003649D01*
X229220411Y-66075438D01*
X229102494Y-66114078D01*
X229024505Y-66076724D01*
X228971775Y-65961533D01*
X228959002Y-65834420D01*
X228968924Y-65689469D01*
X228972146Y-65669556D01*
X229228890Y-65669556D01*
X229236225Y-65752317D01*
X229319870Y-65844801D01*
X229349976Y-65840091D01*
X229461956Y-65790810D01*
X229571441Y-65725732D01*
X229655349Y-65663494D01*
X229760729Y-65585293D01*
X229792480Y-65466224D01*
X229796339Y-65449207D01*
X229823898Y-65323685D01*
X229851709Y-65200000D01*
X229881945Y-65083303D01*
X229914856Y-64961841D01*
X229949406Y-64836078D01*
X229906075Y-64826046D01*
X229781031Y-64802647D01*
X229652041Y-64790282D01*
X229619623Y-64792267D01*
X229507342Y-64843576D01*
X229426827Y-64946821D01*
X229372383Y-65056507D01*
X229325356Y-65173308D01*
X229286999Y-65292823D01*
X229257867Y-65411838D01*
X229236281Y-65545773D01*
X229228890Y-65669556D01*
X228972146Y-65669556D01*
X228989630Y-65561516D01*
X229019731Y-65429431D01*
X229057423Y-65299239D01*
X229100905Y-65176964D01*
X229160650Y-65044433D01*
X229235607Y-64930722D01*
X229245344Y-64920784D01*
X229343442Y-64839919D01*
X229445605Y-64767690D01*
X229554344Y-64699302D01*
X229610137Y-64668190D01*
X229729700Y-64635201D01*
X229855373Y-64629082D01*
X229897801Y-64629461D01*
G37*
G36*
X231077808Y-63911618D02*
G01*
X230975144Y-63992054D01*
X230873859Y-64067962D01*
X230836618Y-64093579D01*
X230887425Y-64209085D01*
X230955826Y-64318584D01*
X230969731Y-64339043D01*
X231064233Y-64254924D01*
X231166093Y-64173349D01*
X231196877Y-64149755D01*
X231151692Y-64069155D01*
X231099180Y-63957414D01*
X231077808Y-63911618D01*
G37*
G36*
X231210921Y-65662840D02*
G01*
X231151692Y-65693981D01*
X231035478Y-65757329D01*
X230922989Y-65815160D01*
X230826238Y-65844801D01*
X230763346Y-65746493D01*
X230780649Y-65624061D01*
X230812032Y-65493186D01*
X230849241Y-65343278D01*
X230878750Y-65225034D01*
X230911851Y-65088860D01*
X230946473Y-64946183D01*
X230976595Y-64821096D01*
X231004249Y-64699707D01*
X231008199Y-64664497D01*
X230966067Y-64629082D01*
X230840670Y-64675933D01*
X230718472Y-64743474D01*
X230612039Y-64808114D01*
X230491407Y-64885388D01*
X230412857Y-64937438D01*
X230406140Y-65035746D01*
X230519546Y-64974677D01*
X230631423Y-64920926D01*
X230661374Y-64916678D01*
X230703506Y-64975907D01*
X230683590Y-65104897D01*
X230649974Y-65238176D01*
X230640614Y-65273883D01*
X230598457Y-65429782D01*
X230564179Y-65557008D01*
X230529322Y-65688025D01*
X230496358Y-65818468D01*
X230476072Y-65943028D01*
X230475750Y-65974249D01*
X230510275Y-66092054D01*
X230560013Y-66114078D01*
X230682593Y-66076602D01*
X230790242Y-66017658D01*
X230899511Y-65949825D01*
X231005585Y-65882220D01*
X231099180Y-65820376D01*
X231196877Y-65760537D01*
X231210921Y-65662840D01*
G37*
G36*
X231536985Y-66021877D02*
G01*
X231743370Y-65186566D01*
X231830687Y-65129780D01*
X231939862Y-65060738D01*
X232043815Y-64995906D01*
X232151070Y-64932965D01*
X232244068Y-64902023D01*
X232278872Y-64948429D01*
X232260143Y-65073385D01*
X232231440Y-65200430D01*
X232200370Y-65331047D01*
X232168185Y-65464454D01*
X232149424Y-65541939D01*
X232117780Y-65671449D01*
X232086827Y-65802373D01*
X232062863Y-65924637D01*
X232058443Y-65986461D01*
X232091825Y-66110092D01*
X232110956Y-66145219D01*
X232225960Y-66087385D01*
X232340331Y-66020901D01*
X232444141Y-65955324D01*
X232553547Y-65881915D01*
X232666550Y-65802002D01*
X232758199Y-65734281D01*
X232782623Y-65634752D01*
X232669445Y-65700902D01*
X232546719Y-65771533D01*
X232435835Y-65830408D01*
X232383897Y-65844190D01*
X232327721Y-65748325D01*
X232343108Y-65612792D01*
X232374888Y-65478149D01*
X232413415Y-65330811D01*
X232455944Y-65172743D01*
X232495638Y-65026587D01*
X232530749Y-64900202D01*
X232565160Y-64775066D01*
X232583565Y-64688921D01*
X232517009Y-64629082D01*
X232396949Y-64661978D01*
X232272547Y-64733925D01*
X232148100Y-64810290D01*
X232051116Y-64870272D01*
X231944727Y-64937522D01*
X231838940Y-65004594D01*
X231778175Y-65044295D01*
X231809592Y-64923563D01*
X231839407Y-64796564D01*
X231862438Y-64674877D01*
X231816643Y-64629082D01*
X231697825Y-64676899D01*
X231571458Y-64742411D01*
X231462701Y-64802447D01*
X231342808Y-64871315D01*
X231267096Y-64916067D01*
X231246336Y-65008879D01*
X231365621Y-64954444D01*
X231480334Y-64907216D01*
X231515614Y-64902023D01*
X231557745Y-64952093D01*
X231540382Y-65080929D01*
X231514927Y-65204045D01*
X231486325Y-65327228D01*
X231451857Y-65465205D01*
X231420594Y-65583770D01*
X231403872Y-65645132D01*
X231323272Y-65933339D01*
X231291330Y-66056300D01*
X231274424Y-66124459D01*
X231536985Y-66021877D01*
G37*
D12*
X223822200Y-90190475D02*
X223869819Y-90047618D01*
X223869819Y-90047618D02*
X223869819Y-89809523D01*
X223869819Y-89809523D02*
X223822200Y-89714285D01*
X223822200Y-89714285D02*
X223774580Y-89666666D01*
X223774580Y-89666666D02*
X223679342Y-89619047D01*
X223679342Y-89619047D02*
X223584104Y-89619047D01*
X223584104Y-89619047D02*
X223488866Y-89666666D01*
X223488866Y-89666666D02*
X223441247Y-89714285D01*
X223441247Y-89714285D02*
X223393628Y-89809523D01*
X223393628Y-89809523D02*
X223346009Y-89999999D01*
X223346009Y-89999999D02*
X223298390Y-90095237D01*
X223298390Y-90095237D02*
X223250771Y-90142856D01*
X223250771Y-90142856D02*
X223155533Y-90190475D01*
X223155533Y-90190475D02*
X223060295Y-90190475D01*
X223060295Y-90190475D02*
X222965057Y-90142856D01*
X222965057Y-90142856D02*
X222917438Y-90095237D01*
X222917438Y-90095237D02*
X222869819Y-89999999D01*
X222869819Y-89999999D02*
X222869819Y-89761904D01*
X222869819Y-89761904D02*
X222917438Y-89619047D01*
X223346009Y-89190475D02*
X223346009Y-88857142D01*
X223869819Y-88714285D02*
X223869819Y-89190475D01*
X223869819Y-89190475D02*
X222869819Y-89190475D01*
X222869819Y-89190475D02*
X222869819Y-88714285D01*
X223869819Y-87714285D02*
X223393628Y-88047618D01*
X223869819Y-88285713D02*
X222869819Y-88285713D01*
X222869819Y-88285713D02*
X222869819Y-87904761D01*
X222869819Y-87904761D02*
X222917438Y-87809523D01*
X222917438Y-87809523D02*
X222965057Y-87761904D01*
X222965057Y-87761904D02*
X223060295Y-87714285D01*
X223060295Y-87714285D02*
X223203152Y-87714285D01*
X223203152Y-87714285D02*
X223298390Y-87761904D01*
X223298390Y-87761904D02*
X223346009Y-87809523D01*
X223346009Y-87809523D02*
X223393628Y-87904761D01*
X223393628Y-87904761D02*
X223393628Y-88285713D01*
X222869819Y-87428570D02*
X223869819Y-87095237D01*
X223869819Y-87095237D02*
X222869819Y-86761904D01*
X222869819Y-86238094D02*
X222869819Y-86047618D01*
X222869819Y-86047618D02*
X222917438Y-85952380D01*
X222917438Y-85952380D02*
X223012676Y-85857142D01*
X223012676Y-85857142D02*
X223203152Y-85809523D01*
X223203152Y-85809523D02*
X223536485Y-85809523D01*
X223536485Y-85809523D02*
X223726961Y-85857142D01*
X223726961Y-85857142D02*
X223822200Y-85952380D01*
X223822200Y-85952380D02*
X223869819Y-86047618D01*
X223869819Y-86047618D02*
X223869819Y-86238094D01*
X223869819Y-86238094D02*
X223822200Y-86333332D01*
X223822200Y-86333332D02*
X223726961Y-86428570D01*
X223726961Y-86428570D02*
X223536485Y-86476189D01*
X223536485Y-86476189D02*
X223203152Y-86476189D01*
X223203152Y-86476189D02*
X223012676Y-86428570D01*
X223012676Y-86428570D02*
X222917438Y-86333332D01*
X222917438Y-86333332D02*
X222869819Y-86238094D01*
X223346009Y-85047618D02*
X223393628Y-84904761D01*
X223393628Y-84904761D02*
X223441247Y-84857142D01*
X223441247Y-84857142D02*
X223536485Y-84809523D01*
X223536485Y-84809523D02*
X223679342Y-84809523D01*
X223679342Y-84809523D02*
X223774580Y-84857142D01*
X223774580Y-84857142D02*
X223822200Y-84904761D01*
X223822200Y-84904761D02*
X223869819Y-84999999D01*
X223869819Y-84999999D02*
X223869819Y-85380951D01*
X223869819Y-85380951D02*
X222869819Y-85380951D01*
X222869819Y-85380951D02*
X222869819Y-85047618D01*
X222869819Y-85047618D02*
X222917438Y-84952380D01*
X222917438Y-84952380D02*
X222965057Y-84904761D01*
X222965057Y-84904761D02*
X223060295Y-84857142D01*
X223060295Y-84857142D02*
X223155533Y-84857142D01*
X223155533Y-84857142D02*
X223250771Y-84904761D01*
X223250771Y-84904761D02*
X223298390Y-84952380D01*
X223298390Y-84952380D02*
X223346009Y-85047618D01*
X223346009Y-85047618D02*
X223346009Y-85380951D01*
X233596554Y-110062200D02*
X233739411Y-110109819D01*
X233739411Y-110109819D02*
X233977506Y-110109819D01*
X233977506Y-110109819D02*
X234072744Y-110062200D01*
X234072744Y-110062200D02*
X234120363Y-110014580D01*
X234120363Y-110014580D02*
X234167982Y-109919342D01*
X234167982Y-109919342D02*
X234167982Y-109824104D01*
X234167982Y-109824104D02*
X234120363Y-109728866D01*
X234120363Y-109728866D02*
X234072744Y-109681247D01*
X234072744Y-109681247D02*
X233977506Y-109633628D01*
X233977506Y-109633628D02*
X233787030Y-109586009D01*
X233787030Y-109586009D02*
X233691792Y-109538390D01*
X233691792Y-109538390D02*
X233644173Y-109490771D01*
X233644173Y-109490771D02*
X233596554Y-109395533D01*
X233596554Y-109395533D02*
X233596554Y-109300295D01*
X233596554Y-109300295D02*
X233644173Y-109205057D01*
X233644173Y-109205057D02*
X233691792Y-109157438D01*
X233691792Y-109157438D02*
X233787030Y-109109819D01*
X233787030Y-109109819D02*
X234025125Y-109109819D01*
X234025125Y-109109819D02*
X234167982Y-109157438D01*
X234501316Y-109109819D02*
X234739411Y-110109819D01*
X234739411Y-110109819D02*
X234929887Y-109395533D01*
X234929887Y-109395533D02*
X235120363Y-110109819D01*
X235120363Y-110109819D02*
X235358459Y-109109819D01*
X235739411Y-110109819D02*
X235739411Y-109109819D01*
X235739411Y-109109819D02*
X235977506Y-109109819D01*
X235977506Y-109109819D02*
X236120363Y-109157438D01*
X236120363Y-109157438D02*
X236215601Y-109252676D01*
X236215601Y-109252676D02*
X236263220Y-109347914D01*
X236263220Y-109347914D02*
X236310839Y-109538390D01*
X236310839Y-109538390D02*
X236310839Y-109681247D01*
X236310839Y-109681247D02*
X236263220Y-109871723D01*
X236263220Y-109871723D02*
X236215601Y-109966961D01*
X236215601Y-109966961D02*
X236120363Y-110062200D01*
X236120363Y-110062200D02*
X235977506Y-110109819D01*
X235977506Y-110109819D02*
X235739411Y-110109819D01*
X224869819Y-96070237D02*
X225679342Y-96070237D01*
X225679342Y-96070237D02*
X225774580Y-96022618D01*
X225774580Y-96022618D02*
X225822200Y-95974999D01*
X225822200Y-95974999D02*
X225869819Y-95879761D01*
X225869819Y-95879761D02*
X225869819Y-95689285D01*
X225869819Y-95689285D02*
X225822200Y-95594047D01*
X225822200Y-95594047D02*
X225774580Y-95546428D01*
X225774580Y-95546428D02*
X225679342Y-95498809D01*
X225679342Y-95498809D02*
X224869819Y-95498809D01*
X225584104Y-95070237D02*
X225584104Y-94594047D01*
X225869819Y-95165475D02*
X224869819Y-94832142D01*
X224869819Y-94832142D02*
X225869819Y-94498809D01*
X225869819Y-93594047D02*
X225393628Y-93927380D01*
X225869819Y-94165475D02*
X224869819Y-94165475D01*
X224869819Y-94165475D02*
X224869819Y-93784523D01*
X224869819Y-93784523D02*
X224917438Y-93689285D01*
X224917438Y-93689285D02*
X224965057Y-93641666D01*
X224965057Y-93641666D02*
X225060295Y-93594047D01*
X225060295Y-93594047D02*
X225203152Y-93594047D01*
X225203152Y-93594047D02*
X225298390Y-93641666D01*
X225298390Y-93641666D02*
X225346009Y-93689285D01*
X225346009Y-93689285D02*
X225393628Y-93784523D01*
X225393628Y-93784523D02*
X225393628Y-94165475D01*
X224869819Y-93308332D02*
X224869819Y-92736904D01*
X225869819Y-93022618D02*
X224869819Y-93022618D01*
X233739411Y-115142200D02*
X233882268Y-115189819D01*
X233882268Y-115189819D02*
X234120363Y-115189819D01*
X234120363Y-115189819D02*
X234215601Y-115142200D01*
X234215601Y-115142200D02*
X234263220Y-115094580D01*
X234263220Y-115094580D02*
X234310839Y-114999342D01*
X234310839Y-114999342D02*
X234310839Y-114904104D01*
X234310839Y-114904104D02*
X234263220Y-114808866D01*
X234263220Y-114808866D02*
X234215601Y-114761247D01*
X234215601Y-114761247D02*
X234120363Y-114713628D01*
X234120363Y-114713628D02*
X233929887Y-114666009D01*
X233929887Y-114666009D02*
X233834649Y-114618390D01*
X233834649Y-114618390D02*
X233787030Y-114570771D01*
X233787030Y-114570771D02*
X233739411Y-114475533D01*
X233739411Y-114475533D02*
X233739411Y-114380295D01*
X233739411Y-114380295D02*
X233787030Y-114285057D01*
X233787030Y-114285057D02*
X233834649Y-114237438D01*
X233834649Y-114237438D02*
X233929887Y-114189819D01*
X233929887Y-114189819D02*
X234167982Y-114189819D01*
X234167982Y-114189819D02*
X234310839Y-114237438D01*
X235310839Y-115094580D02*
X235263220Y-115142200D01*
X235263220Y-115142200D02*
X235120363Y-115189819D01*
X235120363Y-115189819D02*
X235025125Y-115189819D01*
X235025125Y-115189819D02*
X234882268Y-115142200D01*
X234882268Y-115142200D02*
X234787030Y-115046961D01*
X234787030Y-115046961D02*
X234739411Y-114951723D01*
X234739411Y-114951723D02*
X234691792Y-114761247D01*
X234691792Y-114761247D02*
X234691792Y-114618390D01*
X234691792Y-114618390D02*
X234739411Y-114427914D01*
X234739411Y-114427914D02*
X234787030Y-114332676D01*
X234787030Y-114332676D02*
X234882268Y-114237438D01*
X234882268Y-114237438D02*
X235025125Y-114189819D01*
X235025125Y-114189819D02*
X235120363Y-114189819D01*
X235120363Y-114189819D02*
X235263220Y-114237438D01*
X235263220Y-114237438D02*
X235310839Y-114285057D01*
X235739411Y-115189819D02*
X235739411Y-114189819D01*
X236310839Y-115189819D02*
X235882268Y-114618390D01*
X236310839Y-114189819D02*
X235739411Y-114761247D01*
X234453696Y-107569819D02*
X234120363Y-107093628D01*
X233882268Y-107569819D02*
X233882268Y-106569819D01*
X233882268Y-106569819D02*
X234263220Y-106569819D01*
X234263220Y-106569819D02*
X234358458Y-106617438D01*
X234358458Y-106617438D02*
X234406077Y-106665057D01*
X234406077Y-106665057D02*
X234453696Y-106760295D01*
X234453696Y-106760295D02*
X234453696Y-106903152D01*
X234453696Y-106903152D02*
X234406077Y-106998390D01*
X234406077Y-106998390D02*
X234358458Y-107046009D01*
X234358458Y-107046009D02*
X234263220Y-107093628D01*
X234263220Y-107093628D02*
X233882268Y-107093628D01*
X234882268Y-107046009D02*
X235215601Y-107046009D01*
X235358458Y-107569819D02*
X234882268Y-107569819D01*
X234882268Y-107569819D02*
X234882268Y-106569819D01*
X234882268Y-106569819D02*
X235358458Y-106569819D01*
X235739411Y-107522200D02*
X235882268Y-107569819D01*
X235882268Y-107569819D02*
X236120363Y-107569819D01*
X236120363Y-107569819D02*
X236215601Y-107522200D01*
X236215601Y-107522200D02*
X236263220Y-107474580D01*
X236263220Y-107474580D02*
X236310839Y-107379342D01*
X236310839Y-107379342D02*
X236310839Y-107284104D01*
X236310839Y-107284104D02*
X236263220Y-107188866D01*
X236263220Y-107188866D02*
X236215601Y-107141247D01*
X236215601Y-107141247D02*
X236120363Y-107093628D01*
X236120363Y-107093628D02*
X235929887Y-107046009D01*
X235929887Y-107046009D02*
X235834649Y-106998390D01*
X235834649Y-106998390D02*
X235787030Y-106950771D01*
X235787030Y-106950771D02*
X235739411Y-106855533D01*
X235739411Y-106855533D02*
X235739411Y-106760295D01*
X235739411Y-106760295D02*
X235787030Y-106665057D01*
X235787030Y-106665057D02*
X235834649Y-106617438D01*
X235834649Y-106617438D02*
X235929887Y-106569819D01*
X235929887Y-106569819D02*
X236167982Y-106569819D01*
X236167982Y-106569819D02*
X236310839Y-106617438D01*
X233744173Y-106292200D02*
X236401316Y-106292200D01*
X224869819Y-82070237D02*
X224869819Y-81498809D01*
X225869819Y-81784523D02*
X224869819Y-81784523D01*
X224869819Y-81260713D02*
X225869819Y-81022618D01*
X225869819Y-81022618D02*
X225155533Y-80832142D01*
X225155533Y-80832142D02*
X225869819Y-80641666D01*
X225869819Y-80641666D02*
X224869819Y-80403571D01*
X225869819Y-80022618D02*
X224869819Y-80022618D01*
X224869819Y-88770237D02*
X224869819Y-88198809D01*
X225869819Y-88484523D02*
X224869819Y-88484523D01*
X224869819Y-87960713D02*
X225869819Y-87722618D01*
X225869819Y-87722618D02*
X225155533Y-87532142D01*
X225155533Y-87532142D02*
X225869819Y-87341666D01*
X225869819Y-87341666D02*
X224869819Y-87103571D01*
X225869819Y-86722618D02*
X224869819Y-86722618D01*
X233120364Y-117729819D02*
X233120364Y-116729819D01*
X233120364Y-116729819D02*
X233453697Y-117444104D01*
X233453697Y-117444104D02*
X233787030Y-116729819D01*
X233787030Y-116729819D02*
X233787030Y-117729819D01*
X234263221Y-117729819D02*
X234263221Y-116729819D01*
X234691792Y-117682200D02*
X234834649Y-117729819D01*
X234834649Y-117729819D02*
X235072744Y-117729819D01*
X235072744Y-117729819D02*
X235167982Y-117682200D01*
X235167982Y-117682200D02*
X235215601Y-117634580D01*
X235215601Y-117634580D02*
X235263220Y-117539342D01*
X235263220Y-117539342D02*
X235263220Y-117444104D01*
X235263220Y-117444104D02*
X235215601Y-117348866D01*
X235215601Y-117348866D02*
X235167982Y-117301247D01*
X235167982Y-117301247D02*
X235072744Y-117253628D01*
X235072744Y-117253628D02*
X234882268Y-117206009D01*
X234882268Y-117206009D02*
X234787030Y-117158390D01*
X234787030Y-117158390D02*
X234739411Y-117110771D01*
X234739411Y-117110771D02*
X234691792Y-117015533D01*
X234691792Y-117015533D02*
X234691792Y-116920295D01*
X234691792Y-116920295D02*
X234739411Y-116825057D01*
X234739411Y-116825057D02*
X234787030Y-116777438D01*
X234787030Y-116777438D02*
X234882268Y-116729819D01*
X234882268Y-116729819D02*
X235120363Y-116729819D01*
X235120363Y-116729819D02*
X235263220Y-116777438D01*
X235882268Y-116729819D02*
X236072744Y-116729819D01*
X236072744Y-116729819D02*
X236167982Y-116777438D01*
X236167982Y-116777438D02*
X236263220Y-116872676D01*
X236263220Y-116872676D02*
X236310839Y-117063152D01*
X236310839Y-117063152D02*
X236310839Y-117396485D01*
X236310839Y-117396485D02*
X236263220Y-117586961D01*
X236263220Y-117586961D02*
X236167982Y-117682200D01*
X236167982Y-117682200D02*
X236072744Y-117729819D01*
X236072744Y-117729819D02*
X235882268Y-117729819D01*
X235882268Y-117729819D02*
X235787030Y-117682200D01*
X235787030Y-117682200D02*
X235691792Y-117586961D01*
X235691792Y-117586961D02*
X235644173Y-117396485D01*
X235644173Y-117396485D02*
X235644173Y-117063152D01*
X235644173Y-117063152D02*
X235691792Y-116872676D01*
X235691792Y-116872676D02*
X235787030Y-116777438D01*
X235787030Y-116777438D02*
X235882268Y-116729819D01*
X222641541Y-69606533D02*
X223308207Y-70306533D01*
X223308207Y-69606533D02*
X222641541Y-70306533D01*
X221369819Y-130309523D02*
X220369819Y-130309523D01*
X220369819Y-130309523D02*
X220369819Y-129928571D01*
X220369819Y-129928571D02*
X220417438Y-129833333D01*
X220417438Y-129833333D02*
X220465057Y-129785714D01*
X220465057Y-129785714D02*
X220560295Y-129738095D01*
X220560295Y-129738095D02*
X220703152Y-129738095D01*
X220703152Y-129738095D02*
X220798390Y-129785714D01*
X220798390Y-129785714D02*
X220846009Y-129833333D01*
X220846009Y-129833333D02*
X220893628Y-129928571D01*
X220893628Y-129928571D02*
X220893628Y-130309523D01*
X220369819Y-129119047D02*
X220369819Y-128928571D01*
X220369819Y-128928571D02*
X220417438Y-128833333D01*
X220417438Y-128833333D02*
X220512676Y-128738095D01*
X220512676Y-128738095D02*
X220703152Y-128690476D01*
X220703152Y-128690476D02*
X221036485Y-128690476D01*
X221036485Y-128690476D02*
X221226961Y-128738095D01*
X221226961Y-128738095D02*
X221322200Y-128833333D01*
X221322200Y-128833333D02*
X221369819Y-128928571D01*
X221369819Y-128928571D02*
X221369819Y-129119047D01*
X221369819Y-129119047D02*
X221322200Y-129214285D01*
X221322200Y-129214285D02*
X221226961Y-129309523D01*
X221226961Y-129309523D02*
X221036485Y-129357142D01*
X221036485Y-129357142D02*
X220703152Y-129357142D01*
X220703152Y-129357142D02*
X220512676Y-129309523D01*
X220512676Y-129309523D02*
X220417438Y-129214285D01*
X220417438Y-129214285D02*
X220369819Y-129119047D01*
X220369819Y-128357142D02*
X221369819Y-128119047D01*
X221369819Y-128119047D02*
X220655533Y-127928571D01*
X220655533Y-127928571D02*
X221369819Y-127738095D01*
X221369819Y-127738095D02*
X220369819Y-127500000D01*
X220846009Y-127119047D02*
X220846009Y-126785714D01*
X221369819Y-126642857D02*
X221369819Y-127119047D01*
X221369819Y-127119047D02*
X220369819Y-127119047D01*
X220369819Y-127119047D02*
X220369819Y-126642857D01*
X221369819Y-125642857D02*
X220893628Y-125976190D01*
X221369819Y-126214285D02*
X220369819Y-126214285D01*
X220369819Y-126214285D02*
X220369819Y-125833333D01*
X220369819Y-125833333D02*
X220417438Y-125738095D01*
X220417438Y-125738095D02*
X220465057Y-125690476D01*
X220465057Y-125690476D02*
X220560295Y-125642857D01*
X220560295Y-125642857D02*
X220703152Y-125642857D01*
X220703152Y-125642857D02*
X220798390Y-125690476D01*
X220798390Y-125690476D02*
X220846009Y-125738095D01*
X220846009Y-125738095D02*
X220893628Y-125833333D01*
X220893628Y-125833333D02*
X220893628Y-126214285D01*
X223822200Y-97019047D02*
X223869819Y-96876190D01*
X223869819Y-96876190D02*
X223869819Y-96638095D01*
X223869819Y-96638095D02*
X223822200Y-96542857D01*
X223822200Y-96542857D02*
X223774580Y-96495238D01*
X223774580Y-96495238D02*
X223679342Y-96447619D01*
X223679342Y-96447619D02*
X223584104Y-96447619D01*
X223584104Y-96447619D02*
X223488866Y-96495238D01*
X223488866Y-96495238D02*
X223441247Y-96542857D01*
X223441247Y-96542857D02*
X223393628Y-96638095D01*
X223393628Y-96638095D02*
X223346009Y-96828571D01*
X223346009Y-96828571D02*
X223298390Y-96923809D01*
X223298390Y-96923809D02*
X223250771Y-96971428D01*
X223250771Y-96971428D02*
X223155533Y-97019047D01*
X223155533Y-97019047D02*
X223060295Y-97019047D01*
X223060295Y-97019047D02*
X222965057Y-96971428D01*
X222965057Y-96971428D02*
X222917438Y-96923809D01*
X222917438Y-96923809D02*
X222869819Y-96828571D01*
X222869819Y-96828571D02*
X222869819Y-96590476D01*
X222869819Y-96590476D02*
X222917438Y-96447619D01*
X223346009Y-96019047D02*
X223346009Y-95685714D01*
X223869819Y-95542857D02*
X223869819Y-96019047D01*
X223869819Y-96019047D02*
X222869819Y-96019047D01*
X222869819Y-96019047D02*
X222869819Y-95542857D01*
X223869819Y-94542857D02*
X223393628Y-94876190D01*
X223869819Y-95114285D02*
X222869819Y-95114285D01*
X222869819Y-95114285D02*
X222869819Y-94733333D01*
X222869819Y-94733333D02*
X222917438Y-94638095D01*
X222917438Y-94638095D02*
X222965057Y-94590476D01*
X222965057Y-94590476D02*
X223060295Y-94542857D01*
X223060295Y-94542857D02*
X223203152Y-94542857D01*
X223203152Y-94542857D02*
X223298390Y-94590476D01*
X223298390Y-94590476D02*
X223346009Y-94638095D01*
X223346009Y-94638095D02*
X223393628Y-94733333D01*
X223393628Y-94733333D02*
X223393628Y-95114285D01*
X222869819Y-94257142D02*
X223869819Y-93923809D01*
X223869819Y-93923809D02*
X222869819Y-93590476D01*
X222869819Y-93066666D02*
X222869819Y-92876190D01*
X222869819Y-92876190D02*
X222917438Y-92780952D01*
X222917438Y-92780952D02*
X223012676Y-92685714D01*
X223012676Y-92685714D02*
X223203152Y-92638095D01*
X223203152Y-92638095D02*
X223536485Y-92638095D01*
X223536485Y-92638095D02*
X223726961Y-92685714D01*
X223726961Y-92685714D02*
X223822200Y-92780952D01*
X223822200Y-92780952D02*
X223869819Y-92876190D01*
X223869819Y-92876190D02*
X223869819Y-93066666D01*
X223869819Y-93066666D02*
X223822200Y-93161904D01*
X223822200Y-93161904D02*
X223726961Y-93257142D01*
X223726961Y-93257142D02*
X223536485Y-93304761D01*
X223536485Y-93304761D02*
X223203152Y-93304761D01*
X223203152Y-93304761D02*
X223012676Y-93257142D01*
X223012676Y-93257142D02*
X222917438Y-93161904D01*
X222917438Y-93161904D02*
X222869819Y-93066666D01*
X223584104Y-92257142D02*
X223584104Y-91780952D01*
X223869819Y-92352380D02*
X222869819Y-92019047D01*
X222869819Y-92019047D02*
X223869819Y-91685714D01*
X223822200Y-76690475D02*
X223869819Y-76547618D01*
X223869819Y-76547618D02*
X223869819Y-76309523D01*
X223869819Y-76309523D02*
X223822200Y-76214285D01*
X223822200Y-76214285D02*
X223774580Y-76166666D01*
X223774580Y-76166666D02*
X223679342Y-76119047D01*
X223679342Y-76119047D02*
X223584104Y-76119047D01*
X223584104Y-76119047D02*
X223488866Y-76166666D01*
X223488866Y-76166666D02*
X223441247Y-76214285D01*
X223441247Y-76214285D02*
X223393628Y-76309523D01*
X223393628Y-76309523D02*
X223346009Y-76499999D01*
X223346009Y-76499999D02*
X223298390Y-76595237D01*
X223298390Y-76595237D02*
X223250771Y-76642856D01*
X223250771Y-76642856D02*
X223155533Y-76690475D01*
X223155533Y-76690475D02*
X223060295Y-76690475D01*
X223060295Y-76690475D02*
X222965057Y-76642856D01*
X222965057Y-76642856D02*
X222917438Y-76595237D01*
X222917438Y-76595237D02*
X222869819Y-76499999D01*
X222869819Y-76499999D02*
X222869819Y-76261904D01*
X222869819Y-76261904D02*
X222917438Y-76119047D01*
X223346009Y-75690475D02*
X223346009Y-75357142D01*
X223869819Y-75214285D02*
X223869819Y-75690475D01*
X223869819Y-75690475D02*
X222869819Y-75690475D01*
X222869819Y-75690475D02*
X222869819Y-75214285D01*
X223869819Y-74214285D02*
X223393628Y-74547618D01*
X223869819Y-74785713D02*
X222869819Y-74785713D01*
X222869819Y-74785713D02*
X222869819Y-74404761D01*
X222869819Y-74404761D02*
X222917438Y-74309523D01*
X222917438Y-74309523D02*
X222965057Y-74261904D01*
X222965057Y-74261904D02*
X223060295Y-74214285D01*
X223060295Y-74214285D02*
X223203152Y-74214285D01*
X223203152Y-74214285D02*
X223298390Y-74261904D01*
X223298390Y-74261904D02*
X223346009Y-74309523D01*
X223346009Y-74309523D02*
X223393628Y-74404761D01*
X223393628Y-74404761D02*
X223393628Y-74785713D01*
X222869819Y-73928570D02*
X223869819Y-73595237D01*
X223869819Y-73595237D02*
X222869819Y-73261904D01*
X222869819Y-72738094D02*
X222869819Y-72547618D01*
X222869819Y-72547618D02*
X222917438Y-72452380D01*
X222917438Y-72452380D02*
X223012676Y-72357142D01*
X223012676Y-72357142D02*
X223203152Y-72309523D01*
X223203152Y-72309523D02*
X223536485Y-72309523D01*
X223536485Y-72309523D02*
X223726961Y-72357142D01*
X223726961Y-72357142D02*
X223822200Y-72452380D01*
X223822200Y-72452380D02*
X223869819Y-72547618D01*
X223869819Y-72547618D02*
X223869819Y-72738094D01*
X223869819Y-72738094D02*
X223822200Y-72833332D01*
X223822200Y-72833332D02*
X223726961Y-72928570D01*
X223726961Y-72928570D02*
X223536485Y-72976189D01*
X223536485Y-72976189D02*
X223203152Y-72976189D01*
X223203152Y-72976189D02*
X223012676Y-72928570D01*
X223012676Y-72928570D02*
X222917438Y-72833332D01*
X222917438Y-72833332D02*
X222869819Y-72738094D01*
X223869819Y-71880951D02*
X222869819Y-71880951D01*
X222869819Y-71880951D02*
X222869819Y-71642856D01*
X222869819Y-71642856D02*
X222917438Y-71499999D01*
X222917438Y-71499999D02*
X223012676Y-71404761D01*
X223012676Y-71404761D02*
X223107914Y-71357142D01*
X223107914Y-71357142D02*
X223298390Y-71309523D01*
X223298390Y-71309523D02*
X223441247Y-71309523D01*
X223441247Y-71309523D02*
X223631723Y-71357142D01*
X223631723Y-71357142D02*
X223726961Y-71404761D01*
X223726961Y-71404761D02*
X223822200Y-71499999D01*
X223822200Y-71499999D02*
X223869819Y-71642856D01*
X223869819Y-71642856D02*
X223869819Y-71880951D01*
D10*
G36*
X221123604Y-61023970D02*
G01*
X221154965Y-61025994D01*
X221298503Y-61036905D01*
X221422140Y-61049655D01*
X221548485Y-61068387D01*
X221672120Y-61096527D01*
X221792219Y-61139375D01*
X221814214Y-61149448D01*
X221932227Y-61219231D01*
X222025920Y-61304499D01*
X222103783Y-61422550D01*
X222142963Y-61538799D01*
X222156140Y-61668161D01*
X222147207Y-61811865D01*
X222121525Y-61960879D01*
X222090048Y-62080572D01*
X222049784Y-62197931D01*
X222001591Y-62310410D01*
X221931509Y-62440266D01*
X221852058Y-62553541D01*
X221838800Y-62569377D01*
X221742378Y-62665005D01*
X221643091Y-62743457D01*
X221530421Y-62818308D01*
X221407959Y-62887240D01*
X221279297Y-62947931D01*
X221148028Y-62998063D01*
X221079672Y-63020478D01*
X220952779Y-63048645D01*
X220817549Y-63063440D01*
X220671936Y-63070561D01*
X220526119Y-63073603D01*
X220396018Y-63074688D01*
X220245551Y-63075000D01*
X219800418Y-63075000D01*
X219968946Y-62914410D01*
X220036532Y-62908102D01*
X220057416Y-62904030D01*
X220339584Y-62904030D01*
X220787770Y-62918073D01*
X220840282Y-62918073D01*
X220873611Y-62917825D01*
X220998377Y-62911704D01*
X221136720Y-62891803D01*
X221258006Y-62857183D01*
X221384833Y-62794537D01*
X221495645Y-62706932D01*
X221579117Y-62613381D01*
X221636075Y-62530928D01*
X221700410Y-62409505D01*
X221755555Y-62272784D01*
X221791926Y-62156064D01*
X221820484Y-62035849D01*
X221843885Y-61884928D01*
X221852058Y-61738381D01*
X221847343Y-61652517D01*
X221817249Y-61513754D01*
X221761133Y-61392879D01*
X221681066Y-61293687D01*
X221579117Y-61219975D01*
X221471061Y-61177192D01*
X221349655Y-61152307D01*
X221227196Y-61139809D01*
X221095516Y-61132658D01*
X220903175Y-61892254D01*
X220888850Y-61949847D01*
X220850382Y-62102199D01*
X220816507Y-62227796D01*
X220773668Y-62362287D01*
X220714573Y-62494083D01*
X220637277Y-62607141D01*
X220553666Y-62699657D01*
X220443545Y-62806859D01*
X220339584Y-62904030D01*
X220057416Y-62904030D01*
X220179265Y-62880271D01*
X220290602Y-62827974D01*
X220378147Y-62742169D01*
X220449503Y-62613814D01*
X220500040Y-62474417D01*
X220536679Y-62345415D01*
X220574057Y-62193283D01*
X220836618Y-61150366D01*
X220791386Y-61155519D01*
X220663852Y-61177824D01*
X220513054Y-61223372D01*
X220384552Y-61286722D01*
X220278676Y-61367589D01*
X220195755Y-61465687D01*
X220136119Y-61580729D01*
X220100095Y-61712430D01*
X220088014Y-61860502D01*
X220090549Y-61933114D01*
X220112438Y-62056507D01*
X219825453Y-62185956D01*
X219810177Y-62115209D01*
X219800418Y-61989951D01*
X219804225Y-61907021D01*
X219827581Y-61776276D01*
X219872380Y-61654387D01*
X219938834Y-61540793D01*
X220027151Y-61434936D01*
X220137541Y-61336258D01*
X220241887Y-61262107D01*
X220259282Y-61251108D01*
X220382117Y-61182680D01*
X220511701Y-61127358D01*
X220633320Y-61088362D01*
X220769211Y-61055385D01*
X220896458Y-61031297D01*
X221148028Y-60926273D01*
X221123604Y-61023970D01*
G37*
G36*
X223096597Y-61634395D02*
G01*
X223206082Y-61701854D01*
X223241189Y-61825087D01*
X223223371Y-61949956D01*
X223165298Y-62063995D01*
X223074282Y-62163912D01*
X222978628Y-62242131D01*
X222941156Y-62270131D01*
X222841432Y-62343912D01*
X222728737Y-62424856D01*
X222624514Y-62495953D01*
X222512735Y-62568196D01*
X222513754Y-62640587D01*
X222530443Y-62764200D01*
X222598296Y-62873728D01*
X222716067Y-62915020D01*
X222728600Y-62914761D01*
X222849316Y-62887360D01*
X222959627Y-62831236D01*
X223071531Y-62755624D01*
X223180433Y-62671338D01*
X223279658Y-62588956D01*
X223275994Y-62690928D01*
X223226736Y-62740055D01*
X223128336Y-62829971D01*
X223030708Y-62908392D01*
X222910893Y-62989565D01*
X222794902Y-63051192D01*
X222662807Y-63098103D01*
X222540823Y-63114078D01*
X222434217Y-63096045D01*
X222330469Y-63023556D01*
X222269031Y-62902090D01*
X222253838Y-62778244D01*
X222254183Y-62751339D01*
X222265703Y-62609987D01*
X222291780Y-62462727D01*
X222297270Y-62441800D01*
X222523726Y-62441800D01*
X222557079Y-62420170D01*
X222675699Y-62340129D01*
X222792900Y-62252113D01*
X222892838Y-62158555D01*
X222967485Y-62042263D01*
X222989009Y-61919731D01*
X222983704Y-61867162D01*
X222894364Y-61776238D01*
X222779866Y-61827081D01*
X222698842Y-61924865D01*
X222637748Y-62039121D01*
X222584987Y-62178352D01*
X222550346Y-62304684D01*
X222523726Y-62441800D01*
X222297270Y-62441800D01*
X222330011Y-62317007D01*
X222377991Y-62180276D01*
X222433316Y-62059983D01*
X222506018Y-61947819D01*
X222519748Y-61932012D01*
X222613410Y-61842349D01*
X222719986Y-61761064D01*
X222827808Y-61692585D01*
X222918550Y-61649983D01*
X223041521Y-61629082D01*
X223096597Y-61634395D01*
G37*
G36*
X224232815Y-62626814D02*
G01*
X224126585Y-62689252D01*
X224022427Y-62754380D01*
X224008722Y-62762979D01*
X223898090Y-62826103D01*
X223809665Y-62853960D01*
X223746772Y-62762979D01*
X223746772Y-62731228D01*
X223746772Y-62700087D01*
X223767444Y-62578755D01*
X223795078Y-62449366D01*
X223831498Y-62288034D01*
X223863272Y-62151721D01*
X223897846Y-62006682D01*
X223934305Y-61856876D01*
X223971729Y-61706266D01*
X224009202Y-61558812D01*
X224033757Y-61464218D01*
X224069487Y-61330335D01*
X224110498Y-61185989D01*
X224154840Y-61053904D01*
X224213290Y-60942904D01*
X224328072Y-60887382D01*
X224355547Y-60886584D01*
X224478227Y-60899989D01*
X224527128Y-60911618D01*
X224677337Y-60725994D01*
X224554977Y-60705472D01*
X224519801Y-60704623D01*
X224394983Y-60721516D01*
X224271306Y-60778235D01*
X224161690Y-60858370D01*
X224100314Y-60911618D01*
X224004286Y-61001082D01*
X223922149Y-61100879D01*
X223866397Y-61218152D01*
X223862177Y-61229745D01*
X223824291Y-61357035D01*
X223789602Y-61483325D01*
X223754672Y-61616660D01*
X223725176Y-61736408D01*
X223721737Y-61751203D01*
X223470167Y-62847243D01*
X223462840Y-62910136D01*
X223488169Y-63033989D01*
X223573025Y-63123543D01*
X223578244Y-63123848D01*
X223599616Y-63123848D01*
X223609996Y-63123848D01*
X223728998Y-63061392D01*
X223849967Y-62977974D01*
X223962625Y-62898035D01*
X224066306Y-62823732D01*
X224188002Y-62736090D01*
X224232815Y-62703750D01*
X224232815Y-62626814D01*
G37*
G36*
X225269016Y-62628035D02*
G01*
X225155392Y-62695848D01*
X225045785Y-62758589D01*
X224928680Y-62818558D01*
X224842201Y-62844801D01*
X224755125Y-62752735D01*
X224740840Y-62680547D01*
X224759286Y-62558242D01*
X224790478Y-62422050D01*
X224821441Y-62288538D01*
X224850665Y-62167054D01*
X224866625Y-62092533D01*
X224891050Y-61994225D01*
X225021717Y-61988944D01*
X225150195Y-61981860D01*
X225237875Y-61976517D01*
X225370987Y-61875157D01*
X224922801Y-61875157D01*
X224950279Y-61753054D01*
X224957606Y-61717620D01*
X224990663Y-61596001D01*
X225024650Y-61465907D01*
X225041870Y-61399494D01*
X225062630Y-61308513D01*
X225003401Y-61339654D01*
X224915474Y-61378122D01*
X224835484Y-61416591D01*
X224786025Y-61437962D01*
X224754884Y-61581454D01*
X224716416Y-61749371D01*
X224688328Y-61875157D01*
X224625436Y-61878820D01*
X224541172Y-61878820D01*
X224488660Y-61882484D01*
X224453855Y-61903244D01*
X224387299Y-61955757D01*
X224334787Y-61994225D01*
X224418440Y-61994225D01*
X224579640Y-61994225D01*
X224656577Y-61994225D01*
X224621772Y-62148098D01*
X224583206Y-62306668D01*
X224551848Y-62436172D01*
X224519961Y-62569880D01*
X224489805Y-62704361D01*
X224471527Y-62832620D01*
X224470952Y-62879605D01*
X224497839Y-63003167D01*
X224573716Y-63102068D01*
X224611392Y-63114078D01*
X224728808Y-63073008D01*
X224839759Y-63010428D01*
X224953182Y-62937661D01*
X225056597Y-62866476D01*
X225170474Y-62784164D01*
X225262299Y-62715352D01*
X225269016Y-62628035D01*
G37*
G36*
X226367794Y-61629461D02*
G01*
X226501275Y-61636731D01*
X226634275Y-61654702D01*
X226766224Y-61681594D01*
X226743204Y-61707607D01*
X226664863Y-61807990D01*
X226629770Y-61939877D01*
X226597410Y-62065046D01*
X226558785Y-62220115D01*
X226525671Y-62359945D01*
X226498438Y-62482656D01*
X226473235Y-62609103D01*
X226454815Y-62750157D01*
X226496946Y-62820376D01*
X226525096Y-62814206D01*
X226632866Y-62753532D01*
X226740641Y-62682386D01*
X226846824Y-62610327D01*
X226843161Y-62715352D01*
X226746296Y-62785359D01*
X226636949Y-62861769D01*
X226528087Y-62935781D01*
X226444762Y-62990776D01*
X226328973Y-63064645D01*
X226206297Y-63114078D01*
X226150122Y-63040806D01*
X226154553Y-62984469D01*
X226175741Y-62859449D01*
X226202634Y-62729396D01*
X226162579Y-62758220D01*
X226053190Y-62836386D01*
X225930551Y-62922424D01*
X225809910Y-63003649D01*
X225690404Y-63075438D01*
X225572487Y-63114078D01*
X225494498Y-63076724D01*
X225441768Y-62961533D01*
X225428995Y-62834420D01*
X225438917Y-62689469D01*
X225442139Y-62669556D01*
X225698883Y-62669556D01*
X225706219Y-62752317D01*
X225789863Y-62844801D01*
X225819969Y-62840091D01*
X225931949Y-62790810D01*
X226041434Y-62725732D01*
X226125342Y-62663494D01*
X226230722Y-62585293D01*
X226262473Y-62466224D01*
X226266332Y-62449207D01*
X226293891Y-62323685D01*
X226321702Y-62200000D01*
X226351938Y-62083303D01*
X226384849Y-61961841D01*
X226419399Y-61836078D01*
X226376068Y-61826046D01*
X226251024Y-61802647D01*
X226122034Y-61790282D01*
X226089616Y-61792267D01*
X225977335Y-61843576D01*
X225896820Y-61946821D01*
X225842376Y-62056507D01*
X225795349Y-62173308D01*
X225756992Y-62292823D01*
X225727860Y-62411838D01*
X225706274Y-62545773D01*
X225698883Y-62669556D01*
X225442139Y-62669556D01*
X225459623Y-62561516D01*
X225489724Y-62429431D01*
X225527416Y-62299239D01*
X225570898Y-62176964D01*
X225630643Y-62044433D01*
X225705600Y-61930722D01*
X225715337Y-61920784D01*
X225813435Y-61839919D01*
X225915598Y-61767690D01*
X226024337Y-61699302D01*
X226080130Y-61668190D01*
X226199693Y-61635201D01*
X226325366Y-61629082D01*
X226367794Y-61629461D01*
G37*
G36*
X227026343Y-62478436D02*
G01*
X227334699Y-62471720D01*
X227462617Y-62476719D01*
X227484909Y-62478436D01*
X227556473Y-62370102D01*
X227632063Y-62270572D01*
X227642445Y-62258007D01*
X227611304Y-62258007D01*
X227324319Y-62254344D01*
X227197536Y-62256544D01*
X227163119Y-62258007D01*
X227083053Y-62351277D01*
X227011867Y-62452434D01*
X226995202Y-62478436D01*
X227026343Y-62478436D01*
G37*
D12*
X223822200Y-83490475D02*
X223869819Y-83347618D01*
X223869819Y-83347618D02*
X223869819Y-83109523D01*
X223869819Y-83109523D02*
X223822200Y-83014285D01*
X223822200Y-83014285D02*
X223774580Y-82966666D01*
X223774580Y-82966666D02*
X223679342Y-82919047D01*
X223679342Y-82919047D02*
X223584104Y-82919047D01*
X223584104Y-82919047D02*
X223488866Y-82966666D01*
X223488866Y-82966666D02*
X223441247Y-83014285D01*
X223441247Y-83014285D02*
X223393628Y-83109523D01*
X223393628Y-83109523D02*
X223346009Y-83299999D01*
X223346009Y-83299999D02*
X223298390Y-83395237D01*
X223298390Y-83395237D02*
X223250771Y-83442856D01*
X223250771Y-83442856D02*
X223155533Y-83490475D01*
X223155533Y-83490475D02*
X223060295Y-83490475D01*
X223060295Y-83490475D02*
X222965057Y-83442856D01*
X222965057Y-83442856D02*
X222917438Y-83395237D01*
X222917438Y-83395237D02*
X222869819Y-83299999D01*
X222869819Y-83299999D02*
X222869819Y-83061904D01*
X222869819Y-83061904D02*
X222917438Y-82919047D01*
X223346009Y-82490475D02*
X223346009Y-82157142D01*
X223869819Y-82014285D02*
X223869819Y-82490475D01*
X223869819Y-82490475D02*
X222869819Y-82490475D01*
X222869819Y-82490475D02*
X222869819Y-82014285D01*
X223869819Y-81014285D02*
X223393628Y-81347618D01*
X223869819Y-81585713D02*
X222869819Y-81585713D01*
X222869819Y-81585713D02*
X222869819Y-81204761D01*
X222869819Y-81204761D02*
X222917438Y-81109523D01*
X222917438Y-81109523D02*
X222965057Y-81061904D01*
X222965057Y-81061904D02*
X223060295Y-81014285D01*
X223060295Y-81014285D02*
X223203152Y-81014285D01*
X223203152Y-81014285D02*
X223298390Y-81061904D01*
X223298390Y-81061904D02*
X223346009Y-81109523D01*
X223346009Y-81109523D02*
X223393628Y-81204761D01*
X223393628Y-81204761D02*
X223393628Y-81585713D01*
X222869819Y-80728570D02*
X223869819Y-80395237D01*
X223869819Y-80395237D02*
X222869819Y-80061904D01*
X222869819Y-79538094D02*
X222869819Y-79347618D01*
X222869819Y-79347618D02*
X222917438Y-79252380D01*
X222917438Y-79252380D02*
X223012676Y-79157142D01*
X223012676Y-79157142D02*
X223203152Y-79109523D01*
X223203152Y-79109523D02*
X223536485Y-79109523D01*
X223536485Y-79109523D02*
X223726961Y-79157142D01*
X223726961Y-79157142D02*
X223822200Y-79252380D01*
X223822200Y-79252380D02*
X223869819Y-79347618D01*
X223869819Y-79347618D02*
X223869819Y-79538094D01*
X223869819Y-79538094D02*
X223822200Y-79633332D01*
X223822200Y-79633332D02*
X223726961Y-79728570D01*
X223726961Y-79728570D02*
X223536485Y-79776189D01*
X223536485Y-79776189D02*
X223203152Y-79776189D01*
X223203152Y-79776189D02*
X223012676Y-79728570D01*
X223012676Y-79728570D02*
X222917438Y-79633332D01*
X222917438Y-79633332D02*
X222869819Y-79538094D01*
X223774580Y-78109523D02*
X223822200Y-78157142D01*
X223822200Y-78157142D02*
X223869819Y-78299999D01*
X223869819Y-78299999D02*
X223869819Y-78395237D01*
X223869819Y-78395237D02*
X223822200Y-78538094D01*
X223822200Y-78538094D02*
X223726961Y-78633332D01*
X223726961Y-78633332D02*
X223631723Y-78680951D01*
X223631723Y-78680951D02*
X223441247Y-78728570D01*
X223441247Y-78728570D02*
X223298390Y-78728570D01*
X223298390Y-78728570D02*
X223107914Y-78680951D01*
X223107914Y-78680951D02*
X223012676Y-78633332D01*
X223012676Y-78633332D02*
X222917438Y-78538094D01*
X222917438Y-78538094D02*
X222869819Y-78395237D01*
X222869819Y-78395237D02*
X222869819Y-78299999D01*
X222869819Y-78299999D02*
X222917438Y-78157142D01*
X222917438Y-78157142D02*
X222965057Y-78109523D01*
X230584104Y-130404761D02*
X230584104Y-129928571D01*
X230869819Y-130499999D02*
X229869819Y-130166666D01*
X229869819Y-130166666D02*
X230869819Y-129833333D01*
X230774580Y-128928571D02*
X230822200Y-128976190D01*
X230822200Y-128976190D02*
X230869819Y-129119047D01*
X230869819Y-129119047D02*
X230869819Y-129214285D01*
X230869819Y-129214285D02*
X230822200Y-129357142D01*
X230822200Y-129357142D02*
X230726961Y-129452380D01*
X230726961Y-129452380D02*
X230631723Y-129499999D01*
X230631723Y-129499999D02*
X230441247Y-129547618D01*
X230441247Y-129547618D02*
X230298390Y-129547618D01*
X230298390Y-129547618D02*
X230107914Y-129499999D01*
X230107914Y-129499999D02*
X230012676Y-129452380D01*
X230012676Y-129452380D02*
X229917438Y-129357142D01*
X229917438Y-129357142D02*
X229869819Y-129214285D01*
X229869819Y-129214285D02*
X229869819Y-129119047D01*
X229869819Y-129119047D02*
X229917438Y-128976190D01*
X229917438Y-128976190D02*
X229965057Y-128928571D01*
X229869819Y-128642856D02*
X229869819Y-128071428D01*
X230869819Y-128357142D02*
X229869819Y-128357142D01*
X230869819Y-127738094D02*
X229869819Y-127738094D01*
X229869819Y-127071428D02*
X229869819Y-126880952D01*
X229869819Y-126880952D02*
X229917438Y-126785714D01*
X229917438Y-126785714D02*
X230012676Y-126690476D01*
X230012676Y-126690476D02*
X230203152Y-126642857D01*
X230203152Y-126642857D02*
X230536485Y-126642857D01*
X230536485Y-126642857D02*
X230726961Y-126690476D01*
X230726961Y-126690476D02*
X230822200Y-126785714D01*
X230822200Y-126785714D02*
X230869819Y-126880952D01*
X230869819Y-126880952D02*
X230869819Y-127071428D01*
X230869819Y-127071428D02*
X230822200Y-127166666D01*
X230822200Y-127166666D02*
X230726961Y-127261904D01*
X230726961Y-127261904D02*
X230536485Y-127309523D01*
X230536485Y-127309523D02*
X230203152Y-127309523D01*
X230203152Y-127309523D02*
X230012676Y-127261904D01*
X230012676Y-127261904D02*
X229917438Y-127166666D01*
X229917438Y-127166666D02*
X229869819Y-127071428D01*
X230869819Y-126214285D02*
X229869819Y-126214285D01*
X229869819Y-126214285D02*
X230869819Y-125642857D01*
X230869819Y-125642857D02*
X229869819Y-125642857D01*
X233882268Y-104029819D02*
X234501315Y-104029819D01*
X234501315Y-104029819D02*
X234167982Y-104410771D01*
X234167982Y-104410771D02*
X234310839Y-104410771D01*
X234310839Y-104410771D02*
X234406077Y-104458390D01*
X234406077Y-104458390D02*
X234453696Y-104506009D01*
X234453696Y-104506009D02*
X234501315Y-104601247D01*
X234501315Y-104601247D02*
X234501315Y-104839342D01*
X234501315Y-104839342D02*
X234453696Y-104934580D01*
X234453696Y-104934580D02*
X234406077Y-104982200D01*
X234406077Y-104982200D02*
X234310839Y-105029819D01*
X234310839Y-105029819D02*
X234025125Y-105029819D01*
X234025125Y-105029819D02*
X233929887Y-104982200D01*
X233929887Y-104982200D02*
X233882268Y-104934580D01*
X234787030Y-104029819D02*
X235120363Y-105029819D01*
X235120363Y-105029819D02*
X235453696Y-104029819D01*
X235691792Y-104029819D02*
X236310839Y-104029819D01*
X236310839Y-104029819D02*
X235977506Y-104410771D01*
X235977506Y-104410771D02*
X236120363Y-104410771D01*
X236120363Y-104410771D02*
X236215601Y-104458390D01*
X236215601Y-104458390D02*
X236263220Y-104506009D01*
X236263220Y-104506009D02*
X236310839Y-104601247D01*
X236310839Y-104601247D02*
X236310839Y-104839342D01*
X236310839Y-104839342D02*
X236263220Y-104934580D01*
X236263220Y-104934580D02*
X236215601Y-104982200D01*
X236215601Y-104982200D02*
X236120363Y-105029819D01*
X236120363Y-105029819D02*
X235834649Y-105029819D01*
X235834649Y-105029819D02*
X235739411Y-104982200D01*
X235739411Y-104982200D02*
X235691792Y-104934580D01*
D14*
X223285237Y-101167219D02*
X222809047Y-101167219D01*
X222809047Y-101167219D02*
X222809047Y-100167219D01*
X224142380Y-100214838D02*
X224047142Y-100167219D01*
X224047142Y-100167219D02*
X223904285Y-100167219D01*
X223904285Y-100167219D02*
X223761428Y-100214838D01*
X223761428Y-100214838D02*
X223666190Y-100310076D01*
X223666190Y-100310076D02*
X223618571Y-100405314D01*
X223618571Y-100405314D02*
X223570952Y-100595790D01*
X223570952Y-100595790D02*
X223570952Y-100738647D01*
X223570952Y-100738647D02*
X223618571Y-100929123D01*
X223618571Y-100929123D02*
X223666190Y-101024361D01*
X223666190Y-101024361D02*
X223761428Y-101119600D01*
X223761428Y-101119600D02*
X223904285Y-101167219D01*
X223904285Y-101167219D02*
X223999523Y-101167219D01*
X223999523Y-101167219D02*
X224142380Y-101119600D01*
X224142380Y-101119600D02*
X224189999Y-101071980D01*
X224189999Y-101071980D02*
X224189999Y-100738647D01*
X224189999Y-100738647D02*
X223999523Y-100738647D01*
X224475714Y-100167219D02*
X225047142Y-100167219D01*
X224761428Y-101167219D02*
X224761428Y-100167219D01*
X225523333Y-100595790D02*
X225428095Y-100548171D01*
X225428095Y-100548171D02*
X225380476Y-100500552D01*
X225380476Y-100500552D02*
X225332857Y-100405314D01*
X225332857Y-100405314D02*
X225332857Y-100357695D01*
X225332857Y-100357695D02*
X225380476Y-100262457D01*
X225380476Y-100262457D02*
X225428095Y-100214838D01*
X225428095Y-100214838D02*
X225523333Y-100167219D01*
X225523333Y-100167219D02*
X225713809Y-100167219D01*
X225713809Y-100167219D02*
X225809047Y-100214838D01*
X225809047Y-100214838D02*
X225856666Y-100262457D01*
X225856666Y-100262457D02*
X225904285Y-100357695D01*
X225904285Y-100357695D02*
X225904285Y-100405314D01*
X225904285Y-100405314D02*
X225856666Y-100500552D01*
X225856666Y-100500552D02*
X225809047Y-100548171D01*
X225809047Y-100548171D02*
X225713809Y-100595790D01*
X225713809Y-100595790D02*
X225523333Y-100595790D01*
X225523333Y-100595790D02*
X225428095Y-100643409D01*
X225428095Y-100643409D02*
X225380476Y-100691028D01*
X225380476Y-100691028D02*
X225332857Y-100786266D01*
X225332857Y-100786266D02*
X225332857Y-100976742D01*
X225332857Y-100976742D02*
X225380476Y-101071980D01*
X225380476Y-101071980D02*
X225428095Y-101119600D01*
X225428095Y-101119600D02*
X225523333Y-101167219D01*
X225523333Y-101167219D02*
X225713809Y-101167219D01*
X225713809Y-101167219D02*
X225809047Y-101119600D01*
X225809047Y-101119600D02*
X225856666Y-101071980D01*
X225856666Y-101071980D02*
X225904285Y-100976742D01*
X225904285Y-100976742D02*
X225904285Y-100786266D01*
X225904285Y-100786266D02*
X225856666Y-100691028D01*
X225856666Y-100691028D02*
X225809047Y-100643409D01*
X225809047Y-100643409D02*
X225713809Y-100595790D01*
X226666190Y-100643409D02*
X226332857Y-100643409D01*
X226332857Y-101167219D02*
X226332857Y-100167219D01*
X226332857Y-100167219D02*
X226809047Y-100167219D01*
X227094762Y-100167219D02*
X227713809Y-100167219D01*
X227713809Y-100167219D02*
X227380476Y-100548171D01*
X227380476Y-100548171D02*
X227523333Y-100548171D01*
X227523333Y-100548171D02*
X227618571Y-100595790D01*
X227618571Y-100595790D02*
X227666190Y-100643409D01*
X227666190Y-100643409D02*
X227713809Y-100738647D01*
X227713809Y-100738647D02*
X227713809Y-100976742D01*
X227713809Y-100976742D02*
X227666190Y-101071980D01*
X227666190Y-101071980D02*
X227618571Y-101119600D01*
X227618571Y-101119600D02*
X227523333Y-101167219D01*
X227523333Y-101167219D02*
X227237619Y-101167219D01*
X227237619Y-101167219D02*
X227142381Y-101119600D01*
X227142381Y-101119600D02*
X227094762Y-101071980D01*
X228094762Y-100262457D02*
X228142381Y-100214838D01*
X228142381Y-100214838D02*
X228237619Y-100167219D01*
X228237619Y-100167219D02*
X228475714Y-100167219D01*
X228475714Y-100167219D02*
X228570952Y-100214838D01*
X228570952Y-100214838D02*
X228618571Y-100262457D01*
X228618571Y-100262457D02*
X228666190Y-100357695D01*
X228666190Y-100357695D02*
X228666190Y-100452933D01*
X228666190Y-100452933D02*
X228618571Y-100595790D01*
X228618571Y-100595790D02*
X228047143Y-101167219D01*
X228047143Y-101167219D02*
X228666190Y-101167219D01*
X229237619Y-100595790D02*
X229142381Y-100548171D01*
X229142381Y-100548171D02*
X229094762Y-100500552D01*
X229094762Y-100500552D02*
X229047143Y-100405314D01*
X229047143Y-100405314D02*
X229047143Y-100357695D01*
X229047143Y-100357695D02*
X229094762Y-100262457D01*
X229094762Y-100262457D02*
X229142381Y-100214838D01*
X229142381Y-100214838D02*
X229237619Y-100167219D01*
X229237619Y-100167219D02*
X229428095Y-100167219D01*
X229428095Y-100167219D02*
X229523333Y-100214838D01*
X229523333Y-100214838D02*
X229570952Y-100262457D01*
X229570952Y-100262457D02*
X229618571Y-100357695D01*
X229618571Y-100357695D02*
X229618571Y-100405314D01*
X229618571Y-100405314D02*
X229570952Y-100500552D01*
X229570952Y-100500552D02*
X229523333Y-100548171D01*
X229523333Y-100548171D02*
X229428095Y-100595790D01*
X229428095Y-100595790D02*
X229237619Y-100595790D01*
X229237619Y-100595790D02*
X229142381Y-100643409D01*
X229142381Y-100643409D02*
X229094762Y-100691028D01*
X229094762Y-100691028D02*
X229047143Y-100786266D01*
X229047143Y-100786266D02*
X229047143Y-100976742D01*
X229047143Y-100976742D02*
X229094762Y-101071980D01*
X229094762Y-101071980D02*
X229142381Y-101119600D01*
X229142381Y-101119600D02*
X229237619Y-101167219D01*
X229237619Y-101167219D02*
X229428095Y-101167219D01*
X229428095Y-101167219D02*
X229523333Y-101119600D01*
X229523333Y-101119600D02*
X229570952Y-101071980D01*
X229570952Y-101071980D02*
X229618571Y-100976742D01*
X229618571Y-100976742D02*
X229618571Y-100786266D01*
X229618571Y-100786266D02*
X229570952Y-100691028D01*
X229570952Y-100691028D02*
X229523333Y-100643409D01*
X229523333Y-100643409D02*
X229428095Y-100595790D01*
X230047143Y-101167219D02*
X230047143Y-100167219D01*
X230047143Y-100167219D02*
X230428095Y-100167219D01*
X230428095Y-100167219D02*
X230523333Y-100214838D01*
X230523333Y-100214838D02*
X230570952Y-100262457D01*
X230570952Y-100262457D02*
X230618571Y-100357695D01*
X230618571Y-100357695D02*
X230618571Y-100500552D01*
X230618571Y-100500552D02*
X230570952Y-100595790D01*
X230570952Y-100595790D02*
X230523333Y-100643409D01*
X230523333Y-100643409D02*
X230428095Y-100691028D01*
X230428095Y-100691028D02*
X230047143Y-100691028D01*
D12*
X233596554Y-112602200D02*
X233739411Y-112649819D01*
X233739411Y-112649819D02*
X233977506Y-112649819D01*
X233977506Y-112649819D02*
X234072744Y-112602200D01*
X234072744Y-112602200D02*
X234120363Y-112554580D01*
X234120363Y-112554580D02*
X234167982Y-112459342D01*
X234167982Y-112459342D02*
X234167982Y-112364104D01*
X234167982Y-112364104D02*
X234120363Y-112268866D01*
X234120363Y-112268866D02*
X234072744Y-112221247D01*
X234072744Y-112221247D02*
X233977506Y-112173628D01*
X233977506Y-112173628D02*
X233787030Y-112126009D01*
X233787030Y-112126009D02*
X233691792Y-112078390D01*
X233691792Y-112078390D02*
X233644173Y-112030771D01*
X233644173Y-112030771D02*
X233596554Y-111935533D01*
X233596554Y-111935533D02*
X233596554Y-111840295D01*
X233596554Y-111840295D02*
X233644173Y-111745057D01*
X233644173Y-111745057D02*
X233691792Y-111697438D01*
X233691792Y-111697438D02*
X233787030Y-111649819D01*
X233787030Y-111649819D02*
X234025125Y-111649819D01*
X234025125Y-111649819D02*
X234167982Y-111697438D01*
X234501316Y-111649819D02*
X234739411Y-112649819D01*
X234739411Y-112649819D02*
X234929887Y-111935533D01*
X234929887Y-111935533D02*
X235120363Y-112649819D01*
X235120363Y-112649819D02*
X235358459Y-111649819D01*
X236310839Y-112554580D02*
X236263220Y-112602200D01*
X236263220Y-112602200D02*
X236120363Y-112649819D01*
X236120363Y-112649819D02*
X236025125Y-112649819D01*
X236025125Y-112649819D02*
X235882268Y-112602200D01*
X235882268Y-112602200D02*
X235787030Y-112506961D01*
X235787030Y-112506961D02*
X235739411Y-112411723D01*
X235739411Y-112411723D02*
X235691792Y-112221247D01*
X235691792Y-112221247D02*
X235691792Y-112078390D01*
X235691792Y-112078390D02*
X235739411Y-111887914D01*
X235739411Y-111887914D02*
X235787030Y-111792676D01*
X235787030Y-111792676D02*
X235882268Y-111697438D01*
X235882268Y-111697438D02*
X236025125Y-111649819D01*
X236025125Y-111649819D02*
X236120363Y-111649819D01*
X236120363Y-111649819D02*
X236263220Y-111697438D01*
X236263220Y-111697438D02*
X236310839Y-111745057D01*
X204333333Y-113359580D02*
X204285714Y-113407200D01*
X204285714Y-113407200D02*
X204142857Y-113454819D01*
X204142857Y-113454819D02*
X204047619Y-113454819D01*
X204047619Y-113454819D02*
X203904762Y-113407200D01*
X203904762Y-113407200D02*
X203809524Y-113311961D01*
X203809524Y-113311961D02*
X203761905Y-113216723D01*
X203761905Y-113216723D02*
X203714286Y-113026247D01*
X203714286Y-113026247D02*
X203714286Y-112883390D01*
X203714286Y-112883390D02*
X203761905Y-112692914D01*
X203761905Y-112692914D02*
X203809524Y-112597676D01*
X203809524Y-112597676D02*
X203904762Y-112502438D01*
X203904762Y-112502438D02*
X204047619Y-112454819D01*
X204047619Y-112454819D02*
X204142857Y-112454819D01*
X204142857Y-112454819D02*
X204285714Y-112502438D01*
X204285714Y-112502438D02*
X204333333Y-112550057D01*
X205190476Y-112454819D02*
X205000000Y-112454819D01*
X205000000Y-112454819D02*
X204904762Y-112502438D01*
X204904762Y-112502438D02*
X204857143Y-112550057D01*
X204857143Y-112550057D02*
X204761905Y-112692914D01*
X204761905Y-112692914D02*
X204714286Y-112883390D01*
X204714286Y-112883390D02*
X204714286Y-113264342D01*
X204714286Y-113264342D02*
X204761905Y-113359580D01*
X204761905Y-113359580D02*
X204809524Y-113407200D01*
X204809524Y-113407200D02*
X204904762Y-113454819D01*
X204904762Y-113454819D02*
X205095238Y-113454819D01*
X205095238Y-113454819D02*
X205190476Y-113407200D01*
X205190476Y-113407200D02*
X205238095Y-113359580D01*
X205238095Y-113359580D02*
X205285714Y-113264342D01*
X205285714Y-113264342D02*
X205285714Y-113026247D01*
X205285714Y-113026247D02*
X205238095Y-112931009D01*
X205238095Y-112931009D02*
X205190476Y-112883390D01*
X205190476Y-112883390D02*
X205095238Y-112835771D01*
X205095238Y-112835771D02*
X204904762Y-112835771D01*
X204904762Y-112835771D02*
X204809524Y-112883390D01*
X204809524Y-112883390D02*
X204761905Y-112931009D01*
X204761905Y-112931009D02*
X204714286Y-113026247D01*
X238066666Y-121754819D02*
X238066666Y-122469104D01*
X238066666Y-122469104D02*
X238019047Y-122611961D01*
X238019047Y-122611961D02*
X237923809Y-122707200D01*
X237923809Y-122707200D02*
X237780952Y-122754819D01*
X237780952Y-122754819D02*
X237685714Y-122754819D01*
X238590476Y-122754819D02*
X238780952Y-122754819D01*
X238780952Y-122754819D02*
X238876190Y-122707200D01*
X238876190Y-122707200D02*
X238923809Y-122659580D01*
X238923809Y-122659580D02*
X239019047Y-122516723D01*
X239019047Y-122516723D02*
X239066666Y-122326247D01*
X239066666Y-122326247D02*
X239066666Y-121945295D01*
X239066666Y-121945295D02*
X239019047Y-121850057D01*
X239019047Y-121850057D02*
X238971428Y-121802438D01*
X238971428Y-121802438D02*
X238876190Y-121754819D01*
X238876190Y-121754819D02*
X238685714Y-121754819D01*
X238685714Y-121754819D02*
X238590476Y-121802438D01*
X238590476Y-121802438D02*
X238542857Y-121850057D01*
X238542857Y-121850057D02*
X238495238Y-121945295D01*
X238495238Y-121945295D02*
X238495238Y-122183390D01*
X238495238Y-122183390D02*
X238542857Y-122278628D01*
X238542857Y-122278628D02*
X238590476Y-122326247D01*
X238590476Y-122326247D02*
X238685714Y-122373866D01*
X238685714Y-122373866D02*
X238876190Y-122373866D01*
X238876190Y-122373866D02*
X238971428Y-122326247D01*
X238971428Y-122326247D02*
X239019047Y-122278628D01*
X239019047Y-122278628D02*
X239066666Y-122183390D01*
X237633333Y-74304819D02*
X237300000Y-73828628D01*
X237061905Y-74304819D02*
X237061905Y-73304819D01*
X237061905Y-73304819D02*
X237442857Y-73304819D01*
X237442857Y-73304819D02*
X237538095Y-73352438D01*
X237538095Y-73352438D02*
X237585714Y-73400057D01*
X237585714Y-73400057D02*
X237633333Y-73495295D01*
X237633333Y-73495295D02*
X237633333Y-73638152D01*
X237633333Y-73638152D02*
X237585714Y-73733390D01*
X237585714Y-73733390D02*
X237538095Y-73781009D01*
X237538095Y-73781009D02*
X237442857Y-73828628D01*
X237442857Y-73828628D02*
X237061905Y-73828628D01*
X238490476Y-73304819D02*
X238300000Y-73304819D01*
X238300000Y-73304819D02*
X238204762Y-73352438D01*
X238204762Y-73352438D02*
X238157143Y-73400057D01*
X238157143Y-73400057D02*
X238061905Y-73542914D01*
X238061905Y-73542914D02*
X238014286Y-73733390D01*
X238014286Y-73733390D02*
X238014286Y-74114342D01*
X238014286Y-74114342D02*
X238061905Y-74209580D01*
X238061905Y-74209580D02*
X238109524Y-74257200D01*
X238109524Y-74257200D02*
X238204762Y-74304819D01*
X238204762Y-74304819D02*
X238395238Y-74304819D01*
X238395238Y-74304819D02*
X238490476Y-74257200D01*
X238490476Y-74257200D02*
X238538095Y-74209580D01*
X238538095Y-74209580D02*
X238585714Y-74114342D01*
X238585714Y-74114342D02*
X238585714Y-73876247D01*
X238585714Y-73876247D02*
X238538095Y-73781009D01*
X238538095Y-73781009D02*
X238490476Y-73733390D01*
X238490476Y-73733390D02*
X238395238Y-73685771D01*
X238395238Y-73685771D02*
X238204762Y-73685771D01*
X238204762Y-73685771D02*
X238109524Y-73733390D01*
X238109524Y-73733390D02*
X238061905Y-73781009D01*
X238061905Y-73781009D02*
X238014286Y-73876247D01*
X239954819Y-94333333D02*
X240669104Y-94333333D01*
X240669104Y-94333333D02*
X240811961Y-94380952D01*
X240811961Y-94380952D02*
X240907200Y-94476190D01*
X240907200Y-94476190D02*
X240954819Y-94619047D01*
X240954819Y-94619047D02*
X240954819Y-94714285D01*
X240383390Y-93714285D02*
X240335771Y-93809523D01*
X240335771Y-93809523D02*
X240288152Y-93857142D01*
X240288152Y-93857142D02*
X240192914Y-93904761D01*
X240192914Y-93904761D02*
X240145295Y-93904761D01*
X240145295Y-93904761D02*
X240050057Y-93857142D01*
X240050057Y-93857142D02*
X240002438Y-93809523D01*
X240002438Y-93809523D02*
X239954819Y-93714285D01*
X239954819Y-93714285D02*
X239954819Y-93523809D01*
X239954819Y-93523809D02*
X240002438Y-93428571D01*
X240002438Y-93428571D02*
X240050057Y-93380952D01*
X240050057Y-93380952D02*
X240145295Y-93333333D01*
X240145295Y-93333333D02*
X240192914Y-93333333D01*
X240192914Y-93333333D02*
X240288152Y-93380952D01*
X240288152Y-93380952D02*
X240335771Y-93428571D01*
X240335771Y-93428571D02*
X240383390Y-93523809D01*
X240383390Y-93523809D02*
X240383390Y-93714285D01*
X240383390Y-93714285D02*
X240431009Y-93809523D01*
X240431009Y-93809523D02*
X240478628Y-93857142D01*
X240478628Y-93857142D02*
X240573866Y-93904761D01*
X240573866Y-93904761D02*
X240764342Y-93904761D01*
X240764342Y-93904761D02*
X240859580Y-93857142D01*
X240859580Y-93857142D02*
X240907200Y-93809523D01*
X240907200Y-93809523D02*
X240954819Y-93714285D01*
X240954819Y-93714285D02*
X240954819Y-93523809D01*
X240954819Y-93523809D02*
X240907200Y-93428571D01*
X240907200Y-93428571D02*
X240859580Y-93380952D01*
X240859580Y-93380952D02*
X240764342Y-93333333D01*
X240764342Y-93333333D02*
X240573866Y-93333333D01*
X240573866Y-93333333D02*
X240478628Y-93380952D01*
X240478628Y-93380952D02*
X240431009Y-93428571D01*
X240431009Y-93428571D02*
X240383390Y-93523809D01*
X239954819Y-80733333D02*
X240669104Y-80733333D01*
X240669104Y-80733333D02*
X240811961Y-80780952D01*
X240811961Y-80780952D02*
X240907200Y-80876190D01*
X240907200Y-80876190D02*
X240954819Y-81019047D01*
X240954819Y-81019047D02*
X240954819Y-81114285D01*
X239954819Y-79828571D02*
X239954819Y-80019047D01*
X239954819Y-80019047D02*
X240002438Y-80114285D01*
X240002438Y-80114285D02*
X240050057Y-80161904D01*
X240050057Y-80161904D02*
X240192914Y-80257142D01*
X240192914Y-80257142D02*
X240383390Y-80304761D01*
X240383390Y-80304761D02*
X240764342Y-80304761D01*
X240764342Y-80304761D02*
X240859580Y-80257142D01*
X240859580Y-80257142D02*
X240907200Y-80209523D01*
X240907200Y-80209523D02*
X240954819Y-80114285D01*
X240954819Y-80114285D02*
X240954819Y-79923809D01*
X240954819Y-79923809D02*
X240907200Y-79828571D01*
X240907200Y-79828571D02*
X240859580Y-79780952D01*
X240859580Y-79780952D02*
X240764342Y-79733333D01*
X240764342Y-79733333D02*
X240526247Y-79733333D01*
X240526247Y-79733333D02*
X240431009Y-79780952D01*
X240431009Y-79780952D02*
X240383390Y-79828571D01*
X240383390Y-79828571D02*
X240335771Y-79923809D01*
X240335771Y-79923809D02*
X240335771Y-80114285D01*
X240335771Y-80114285D02*
X240383390Y-80209523D01*
X240383390Y-80209523D02*
X240431009Y-80257142D01*
X240431009Y-80257142D02*
X240526247Y-80304761D01*
X223954819Y-130238094D02*
X222954819Y-130238094D01*
X222954819Y-130238094D02*
X222954819Y-129999999D01*
X222954819Y-129999999D02*
X223002438Y-129857142D01*
X223002438Y-129857142D02*
X223097676Y-129761904D01*
X223097676Y-129761904D02*
X223192914Y-129714285D01*
X223192914Y-129714285D02*
X223383390Y-129666666D01*
X223383390Y-129666666D02*
X223526247Y-129666666D01*
X223526247Y-129666666D02*
X223716723Y-129714285D01*
X223716723Y-129714285D02*
X223811961Y-129761904D01*
X223811961Y-129761904D02*
X223907200Y-129857142D01*
X223907200Y-129857142D02*
X223954819Y-129999999D01*
X223954819Y-129999999D02*
X223954819Y-130238094D01*
X222954819Y-129333332D02*
X222954819Y-128714285D01*
X222954819Y-128714285D02*
X223335771Y-129047618D01*
X223335771Y-129047618D02*
X223335771Y-128904761D01*
X223335771Y-128904761D02*
X223383390Y-128809523D01*
X223383390Y-128809523D02*
X223431009Y-128761904D01*
X223431009Y-128761904D02*
X223526247Y-128714285D01*
X223526247Y-128714285D02*
X223764342Y-128714285D01*
X223764342Y-128714285D02*
X223859580Y-128761904D01*
X223859580Y-128761904D02*
X223907200Y-128809523D01*
X223907200Y-128809523D02*
X223954819Y-128904761D01*
X223954819Y-128904761D02*
X223954819Y-129190475D01*
X223954819Y-129190475D02*
X223907200Y-129285713D01*
X223907200Y-129285713D02*
X223859580Y-129333332D01*
X217478628Y-105536190D02*
X217954819Y-105536190D01*
X216954819Y-105869523D02*
X217478628Y-105536190D01*
X217478628Y-105536190D02*
X216954819Y-105202857D01*
X217954819Y-104345714D02*
X217954819Y-104917142D01*
X217954819Y-104631428D02*
X216954819Y-104631428D01*
X216954819Y-104631428D02*
X217097676Y-104726666D01*
X217097676Y-104726666D02*
X217192914Y-104821904D01*
X217192914Y-104821904D02*
X217240533Y-104917142D01*
D10*
X195454768Y-113433333D02*
X196169053Y-113433333D01*
X196169053Y-113433333D02*
X196311910Y-113480952D01*
X196311910Y-113480952D02*
X196407149Y-113576190D01*
X196407149Y-113576190D02*
X196454768Y-113719047D01*
X196454768Y-113719047D02*
X196454768Y-113814285D01*
X196454768Y-112433333D02*
X196454768Y-113004761D01*
X196454768Y-112719047D02*
X195454768Y-112719047D01*
X195454768Y-112719047D02*
X195597625Y-112814285D01*
X195597625Y-112814285D02*
X195692863Y-112909523D01*
X195692863Y-112909523D02*
X195740482Y-113004761D01*
D12*
X225759580Y-72666666D02*
X225807200Y-72714285D01*
X225807200Y-72714285D02*
X225854819Y-72857142D01*
X225854819Y-72857142D02*
X225854819Y-72952380D01*
X225854819Y-72952380D02*
X225807200Y-73095237D01*
X225807200Y-73095237D02*
X225711961Y-73190475D01*
X225711961Y-73190475D02*
X225616723Y-73238094D01*
X225616723Y-73238094D02*
X225426247Y-73285713D01*
X225426247Y-73285713D02*
X225283390Y-73285713D01*
X225283390Y-73285713D02*
X225092914Y-73238094D01*
X225092914Y-73238094D02*
X224997676Y-73190475D01*
X224997676Y-73190475D02*
X224902438Y-73095237D01*
X224902438Y-73095237D02*
X224854819Y-72952380D01*
X224854819Y-72952380D02*
X224854819Y-72857142D01*
X224854819Y-72857142D02*
X224902438Y-72714285D01*
X224902438Y-72714285D02*
X224950057Y-72666666D01*
X224854819Y-72333332D02*
X224854819Y-71714285D01*
X224854819Y-71714285D02*
X225235771Y-72047618D01*
X225235771Y-72047618D02*
X225235771Y-71904761D01*
X225235771Y-71904761D02*
X225283390Y-71809523D01*
X225283390Y-71809523D02*
X225331009Y-71761904D01*
X225331009Y-71761904D02*
X225426247Y-71714285D01*
X225426247Y-71714285D02*
X225664342Y-71714285D01*
X225664342Y-71714285D02*
X225759580Y-71761904D01*
X225759580Y-71761904D02*
X225807200Y-71809523D01*
X225807200Y-71809523D02*
X225854819Y-71904761D01*
X225854819Y-71904761D02*
X225854819Y-72190475D01*
X225854819Y-72190475D02*
X225807200Y-72285713D01*
X225807200Y-72285713D02*
X225759580Y-72333332D01*
X211857142Y-105359580D02*
X211809523Y-105407200D01*
X211809523Y-105407200D02*
X211666666Y-105454819D01*
X211666666Y-105454819D02*
X211571428Y-105454819D01*
X211571428Y-105454819D02*
X211428571Y-105407200D01*
X211428571Y-105407200D02*
X211333333Y-105311961D01*
X211333333Y-105311961D02*
X211285714Y-105216723D01*
X211285714Y-105216723D02*
X211238095Y-105026247D01*
X211238095Y-105026247D02*
X211238095Y-104883390D01*
X211238095Y-104883390D02*
X211285714Y-104692914D01*
X211285714Y-104692914D02*
X211333333Y-104597676D01*
X211333333Y-104597676D02*
X211428571Y-104502438D01*
X211428571Y-104502438D02*
X211571428Y-104454819D01*
X211571428Y-104454819D02*
X211666666Y-104454819D01*
X211666666Y-104454819D02*
X211809523Y-104502438D01*
X211809523Y-104502438D02*
X211857142Y-104550057D01*
X212809523Y-105454819D02*
X212238095Y-105454819D01*
X212523809Y-105454819D02*
X212523809Y-104454819D01*
X212523809Y-104454819D02*
X212428571Y-104597676D01*
X212428571Y-104597676D02*
X212333333Y-104692914D01*
X212333333Y-104692914D02*
X212238095Y-104740533D01*
X213190476Y-104550057D02*
X213238095Y-104502438D01*
X213238095Y-104502438D02*
X213333333Y-104454819D01*
X213333333Y-104454819D02*
X213571428Y-104454819D01*
X213571428Y-104454819D02*
X213666666Y-104502438D01*
X213666666Y-104502438D02*
X213714285Y-104550057D01*
X213714285Y-104550057D02*
X213761904Y-104645295D01*
X213761904Y-104645295D02*
X213761904Y-104740533D01*
X213761904Y-104740533D02*
X213714285Y-104883390D01*
X213714285Y-104883390D02*
X213142857Y-105454819D01*
X213142857Y-105454819D02*
X213761904Y-105454819D01*
X190061905Y-80054819D02*
X190061905Y-79054819D01*
X190061905Y-79054819D02*
X190300000Y-79054819D01*
X190300000Y-79054819D02*
X190442857Y-79102438D01*
X190442857Y-79102438D02*
X190538095Y-79197676D01*
X190538095Y-79197676D02*
X190585714Y-79292914D01*
X190585714Y-79292914D02*
X190633333Y-79483390D01*
X190633333Y-79483390D02*
X190633333Y-79626247D01*
X190633333Y-79626247D02*
X190585714Y-79816723D01*
X190585714Y-79816723D02*
X190538095Y-79911961D01*
X190538095Y-79911961D02*
X190442857Y-80007200D01*
X190442857Y-80007200D02*
X190300000Y-80054819D01*
X190300000Y-80054819D02*
X190061905Y-80054819D01*
X191585714Y-80054819D02*
X191014286Y-80054819D01*
X191300000Y-80054819D02*
X191300000Y-79054819D01*
X191300000Y-79054819D02*
X191204762Y-79197676D01*
X191204762Y-79197676D02*
X191109524Y-79292914D01*
X191109524Y-79292914D02*
X191014286Y-79340533D01*
X210254819Y-95333333D02*
X210969104Y-95333333D01*
X210969104Y-95333333D02*
X211111961Y-95380952D01*
X211111961Y-95380952D02*
X211207200Y-95476190D01*
X211207200Y-95476190D02*
X211254819Y-95619047D01*
X211254819Y-95619047D02*
X211254819Y-95714285D01*
X210350057Y-94904761D02*
X210302438Y-94857142D01*
X210302438Y-94857142D02*
X210254819Y-94761904D01*
X210254819Y-94761904D02*
X210254819Y-94523809D01*
X210254819Y-94523809D02*
X210302438Y-94428571D01*
X210302438Y-94428571D02*
X210350057Y-94380952D01*
X210350057Y-94380952D02*
X210445295Y-94333333D01*
X210445295Y-94333333D02*
X210540533Y-94333333D01*
X210540533Y-94333333D02*
X210683390Y-94380952D01*
X210683390Y-94380952D02*
X211254819Y-94952380D01*
X211254819Y-94952380D02*
X211254819Y-94333333D01*
X206283333Y-108509580D02*
X206235714Y-108557200D01*
X206235714Y-108557200D02*
X206092857Y-108604819D01*
X206092857Y-108604819D02*
X205997619Y-108604819D01*
X205997619Y-108604819D02*
X205854762Y-108557200D01*
X205854762Y-108557200D02*
X205759524Y-108461961D01*
X205759524Y-108461961D02*
X205711905Y-108366723D01*
X205711905Y-108366723D02*
X205664286Y-108176247D01*
X205664286Y-108176247D02*
X205664286Y-108033390D01*
X205664286Y-108033390D02*
X205711905Y-107842914D01*
X205711905Y-107842914D02*
X205759524Y-107747676D01*
X205759524Y-107747676D02*
X205854762Y-107652438D01*
X205854762Y-107652438D02*
X205997619Y-107604819D01*
X205997619Y-107604819D02*
X206092857Y-107604819D01*
X206092857Y-107604819D02*
X206235714Y-107652438D01*
X206235714Y-107652438D02*
X206283333Y-107700057D01*
X207188095Y-107604819D02*
X206711905Y-107604819D01*
X206711905Y-107604819D02*
X206664286Y-108081009D01*
X206664286Y-108081009D02*
X206711905Y-108033390D01*
X206711905Y-108033390D02*
X206807143Y-107985771D01*
X206807143Y-107985771D02*
X207045238Y-107985771D01*
X207045238Y-107985771D02*
X207140476Y-108033390D01*
X207140476Y-108033390D02*
X207188095Y-108081009D01*
X207188095Y-108081009D02*
X207235714Y-108176247D01*
X207235714Y-108176247D02*
X207235714Y-108414342D01*
X207235714Y-108414342D02*
X207188095Y-108509580D01*
X207188095Y-108509580D02*
X207140476Y-108557200D01*
X207140476Y-108557200D02*
X207045238Y-108604819D01*
X207045238Y-108604819D02*
X206807143Y-108604819D01*
X206807143Y-108604819D02*
X206711905Y-108557200D01*
X206711905Y-108557200D02*
X206664286Y-108509580D01*
X196954819Y-104116666D02*
X196954819Y-104592856D01*
X196954819Y-104592856D02*
X195954819Y-104592856D01*
X196954819Y-103259523D02*
X196954819Y-103830951D01*
X196954819Y-103545237D02*
X195954819Y-103545237D01*
X195954819Y-103545237D02*
X196097676Y-103640475D01*
X196097676Y-103640475D02*
X196192914Y-103735713D01*
X196192914Y-103735713D02*
X196240533Y-103830951D01*
X231259580Y-75666666D02*
X231307200Y-75714285D01*
X231307200Y-75714285D02*
X231354819Y-75857142D01*
X231354819Y-75857142D02*
X231354819Y-75952380D01*
X231354819Y-75952380D02*
X231307200Y-76095237D01*
X231307200Y-76095237D02*
X231211961Y-76190475D01*
X231211961Y-76190475D02*
X231116723Y-76238094D01*
X231116723Y-76238094D02*
X230926247Y-76285713D01*
X230926247Y-76285713D02*
X230783390Y-76285713D01*
X230783390Y-76285713D02*
X230592914Y-76238094D01*
X230592914Y-76238094D02*
X230497676Y-76190475D01*
X230497676Y-76190475D02*
X230402438Y-76095237D01*
X230402438Y-76095237D02*
X230354819Y-75952380D01*
X230354819Y-75952380D02*
X230354819Y-75857142D01*
X230354819Y-75857142D02*
X230402438Y-75714285D01*
X230402438Y-75714285D02*
X230450057Y-75666666D01*
X230450057Y-75285713D02*
X230402438Y-75238094D01*
X230402438Y-75238094D02*
X230354819Y-75142856D01*
X230354819Y-75142856D02*
X230354819Y-74904761D01*
X230354819Y-74904761D02*
X230402438Y-74809523D01*
X230402438Y-74809523D02*
X230450057Y-74761904D01*
X230450057Y-74761904D02*
X230545295Y-74714285D01*
X230545295Y-74714285D02*
X230640533Y-74714285D01*
X230640533Y-74714285D02*
X230783390Y-74761904D01*
X230783390Y-74761904D02*
X231354819Y-75333332D01*
X231354819Y-75333332D02*
X231354819Y-74714285D01*
X239954819Y-87533333D02*
X240669104Y-87533333D01*
X240669104Y-87533333D02*
X240811961Y-87580952D01*
X240811961Y-87580952D02*
X240907200Y-87676190D01*
X240907200Y-87676190D02*
X240954819Y-87819047D01*
X240954819Y-87819047D02*
X240954819Y-87914285D01*
X239954819Y-87152380D02*
X239954819Y-86485714D01*
X239954819Y-86485714D02*
X240954819Y-86914285D01*
X207738095Y-88854819D02*
X207738095Y-89664342D01*
X207738095Y-89664342D02*
X207785714Y-89759580D01*
X207785714Y-89759580D02*
X207833333Y-89807200D01*
X207833333Y-89807200D02*
X207928571Y-89854819D01*
X207928571Y-89854819D02*
X208119047Y-89854819D01*
X208119047Y-89854819D02*
X208214285Y-89807200D01*
X208214285Y-89807200D02*
X208261904Y-89759580D01*
X208261904Y-89759580D02*
X208309523Y-89664342D01*
X208309523Y-89664342D02*
X208309523Y-88854819D01*
X209214285Y-89188152D02*
X209214285Y-89854819D01*
X208976190Y-88807200D02*
X208738095Y-89521485D01*
X208738095Y-89521485D02*
X209357142Y-89521485D01*
X207304819Y-92666666D02*
X206828628Y-92999999D01*
X207304819Y-93238094D02*
X206304819Y-93238094D01*
X206304819Y-93238094D02*
X206304819Y-92857142D01*
X206304819Y-92857142D02*
X206352438Y-92761904D01*
X206352438Y-92761904D02*
X206400057Y-92714285D01*
X206400057Y-92714285D02*
X206495295Y-92666666D01*
X206495295Y-92666666D02*
X206638152Y-92666666D01*
X206638152Y-92666666D02*
X206733390Y-92714285D01*
X206733390Y-92714285D02*
X206781009Y-92761904D01*
X206781009Y-92761904D02*
X206828628Y-92857142D01*
X206828628Y-92857142D02*
X206828628Y-93238094D01*
X207304819Y-91714285D02*
X207304819Y-92285713D01*
X207304819Y-91999999D02*
X206304819Y-91999999D01*
X206304819Y-91999999D02*
X206447676Y-92095237D01*
X206447676Y-92095237D02*
X206542914Y-92190475D01*
X206542914Y-92190475D02*
X206590533Y-92285713D01*
X190704761Y-72590057D02*
X190609523Y-72542438D01*
X190609523Y-72542438D02*
X190514285Y-72447200D01*
X190514285Y-72447200D02*
X190371428Y-72304342D01*
X190371428Y-72304342D02*
X190276190Y-72256723D01*
X190276190Y-72256723D02*
X190180952Y-72256723D01*
X190228571Y-72494819D02*
X190133333Y-72447200D01*
X190133333Y-72447200D02*
X190038095Y-72351961D01*
X190038095Y-72351961D02*
X189990476Y-72161485D01*
X189990476Y-72161485D02*
X189990476Y-71828152D01*
X189990476Y-71828152D02*
X190038095Y-71637676D01*
X190038095Y-71637676D02*
X190133333Y-71542438D01*
X190133333Y-71542438D02*
X190228571Y-71494819D01*
X190228571Y-71494819D02*
X190419047Y-71494819D01*
X190419047Y-71494819D02*
X190514285Y-71542438D01*
X190514285Y-71542438D02*
X190609523Y-71637676D01*
X190609523Y-71637676D02*
X190657142Y-71828152D01*
X190657142Y-71828152D02*
X190657142Y-72161485D01*
X190657142Y-72161485D02*
X190609523Y-72351961D01*
X190609523Y-72351961D02*
X190514285Y-72447200D01*
X190514285Y-72447200D02*
X190419047Y-72494819D01*
X190419047Y-72494819D02*
X190228571Y-72494819D01*
X191609523Y-72494819D02*
X191038095Y-72494819D01*
X191323809Y-72494819D02*
X191323809Y-71494819D01*
X191323809Y-71494819D02*
X191228571Y-71637676D01*
X191228571Y-71637676D02*
X191133333Y-71732914D01*
X191133333Y-71732914D02*
X191038095Y-71780533D01*
X210254819Y-74833333D02*
X210969104Y-74833333D01*
X210969104Y-74833333D02*
X211111961Y-74880952D01*
X211111961Y-74880952D02*
X211207200Y-74976190D01*
X211207200Y-74976190D02*
X211254819Y-75119047D01*
X211254819Y-75119047D02*
X211254819Y-75214285D01*
X210254819Y-73880952D02*
X210254819Y-74357142D01*
X210254819Y-74357142D02*
X210731009Y-74404761D01*
X210731009Y-74404761D02*
X210683390Y-74357142D01*
X210683390Y-74357142D02*
X210635771Y-74261904D01*
X210635771Y-74261904D02*
X210635771Y-74023809D01*
X210635771Y-74023809D02*
X210683390Y-73928571D01*
X210683390Y-73928571D02*
X210731009Y-73880952D01*
X210731009Y-73880952D02*
X210826247Y-73833333D01*
X210826247Y-73833333D02*
X211064342Y-73833333D01*
X211064342Y-73833333D02*
X211159580Y-73880952D01*
X211159580Y-73880952D02*
X211207200Y-73928571D01*
X211207200Y-73928571D02*
X211254819Y-74023809D01*
X211254819Y-74023809D02*
X211254819Y-74261904D01*
X211254819Y-74261904D02*
X211207200Y-74357142D01*
X211207200Y-74357142D02*
X211159580Y-74404761D01*
X209009580Y-127166666D02*
X209057200Y-127214285D01*
X209057200Y-127214285D02*
X209104819Y-127357142D01*
X209104819Y-127357142D02*
X209104819Y-127452380D01*
X209104819Y-127452380D02*
X209057200Y-127595237D01*
X209057200Y-127595237D02*
X208961961Y-127690475D01*
X208961961Y-127690475D02*
X208866723Y-127738094D01*
X208866723Y-127738094D02*
X208676247Y-127785713D01*
X208676247Y-127785713D02*
X208533390Y-127785713D01*
X208533390Y-127785713D02*
X208342914Y-127738094D01*
X208342914Y-127738094D02*
X208247676Y-127690475D01*
X208247676Y-127690475D02*
X208152438Y-127595237D01*
X208152438Y-127595237D02*
X208104819Y-127452380D01*
X208104819Y-127452380D02*
X208104819Y-127357142D01*
X208104819Y-127357142D02*
X208152438Y-127214285D01*
X208152438Y-127214285D02*
X208200057Y-127166666D01*
X209104819Y-126690475D02*
X209104819Y-126499999D01*
X209104819Y-126499999D02*
X209057200Y-126404761D01*
X209057200Y-126404761D02*
X209009580Y-126357142D01*
X209009580Y-126357142D02*
X208866723Y-126261904D01*
X208866723Y-126261904D02*
X208676247Y-126214285D01*
X208676247Y-126214285D02*
X208295295Y-126214285D01*
X208295295Y-126214285D02*
X208200057Y-126261904D01*
X208200057Y-126261904D02*
X208152438Y-126309523D01*
X208152438Y-126309523D02*
X208104819Y-126404761D01*
X208104819Y-126404761D02*
X208104819Y-126595237D01*
X208104819Y-126595237D02*
X208152438Y-126690475D01*
X208152438Y-126690475D02*
X208200057Y-126738094D01*
X208200057Y-126738094D02*
X208295295Y-126785713D01*
X208295295Y-126785713D02*
X208533390Y-126785713D01*
X208533390Y-126785713D02*
X208628628Y-126738094D01*
X208628628Y-126738094D02*
X208676247Y-126690475D01*
X208676247Y-126690475D02*
X208723866Y-126595237D01*
X208723866Y-126595237D02*
X208723866Y-126404761D01*
X208723866Y-126404761D02*
X208676247Y-126309523D01*
X208676247Y-126309523D02*
X208628628Y-126261904D01*
X208628628Y-126261904D02*
X208533390Y-126214285D01*
X225954819Y-120071904D02*
X226764342Y-120071904D01*
X226764342Y-120071904D02*
X226859580Y-120024285D01*
X226859580Y-120024285D02*
X226907200Y-119976666D01*
X226907200Y-119976666D02*
X226954819Y-119881428D01*
X226954819Y-119881428D02*
X226954819Y-119690952D01*
X226954819Y-119690952D02*
X226907200Y-119595714D01*
X226907200Y-119595714D02*
X226859580Y-119548095D01*
X226859580Y-119548095D02*
X226764342Y-119500476D01*
X226764342Y-119500476D02*
X225954819Y-119500476D01*
X225954819Y-119119523D02*
X225954819Y-118500476D01*
X225954819Y-118500476D02*
X226335771Y-118833809D01*
X226335771Y-118833809D02*
X226335771Y-118690952D01*
X226335771Y-118690952D02*
X226383390Y-118595714D01*
X226383390Y-118595714D02*
X226431009Y-118548095D01*
X226431009Y-118548095D02*
X226526247Y-118500476D01*
X226526247Y-118500476D02*
X226764342Y-118500476D01*
X226764342Y-118500476D02*
X226859580Y-118548095D01*
X226859580Y-118548095D02*
X226907200Y-118595714D01*
X226907200Y-118595714D02*
X226954819Y-118690952D01*
X226954819Y-118690952D02*
X226954819Y-118976666D01*
X226954819Y-118976666D02*
X226907200Y-119071904D01*
X226907200Y-119071904D02*
X226859580Y-119119523D01*
X211857142Y-99359580D02*
X211809523Y-99407200D01*
X211809523Y-99407200D02*
X211666666Y-99454819D01*
X211666666Y-99454819D02*
X211571428Y-99454819D01*
X211571428Y-99454819D02*
X211428571Y-99407200D01*
X211428571Y-99407200D02*
X211333333Y-99311961D01*
X211333333Y-99311961D02*
X211285714Y-99216723D01*
X211285714Y-99216723D02*
X211238095Y-99026247D01*
X211238095Y-99026247D02*
X211238095Y-98883390D01*
X211238095Y-98883390D02*
X211285714Y-98692914D01*
X211285714Y-98692914D02*
X211333333Y-98597676D01*
X211333333Y-98597676D02*
X211428571Y-98502438D01*
X211428571Y-98502438D02*
X211571428Y-98454819D01*
X211571428Y-98454819D02*
X211666666Y-98454819D01*
X211666666Y-98454819D02*
X211809523Y-98502438D01*
X211809523Y-98502438D02*
X211857142Y-98550057D01*
X212809523Y-99454819D02*
X212238095Y-99454819D01*
X212523809Y-99454819D02*
X212523809Y-98454819D01*
X212523809Y-98454819D02*
X212428571Y-98597676D01*
X212428571Y-98597676D02*
X212333333Y-98692914D01*
X212333333Y-98692914D02*
X212238095Y-98740533D01*
X213761904Y-99454819D02*
X213190476Y-99454819D01*
X213476190Y-99454819D02*
X213476190Y-98454819D01*
X213476190Y-98454819D02*
X213380952Y-98597676D01*
X213380952Y-98597676D02*
X213285714Y-98692914D01*
X213285714Y-98692914D02*
X213190476Y-98740533D01*
X210419047Y-117931009D02*
X210561904Y-117978628D01*
X210561904Y-117978628D02*
X210609523Y-118026247D01*
X210609523Y-118026247D02*
X210657142Y-118121485D01*
X210657142Y-118121485D02*
X210657142Y-118264342D01*
X210657142Y-118264342D02*
X210609523Y-118359580D01*
X210609523Y-118359580D02*
X210561904Y-118407200D01*
X210561904Y-118407200D02*
X210466666Y-118454819D01*
X210466666Y-118454819D02*
X210085714Y-118454819D01*
X210085714Y-118454819D02*
X210085714Y-117454819D01*
X210085714Y-117454819D02*
X210419047Y-117454819D01*
X210419047Y-117454819D02*
X210514285Y-117502438D01*
X210514285Y-117502438D02*
X210561904Y-117550057D01*
X210561904Y-117550057D02*
X210609523Y-117645295D01*
X210609523Y-117645295D02*
X210609523Y-117740533D01*
X210609523Y-117740533D02*
X210561904Y-117835771D01*
X210561904Y-117835771D02*
X210514285Y-117883390D01*
X210514285Y-117883390D02*
X210419047Y-117931009D01*
X210419047Y-117931009D02*
X210085714Y-117931009D01*
X210990476Y-117454819D02*
X211657142Y-117454819D01*
X211657142Y-117454819D02*
X210990476Y-118454819D01*
X210990476Y-118454819D02*
X211657142Y-118454819D01*
X212561904Y-118454819D02*
X211990476Y-118454819D01*
X212276190Y-118454819D02*
X212276190Y-117454819D01*
X212276190Y-117454819D02*
X212180952Y-117597676D01*
X212180952Y-117597676D02*
X212085714Y-117692914D01*
X212085714Y-117692914D02*
X211990476Y-117740533D01*
X207119048Y-116273866D02*
X207880953Y-116273866D01*
X207500000Y-116654819D02*
X207500000Y-115892914D01*
X211804819Y-128166666D02*
X211328628Y-128499999D01*
X211804819Y-128738094D02*
X210804819Y-128738094D01*
X210804819Y-128738094D02*
X210804819Y-128357142D01*
X210804819Y-128357142D02*
X210852438Y-128261904D01*
X210852438Y-128261904D02*
X210900057Y-128214285D01*
X210900057Y-128214285D02*
X210995295Y-128166666D01*
X210995295Y-128166666D02*
X211138152Y-128166666D01*
X211138152Y-128166666D02*
X211233390Y-128214285D01*
X211233390Y-128214285D02*
X211281009Y-128261904D01*
X211281009Y-128261904D02*
X211328628Y-128357142D01*
X211328628Y-128357142D02*
X211328628Y-128738094D01*
X210804819Y-127833332D02*
X210804819Y-127166666D01*
X210804819Y-127166666D02*
X211804819Y-127595237D01*
X204654819Y-102295238D02*
X204178628Y-102628571D01*
X204654819Y-102866666D02*
X203654819Y-102866666D01*
X203654819Y-102866666D02*
X203654819Y-102485714D01*
X203654819Y-102485714D02*
X203702438Y-102390476D01*
X203702438Y-102390476D02*
X203750057Y-102342857D01*
X203750057Y-102342857D02*
X203845295Y-102295238D01*
X203845295Y-102295238D02*
X203988152Y-102295238D01*
X203988152Y-102295238D02*
X204083390Y-102342857D01*
X204083390Y-102342857D02*
X204131009Y-102390476D01*
X204131009Y-102390476D02*
X204178628Y-102485714D01*
X204178628Y-102485714D02*
X204178628Y-102866666D01*
X203654819Y-102009523D02*
X204654819Y-101676190D01*
X204654819Y-101676190D02*
X203654819Y-101342857D01*
X204654819Y-100485714D02*
X204654819Y-101057142D01*
X204654819Y-100771428D02*
X203654819Y-100771428D01*
X203654819Y-100771428D02*
X203797676Y-100866666D01*
X203797676Y-100866666D02*
X203892914Y-100961904D01*
X203892914Y-100961904D02*
X203940533Y-101057142D01*
X234038095Y-66854819D02*
X234038095Y-67664342D01*
X234038095Y-67664342D02*
X234085714Y-67759580D01*
X234085714Y-67759580D02*
X234133333Y-67807200D01*
X234133333Y-67807200D02*
X234228571Y-67854819D01*
X234228571Y-67854819D02*
X234419047Y-67854819D01*
X234419047Y-67854819D02*
X234514285Y-67807200D01*
X234514285Y-67807200D02*
X234561904Y-67759580D01*
X234561904Y-67759580D02*
X234609523Y-67664342D01*
X234609523Y-67664342D02*
X234609523Y-66854819D01*
X235038095Y-66950057D02*
X235085714Y-66902438D01*
X235085714Y-66902438D02*
X235180952Y-66854819D01*
X235180952Y-66854819D02*
X235419047Y-66854819D01*
X235419047Y-66854819D02*
X235514285Y-66902438D01*
X235514285Y-66902438D02*
X235561904Y-66950057D01*
X235561904Y-66950057D02*
X235609523Y-67045295D01*
X235609523Y-67045295D02*
X235609523Y-67140533D01*
X235609523Y-67140533D02*
X235561904Y-67283390D01*
X235561904Y-67283390D02*
X234990476Y-67854819D01*
X234990476Y-67854819D02*
X235609523Y-67854819D01*
X207283333Y-70459580D02*
X207235714Y-70507200D01*
X207235714Y-70507200D02*
X207092857Y-70554819D01*
X207092857Y-70554819D02*
X206997619Y-70554819D01*
X206997619Y-70554819D02*
X206854762Y-70507200D01*
X206854762Y-70507200D02*
X206759524Y-70411961D01*
X206759524Y-70411961D02*
X206711905Y-70316723D01*
X206711905Y-70316723D02*
X206664286Y-70126247D01*
X206664286Y-70126247D02*
X206664286Y-69983390D01*
X206664286Y-69983390D02*
X206711905Y-69792914D01*
X206711905Y-69792914D02*
X206759524Y-69697676D01*
X206759524Y-69697676D02*
X206854762Y-69602438D01*
X206854762Y-69602438D02*
X206997619Y-69554819D01*
X206997619Y-69554819D02*
X207092857Y-69554819D01*
X207092857Y-69554819D02*
X207235714Y-69602438D01*
X207235714Y-69602438D02*
X207283333Y-69650057D01*
X207854762Y-69983390D02*
X207759524Y-69935771D01*
X207759524Y-69935771D02*
X207711905Y-69888152D01*
X207711905Y-69888152D02*
X207664286Y-69792914D01*
X207664286Y-69792914D02*
X207664286Y-69745295D01*
X207664286Y-69745295D02*
X207711905Y-69650057D01*
X207711905Y-69650057D02*
X207759524Y-69602438D01*
X207759524Y-69602438D02*
X207854762Y-69554819D01*
X207854762Y-69554819D02*
X208045238Y-69554819D01*
X208045238Y-69554819D02*
X208140476Y-69602438D01*
X208140476Y-69602438D02*
X208188095Y-69650057D01*
X208188095Y-69650057D02*
X208235714Y-69745295D01*
X208235714Y-69745295D02*
X208235714Y-69792914D01*
X208235714Y-69792914D02*
X208188095Y-69888152D01*
X208188095Y-69888152D02*
X208140476Y-69935771D01*
X208140476Y-69935771D02*
X208045238Y-69983390D01*
X208045238Y-69983390D02*
X207854762Y-69983390D01*
X207854762Y-69983390D02*
X207759524Y-70031009D01*
X207759524Y-70031009D02*
X207711905Y-70078628D01*
X207711905Y-70078628D02*
X207664286Y-70173866D01*
X207664286Y-70173866D02*
X207664286Y-70364342D01*
X207664286Y-70364342D02*
X207711905Y-70459580D01*
X207711905Y-70459580D02*
X207759524Y-70507200D01*
X207759524Y-70507200D02*
X207854762Y-70554819D01*
X207854762Y-70554819D02*
X208045238Y-70554819D01*
X208045238Y-70554819D02*
X208140476Y-70507200D01*
X208140476Y-70507200D02*
X208188095Y-70459580D01*
X208188095Y-70459580D02*
X208235714Y-70364342D01*
X208235714Y-70364342D02*
X208235714Y-70173866D01*
X208235714Y-70173866D02*
X208188095Y-70078628D01*
X208188095Y-70078628D02*
X208140476Y-70031009D01*
X208140476Y-70031009D02*
X208045238Y-69983390D01*
X199738095Y-122954819D02*
X199738095Y-123764342D01*
X199738095Y-123764342D02*
X199785714Y-123859580D01*
X199785714Y-123859580D02*
X199833333Y-123907200D01*
X199833333Y-123907200D02*
X199928571Y-123954819D01*
X199928571Y-123954819D02*
X200119047Y-123954819D01*
X200119047Y-123954819D02*
X200214285Y-123907200D01*
X200214285Y-123907200D02*
X200261904Y-123859580D01*
X200261904Y-123859580D02*
X200309523Y-123764342D01*
X200309523Y-123764342D02*
X200309523Y-122954819D01*
X201261904Y-122954819D02*
X200785714Y-122954819D01*
X200785714Y-122954819D02*
X200738095Y-123431009D01*
X200738095Y-123431009D02*
X200785714Y-123383390D01*
X200785714Y-123383390D02*
X200880952Y-123335771D01*
X200880952Y-123335771D02*
X201119047Y-123335771D01*
X201119047Y-123335771D02*
X201214285Y-123383390D01*
X201214285Y-123383390D02*
X201261904Y-123431009D01*
X201261904Y-123431009D02*
X201309523Y-123526247D01*
X201309523Y-123526247D02*
X201309523Y-123764342D01*
X201309523Y-123764342D02*
X201261904Y-123859580D01*
X201261904Y-123859580D02*
X201214285Y-123907200D01*
X201214285Y-123907200D02*
X201119047Y-123954819D01*
X201119047Y-123954819D02*
X200880952Y-123954819D01*
X200880952Y-123954819D02*
X200785714Y-123907200D01*
X200785714Y-123907200D02*
X200738095Y-123859580D01*
X227833333Y-68459580D02*
X227785714Y-68507200D01*
X227785714Y-68507200D02*
X227642857Y-68554819D01*
X227642857Y-68554819D02*
X227547619Y-68554819D01*
X227547619Y-68554819D02*
X227404762Y-68507200D01*
X227404762Y-68507200D02*
X227309524Y-68411961D01*
X227309524Y-68411961D02*
X227261905Y-68316723D01*
X227261905Y-68316723D02*
X227214286Y-68126247D01*
X227214286Y-68126247D02*
X227214286Y-67983390D01*
X227214286Y-67983390D02*
X227261905Y-67792914D01*
X227261905Y-67792914D02*
X227309524Y-67697676D01*
X227309524Y-67697676D02*
X227404762Y-67602438D01*
X227404762Y-67602438D02*
X227547619Y-67554819D01*
X227547619Y-67554819D02*
X227642857Y-67554819D01*
X227642857Y-67554819D02*
X227785714Y-67602438D01*
X227785714Y-67602438D02*
X227833333Y-67650057D01*
X228690476Y-67888152D02*
X228690476Y-68554819D01*
X228452381Y-67507200D02*
X228214286Y-68221485D01*
X228214286Y-68221485D02*
X228833333Y-68221485D01*
X210254819Y-88333333D02*
X210969104Y-88333333D01*
X210969104Y-88333333D02*
X211111961Y-88380952D01*
X211111961Y-88380952D02*
X211207200Y-88476190D01*
X211207200Y-88476190D02*
X211254819Y-88619047D01*
X211254819Y-88619047D02*
X211254819Y-88714285D01*
X210254819Y-87952380D02*
X210254819Y-87333333D01*
X210254819Y-87333333D02*
X210635771Y-87666666D01*
X210635771Y-87666666D02*
X210635771Y-87523809D01*
X210635771Y-87523809D02*
X210683390Y-87428571D01*
X210683390Y-87428571D02*
X210731009Y-87380952D01*
X210731009Y-87380952D02*
X210826247Y-87333333D01*
X210826247Y-87333333D02*
X211064342Y-87333333D01*
X211064342Y-87333333D02*
X211159580Y-87380952D01*
X211159580Y-87380952D02*
X211207200Y-87428571D01*
X211207200Y-87428571D02*
X211254819Y-87523809D01*
X211254819Y-87523809D02*
X211254819Y-87809523D01*
X211254819Y-87809523D02*
X211207200Y-87904761D01*
X211207200Y-87904761D02*
X211159580Y-87952380D01*
X226054819Y-75666666D02*
X225578628Y-75999999D01*
X226054819Y-76238094D02*
X225054819Y-76238094D01*
X225054819Y-76238094D02*
X225054819Y-75857142D01*
X225054819Y-75857142D02*
X225102438Y-75761904D01*
X225102438Y-75761904D02*
X225150057Y-75714285D01*
X225150057Y-75714285D02*
X225245295Y-75666666D01*
X225245295Y-75666666D02*
X225388152Y-75666666D01*
X225388152Y-75666666D02*
X225483390Y-75714285D01*
X225483390Y-75714285D02*
X225531009Y-75761904D01*
X225531009Y-75761904D02*
X225578628Y-75857142D01*
X225578628Y-75857142D02*
X225578628Y-76238094D01*
X225054819Y-74761904D02*
X225054819Y-75238094D01*
X225054819Y-75238094D02*
X225531009Y-75285713D01*
X225531009Y-75285713D02*
X225483390Y-75238094D01*
X225483390Y-75238094D02*
X225435771Y-75142856D01*
X225435771Y-75142856D02*
X225435771Y-74904761D01*
X225435771Y-74904761D02*
X225483390Y-74809523D01*
X225483390Y-74809523D02*
X225531009Y-74761904D01*
X225531009Y-74761904D02*
X225626247Y-74714285D01*
X225626247Y-74714285D02*
X225864342Y-74714285D01*
X225864342Y-74714285D02*
X225959580Y-74761904D01*
X225959580Y-74761904D02*
X226007200Y-74809523D01*
X226007200Y-74809523D02*
X226054819Y-74904761D01*
X226054819Y-74904761D02*
X226054819Y-75142856D01*
X226054819Y-75142856D02*
X226007200Y-75238094D01*
X226007200Y-75238094D02*
X225959580Y-75285713D01*
X213633333Y-69954819D02*
X213300000Y-69478628D01*
X213061905Y-69954819D02*
X213061905Y-68954819D01*
X213061905Y-68954819D02*
X213442857Y-68954819D01*
X213442857Y-68954819D02*
X213538095Y-69002438D01*
X213538095Y-69002438D02*
X213585714Y-69050057D01*
X213585714Y-69050057D02*
X213633333Y-69145295D01*
X213633333Y-69145295D02*
X213633333Y-69288152D01*
X213633333Y-69288152D02*
X213585714Y-69383390D01*
X213585714Y-69383390D02*
X213538095Y-69431009D01*
X213538095Y-69431009D02*
X213442857Y-69478628D01*
X213442857Y-69478628D02*
X213061905Y-69478628D01*
X214490476Y-69288152D02*
X214490476Y-69954819D01*
X214252381Y-68907200D02*
X214014286Y-69621485D01*
X214014286Y-69621485D02*
X214633333Y-69621485D01*
X226238095Y-106454819D02*
X226238095Y-107264342D01*
X226238095Y-107264342D02*
X226285714Y-107359580D01*
X226285714Y-107359580D02*
X226333333Y-107407200D01*
X226333333Y-107407200D02*
X226428571Y-107454819D01*
X226428571Y-107454819D02*
X226619047Y-107454819D01*
X226619047Y-107454819D02*
X226714285Y-107407200D01*
X226714285Y-107407200D02*
X226761904Y-107359580D01*
X226761904Y-107359580D02*
X226809523Y-107264342D01*
X226809523Y-107264342D02*
X226809523Y-106454819D01*
X227809523Y-107454819D02*
X227238095Y-107454819D01*
X227523809Y-107454819D02*
X227523809Y-106454819D01*
X227523809Y-106454819D02*
X227428571Y-106597676D01*
X227428571Y-106597676D02*
X227333333Y-106692914D01*
X227333333Y-106692914D02*
X227238095Y-106740533D01*
X214761905Y-125454819D02*
X214761905Y-124454819D01*
X214761905Y-124454819D02*
X215000000Y-124454819D01*
X215000000Y-124454819D02*
X215142857Y-124502438D01*
X215142857Y-124502438D02*
X215238095Y-124597676D01*
X215238095Y-124597676D02*
X215285714Y-124692914D01*
X215285714Y-124692914D02*
X215333333Y-124883390D01*
X215333333Y-124883390D02*
X215333333Y-125026247D01*
X215333333Y-125026247D02*
X215285714Y-125216723D01*
X215285714Y-125216723D02*
X215238095Y-125311961D01*
X215238095Y-125311961D02*
X215142857Y-125407200D01*
X215142857Y-125407200D02*
X215000000Y-125454819D01*
X215000000Y-125454819D02*
X214761905Y-125454819D01*
X215714286Y-124550057D02*
X215761905Y-124502438D01*
X215761905Y-124502438D02*
X215857143Y-124454819D01*
X215857143Y-124454819D02*
X216095238Y-124454819D01*
X216095238Y-124454819D02*
X216190476Y-124502438D01*
X216190476Y-124502438D02*
X216238095Y-124550057D01*
X216238095Y-124550057D02*
X216285714Y-124645295D01*
X216285714Y-124645295D02*
X216285714Y-124740533D01*
X216285714Y-124740533D02*
X216238095Y-124883390D01*
X216238095Y-124883390D02*
X215666667Y-125454819D01*
X215666667Y-125454819D02*
X216285714Y-125454819D01*
X238433333Y-68459580D02*
X238385714Y-68507200D01*
X238385714Y-68507200D02*
X238242857Y-68554819D01*
X238242857Y-68554819D02*
X238147619Y-68554819D01*
X238147619Y-68554819D02*
X238004762Y-68507200D01*
X238004762Y-68507200D02*
X237909524Y-68411961D01*
X237909524Y-68411961D02*
X237861905Y-68316723D01*
X237861905Y-68316723D02*
X237814286Y-68126247D01*
X237814286Y-68126247D02*
X237814286Y-67983390D01*
X237814286Y-67983390D02*
X237861905Y-67792914D01*
X237861905Y-67792914D02*
X237909524Y-67697676D01*
X237909524Y-67697676D02*
X238004762Y-67602438D01*
X238004762Y-67602438D02*
X238147619Y-67554819D01*
X238147619Y-67554819D02*
X238242857Y-67554819D01*
X238242857Y-67554819D02*
X238385714Y-67602438D01*
X238385714Y-67602438D02*
X238433333Y-67650057D01*
X239385714Y-68554819D02*
X238814286Y-68554819D01*
X239100000Y-68554819D02*
X239100000Y-67554819D01*
X239100000Y-67554819D02*
X239004762Y-67697676D01*
X239004762Y-67697676D02*
X238909524Y-67792914D01*
X238909524Y-67792914D02*
X238814286Y-67840533D01*
X207304819Y-86166666D02*
X206828628Y-86499999D01*
X207304819Y-86738094D02*
X206304819Y-86738094D01*
X206304819Y-86738094D02*
X206304819Y-86357142D01*
X206304819Y-86357142D02*
X206352438Y-86261904D01*
X206352438Y-86261904D02*
X206400057Y-86214285D01*
X206400057Y-86214285D02*
X206495295Y-86166666D01*
X206495295Y-86166666D02*
X206638152Y-86166666D01*
X206638152Y-86166666D02*
X206733390Y-86214285D01*
X206733390Y-86214285D02*
X206781009Y-86261904D01*
X206781009Y-86261904D02*
X206828628Y-86357142D01*
X206828628Y-86357142D02*
X206828628Y-86738094D01*
X206400057Y-85785713D02*
X206352438Y-85738094D01*
X206352438Y-85738094D02*
X206304819Y-85642856D01*
X206304819Y-85642856D02*
X206304819Y-85404761D01*
X206304819Y-85404761D02*
X206352438Y-85309523D01*
X206352438Y-85309523D02*
X206400057Y-85261904D01*
X206400057Y-85261904D02*
X206495295Y-85214285D01*
X206495295Y-85214285D02*
X206590533Y-85214285D01*
X206590533Y-85214285D02*
X206733390Y-85261904D01*
X206733390Y-85261904D02*
X207304819Y-85833332D01*
X207304819Y-85833332D02*
X207304819Y-85214285D01*
X210254819Y-81633333D02*
X210969104Y-81633333D01*
X210969104Y-81633333D02*
X211111961Y-81680952D01*
X211111961Y-81680952D02*
X211207200Y-81776190D01*
X211207200Y-81776190D02*
X211254819Y-81919047D01*
X211254819Y-81919047D02*
X211254819Y-82014285D01*
X210588152Y-80728571D02*
X211254819Y-80728571D01*
X210207200Y-80966666D02*
X210921485Y-81204761D01*
X210921485Y-81204761D02*
X210921485Y-80585714D01*
X219359580Y-118142857D02*
X219407200Y-118190476D01*
X219407200Y-118190476D02*
X219454819Y-118333333D01*
X219454819Y-118333333D02*
X219454819Y-118428571D01*
X219454819Y-118428571D02*
X219407200Y-118571428D01*
X219407200Y-118571428D02*
X219311961Y-118666666D01*
X219311961Y-118666666D02*
X219216723Y-118714285D01*
X219216723Y-118714285D02*
X219026247Y-118761904D01*
X219026247Y-118761904D02*
X218883390Y-118761904D01*
X218883390Y-118761904D02*
X218692914Y-118714285D01*
X218692914Y-118714285D02*
X218597676Y-118666666D01*
X218597676Y-118666666D02*
X218502438Y-118571428D01*
X218502438Y-118571428D02*
X218454819Y-118428571D01*
X218454819Y-118428571D02*
X218454819Y-118333333D01*
X218454819Y-118333333D02*
X218502438Y-118190476D01*
X218502438Y-118190476D02*
X218550057Y-118142857D01*
X219454819Y-117190476D02*
X219454819Y-117761904D01*
X219454819Y-117476190D02*
X218454819Y-117476190D01*
X218454819Y-117476190D02*
X218597676Y-117571428D01*
X218597676Y-117571428D02*
X218692914Y-117666666D01*
X218692914Y-117666666D02*
X218740533Y-117761904D01*
X218454819Y-116571428D02*
X218454819Y-116476190D01*
X218454819Y-116476190D02*
X218502438Y-116380952D01*
X218502438Y-116380952D02*
X218550057Y-116333333D01*
X218550057Y-116333333D02*
X218645295Y-116285714D01*
X218645295Y-116285714D02*
X218835771Y-116238095D01*
X218835771Y-116238095D02*
X219073866Y-116238095D01*
X219073866Y-116238095D02*
X219264342Y-116285714D01*
X219264342Y-116285714D02*
X219359580Y-116333333D01*
X219359580Y-116333333D02*
X219407200Y-116380952D01*
X219407200Y-116380952D02*
X219454819Y-116476190D01*
X219454819Y-116476190D02*
X219454819Y-116571428D01*
X219454819Y-116571428D02*
X219407200Y-116666666D01*
X219407200Y-116666666D02*
X219359580Y-116714285D01*
X219359580Y-116714285D02*
X219264342Y-116761904D01*
X219264342Y-116761904D02*
X219073866Y-116809523D01*
X219073866Y-116809523D02*
X218835771Y-116809523D01*
X218835771Y-116809523D02*
X218645295Y-116761904D01*
X218645295Y-116761904D02*
X218550057Y-116714285D01*
X218550057Y-116714285D02*
X218502438Y-116666666D01*
X218502438Y-116666666D02*
X218454819Y-116571428D01*
X218833333Y-125354819D02*
X218500000Y-124878628D01*
X218261905Y-125354819D02*
X218261905Y-124354819D01*
X218261905Y-124354819D02*
X218642857Y-124354819D01*
X218642857Y-124354819D02*
X218738095Y-124402438D01*
X218738095Y-124402438D02*
X218785714Y-124450057D01*
X218785714Y-124450057D02*
X218833333Y-124545295D01*
X218833333Y-124545295D02*
X218833333Y-124688152D01*
X218833333Y-124688152D02*
X218785714Y-124783390D01*
X218785714Y-124783390D02*
X218738095Y-124831009D01*
X218738095Y-124831009D02*
X218642857Y-124878628D01*
X218642857Y-124878628D02*
X218261905Y-124878628D01*
X219404762Y-124783390D02*
X219309524Y-124735771D01*
X219309524Y-124735771D02*
X219261905Y-124688152D01*
X219261905Y-124688152D02*
X219214286Y-124592914D01*
X219214286Y-124592914D02*
X219214286Y-124545295D01*
X219214286Y-124545295D02*
X219261905Y-124450057D01*
X219261905Y-124450057D02*
X219309524Y-124402438D01*
X219309524Y-124402438D02*
X219404762Y-124354819D01*
X219404762Y-124354819D02*
X219595238Y-124354819D01*
X219595238Y-124354819D02*
X219690476Y-124402438D01*
X219690476Y-124402438D02*
X219738095Y-124450057D01*
X219738095Y-124450057D02*
X219785714Y-124545295D01*
X219785714Y-124545295D02*
X219785714Y-124592914D01*
X219785714Y-124592914D02*
X219738095Y-124688152D01*
X219738095Y-124688152D02*
X219690476Y-124735771D01*
X219690476Y-124735771D02*
X219595238Y-124783390D01*
X219595238Y-124783390D02*
X219404762Y-124783390D01*
X219404762Y-124783390D02*
X219309524Y-124831009D01*
X219309524Y-124831009D02*
X219261905Y-124878628D01*
X219261905Y-124878628D02*
X219214286Y-124973866D01*
X219214286Y-124973866D02*
X219214286Y-125164342D01*
X219214286Y-125164342D02*
X219261905Y-125259580D01*
X219261905Y-125259580D02*
X219309524Y-125307200D01*
X219309524Y-125307200D02*
X219404762Y-125354819D01*
X219404762Y-125354819D02*
X219595238Y-125354819D01*
X219595238Y-125354819D02*
X219690476Y-125307200D01*
X219690476Y-125307200D02*
X219738095Y-125259580D01*
X219738095Y-125259580D02*
X219785714Y-125164342D01*
X219785714Y-125164342D02*
X219785714Y-124973866D01*
X219785714Y-124973866D02*
X219738095Y-124878628D01*
X219738095Y-124878628D02*
X219690476Y-124831009D01*
X219690476Y-124831009D02*
X219595238Y-124783390D01*
X202259580Y-81966666D02*
X202307200Y-82014285D01*
X202307200Y-82014285D02*
X202354819Y-82157142D01*
X202354819Y-82157142D02*
X202354819Y-82252380D01*
X202354819Y-82252380D02*
X202307200Y-82395237D01*
X202307200Y-82395237D02*
X202211961Y-82490475D01*
X202211961Y-82490475D02*
X202116723Y-82538094D01*
X202116723Y-82538094D02*
X201926247Y-82585713D01*
X201926247Y-82585713D02*
X201783390Y-82585713D01*
X201783390Y-82585713D02*
X201592914Y-82538094D01*
X201592914Y-82538094D02*
X201497676Y-82490475D01*
X201497676Y-82490475D02*
X201402438Y-82395237D01*
X201402438Y-82395237D02*
X201354819Y-82252380D01*
X201354819Y-82252380D02*
X201354819Y-82157142D01*
X201354819Y-82157142D02*
X201402438Y-82014285D01*
X201402438Y-82014285D02*
X201450057Y-81966666D01*
X201354819Y-81633332D02*
X201354819Y-80966666D01*
X201354819Y-80966666D02*
X202354819Y-81395237D01*
X202283333Y-70354819D02*
X201950000Y-69878628D01*
X201711905Y-70354819D02*
X201711905Y-69354819D01*
X201711905Y-69354819D02*
X202092857Y-69354819D01*
X202092857Y-69354819D02*
X202188095Y-69402438D01*
X202188095Y-69402438D02*
X202235714Y-69450057D01*
X202235714Y-69450057D02*
X202283333Y-69545295D01*
X202283333Y-69545295D02*
X202283333Y-69688152D01*
X202283333Y-69688152D02*
X202235714Y-69783390D01*
X202235714Y-69783390D02*
X202188095Y-69831009D01*
X202188095Y-69831009D02*
X202092857Y-69878628D01*
X202092857Y-69878628D02*
X201711905Y-69878628D01*
X202616667Y-69354819D02*
X203235714Y-69354819D01*
X203235714Y-69354819D02*
X202902381Y-69735771D01*
X202902381Y-69735771D02*
X203045238Y-69735771D01*
X203045238Y-69735771D02*
X203140476Y-69783390D01*
X203140476Y-69783390D02*
X203188095Y-69831009D01*
X203188095Y-69831009D02*
X203235714Y-69926247D01*
X203235714Y-69926247D02*
X203235714Y-70164342D01*
X203235714Y-70164342D02*
X203188095Y-70259580D01*
X203188095Y-70259580D02*
X203140476Y-70307200D01*
X203140476Y-70307200D02*
X203045238Y-70354819D01*
X203045238Y-70354819D02*
X202759524Y-70354819D01*
X202759524Y-70354819D02*
X202664286Y-70307200D01*
X202664286Y-70307200D02*
X202616667Y-70259580D01*
D15*
%TO.C,C6*%
X195840302Y-114685000D02*
X196640302Y-114685000D01*
X196240302Y-114285000D02*
X196240302Y-115085000D01*
X200250000Y-112920000D02*
X200250000Y-121080000D01*
X200290000Y-112920000D02*
X200290000Y-121080000D01*
X200330000Y-112920000D02*
X200330000Y-121080000D01*
X200370000Y-112921000D02*
X200370000Y-121079000D01*
X200410000Y-112923000D02*
X200410000Y-121077000D01*
X200450000Y-112924000D02*
X200450000Y-121076000D01*
X200490000Y-112926000D02*
X200490000Y-121074000D01*
X200530000Y-112929000D02*
X200530000Y-121071000D01*
X200570000Y-112932000D02*
X200570000Y-121068000D01*
X200610000Y-112935000D02*
X200610000Y-121065000D01*
X200650000Y-112939000D02*
X200650000Y-121061000D01*
X200690000Y-112943000D02*
X200690000Y-121057000D01*
X200730000Y-112948000D02*
X200730000Y-121052000D01*
X200770000Y-112952000D02*
X200770000Y-121048000D01*
X200810000Y-112958000D02*
X200810000Y-121042000D01*
X200850000Y-112963000D02*
X200850000Y-121037000D01*
X200890000Y-112970000D02*
X200890000Y-121030000D01*
X200930000Y-112976000D02*
X200930000Y-121024000D01*
X200971000Y-112983000D02*
X200971000Y-115960000D01*
X200971000Y-118040000D02*
X200971000Y-121017000D01*
X201011000Y-112990000D02*
X201011000Y-115960000D01*
X201011000Y-118040000D02*
X201011000Y-121010000D01*
X201051000Y-112998000D02*
X201051000Y-115960000D01*
X201051000Y-118040000D02*
X201051000Y-121002000D01*
X201091000Y-113006000D02*
X201091000Y-115960000D01*
X201091000Y-118040000D02*
X201091000Y-120994000D01*
X201131000Y-113015000D02*
X201131000Y-115960000D01*
X201131000Y-118040000D02*
X201131000Y-120985000D01*
X201171000Y-113024000D02*
X201171000Y-115960000D01*
X201171000Y-118040000D02*
X201171000Y-120976000D01*
X201211000Y-113033000D02*
X201211000Y-115960000D01*
X201211000Y-118040000D02*
X201211000Y-120967000D01*
X201251000Y-113043000D02*
X201251000Y-115960000D01*
X201251000Y-118040000D02*
X201251000Y-120957000D01*
X201291000Y-113053000D02*
X201291000Y-115960000D01*
X201291000Y-118040000D02*
X201291000Y-120947000D01*
X201331000Y-113064000D02*
X201331000Y-115960000D01*
X201331000Y-118040000D02*
X201331000Y-120936000D01*
X201371000Y-113075000D02*
X201371000Y-115960000D01*
X201371000Y-118040000D02*
X201371000Y-120925000D01*
X201411000Y-113086000D02*
X201411000Y-115960000D01*
X201411000Y-118040000D02*
X201411000Y-120914000D01*
X201451000Y-113098000D02*
X201451000Y-115960000D01*
X201451000Y-118040000D02*
X201451000Y-120902000D01*
X201491000Y-113111000D02*
X201491000Y-115960000D01*
X201491000Y-118040000D02*
X201491000Y-120889000D01*
X201531000Y-113123000D02*
X201531000Y-115960000D01*
X201531000Y-118040000D02*
X201531000Y-120877000D01*
X201571000Y-113137000D02*
X201571000Y-115960000D01*
X201571000Y-118040000D02*
X201571000Y-120863000D01*
X201611000Y-113150000D02*
X201611000Y-115960000D01*
X201611000Y-118040000D02*
X201611000Y-120850000D01*
X201651000Y-113165000D02*
X201651000Y-115960000D01*
X201651000Y-118040000D02*
X201651000Y-120835000D01*
X201691000Y-113179000D02*
X201691000Y-115960000D01*
X201691000Y-118040000D02*
X201691000Y-120821000D01*
X201731000Y-113195000D02*
X201731000Y-115960000D01*
X201731000Y-118040000D02*
X201731000Y-120805000D01*
X201771000Y-113210000D02*
X201771000Y-115960000D01*
X201771000Y-118040000D02*
X201771000Y-120790000D01*
X201811000Y-113226000D02*
X201811000Y-115960000D01*
X201811000Y-118040000D02*
X201811000Y-120774000D01*
X201851000Y-113243000D02*
X201851000Y-115960000D01*
X201851000Y-118040000D02*
X201851000Y-120757000D01*
X201891000Y-113260000D02*
X201891000Y-115960000D01*
X201891000Y-118040000D02*
X201891000Y-120740000D01*
X201931000Y-113278000D02*
X201931000Y-115960000D01*
X201931000Y-118040000D02*
X201931000Y-120722000D01*
X201971000Y-113296000D02*
X201971000Y-115960000D01*
X201971000Y-118040000D02*
X201971000Y-120704000D01*
X202011000Y-113314000D02*
X202011000Y-115960000D01*
X202011000Y-118040000D02*
X202011000Y-120686000D01*
X202051000Y-113334000D02*
X202051000Y-115960000D01*
X202051000Y-118040000D02*
X202051000Y-120666000D01*
X202091000Y-113353000D02*
X202091000Y-115960000D01*
X202091000Y-118040000D02*
X202091000Y-120647000D01*
X202131000Y-113373000D02*
X202131000Y-115960000D01*
X202131000Y-118040000D02*
X202131000Y-120627000D01*
X202171000Y-113394000D02*
X202171000Y-115960000D01*
X202171000Y-118040000D02*
X202171000Y-120606000D01*
X202211000Y-113416000D02*
X202211000Y-115960000D01*
X202211000Y-118040000D02*
X202211000Y-120584000D01*
X202251000Y-113438000D02*
X202251000Y-115960000D01*
X202251000Y-118040000D02*
X202251000Y-120562000D01*
X202291000Y-113460000D02*
X202291000Y-115960000D01*
X202291000Y-118040000D02*
X202291000Y-120540000D01*
X202331000Y-113483000D02*
X202331000Y-115960000D01*
X202331000Y-118040000D02*
X202331000Y-120517000D01*
X202371000Y-113507000D02*
X202371000Y-115960000D01*
X202371000Y-118040000D02*
X202371000Y-120493000D01*
X202411000Y-113531000D02*
X202411000Y-115960000D01*
X202411000Y-118040000D02*
X202411000Y-120469000D01*
X202451000Y-113556000D02*
X202451000Y-115960000D01*
X202451000Y-118040000D02*
X202451000Y-120444000D01*
X202491000Y-113582000D02*
X202491000Y-115960000D01*
X202491000Y-118040000D02*
X202491000Y-120418000D01*
X202531000Y-113608000D02*
X202531000Y-115960000D01*
X202531000Y-118040000D02*
X202531000Y-120392000D01*
X202571000Y-113635000D02*
X202571000Y-115960000D01*
X202571000Y-118040000D02*
X202571000Y-120365000D01*
X202611000Y-113662000D02*
X202611000Y-115960000D01*
X202611000Y-118040000D02*
X202611000Y-120338000D01*
X202651000Y-113691000D02*
X202651000Y-115960000D01*
X202651000Y-118040000D02*
X202651000Y-120309000D01*
X202691000Y-113720000D02*
X202691000Y-115960000D01*
X202691000Y-118040000D02*
X202691000Y-120280000D01*
X202731000Y-113750000D02*
X202731000Y-115960000D01*
X202731000Y-118040000D02*
X202731000Y-120250000D01*
X202771000Y-113780000D02*
X202771000Y-115960000D01*
X202771000Y-118040000D02*
X202771000Y-120220000D01*
X202811000Y-113811000D02*
X202811000Y-115960000D01*
X202811000Y-118040000D02*
X202811000Y-120189000D01*
X202851000Y-113844000D02*
X202851000Y-115960000D01*
X202851000Y-118040000D02*
X202851000Y-120156000D01*
X202891000Y-113876000D02*
X202891000Y-115960000D01*
X202891000Y-118040000D02*
X202891000Y-120124000D01*
X202931000Y-113910000D02*
X202931000Y-115960000D01*
X202931000Y-118040000D02*
X202931000Y-120090000D01*
X202971000Y-113945000D02*
X202971000Y-115960000D01*
X202971000Y-118040000D02*
X202971000Y-120055000D01*
X203011000Y-113981000D02*
X203011000Y-115960000D01*
X203011000Y-118040000D02*
X203011000Y-120019000D01*
X203051000Y-114017000D02*
X203051000Y-119983000D01*
X203091000Y-114055000D02*
X203091000Y-119945000D01*
X203131000Y-114093000D02*
X203131000Y-119907000D01*
X203171000Y-114133000D02*
X203171000Y-119867000D01*
X203211000Y-114174000D02*
X203211000Y-119826000D01*
X203251000Y-114216000D02*
X203251000Y-119784000D01*
X203291000Y-114259000D02*
X203291000Y-119741000D01*
X203331000Y-114303000D02*
X203331000Y-119697000D01*
X203371000Y-114349000D02*
X203371000Y-119651000D01*
X203411000Y-114396000D02*
X203411000Y-119604000D01*
X203451000Y-114444000D02*
X203451000Y-119556000D01*
X203491000Y-114495000D02*
X203491000Y-119505000D01*
X203531000Y-114546000D02*
X203531000Y-119454000D01*
X203571000Y-114600000D02*
X203571000Y-119400000D01*
X203611000Y-114655000D02*
X203611000Y-119345000D01*
X203651000Y-114713000D02*
X203651000Y-119287000D01*
X203691000Y-114772000D02*
X203691000Y-119228000D01*
X203731000Y-114834000D02*
X203731000Y-119166000D01*
X203771000Y-114898000D02*
X203771000Y-119102000D01*
X203811000Y-114966000D02*
X203811000Y-119034000D01*
X203851000Y-115036000D02*
X203851000Y-118964000D01*
X203891000Y-115110000D02*
X203891000Y-118890000D01*
X203931000Y-115187000D02*
X203931000Y-118813000D01*
X203971000Y-115269000D02*
X203971000Y-118731000D01*
X204011000Y-115355000D02*
X204011000Y-118645000D01*
X204051000Y-115448000D02*
X204051000Y-118552000D01*
X204091000Y-115547000D02*
X204091000Y-118453000D01*
X204131000Y-115654000D02*
X204131000Y-118346000D01*
X204171000Y-115771000D02*
X204171000Y-118229000D01*
X204211000Y-115902000D02*
X204211000Y-118098000D01*
X204251000Y-116052000D02*
X204251000Y-117948000D01*
X204291000Y-116232000D02*
X204291000Y-117768000D01*
X204331000Y-116467000D02*
X204331000Y-117533000D01*
X204370000Y-117000000D02*
G75*
G02*
X196130000Y-117000000I-4120000J0D01*
G01*
X196130000Y-117000000D02*
G75*
G02*
X204370000Y-117000000I4120000J0D01*
G01*
%TO.C,J9*%
X237170000Y-100670000D02*
X238500000Y-100670000D01*
X237170000Y-102000000D02*
X237170000Y-100670000D01*
X237170000Y-103270000D02*
X237170000Y-121110000D01*
X237170000Y-103270000D02*
X239830000Y-103270000D01*
X237170000Y-121110000D02*
X239830000Y-121110000D01*
X239830000Y-103270000D02*
X239830000Y-121110000D01*
%TO.C,R6*%
X237572936Y-74765000D02*
X238027064Y-74765000D01*
X237572936Y-76235000D02*
X238027064Y-76235000D01*
%TO.C,J8*%
X226400000Y-91200000D02*
X226400000Y-92450000D01*
X226690000Y-91490000D02*
X226690000Y-97460000D01*
X226690000Y-97460000D02*
X239310000Y-97460000D01*
X226700000Y-91500000D02*
X226700000Y-92250000D01*
X226700000Y-92250000D02*
X228500000Y-92250000D01*
X226700000Y-93750000D02*
X227450000Y-93750000D01*
X227450000Y-93750000D02*
X227450000Y-96700000D01*
X227450000Y-96700000D02*
X233000000Y-96700000D01*
X227650000Y-91200000D02*
X226400000Y-91200000D01*
X228500000Y-91500000D02*
X226700000Y-91500000D01*
X228500000Y-92250000D02*
X228500000Y-91500000D01*
X230000000Y-91500000D02*
X230000000Y-92250000D01*
X230000000Y-92250000D02*
X236000000Y-92250000D01*
X236000000Y-91500000D02*
X230000000Y-91500000D01*
X236000000Y-92250000D02*
X236000000Y-91500000D01*
X237500000Y-91500000D02*
X237500000Y-92250000D01*
X237500000Y-92250000D02*
X239300000Y-92250000D01*
X238550000Y-93750000D02*
X238550000Y-96700000D01*
X238550000Y-96700000D02*
X233000000Y-96700000D01*
X239300000Y-91500000D02*
X237500000Y-91500000D01*
X239300000Y-92250000D02*
X239300000Y-91500000D01*
X239300000Y-93750000D02*
X238550000Y-93750000D01*
X239310000Y-91490000D02*
X226690000Y-91490000D01*
X239310000Y-97460000D02*
X239310000Y-91490000D01*
%TO.C,J6*%
X226400000Y-77600000D02*
X226400000Y-78850000D01*
X226690000Y-77890000D02*
X226690000Y-83860000D01*
X226690000Y-83860000D02*
X239310000Y-83860000D01*
X226700000Y-77900000D02*
X226700000Y-78650000D01*
X226700000Y-78650000D02*
X228500000Y-78650000D01*
X226700000Y-80150000D02*
X227450000Y-80150000D01*
X227450000Y-80150000D02*
X227450000Y-83100000D01*
X227450000Y-83100000D02*
X233000000Y-83100000D01*
X227650000Y-77600000D02*
X226400000Y-77600000D01*
X228500000Y-77900000D02*
X226700000Y-77900000D01*
X228500000Y-78650000D02*
X228500000Y-77900000D01*
X230000000Y-77900000D02*
X230000000Y-78650000D01*
X230000000Y-78650000D02*
X236000000Y-78650000D01*
X236000000Y-77900000D02*
X230000000Y-77900000D01*
X236000000Y-78650000D02*
X236000000Y-77900000D01*
X237500000Y-77900000D02*
X237500000Y-78650000D01*
X237500000Y-78650000D02*
X239300000Y-78650000D01*
X238550000Y-80150000D02*
X238550000Y-83100000D01*
X238550000Y-83100000D02*
X233000000Y-83100000D01*
X239300000Y-77900000D02*
X237500000Y-77900000D01*
X239300000Y-78650000D02*
X239300000Y-77900000D01*
X239300000Y-80150000D02*
X238550000Y-80150000D01*
X239310000Y-77890000D02*
X226690000Y-77890000D01*
X239310000Y-83860000D02*
X239310000Y-77890000D01*
%TO.C,D3*%
X228290000Y-126920000D02*
X228290000Y-126764000D01*
X228290000Y-129236000D02*
X228290000Y-129080000D01*
X225057666Y-126921392D02*
G75*
G02*
X228289999Y-126764485I1672334J-1078608D01*
G01*
X225688871Y-126920164D02*
G75*
G02*
X227770960Y-126920001I1041129J-1079836D01*
G01*
X227770960Y-129079999D02*
G75*
G02*
X225688871Y-129079836I-1040960J1079999D01*
G01*
X228289999Y-129235515D02*
G75*
G02*
X225057666Y-129078608I-1559999J1235515D01*
G01*
%TO.C,Y1*%
X214925000Y-101860000D02*
X214925000Y-108260000D01*
X219975000Y-101860000D02*
X219975000Y-108260000D01*
X214925000Y-101860000D02*
G75*
G02*
X219975000Y-101860000I2525000J0D01*
G01*
X219975000Y-108260000D02*
G75*
G02*
X214925000Y-108260000I-2525000J0D01*
G01*
D10*
%TO.C,J1*%
X189997349Y-113000000D02*
X189997349Y-116000000D01*
X189997349Y-120800000D02*
X189997349Y-116000000D01*
X189997349Y-120800000D02*
X192397349Y-120800000D01*
X192397349Y-120800000D02*
X195097349Y-120800000D01*
X193697349Y-113000000D02*
X189997349Y-113000000D01*
X195097349Y-113000000D02*
X193697349Y-113000000D01*
X195097349Y-114700000D02*
X195097349Y-113000000D01*
X195097349Y-114700000D02*
X195097349Y-120800000D01*
D15*
%TO.C,C3*%
X228261252Y-71765000D02*
X227738748Y-71765000D01*
X228261252Y-73235000D02*
X227738748Y-73235000D01*
%TO.C,C12*%
X211715000Y-108261252D02*
X211715000Y-107738748D01*
X213185000Y-108261252D02*
X213185000Y-107738748D01*
%TO.C,D1*%
X192480000Y-76025000D02*
X192480000Y-76295000D01*
X192480000Y-82925000D02*
X192480000Y-82655000D01*
X198900000Y-76025000D02*
X192480000Y-76025000D01*
X198900000Y-82925000D02*
X192480000Y-82925000D01*
X191060000Y-76335000D02*
X190820000Y-76005000D01*
X191300000Y-76005000D01*
X191060000Y-76335000D01*
G36*
X191060000Y-76335000D02*
G01*
X190820000Y-76005000D01*
X191300000Y-76005000D01*
X191060000Y-76335000D01*
G37*
D16*
%TO.C,G\u002A\u002A\u002A*%
G36*
X215128081Y-61861446D02*
G01*
X215128081Y-62079686D01*
X214081877Y-62089341D01*
X213035674Y-62098997D01*
X213035674Y-62772206D01*
X213035674Y-63445415D01*
X213954513Y-63455138D01*
X214873353Y-63464860D01*
X214873353Y-63664378D01*
X214873353Y-63863897D01*
X213945416Y-63863897D01*
X213017479Y-63863897D01*
X213017479Y-64609885D01*
X213017479Y-65355874D01*
X214109169Y-65355874D01*
X215200860Y-65355874D01*
X215200860Y-65574212D01*
X215200860Y-65792550D01*
X213854141Y-65792550D01*
X212507422Y-65792550D01*
X212516820Y-63727435D01*
X212526218Y-61662321D01*
X213827149Y-61652764D01*
X215128081Y-61643207D01*
X215128081Y-61861446D01*
G37*
G36*
X214595154Y-60273450D02*
G01*
X215066540Y-60400756D01*
X215518662Y-60598239D01*
X215951631Y-60865931D01*
X216111518Y-60986352D01*
X216461898Y-61308496D01*
X216763930Y-61677834D01*
X217013542Y-62085282D01*
X217206660Y-62521760D01*
X217339210Y-62978184D01*
X217407121Y-63445472D01*
X217408876Y-63879139D01*
X217340436Y-64385624D01*
X217206377Y-64865755D01*
X217010469Y-65314791D01*
X216756485Y-65727993D01*
X216448194Y-66100624D01*
X216089368Y-66427943D01*
X215683778Y-66705212D01*
X215235195Y-66927693D01*
X214883609Y-67052526D01*
X214739140Y-67092643D01*
X214604872Y-67120955D01*
X214460949Y-67139954D01*
X214287519Y-67152129D01*
X214064725Y-67159973D01*
X214018195Y-67161109D01*
X213732332Y-67163720D01*
X213506789Y-67156228D01*
X213329732Y-67138029D01*
X213239624Y-67121218D01*
X212748980Y-66976540D01*
X212292016Y-66773591D01*
X211875221Y-66516255D01*
X211505081Y-66208416D01*
X211246240Y-65927559D01*
X211092155Y-65732781D01*
X210973832Y-65566494D01*
X210876523Y-65404788D01*
X210785483Y-65223751D01*
X210714120Y-65064756D01*
X210601462Y-64776860D01*
X210523368Y-64501694D01*
X210473279Y-64210719D01*
X210445886Y-63897548D01*
X210446771Y-63826153D01*
X210954163Y-63826153D01*
X211009820Y-64280430D01*
X211123084Y-64697420D01*
X211298459Y-65089604D01*
X211540451Y-65469461D01*
X211553655Y-65487377D01*
X211833822Y-65816284D01*
X212147975Y-66088618D01*
X212508067Y-66313749D01*
X212762570Y-66434994D01*
X213010080Y-66531388D01*
X213241576Y-66597303D01*
X213479229Y-66636490D01*
X213745212Y-66652699D01*
X214036390Y-66650470D01*
X214253839Y-66642005D01*
X214420254Y-66629333D01*
X214557377Y-66609177D01*
X214686948Y-66578264D01*
X214830706Y-66533318D01*
X214844151Y-66528788D01*
X215266508Y-66349805D01*
X215649514Y-66115188D01*
X215989111Y-65831282D01*
X216281240Y-65504430D01*
X216521843Y-65140976D01*
X216706862Y-64747265D01*
X216832238Y-64329640D01*
X216893913Y-63894446D01*
X216887830Y-63448025D01*
X216877211Y-63350645D01*
X216783734Y-62889988D01*
X216625309Y-62458966D01*
X216405403Y-62062382D01*
X216127480Y-61705037D01*
X215795004Y-61391735D01*
X215411442Y-61127277D01*
X215186740Y-61007650D01*
X214895847Y-60883469D01*
X214613044Y-60800033D01*
X214316912Y-60753315D01*
X213986031Y-60739287D01*
X213784334Y-60743928D01*
X213378555Y-60781535D01*
X213013935Y-60863362D01*
X212671036Y-60996105D01*
X212330419Y-61186460D01*
X212155329Y-61305022D01*
X211830270Y-61580051D01*
X211548522Y-61906487D01*
X211315072Y-62273868D01*
X211134904Y-62671730D01*
X211013002Y-63089612D01*
X210954351Y-63517051D01*
X210954163Y-63826153D01*
X210446771Y-63826153D01*
X210452052Y-63400343D01*
X210526419Y-62917443D01*
X210665442Y-62454962D01*
X210865574Y-62019011D01*
X211123269Y-61615703D01*
X211434981Y-61251151D01*
X211797164Y-60931466D01*
X212206271Y-60662761D01*
X212373358Y-60575263D01*
X212788970Y-60400337D01*
X213204350Y-60285971D01*
X213594137Y-60229228D01*
X214104390Y-60216285D01*
X214595154Y-60273450D01*
G37*
D15*
%TO.C,J2*%
X211890000Y-91390000D02*
X211890000Y-97360000D01*
X211890000Y-97360000D02*
X222010000Y-97360000D01*
X211900000Y-95100000D02*
X212650000Y-95100000D01*
X211900000Y-96600000D02*
X211900000Y-97350000D01*
X211900000Y-97350000D02*
X213700000Y-97350000D01*
X212650000Y-92150000D02*
X216950000Y-92150000D01*
X212650000Y-95100000D02*
X212650000Y-92150000D01*
X213700000Y-96600000D02*
X211900000Y-96600000D01*
X213700000Y-97350000D02*
X213700000Y-96600000D01*
X215200000Y-96600000D02*
X215200000Y-97350000D01*
X215200000Y-97350000D02*
X218700000Y-97350000D01*
X218700000Y-96600000D02*
X215200000Y-96600000D01*
X218700000Y-97350000D02*
X218700000Y-96600000D01*
X220200000Y-96600000D02*
X220200000Y-97350000D01*
X220200000Y-97350000D02*
X222000000Y-97350000D01*
X221050000Y-97650000D02*
X222300000Y-97650000D01*
X221250000Y-92150000D02*
X216950000Y-92150000D01*
X221250000Y-95100000D02*
X221250000Y-92150000D01*
X222000000Y-95100000D02*
X221250000Y-95100000D01*
X222000000Y-96600000D02*
X220200000Y-96600000D01*
X222000000Y-97350000D02*
X222000000Y-96600000D01*
X222010000Y-91390000D02*
X211890000Y-91390000D01*
X222010000Y-97360000D02*
X222010000Y-91390000D01*
X222300000Y-97650000D02*
X222300000Y-96400000D01*
D16*
%TO.C,G\u002A\u002A\u002A*%
G36*
X200650133Y-60144210D02*
G01*
X200650133Y-60788597D01*
X200005746Y-60788597D01*
X199361359Y-60788597D01*
X199361359Y-60144210D01*
X199361359Y-59499823D01*
X200005746Y-59499823D01*
X200650133Y-59499823D01*
X200650133Y-60144210D01*
G37*
G36*
X200650133Y-61822105D02*
G01*
X200650133Y-62467085D01*
X200005746Y-62467085D01*
X199361359Y-62467085D01*
X199361359Y-61822105D01*
X199361359Y-61177125D01*
X200005746Y-61177125D01*
X200650133Y-61177125D01*
X200650133Y-61822105D01*
G37*
G36*
X200650133Y-65177895D02*
G01*
X200650133Y-65822874D01*
X200005746Y-65822874D01*
X199361359Y-65822874D01*
X199361359Y-65177895D01*
X199361359Y-64532915D01*
X200005746Y-64532915D01*
X200650133Y-64532915D01*
X200650133Y-65177895D01*
G37*
G36*
X200650133Y-66855789D02*
G01*
X200650133Y-67500177D01*
X200005746Y-67500177D01*
X199361359Y-67500177D01*
X199361359Y-66855789D01*
X199361359Y-66211402D01*
X200005746Y-66211402D01*
X200650133Y-66211402D01*
X200650133Y-66855789D01*
G37*
G36*
X202248072Y-60144210D02*
G01*
X202248072Y-60788597D01*
X201603685Y-60788597D01*
X200959297Y-60788597D01*
X200959297Y-60144210D01*
X200959297Y-59499823D01*
X201603685Y-59499823D01*
X202248072Y-59499823D01*
X202248072Y-60144210D01*
G37*
G36*
X202248072Y-61822105D02*
G01*
X202248072Y-62467085D01*
X201603685Y-62467085D01*
X200959297Y-62467085D01*
X200959297Y-61822105D01*
X200959297Y-61177125D01*
X201603685Y-61177125D01*
X202248072Y-61177125D01*
X202248072Y-61822105D01*
G37*
G36*
X202248072Y-65177895D02*
G01*
X202248072Y-65822874D01*
X201603685Y-65822874D01*
X200959297Y-65822874D01*
X200959297Y-65177895D01*
X200959297Y-64532915D01*
X201603685Y-64532915D01*
X202248072Y-64532915D01*
X202248072Y-65177895D01*
G37*
G36*
X202248072Y-66855789D02*
G01*
X202248072Y-67500177D01*
X201603685Y-67500177D01*
X200959297Y-67500177D01*
X200959297Y-66855789D01*
X200959297Y-66211402D01*
X201603685Y-66211402D01*
X202248072Y-66211402D01*
X202248072Y-66855789D01*
G37*
G36*
X203846011Y-60144210D02*
G01*
X203846011Y-60788597D01*
X203201623Y-60788597D01*
X202557236Y-60788597D01*
X202557236Y-60144210D01*
X202557236Y-59499823D01*
X203201623Y-59499823D01*
X203846011Y-59499823D01*
X203846011Y-60144210D01*
G37*
G36*
X203846011Y-61822105D02*
G01*
X203846011Y-62467085D01*
X203201623Y-62467085D01*
X202557236Y-62467085D01*
X202557236Y-61822105D01*
X202557236Y-61177125D01*
X203201623Y-61177125D01*
X203846011Y-61177125D01*
X203846011Y-61822105D01*
G37*
G36*
X203846011Y-65177895D02*
G01*
X203846011Y-65822874D01*
X203201623Y-65822874D01*
X202557236Y-65822874D01*
X202557236Y-65177895D01*
X202557236Y-64532915D01*
X203201623Y-64532915D01*
X203846011Y-64532915D01*
X203846011Y-65177895D01*
G37*
G36*
X203846011Y-66855789D02*
G01*
X203846011Y-67500177D01*
X203201623Y-67500177D01*
X202557236Y-67500177D01*
X202557236Y-66855789D01*
X202557236Y-66211402D01*
X203201623Y-66211402D01*
X203846011Y-66211402D01*
X203846011Y-66855789D01*
G37*
G36*
X203868517Y-63266054D02*
G01*
X203868517Y-63409975D01*
X203824689Y-63409975D01*
X203780861Y-63409975D01*
X203780861Y-63266054D01*
X203780861Y-63122133D01*
X203824689Y-63122133D01*
X203868517Y-63122133D01*
X203868517Y-63266054D01*
G37*
G36*
X204065150Y-63266054D02*
G01*
X204065150Y-63409975D01*
X204021322Y-63409975D01*
X203977494Y-63409975D01*
X203977494Y-63266054D01*
X203977494Y-63122133D01*
X204021322Y-63122133D01*
X204065150Y-63122133D01*
X204065150Y-63266054D01*
G37*
G36*
X205443950Y-60144210D02*
G01*
X205443950Y-60788597D01*
X204799562Y-60788597D01*
X204155175Y-60788597D01*
X204155175Y-60144210D01*
X204155175Y-59499823D01*
X204799562Y-59499823D01*
X205443950Y-59499823D01*
X205443950Y-60144210D01*
G37*
G36*
X205443950Y-61822105D02*
G01*
X205443950Y-62467085D01*
X204799562Y-62467085D01*
X204155175Y-62467085D01*
X204155175Y-61822105D01*
X204155175Y-61177125D01*
X204799562Y-61177125D01*
X205443950Y-61177125D01*
X205443950Y-61822105D01*
G37*
G36*
X205443950Y-65177895D02*
G01*
X205443950Y-65822874D01*
X204799562Y-65822874D01*
X204155175Y-65822874D01*
X204155175Y-65177895D01*
X204155175Y-64532915D01*
X204799562Y-64532915D01*
X205443950Y-64532915D01*
X205443950Y-65177895D01*
G37*
G36*
X205443950Y-66855789D02*
G01*
X205443950Y-67500177D01*
X204799562Y-67500177D01*
X204155175Y-67500177D01*
X204155175Y-66855789D01*
X204155175Y-66211402D01*
X204799562Y-66211402D01*
X205443950Y-66211402D01*
X205443950Y-66855789D01*
G37*
G36*
X206615455Y-63266054D02*
G01*
X206615455Y-63409975D01*
X206571035Y-63409975D01*
X206526615Y-63409975D01*
X206526615Y-63266054D01*
X206526615Y-63122133D01*
X206571035Y-63122133D01*
X206615455Y-63122133D01*
X206615455Y-63266054D01*
G37*
G36*
X206812088Y-63266054D02*
G01*
X206812088Y-63409975D01*
X206767668Y-63409975D01*
X206723248Y-63409975D01*
X206723248Y-63266054D01*
X206723248Y-63122133D01*
X206767668Y-63122133D01*
X206812088Y-63122133D01*
X206812088Y-63266054D01*
G37*
G36*
X207041888Y-60144210D02*
G01*
X207041888Y-60788597D01*
X206397501Y-60788597D01*
X205753113Y-60788597D01*
X205753113Y-60144210D01*
X205753113Y-59499823D01*
X206397501Y-59499823D01*
X207041888Y-59499823D01*
X207041888Y-60144210D01*
G37*
G36*
X207041888Y-61822105D02*
G01*
X207041888Y-62467085D01*
X206397501Y-62467085D01*
X205753113Y-62467085D01*
X205753113Y-61822105D01*
X205753113Y-61177125D01*
X206397501Y-61177125D01*
X207041888Y-61177125D01*
X207041888Y-61822105D01*
G37*
G36*
X207041888Y-65177895D02*
G01*
X207041888Y-65822874D01*
X206397501Y-65822874D01*
X205753113Y-65822874D01*
X205753113Y-65177895D01*
X205753113Y-64532915D01*
X206397501Y-64532915D01*
X207041888Y-64532915D01*
X207041888Y-65177895D01*
G37*
G36*
X207041888Y-66855789D02*
G01*
X207041888Y-67500177D01*
X206397501Y-67500177D01*
X205753113Y-67500177D01*
X205753113Y-66855789D01*
X205753113Y-66211402D01*
X206397501Y-66211402D01*
X207041888Y-66211402D01*
X207041888Y-66855789D01*
G37*
G36*
X208639827Y-60144210D02*
G01*
X208639827Y-60788597D01*
X207995440Y-60788597D01*
X207351052Y-60788597D01*
X207351052Y-60144210D01*
X207351052Y-59499823D01*
X207995440Y-59499823D01*
X208639827Y-59499823D01*
X208639827Y-60144210D01*
G37*
G36*
X208639827Y-61822105D02*
G01*
X208639827Y-62467085D01*
X207995440Y-62467085D01*
X207351052Y-62467085D01*
X207351052Y-61822105D01*
X207351052Y-61177125D01*
X207995440Y-61177125D01*
X208639827Y-61177125D01*
X208639827Y-61822105D01*
G37*
G36*
X208639827Y-65177895D02*
G01*
X208639827Y-65822874D01*
X207995440Y-65822874D01*
X207351052Y-65822874D01*
X207351052Y-65177895D01*
X207351052Y-64532915D01*
X207995440Y-64532915D01*
X208639827Y-64532915D01*
X208639827Y-65177895D01*
G37*
G36*
X208639827Y-66855789D02*
G01*
X208639827Y-67500177D01*
X207995440Y-67500177D01*
X207351052Y-67500177D01*
X207351052Y-66855789D01*
X207351052Y-66211402D01*
X207995440Y-66211402D01*
X208639827Y-66211402D01*
X208639827Y-66855789D01*
G37*
G36*
X204374608Y-63446180D02*
G01*
X204374906Y-63770227D01*
X204546652Y-63446180D01*
X204718399Y-63122133D01*
X204789186Y-63122133D01*
X204859973Y-63122133D01*
X204859973Y-63510068D01*
X204859973Y-63898004D01*
X204809041Y-63898004D01*
X204758108Y-63898004D01*
X204757809Y-63573860D01*
X204757511Y-63249717D01*
X204585753Y-63573848D01*
X204413996Y-63897980D01*
X204343220Y-63897992D01*
X204272444Y-63898004D01*
X204272444Y-63510068D01*
X204272444Y-63122133D01*
X204323377Y-63122133D01*
X204374310Y-63122133D01*
X204374608Y-63446180D01*
G37*
G36*
X202062393Y-63313372D02*
G01*
X202062692Y-63504611D01*
X202249751Y-63313372D01*
X202436811Y-63122133D01*
X202504416Y-63122133D01*
X202572022Y-63122133D01*
X202547047Y-63147304D01*
X202543020Y-63151377D01*
X202537470Y-63157011D01*
X202530529Y-63164074D01*
X202522328Y-63172430D01*
X202512997Y-63181947D01*
X202502668Y-63192490D01*
X202491472Y-63203925D01*
X202479540Y-63216118D01*
X202467004Y-63228936D01*
X202453994Y-63242243D01*
X202440643Y-63255907D01*
X202427080Y-63269793D01*
X202416275Y-63280861D01*
X202402766Y-63294698D01*
X202389447Y-63308336D01*
X202376442Y-63321649D01*
X202363875Y-63334510D01*
X202351868Y-63346793D01*
X202340545Y-63358373D01*
X202330029Y-63369123D01*
X202320444Y-63378917D01*
X202311912Y-63387629D01*
X202304558Y-63395133D01*
X202298503Y-63401303D01*
X202293873Y-63406013D01*
X202291098Y-63408825D01*
X202271718Y-63428405D01*
X202429345Y-63662908D01*
X202586971Y-63897411D01*
X202530349Y-63897733D01*
X202517305Y-63897804D01*
X202506427Y-63897853D01*
X202497507Y-63897872D01*
X202490343Y-63897853D01*
X202484728Y-63897790D01*
X202480459Y-63897676D01*
X202477331Y-63897503D01*
X202475139Y-63897264D01*
X202473678Y-63896952D01*
X202472743Y-63896560D01*
X202472130Y-63896080D01*
X202471777Y-63895681D01*
X202470930Y-63894475D01*
X202468824Y-63891398D01*
X202465525Y-63886545D01*
X202461094Y-63880010D01*
X202455598Y-63871888D01*
X202449098Y-63862275D01*
X202441660Y-63851264D01*
X202433347Y-63838951D01*
X202424224Y-63825430D01*
X202414353Y-63810797D01*
X202403800Y-63795145D01*
X202392628Y-63778569D01*
X202380901Y-63761165D01*
X202368682Y-63743027D01*
X202356037Y-63724250D01*
X202343028Y-63704928D01*
X202338057Y-63697542D01*
X202324937Y-63678053D01*
X202312160Y-63659080D01*
X202299791Y-63640717D01*
X202287892Y-63623058D01*
X202276528Y-63606198D01*
X202265762Y-63590232D01*
X202255658Y-63575252D01*
X202246279Y-63561354D01*
X202237689Y-63548632D01*
X202229951Y-63537180D01*
X202223130Y-63527092D01*
X202217289Y-63518463D01*
X202212491Y-63511386D01*
X202208799Y-63505956D01*
X202206279Y-63502267D01*
X202204993Y-63500413D01*
X202204841Y-63500209D01*
X202204308Y-63500201D01*
X202203205Y-63500841D01*
X202201440Y-63502221D01*
X202198918Y-63504432D01*
X202195548Y-63507564D01*
X202191236Y-63511710D01*
X202185889Y-63516960D01*
X202179414Y-63523404D01*
X202171717Y-63531135D01*
X202162706Y-63540243D01*
X202152288Y-63550819D01*
X202140369Y-63562954D01*
X202132784Y-63570689D01*
X202062174Y-63642736D01*
X202062137Y-63770370D01*
X202062100Y-63898004D01*
X202009388Y-63898004D01*
X201956676Y-63898004D01*
X201956676Y-63510068D01*
X201956676Y-63122133D01*
X202009385Y-63122133D01*
X202062093Y-63122133D01*
X202062393Y-63313372D01*
G37*
G36*
X208639827Y-63500000D02*
G01*
X208639827Y-64144387D01*
X204000593Y-64144387D01*
X199361359Y-64144387D01*
X199361359Y-63766617D01*
X199451597Y-63766617D01*
X199451598Y-63795872D01*
X199451603Y-63823943D01*
X199451609Y-63850756D01*
X199451618Y-63876239D01*
X199451629Y-63900316D01*
X199451642Y-63922916D01*
X199451658Y-63943963D01*
X199451676Y-63963385D01*
X199451696Y-63981107D01*
X199451718Y-63997056D01*
X199451742Y-64011159D01*
X199451768Y-64023341D01*
X199451796Y-64033529D01*
X199451826Y-64041648D01*
X199451858Y-64047627D01*
X199451892Y-64051390D01*
X199451928Y-64052864D01*
X199451932Y-64052882D01*
X199452346Y-64052924D01*
X199453570Y-64052966D01*
X199455622Y-64053007D01*
X199458522Y-64053046D01*
X199462288Y-64053086D01*
X199466939Y-64053124D01*
X199472494Y-64053161D01*
X199478973Y-64053198D01*
X199486394Y-64053234D01*
X199494776Y-64053269D01*
X199504138Y-64053304D01*
X199514500Y-64053337D01*
X199525880Y-64053370D01*
X199538298Y-64053402D01*
X199551771Y-64053433D01*
X199566320Y-64053464D01*
X199581963Y-64053494D01*
X199598719Y-64053523D01*
X199616608Y-64053551D01*
X199635647Y-64053579D01*
X199655857Y-64053606D01*
X199677257Y-64053632D01*
X199699864Y-64053658D01*
X199723698Y-64053682D01*
X199748779Y-64053706D01*
X199775125Y-64053730D01*
X199802755Y-64053753D01*
X199831689Y-64053775D01*
X199861944Y-64053796D01*
X199893541Y-64053816D01*
X199926498Y-64053836D01*
X199960834Y-64053856D01*
X199996568Y-64053874D01*
X200033719Y-64053892D01*
X200072306Y-64053910D01*
X200112349Y-64053926D01*
X200153866Y-64053942D01*
X200196876Y-64053958D01*
X200241397Y-64053972D01*
X200287451Y-64053987D01*
X200335054Y-64054000D01*
X200384226Y-64054013D01*
X200434986Y-64054025D01*
X200487354Y-64054037D01*
X200541347Y-64054048D01*
X200596986Y-64054058D01*
X200654289Y-64054068D01*
X200713275Y-64054077D01*
X200773962Y-64054086D01*
X200836371Y-64054094D01*
X200900520Y-64054102D01*
X200966428Y-64054108D01*
X201034114Y-64054115D01*
X201103597Y-64054121D01*
X201174897Y-64054126D01*
X201248031Y-64054131D01*
X201323019Y-64054135D01*
X201399880Y-64054138D01*
X201478633Y-64054141D01*
X201559298Y-64054144D01*
X201641892Y-64054146D01*
X201726435Y-64054148D01*
X201812946Y-64054149D01*
X201901445Y-64054149D01*
X201991949Y-64054149D01*
X202084478Y-64054148D01*
X202179051Y-64054147D01*
X202275687Y-64054146D01*
X202374405Y-64054144D01*
X202475224Y-64054141D01*
X202578163Y-64054138D01*
X202683241Y-64054135D01*
X202790477Y-64054131D01*
X202899890Y-64054127D01*
X203011498Y-64054122D01*
X203125322Y-64054117D01*
X203241380Y-64054111D01*
X203359690Y-64054105D01*
X203480272Y-64054098D01*
X203603146Y-64054091D01*
X203728329Y-64054084D01*
X203855841Y-64054076D01*
X203985701Y-64054067D01*
X204000852Y-64054066D01*
X208549210Y-64053770D01*
X208549210Y-63500000D01*
X208549210Y-62946229D01*
X204000593Y-62946229D01*
X199451975Y-62946229D01*
X199451673Y-63498815D01*
X199451654Y-63534886D01*
X199451638Y-63570362D01*
X199451625Y-63605171D01*
X199451614Y-63639238D01*
X199451606Y-63672490D01*
X199451600Y-63704853D01*
X199451597Y-63736253D01*
X199451597Y-63766617D01*
X199361359Y-63766617D01*
X199361359Y-63500000D01*
X199361359Y-62855612D01*
X204000593Y-62855612D01*
X208639827Y-62855612D01*
X208639827Y-63500000D01*
G37*
G36*
X203208731Y-63165368D02*
G01*
X203208731Y-63208604D01*
X203013282Y-63208604D01*
X202817834Y-63208604D01*
X202817834Y-63324599D01*
X202817834Y-63440593D01*
X202922369Y-63441110D01*
X202943810Y-63441232D01*
X202963258Y-63441378D01*
X202980664Y-63441546D01*
X202995984Y-63441736D01*
X203009171Y-63441947D01*
X203020179Y-63442178D01*
X203028961Y-63442428D01*
X203035470Y-63442697D01*
X203039662Y-63442984D01*
X203039934Y-63443012D01*
X203066692Y-63446580D01*
X203091509Y-63451405D01*
X203114472Y-63457524D01*
X203135672Y-63464972D01*
X203155196Y-63473786D01*
X203173133Y-63484002D01*
X203189573Y-63495656D01*
X203204603Y-63508784D01*
X203207031Y-63511172D01*
X203220205Y-63525749D01*
X203231449Y-63541261D01*
X203240867Y-63557910D01*
X203248566Y-63575900D01*
X203254650Y-63595433D01*
X203257831Y-63609266D01*
X203259745Y-63619526D01*
X203261185Y-63629150D01*
X203262190Y-63638683D01*
X203262798Y-63648666D01*
X203263050Y-63659643D01*
X203262982Y-63672156D01*
X203262839Y-63679270D01*
X203262416Y-63692248D01*
X203261780Y-63703405D01*
X203260865Y-63713286D01*
X203259606Y-63722435D01*
X203257936Y-63731397D01*
X203255789Y-63740714D01*
X203255049Y-63743635D01*
X203248553Y-63764531D01*
X203240234Y-63783915D01*
X203230093Y-63801786D01*
X203218132Y-63818142D01*
X203204352Y-63832982D01*
X203188757Y-63846303D01*
X203171346Y-63858106D01*
X203152122Y-63868387D01*
X203131087Y-63877147D01*
X203108242Y-63884382D01*
X203085593Y-63889699D01*
X203080447Y-63890727D01*
X203075742Y-63891658D01*
X203071342Y-63892496D01*
X203067109Y-63893247D01*
X203062908Y-63893916D01*
X203058602Y-63894508D01*
X203054054Y-63895028D01*
X203049129Y-63895481D01*
X203043689Y-63895873D01*
X203037598Y-63896208D01*
X203030720Y-63896493D01*
X203022918Y-63896731D01*
X203014056Y-63896929D01*
X203003997Y-63897090D01*
X202992605Y-63897222D01*
X202979743Y-63897328D01*
X202965275Y-63897413D01*
X202949065Y-63897484D01*
X202930976Y-63897545D01*
X202910871Y-63897601D01*
X202888614Y-63897658D01*
X202874395Y-63897694D01*
X202712410Y-63898106D01*
X202712410Y-63527098D01*
X202817834Y-63527098D01*
X202817834Y-63669381D01*
X202817834Y-63811663D01*
X202921185Y-63811200D01*
X202939244Y-63811118D01*
X202955100Y-63811039D01*
X202968920Y-63810961D01*
X202980872Y-63810879D01*
X202991120Y-63810788D01*
X202999832Y-63810684D01*
X203007174Y-63810563D01*
X203013313Y-63810420D01*
X203018415Y-63810251D01*
X203022648Y-63810052D01*
X203026176Y-63809819D01*
X203029168Y-63809546D01*
X203031789Y-63809230D01*
X203034206Y-63808867D01*
X203036586Y-63808452D01*
X203038157Y-63808158D01*
X203057722Y-63803659D01*
X203075260Y-63797951D01*
X203090766Y-63791037D01*
X203104238Y-63782917D01*
X203115673Y-63773595D01*
X203120405Y-63768729D01*
X203130033Y-63756521D01*
X203137893Y-63743194D01*
X203144095Y-63728514D01*
X203148746Y-63712249D01*
X203150257Y-63704924D01*
X203151234Y-63697821D01*
X203151926Y-63688997D01*
X203152332Y-63679057D01*
X203152452Y-63668610D01*
X203152283Y-63658260D01*
X203151826Y-63648616D01*
X203151079Y-63640283D01*
X203150367Y-63635468D01*
X203146121Y-63617708D01*
X203140247Y-63601651D01*
X203132710Y-63587260D01*
X203123476Y-63574500D01*
X203112512Y-63563334D01*
X203099782Y-63553728D01*
X203085254Y-63545644D01*
X203068892Y-63539047D01*
X203054803Y-63534902D01*
X203050182Y-63533746D01*
X203045919Y-63532727D01*
X203041835Y-63531837D01*
X203037753Y-63531065D01*
X203033494Y-63530403D01*
X203028882Y-63529840D01*
X203023738Y-63529367D01*
X203017885Y-63528974D01*
X203011144Y-63528653D01*
X203003339Y-63528394D01*
X202994291Y-63528186D01*
X202983823Y-63528021D01*
X202971756Y-63527889D01*
X202957914Y-63527781D01*
X202942118Y-63527686D01*
X202924191Y-63527597D01*
X202917631Y-63527566D01*
X202817834Y-63527098D01*
X202712410Y-63527098D01*
X202712410Y-63510119D01*
X202712410Y-63122133D01*
X202960570Y-63122133D01*
X203208731Y-63122133D01*
X203208731Y-63165368D01*
G37*
G36*
X206059908Y-63122165D02*
G01*
X206119727Y-63122191D01*
X206264833Y-63503164D01*
X206275871Y-63532146D01*
X206286706Y-63560592D01*
X206297305Y-63588422D01*
X206307638Y-63615552D01*
X206317673Y-63641901D01*
X206327380Y-63667388D01*
X206336726Y-63691931D01*
X206345682Y-63715447D01*
X206354216Y-63737854D01*
X206362296Y-63759072D01*
X206369891Y-63779018D01*
X206376971Y-63797611D01*
X206383504Y-63814767D01*
X206389459Y-63830407D01*
X206394805Y-63844447D01*
X206399510Y-63856806D01*
X206403544Y-63867403D01*
X206406876Y-63876154D01*
X206409473Y-63882979D01*
X206411305Y-63887796D01*
X206412342Y-63890523D01*
X206412554Y-63891083D01*
X206415169Y-63898027D01*
X206360505Y-63897719D01*
X206305840Y-63897411D01*
X206270713Y-63798503D01*
X206235586Y-63699594D01*
X206060388Y-63699309D01*
X205885189Y-63699025D01*
X205850917Y-63795849D01*
X205845759Y-63810415D01*
X205840810Y-63824377D01*
X205836129Y-63837569D01*
X205831776Y-63849823D01*
X205827811Y-63860974D01*
X205824291Y-63870854D01*
X205821278Y-63879298D01*
X205818829Y-63886138D01*
X205817005Y-63891209D01*
X205815865Y-63894343D01*
X205815487Y-63895339D01*
X205814329Y-63898004D01*
X205759438Y-63898004D01*
X205748289Y-63897986D01*
X205737900Y-63897936D01*
X205728503Y-63897857D01*
X205720331Y-63897753D01*
X205713618Y-63897627D01*
X205708596Y-63897482D01*
X205705498Y-63897323D01*
X205704547Y-63897168D01*
X205704965Y-63896012D01*
X205706198Y-63892721D01*
X205708215Y-63887376D01*
X205710987Y-63880057D01*
X205714483Y-63870842D01*
X205718673Y-63859811D01*
X205723526Y-63847043D01*
X205729014Y-63832619D01*
X205735104Y-63816616D01*
X205741767Y-63799116D01*
X205748973Y-63780197D01*
X205756691Y-63759938D01*
X205764892Y-63738420D01*
X205773544Y-63715721D01*
X205782618Y-63691921D01*
X205792083Y-63667100D01*
X205801910Y-63641336D01*
X205812067Y-63614710D01*
X205813681Y-63610481D01*
X205917764Y-63610481D01*
X205918924Y-63610592D01*
X205922309Y-63610698D01*
X205927773Y-63610799D01*
X205935172Y-63610895D01*
X205944361Y-63610983D01*
X205955195Y-63611065D01*
X205967530Y-63611137D01*
X205981220Y-63611201D01*
X205996122Y-63611254D01*
X206012089Y-63611295D01*
X206028978Y-63611325D01*
X206046643Y-63611342D01*
X206059908Y-63611346D01*
X206078048Y-63611341D01*
X206095516Y-63611326D01*
X206112169Y-63611302D01*
X206127860Y-63611269D01*
X206142447Y-63611228D01*
X206155782Y-63611180D01*
X206167723Y-63611126D01*
X206178124Y-63611065D01*
X206186840Y-63610999D01*
X206193727Y-63610928D01*
X206198640Y-63610853D01*
X206201434Y-63610775D01*
X206202052Y-63610716D01*
X206201648Y-63609509D01*
X206200470Y-63606221D01*
X206198569Y-63600990D01*
X206195997Y-63593954D01*
X206192805Y-63585253D01*
X206189045Y-63575025D01*
X206184767Y-63563408D01*
X206180023Y-63550542D01*
X206174865Y-63536564D01*
X206169344Y-63521614D01*
X206163511Y-63505830D01*
X206157417Y-63489351D01*
X206151115Y-63472315D01*
X206144654Y-63454861D01*
X206138088Y-63437128D01*
X206131466Y-63419253D01*
X206124841Y-63401377D01*
X206118264Y-63383637D01*
X206111786Y-63366172D01*
X206105459Y-63349121D01*
X206099333Y-63332622D01*
X206093460Y-63316814D01*
X206087892Y-63301835D01*
X206082680Y-63287825D01*
X206077876Y-63274921D01*
X206073530Y-63263263D01*
X206069694Y-63252988D01*
X206066419Y-63244237D01*
X206063757Y-63237146D01*
X206061760Y-63231856D01*
X206060477Y-63228504D01*
X206059962Y-63227229D01*
X206059957Y-63227222D01*
X206059491Y-63228239D01*
X206058257Y-63231340D01*
X206056307Y-63236389D01*
X206053690Y-63243248D01*
X206050460Y-63251778D01*
X206046665Y-63261842D01*
X206042359Y-63273303D01*
X206037591Y-63286021D01*
X206032414Y-63299861D01*
X206026877Y-63314682D01*
X206021033Y-63330349D01*
X206014932Y-63346723D01*
X206008626Y-63363665D01*
X206002165Y-63381040D01*
X205995601Y-63398707D01*
X205988985Y-63416531D01*
X205982368Y-63434373D01*
X205975802Y-63452094D01*
X205969336Y-63469558D01*
X205963023Y-63486627D01*
X205956914Y-63503162D01*
X205951059Y-63519026D01*
X205945510Y-63534082D01*
X205940318Y-63548190D01*
X205935534Y-63561214D01*
X205931210Y-63573016D01*
X205927396Y-63583457D01*
X205924143Y-63592400D01*
X205921503Y-63599708D01*
X205919526Y-63605242D01*
X205918265Y-63608864D01*
X205917769Y-63610438D01*
X205917764Y-63610481D01*
X205813681Y-63610481D01*
X205822525Y-63587300D01*
X205833253Y-63559187D01*
X205844221Y-63530449D01*
X205852318Y-63509236D01*
X206000089Y-63122140D01*
X206059908Y-63122165D01*
G37*
G36*
X201439786Y-63108210D02*
G01*
X201451756Y-63108492D01*
X201463315Y-63108943D01*
X201473915Y-63109551D01*
X201483007Y-63110306D01*
X201487296Y-63110796D01*
X201516046Y-63115576D01*
X201543395Y-63122255D01*
X201569392Y-63130853D01*
X201594084Y-63141394D01*
X201617518Y-63153898D01*
X201639741Y-63168389D01*
X201660801Y-63184888D01*
X201676388Y-63199105D01*
X201695517Y-63219082D01*
X201712807Y-63240063D01*
X201728301Y-63262147D01*
X201742042Y-63285429D01*
X201754072Y-63310006D01*
X201764436Y-63335976D01*
X201773176Y-63363435D01*
X201780336Y-63392480D01*
X201785957Y-63423207D01*
X201789888Y-63453803D01*
X201790448Y-63460888D01*
X201790884Y-63469925D01*
X201791196Y-63480500D01*
X201791388Y-63492197D01*
X201791462Y-63504603D01*
X201791419Y-63517304D01*
X201791262Y-63529885D01*
X201790992Y-63541932D01*
X201790613Y-63553031D01*
X201790126Y-63562768D01*
X201789533Y-63570729D01*
X201789280Y-63573204D01*
X201784729Y-63605705D01*
X201778585Y-63636499D01*
X201770822Y-63665655D01*
X201761409Y-63693246D01*
X201750320Y-63719341D01*
X201737527Y-63744014D01*
X201723000Y-63767334D01*
X201706712Y-63789372D01*
X201700995Y-63796317D01*
X201694784Y-63803340D01*
X201687430Y-63811121D01*
X201679408Y-63819201D01*
X201671190Y-63827119D01*
X201663251Y-63834415D01*
X201656063Y-63840629D01*
X201652251Y-63843691D01*
X201630703Y-63859058D01*
X201608441Y-63872385D01*
X201585291Y-63883743D01*
X201561077Y-63893202D01*
X201535625Y-63900834D01*
X201508761Y-63906709D01*
X201488366Y-63909901D01*
X201479743Y-63910831D01*
X201469342Y-63911611D01*
X201457732Y-63912227D01*
X201445481Y-63912664D01*
X201433159Y-63912908D01*
X201421333Y-63912943D01*
X201410573Y-63912757D01*
X201401447Y-63912333D01*
X201399352Y-63912177D01*
X201369510Y-63908713D01*
X201341020Y-63903310D01*
X201313857Y-63895958D01*
X201287994Y-63886646D01*
X201263405Y-63875360D01*
X201240062Y-63862090D01*
X201217939Y-63846824D01*
X201197010Y-63829549D01*
X201183734Y-63816938D01*
X201164554Y-63796033D01*
X201147179Y-63773612D01*
X201131617Y-63749706D01*
X201117878Y-63724346D01*
X201105972Y-63697564D01*
X201095906Y-63669390D01*
X201087692Y-63639855D01*
X201081339Y-63608990D01*
X201076855Y-63576826D01*
X201074250Y-63543395D01*
X201073650Y-63514325D01*
X201184311Y-63514325D01*
X201185178Y-63542203D01*
X201187394Y-63569634D01*
X201190958Y-63596229D01*
X201195868Y-63621597D01*
X201201159Y-63642108D01*
X201209521Y-63667248D01*
X201219433Y-63690734D01*
X201230848Y-63712522D01*
X201243719Y-63732571D01*
X201257998Y-63750839D01*
X201273639Y-63767282D01*
X201290594Y-63781858D01*
X201308817Y-63794524D01*
X201328259Y-63805238D01*
X201348875Y-63813958D01*
X201370616Y-63820641D01*
X201393436Y-63825244D01*
X201405867Y-63826817D01*
X201412983Y-63827304D01*
X201421828Y-63827547D01*
X201431775Y-63827561D01*
X201442198Y-63827360D01*
X201452471Y-63826961D01*
X201461968Y-63826377D01*
X201470062Y-63825625D01*
X201473296Y-63825203D01*
X201495933Y-63820722D01*
X201517487Y-63814138D01*
X201537931Y-63805470D01*
X201557239Y-63794736D01*
X201575382Y-63781955D01*
X201592334Y-63767145D01*
X201608068Y-63750323D01*
X201622556Y-63731510D01*
X201631199Y-63718373D01*
X201643001Y-63697324D01*
X201653197Y-63674901D01*
X201661815Y-63651013D01*
X201668883Y-63625567D01*
X201674429Y-63598472D01*
X201678479Y-63569635D01*
X201679646Y-63558042D01*
X201680196Y-63550098D01*
X201680607Y-63540306D01*
X201680882Y-63529182D01*
X201681019Y-63517243D01*
X201681020Y-63505006D01*
X201680884Y-63492987D01*
X201680612Y-63481704D01*
X201680203Y-63471672D01*
X201679659Y-63463409D01*
X201679596Y-63462687D01*
X201675968Y-63432276D01*
X201670687Y-63403556D01*
X201663751Y-63376517D01*
X201655156Y-63351146D01*
X201644898Y-63327434D01*
X201632973Y-63305368D01*
X201619377Y-63284938D01*
X201615720Y-63280090D01*
X201600489Y-63262120D01*
X201584196Y-63246255D01*
X201566822Y-63232483D01*
X201548343Y-63220796D01*
X201528739Y-63211182D01*
X201507988Y-63203632D01*
X201486069Y-63198135D01*
X201462959Y-63194680D01*
X201438637Y-63193258D01*
X201433704Y-63193216D01*
X201408992Y-63194224D01*
X201385472Y-63197277D01*
X201363125Y-63202385D01*
X201341930Y-63209555D01*
X201321870Y-63218796D01*
X201302925Y-63230118D01*
X201285077Y-63243528D01*
X201268306Y-63259036D01*
X201253024Y-63276122D01*
X201242140Y-63290757D01*
X201231764Y-63307306D01*
X201222113Y-63325335D01*
X201213404Y-63344408D01*
X201205856Y-63364089D01*
X201200257Y-63381880D01*
X201194359Y-63406143D01*
X201189817Y-63431909D01*
X201186629Y-63458788D01*
X201184794Y-63486390D01*
X201184311Y-63514325D01*
X201073650Y-63514325D01*
X201073535Y-63508726D01*
X201074717Y-63472852D01*
X201075513Y-63460910D01*
X201078918Y-63428699D01*
X201084212Y-63397607D01*
X201091365Y-63367702D01*
X201100349Y-63339050D01*
X201111133Y-63311718D01*
X201123687Y-63285773D01*
X201137983Y-63261282D01*
X201153989Y-63238310D01*
X201171677Y-63216926D01*
X201191017Y-63197196D01*
X201194218Y-63194238D01*
X201214704Y-63176944D01*
X201236046Y-63161676D01*
X201258352Y-63148386D01*
X201281733Y-63137030D01*
X201306297Y-63127562D01*
X201332156Y-63119935D01*
X201359419Y-63114104D01*
X201388194Y-63110024D01*
X201398743Y-63108992D01*
X201406883Y-63108488D01*
X201416802Y-63108197D01*
X201427952Y-63108108D01*
X201439786Y-63108210D01*
G37*
G36*
X205217999Y-63122157D02*
G01*
X205241041Y-63122164D01*
X205261854Y-63122179D01*
X205280577Y-63122206D01*
X205297351Y-63122248D01*
X205312315Y-63122309D01*
X205325610Y-63122392D01*
X205337375Y-63122500D01*
X205347749Y-63122637D01*
X205356874Y-63122807D01*
X205364888Y-63123012D01*
X205371932Y-63123256D01*
X205378145Y-63123544D01*
X205383668Y-63123877D01*
X205388639Y-63124260D01*
X205393200Y-63124696D01*
X205397490Y-63125188D01*
X205401648Y-63125741D01*
X205405815Y-63126356D01*
X205409006Y-63126858D01*
X205433506Y-63131677D01*
X205456356Y-63138016D01*
X205477516Y-63145851D01*
X205496946Y-63155161D01*
X205514605Y-63165923D01*
X205530453Y-63178114D01*
X205544448Y-63191712D01*
X205556551Y-63206694D01*
X205558960Y-63210180D01*
X205566557Y-63222599D01*
X205572813Y-63235371D01*
X205577963Y-63249070D01*
X205582241Y-63264269D01*
X205583792Y-63271043D01*
X205584975Y-63278120D01*
X205585924Y-63286991D01*
X205586621Y-63297090D01*
X205587047Y-63307851D01*
X205587185Y-63318710D01*
X205587015Y-63329101D01*
X205586520Y-63338459D01*
X205586123Y-63342770D01*
X205582906Y-63363205D01*
X205577911Y-63382085D01*
X205571151Y-63399396D01*
X205562638Y-63415122D01*
X205552386Y-63429251D01*
X205540406Y-63441766D01*
X205526711Y-63452654D01*
X205511314Y-63461900D01*
X205494227Y-63469490D01*
X205475464Y-63475409D01*
X205469417Y-63476878D01*
X205457572Y-63479567D01*
X205462902Y-63480901D01*
X205470936Y-63483129D01*
X205480055Y-63486014D01*
X205489588Y-63489314D01*
X205498859Y-63492785D01*
X205507196Y-63496186D01*
X205513926Y-63499272D01*
X205514093Y-63499356D01*
X205532711Y-63509993D01*
X205549742Y-63522349D01*
X205565108Y-63536327D01*
X205578730Y-63551829D01*
X205590529Y-63568759D01*
X205600426Y-63587019D01*
X205608343Y-63606512D01*
X205612659Y-63620822D01*
X205615371Y-63632360D01*
X205617339Y-63643585D01*
X205618637Y-63655167D01*
X205619343Y-63667775D01*
X205619534Y-63681234D01*
X205618643Y-63704563D01*
X205616006Y-63726351D01*
X205611585Y-63746697D01*
X205605343Y-63765699D01*
X205597243Y-63783455D01*
X205587248Y-63800065D01*
X205575321Y-63815628D01*
X205564826Y-63826932D01*
X205550583Y-63839924D01*
X205535342Y-63851462D01*
X205518936Y-63861619D01*
X205501200Y-63870467D01*
X205481970Y-63878077D01*
X205461081Y-63884523D01*
X205438368Y-63889877D01*
X205413665Y-63894212D01*
X205410364Y-63894695D01*
X205407783Y-63895058D01*
X205405286Y-63895386D01*
X205402741Y-63895681D01*
X205400019Y-63895944D01*
X205396988Y-63896179D01*
X205393518Y-63896386D01*
X205389479Y-63896569D01*
X205384739Y-63896730D01*
X205379169Y-63896870D01*
X205372638Y-63896992D01*
X205365015Y-63897099D01*
X205356169Y-63897191D01*
X205345970Y-63897272D01*
X205334288Y-63897344D01*
X205320992Y-63897409D01*
X205305951Y-63897468D01*
X205289034Y-63897525D01*
X205270112Y-63897581D01*
X205249053Y-63897638D01*
X205231029Y-63897686D01*
X205069636Y-63898106D01*
X205069636Y-63527089D01*
X205173875Y-63527089D01*
X205173875Y-63669376D01*
X205173875Y-63811663D01*
X205277226Y-63811200D01*
X205295282Y-63811118D01*
X205311136Y-63811040D01*
X205324953Y-63810962D01*
X205336901Y-63810880D01*
X205347146Y-63810789D01*
X205355855Y-63810685D01*
X205363193Y-63810564D01*
X205369329Y-63810422D01*
X205374427Y-63810253D01*
X205378655Y-63810054D01*
X205382179Y-63809821D01*
X205385166Y-63809549D01*
X205387782Y-63809233D01*
X205390194Y-63808869D01*
X205392568Y-63808454D01*
X205394199Y-63808148D01*
X205413571Y-63803728D01*
X205430908Y-63798175D01*
X205446296Y-63791410D01*
X205459822Y-63783354D01*
X205471572Y-63773926D01*
X205481634Y-63763049D01*
X205490093Y-63750641D01*
X205497037Y-63736624D01*
X205502551Y-63720919D01*
X205506346Y-63705367D01*
X205507296Y-63698926D01*
X205507988Y-63690692D01*
X205508421Y-63681227D01*
X205508596Y-63671094D01*
X205508513Y-63660856D01*
X205508170Y-63651074D01*
X205507568Y-63642311D01*
X205506707Y-63635129D01*
X205506377Y-63633260D01*
X205501956Y-63615641D01*
X205495906Y-63599730D01*
X205488196Y-63585494D01*
X205478797Y-63572905D01*
X205467679Y-63561929D01*
X205454812Y-63552538D01*
X205440166Y-63544698D01*
X205423712Y-63538381D01*
X205411967Y-63535059D01*
X205407158Y-63533876D01*
X205402767Y-63532834D01*
X205398613Y-63531923D01*
X205394519Y-63531134D01*
X205390304Y-63530457D01*
X205385790Y-63529883D01*
X205380798Y-63529401D01*
X205375147Y-63529001D01*
X205368660Y-63528675D01*
X205361156Y-63528412D01*
X205352457Y-63528202D01*
X205342383Y-63528036D01*
X205330755Y-63527904D01*
X205317395Y-63527797D01*
X205302122Y-63527703D01*
X205284758Y-63527615D01*
X205274265Y-63527565D01*
X205173875Y-63527089D01*
X205069636Y-63527089D01*
X205069636Y-63510120D01*
X205069636Y-63208604D01*
X205173875Y-63208604D01*
X205173875Y-63325281D01*
X205173875Y-63441957D01*
X205260643Y-63441953D01*
X205277097Y-63441935D01*
X205292631Y-63441882D01*
X205307067Y-63441796D01*
X205320228Y-63441681D01*
X205331934Y-63441538D01*
X205342007Y-63441370D01*
X205350270Y-63441178D01*
X205356545Y-63440966D01*
X205360653Y-63440734D01*
X205361032Y-63440702D01*
X205381073Y-63438095D01*
X205399343Y-63434116D01*
X205415797Y-63428782D01*
X205430393Y-63422109D01*
X205443086Y-63414115D01*
X205453312Y-63405342D01*
X205462156Y-63395035D01*
X205469385Y-63383371D01*
X205475129Y-63370112D01*
X205478453Y-63359316D01*
X205479710Y-63352982D01*
X205480691Y-63344943D01*
X205481369Y-63335850D01*
X205481716Y-63326352D01*
X205481707Y-63317102D01*
X205481316Y-63308750D01*
X205480728Y-63303277D01*
X205477355Y-63287326D01*
X205472115Y-63272833D01*
X205465011Y-63259801D01*
X205456047Y-63248234D01*
X205445225Y-63238134D01*
X205432551Y-63229506D01*
X205418026Y-63222353D01*
X205401654Y-63216678D01*
X205395445Y-63215031D01*
X205390760Y-63213905D01*
X205386334Y-63212918D01*
X205381979Y-63212062D01*
X205377510Y-63211326D01*
X205372742Y-63210702D01*
X205367489Y-63210181D01*
X205361564Y-63209754D01*
X205354782Y-63209411D01*
X205346958Y-63209143D01*
X205337905Y-63208942D01*
X205327438Y-63208797D01*
X205315371Y-63208700D01*
X205301518Y-63208641D01*
X205285693Y-63208613D01*
X205267711Y-63208604D01*
X205265024Y-63208604D01*
X205173875Y-63208604D01*
X205069636Y-63208604D01*
X205069636Y-63122133D01*
X205217999Y-63122157D01*
G37*
D15*
%TO.C,C5*%
X205738748Y-109090000D02*
X207161252Y-109090000D01*
X205738748Y-110910000D02*
X207161252Y-110910000D01*
%TO.C,L1*%
X190050000Y-109700000D02*
X190050000Y-98200000D01*
X190700000Y-110400000D02*
X193650000Y-110400000D01*
X190750000Y-97500000D02*
X193650000Y-97500000D01*
X199250000Y-97500000D02*
X202150000Y-97500000D01*
X199250000Y-110400000D02*
X202150000Y-110400000D01*
X202850000Y-98200000D02*
X202850000Y-109700000D01*
X190050000Y-98200000D02*
G75*
G02*
X190750000Y-97500000I700000J0D01*
G01*
X190750000Y-110400000D02*
G75*
G02*
X190050000Y-109700000I-1J699999D01*
G01*
X202150000Y-97500000D02*
G75*
G02*
X202850000Y-98200000I0J-700000D01*
G01*
X202850000Y-109700000D02*
G75*
G02*
X202150000Y-110400000I-699999J-1D01*
G01*
%TO.C,C2*%
X233238748Y-74765000D02*
X233761252Y-74765000D01*
X233238748Y-76235000D02*
X233761252Y-76235000D01*
%TO.C,J7*%
X226400000Y-84400000D02*
X226400000Y-85650000D01*
X226690000Y-84690000D02*
X226690000Y-90660000D01*
X226690000Y-90660000D02*
X239310000Y-90660000D01*
X226700000Y-84700000D02*
X226700000Y-85450000D01*
X226700000Y-85450000D02*
X228500000Y-85450000D01*
X226700000Y-86950000D02*
X227450000Y-86950000D01*
X227450000Y-86950000D02*
X227450000Y-89900000D01*
X227450000Y-89900000D02*
X233000000Y-89900000D01*
X227650000Y-84400000D02*
X226400000Y-84400000D01*
X228500000Y-84700000D02*
X226700000Y-84700000D01*
X228500000Y-85450000D02*
X228500000Y-84700000D01*
X230000000Y-84700000D02*
X230000000Y-85450000D01*
X230000000Y-85450000D02*
X236000000Y-85450000D01*
X236000000Y-84700000D02*
X230000000Y-84700000D01*
X236000000Y-85450000D02*
X236000000Y-84700000D01*
X237500000Y-84700000D02*
X237500000Y-85450000D01*
X237500000Y-85450000D02*
X239300000Y-85450000D01*
X238550000Y-86950000D02*
X238550000Y-89900000D01*
X238550000Y-89900000D02*
X233000000Y-89900000D01*
X239300000Y-84700000D02*
X237500000Y-84700000D01*
X239300000Y-85450000D02*
X239300000Y-84700000D01*
X239300000Y-86950000D02*
X238550000Y-86950000D01*
X239310000Y-84690000D02*
X226690000Y-84690000D01*
X239310000Y-90660000D02*
X239310000Y-84690000D01*
%TO.C,U4*%
X199125000Y-84200000D02*
X200625000Y-84200000D01*
X199125000Y-94600000D02*
X200625000Y-94600000D01*
X200625000Y-84200000D02*
X200625000Y-85150000D01*
X200625000Y-94600000D02*
X200625000Y-93650000D01*
X203427500Y-93980000D02*
X202947500Y-93980000D01*
X203187500Y-93650000D01*
X203427500Y-93980000D01*
G36*
X203427500Y-93980000D02*
G01*
X202947500Y-93980000D01*
X203187500Y-93650000D01*
X203427500Y-93980000D01*
G37*
%TO.C,R1*%
X207765000Y-92727064D02*
X207765000Y-92272936D01*
X209235000Y-92727064D02*
X209235000Y-92272936D01*
%TO.C,Q1*%
X192480000Y-68465000D02*
X192480000Y-68735000D01*
X192480000Y-75365000D02*
X192480000Y-75095000D01*
X198900000Y-68465000D02*
X192480000Y-68465000D01*
X198900000Y-75365000D02*
X192480000Y-75365000D01*
X191060000Y-68775000D02*
X190820000Y-68445000D01*
X191300000Y-68445000D01*
X191060000Y-68775000D01*
G36*
X191060000Y-68775000D02*
G01*
X190820000Y-68445000D01*
X191300000Y-68445000D01*
X191060000Y-68775000D01*
G37*
%TO.C,J5*%
X211890000Y-70990000D02*
X211890000Y-76960000D01*
X211890000Y-76960000D02*
X222010000Y-76960000D01*
X211900000Y-74700000D02*
X212650000Y-74700000D01*
X211900000Y-76200000D02*
X211900000Y-76950000D01*
X211900000Y-76950000D02*
X213700000Y-76950000D01*
X212650000Y-71750000D02*
X216950000Y-71750000D01*
X212650000Y-74700000D02*
X212650000Y-71750000D01*
X213700000Y-76200000D02*
X211900000Y-76200000D01*
X213700000Y-76950000D02*
X213700000Y-76200000D01*
X215200000Y-76200000D02*
X215200000Y-76950000D01*
X215200000Y-76950000D02*
X218700000Y-76950000D01*
X218700000Y-76200000D02*
X215200000Y-76200000D01*
X218700000Y-76950000D02*
X218700000Y-76200000D01*
X220200000Y-76200000D02*
X220200000Y-76950000D01*
X220200000Y-76950000D02*
X222000000Y-76950000D01*
X221050000Y-77250000D02*
X222300000Y-77250000D01*
X221250000Y-71750000D02*
X216950000Y-71750000D01*
X221250000Y-74700000D02*
X221250000Y-71750000D01*
X222000000Y-74700000D02*
X221250000Y-74700000D01*
X222000000Y-76200000D02*
X220200000Y-76200000D01*
X222000000Y-76950000D02*
X222000000Y-76200000D01*
X222010000Y-70990000D02*
X211890000Y-70990000D01*
X222010000Y-76960000D02*
X222010000Y-70990000D01*
X222300000Y-77250000D02*
X222300000Y-76000000D01*
%TO.C,C9*%
X205690000Y-127711252D02*
X205690000Y-126288748D01*
X207510000Y-127711252D02*
X207510000Y-126288748D01*
%TO.C,U3*%
X221110000Y-114060000D02*
X221110000Y-124560000D01*
X221110000Y-124560000D02*
X231510000Y-124560000D01*
X221170000Y-117060000D02*
X221170000Y-118310000D01*
X221170000Y-120310000D02*
X221170000Y-121560000D01*
X221170000Y-121560000D02*
X231450000Y-121560000D01*
X231450000Y-117060000D02*
X221170000Y-117060000D01*
X231450000Y-121560000D02*
X231450000Y-117060000D01*
X231510000Y-114060000D02*
X221110000Y-114060000D01*
X231510000Y-124560000D02*
X231510000Y-114060000D01*
X221170000Y-118310000D02*
G75*
G02*
X221170000Y-120310000I0J-1000000D01*
G01*
%TO.C,C11*%
X211715000Y-101701248D02*
X211715000Y-102223752D01*
X213185000Y-101701248D02*
X213185000Y-102223752D01*
%TO.C,BZ1*%
X217400000Y-118000000D02*
G75*
G02*
X205200000Y-118000000I-6100000J0D01*
G01*
X205200000Y-118000000D02*
G75*
G02*
X217400000Y-118000000I6100000J0D01*
G01*
%TO.C,R7*%
X212265000Y-128227064D02*
X212265000Y-127772936D01*
X213735000Y-128227064D02*
X213735000Y-127772936D01*
%TO.C,RV1*%
X204920000Y-96775000D02*
X209990000Y-96775000D01*
X204920000Y-106545000D02*
X204920000Y-96775000D01*
X204920000Y-106545000D02*
X209990000Y-106545000D01*
X209990000Y-106545000D02*
X209990000Y-96775000D01*
%TO.C,U2*%
X231250000Y-68750000D02*
X231250000Y-69275000D01*
X231250000Y-68750000D02*
X231775000Y-68750000D01*
X231250000Y-73050000D02*
X231250000Y-72525000D01*
X231250000Y-73050000D02*
X231775000Y-73050000D01*
X235085000Y-68750000D02*
X235310000Y-68750000D01*
X235550000Y-69275000D02*
X235550000Y-69050000D01*
X235550000Y-73050000D02*
X235025000Y-73050000D01*
X235550000Y-73050000D02*
X235550000Y-72525000D01*
X235880000Y-68990000D02*
X235550000Y-68750000D01*
X235880000Y-68510000D01*
X235880000Y-68990000D01*
G36*
X235880000Y-68990000D02*
G01*
X235550000Y-68750000D01*
X235880000Y-68510000D01*
X235880000Y-68990000D01*
G37*
%TO.C,C8*%
X208161252Y-71090000D02*
X206738748Y-71090000D01*
X208161252Y-72910000D02*
X206738748Y-72910000D01*
%TO.C,U5*%
X198140000Y-127770000D02*
X198140000Y-125190000D01*
X199120000Y-125190000D02*
X198140000Y-125190000D01*
X201880000Y-125190000D02*
X202860000Y-125190000D01*
X202860000Y-125190000D02*
X202860000Y-127910000D01*
X198290000Y-128320000D02*
X197960000Y-128560000D01*
X197960000Y-128080000D01*
X198290000Y-128320000D01*
G36*
X198290000Y-128320000D02*
G01*
X197960000Y-128560000D01*
X197960000Y-128080000D01*
X198290000Y-128320000D01*
G37*
%TO.C,C4*%
X228261252Y-68965000D02*
X227738748Y-68965000D01*
X228261252Y-70435000D02*
X227738748Y-70435000D01*
%TO.C,J3*%
X211890000Y-84590000D02*
X211890000Y-90560000D01*
X211890000Y-90560000D02*
X222010000Y-90560000D01*
X211900000Y-88300000D02*
X212650000Y-88300000D01*
X211900000Y-89800000D02*
X211900000Y-90550000D01*
X211900000Y-90550000D02*
X213700000Y-90550000D01*
X212650000Y-85350000D02*
X216950000Y-85350000D01*
X212650000Y-88300000D02*
X212650000Y-85350000D01*
X213700000Y-89800000D02*
X211900000Y-89800000D01*
X213700000Y-90550000D02*
X213700000Y-89800000D01*
X215200000Y-89800000D02*
X215200000Y-90550000D01*
X215200000Y-90550000D02*
X218700000Y-90550000D01*
X218700000Y-89800000D02*
X215200000Y-89800000D01*
X218700000Y-90550000D02*
X218700000Y-89800000D01*
X220200000Y-89800000D02*
X220200000Y-90550000D01*
X220200000Y-90550000D02*
X222000000Y-90550000D01*
X221050000Y-90850000D02*
X222300000Y-90850000D01*
X221250000Y-85350000D02*
X216950000Y-85350000D01*
X221250000Y-88300000D02*
X221250000Y-85350000D01*
X222000000Y-88300000D02*
X221250000Y-88300000D01*
X222000000Y-89800000D02*
X220200000Y-89800000D01*
X222000000Y-90550000D02*
X222000000Y-89800000D01*
X222010000Y-84590000D02*
X211890000Y-84590000D01*
X222010000Y-90560000D02*
X222010000Y-84590000D01*
X222300000Y-90850000D02*
X222300000Y-89600000D01*
%TO.C,R5*%
X227947936Y-74765000D02*
X228402064Y-74765000D01*
X227947936Y-76235000D02*
X228402064Y-76235000D01*
%TO.C,R4*%
X216822936Y-68765000D02*
X217277064Y-68765000D01*
X216822936Y-70235000D02*
X217277064Y-70235000D01*
%TO.C,U1*%
X223340000Y-103390000D02*
X223340000Y-103690000D01*
X223340000Y-110610000D02*
X223340000Y-110310000D01*
X223640000Y-103390000D02*
X223340000Y-103390000D01*
X223640000Y-110610000D02*
X223340000Y-110610000D01*
X230260000Y-103390000D02*
X230560000Y-103390000D01*
X230260000Y-110610000D02*
X230560000Y-110610000D01*
X230560000Y-103390000D02*
X230560000Y-103690000D01*
X230560000Y-110610000D02*
X230560000Y-110310000D01*
X222737500Y-103690000D02*
X222397500Y-103220000D01*
X223077500Y-103220000D01*
X222737500Y-103690000D01*
G36*
X222737500Y-103690000D02*
G01*
X222397500Y-103220000D01*
X223077500Y-103220000D01*
X222737500Y-103690000D01*
G37*
%TO.C,D2*%
X218790000Y-126920000D02*
X218790000Y-126764000D01*
X218790000Y-129236000D02*
X218790000Y-129080000D01*
X215557666Y-126921392D02*
G75*
G02*
X218789999Y-126764485I1672334J-1078608D01*
G01*
X216188871Y-126920164D02*
G75*
G02*
X218270960Y-126920001I1041129J-1079836D01*
G01*
X218270960Y-129079999D02*
G75*
G02*
X216188871Y-129079836I-1040960J1079999D01*
G01*
X218789999Y-129235515D02*
G75*
G02*
X215557666Y-129078608I-1559999J1235515D01*
G01*
%TO.C,C1*%
X237865000Y-71061252D02*
X237865000Y-70538748D01*
X239335000Y-71061252D02*
X239335000Y-70538748D01*
%TO.C,R2*%
X207765000Y-86227064D02*
X207765000Y-85772936D01*
X209235000Y-86227064D02*
X209235000Y-85772936D01*
%TO.C,J4*%
X211890000Y-77790000D02*
X211890000Y-83760000D01*
X211890000Y-83760000D02*
X222010000Y-83760000D01*
X211900000Y-81500000D02*
X212650000Y-81500000D01*
X211900000Y-83000000D02*
X211900000Y-83750000D01*
X211900000Y-83750000D02*
X213700000Y-83750000D01*
X212650000Y-78550000D02*
X216950000Y-78550000D01*
X212650000Y-81500000D02*
X212650000Y-78550000D01*
X213700000Y-83000000D02*
X211900000Y-83000000D01*
X213700000Y-83750000D02*
X213700000Y-83000000D01*
X215200000Y-83000000D02*
X215200000Y-83750000D01*
X215200000Y-83750000D02*
X218700000Y-83750000D01*
X218700000Y-83000000D02*
X215200000Y-83000000D01*
X218700000Y-83750000D02*
X218700000Y-83000000D01*
X220200000Y-83000000D02*
X220200000Y-83750000D01*
X220200000Y-83750000D02*
X222000000Y-83750000D01*
X221050000Y-84050000D02*
X222300000Y-84050000D01*
X221250000Y-78550000D02*
X216950000Y-78550000D01*
X221250000Y-81500000D02*
X221250000Y-78550000D01*
X222000000Y-81500000D02*
X221250000Y-81500000D01*
X222000000Y-83000000D02*
X220200000Y-83000000D01*
X222000000Y-83750000D02*
X222000000Y-83000000D01*
X222010000Y-77790000D02*
X211890000Y-77790000D01*
X222010000Y-83760000D02*
X222010000Y-77790000D01*
X222300000Y-84050000D02*
X222300000Y-82800000D01*
%TO.C,C10*%
X218265000Y-113738748D02*
X218265000Y-114261252D01*
X219735000Y-113738748D02*
X219735000Y-114261252D01*
%TO.C,R8*%
X218265000Y-121772936D02*
X218265000Y-122227064D01*
X219735000Y-121772936D02*
X219735000Y-122227064D01*
%TO.C,C7*%
X201870000Y-78170000D02*
X210030000Y-78170000D01*
X201870000Y-78210000D02*
X210030000Y-78210000D01*
X201870000Y-78250000D02*
X210030000Y-78250000D01*
X201871000Y-78130000D02*
X210029000Y-78130000D01*
X201873000Y-78090000D02*
X210027000Y-78090000D01*
X201874000Y-78050000D02*
X210026000Y-78050000D01*
X201876000Y-78010000D02*
X210024000Y-78010000D01*
X201879000Y-77970000D02*
X210021000Y-77970000D01*
X201882000Y-77930000D02*
X210018000Y-77930000D01*
X201885000Y-77890000D02*
X210015000Y-77890000D01*
X201889000Y-77850000D02*
X210011000Y-77850000D01*
X201893000Y-77810000D02*
X210007000Y-77810000D01*
X201898000Y-77770000D02*
X210002000Y-77770000D01*
X201902000Y-77730000D02*
X209998000Y-77730000D01*
X201908000Y-77690000D02*
X209992000Y-77690000D01*
X201913000Y-77650000D02*
X209987000Y-77650000D01*
X201920000Y-77610000D02*
X209980000Y-77610000D01*
X201926000Y-77570000D02*
X209974000Y-77570000D01*
X201933000Y-77529000D02*
X204910000Y-77529000D01*
X201940000Y-77489000D02*
X204910000Y-77489000D01*
X201948000Y-77449000D02*
X204910000Y-77449000D01*
X201956000Y-77409000D02*
X204910000Y-77409000D01*
X201965000Y-77369000D02*
X204910000Y-77369000D01*
X201974000Y-77329000D02*
X204910000Y-77329000D01*
X201983000Y-77289000D02*
X204910000Y-77289000D01*
X201993000Y-77249000D02*
X204910000Y-77249000D01*
X202003000Y-77209000D02*
X204910000Y-77209000D01*
X202014000Y-77169000D02*
X204910000Y-77169000D01*
X202025000Y-77129000D02*
X204910000Y-77129000D01*
X202036000Y-77089000D02*
X204910000Y-77089000D01*
X202048000Y-77049000D02*
X204910000Y-77049000D01*
X202061000Y-77009000D02*
X204910000Y-77009000D01*
X202073000Y-76969000D02*
X204910000Y-76969000D01*
X202087000Y-76929000D02*
X204910000Y-76929000D01*
X202100000Y-76889000D02*
X204910000Y-76889000D01*
X202115000Y-76849000D02*
X204910000Y-76849000D01*
X202129000Y-76809000D02*
X204910000Y-76809000D01*
X202145000Y-76769000D02*
X204910000Y-76769000D01*
X202160000Y-76729000D02*
X204910000Y-76729000D01*
X202176000Y-76689000D02*
X204910000Y-76689000D01*
X202193000Y-76649000D02*
X204910000Y-76649000D01*
X202210000Y-76609000D02*
X204910000Y-76609000D01*
X202228000Y-76569000D02*
X204910000Y-76569000D01*
X202246000Y-76529000D02*
X204910000Y-76529000D01*
X202264000Y-76489000D02*
X204910000Y-76489000D01*
X202284000Y-76449000D02*
X204910000Y-76449000D01*
X202303000Y-76409000D02*
X204910000Y-76409000D01*
X202323000Y-76369000D02*
X204910000Y-76369000D01*
X202344000Y-76329000D02*
X204910000Y-76329000D01*
X202366000Y-76289000D02*
X204910000Y-76289000D01*
X202388000Y-76249000D02*
X204910000Y-76249000D01*
X202410000Y-76209000D02*
X204910000Y-76209000D01*
X202433000Y-76169000D02*
X204910000Y-76169000D01*
X202457000Y-76129000D02*
X204910000Y-76129000D01*
X202481000Y-76089000D02*
X204910000Y-76089000D01*
X202506000Y-76049000D02*
X204910000Y-76049000D01*
X202532000Y-76009000D02*
X204910000Y-76009000D01*
X202558000Y-75969000D02*
X204910000Y-75969000D01*
X202585000Y-75929000D02*
X204910000Y-75929000D01*
X202612000Y-75889000D02*
X204910000Y-75889000D01*
X202641000Y-75849000D02*
X204910000Y-75849000D01*
X202670000Y-75809000D02*
X204910000Y-75809000D01*
X202700000Y-75769000D02*
X204910000Y-75769000D01*
X202730000Y-75729000D02*
X204910000Y-75729000D01*
X202761000Y-75689000D02*
X204910000Y-75689000D01*
X202794000Y-75649000D02*
X204910000Y-75649000D01*
X202826000Y-75609000D02*
X204910000Y-75609000D01*
X202860000Y-75569000D02*
X204910000Y-75569000D01*
X202895000Y-75529000D02*
X204910000Y-75529000D01*
X202931000Y-75489000D02*
X204910000Y-75489000D01*
X202967000Y-75449000D02*
X208933000Y-75449000D01*
X203005000Y-75409000D02*
X208895000Y-75409000D01*
X203043000Y-75369000D02*
X208857000Y-75369000D01*
X203083000Y-75329000D02*
X208817000Y-75329000D01*
X203124000Y-75289000D02*
X208776000Y-75289000D01*
X203166000Y-75249000D02*
X208734000Y-75249000D01*
X203209000Y-75209000D02*
X208691000Y-75209000D01*
X203235000Y-82259698D02*
X204035000Y-82259698D01*
X203253000Y-75169000D02*
X208647000Y-75169000D01*
X203299000Y-75129000D02*
X208601000Y-75129000D01*
X203346000Y-75089000D02*
X208554000Y-75089000D01*
X203394000Y-75049000D02*
X208506000Y-75049000D01*
X203445000Y-75009000D02*
X208455000Y-75009000D01*
X203496000Y-74969000D02*
X208404000Y-74969000D01*
X203550000Y-74929000D02*
X208350000Y-74929000D01*
X203605000Y-74889000D02*
X208295000Y-74889000D01*
X203635000Y-82659698D02*
X203635000Y-81859698D01*
X203663000Y-74849000D02*
X208237000Y-74849000D01*
X203722000Y-74809000D02*
X208178000Y-74809000D01*
X203784000Y-74769000D02*
X208116000Y-74769000D01*
X203848000Y-74729000D02*
X208052000Y-74729000D01*
X203916000Y-74689000D02*
X207984000Y-74689000D01*
X203986000Y-74649000D02*
X207914000Y-74649000D01*
X204060000Y-74609000D02*
X207840000Y-74609000D01*
X204137000Y-74569000D02*
X207763000Y-74569000D01*
X204219000Y-74529000D02*
X207681000Y-74529000D01*
X204305000Y-74489000D02*
X207595000Y-74489000D01*
X204398000Y-74449000D02*
X207502000Y-74449000D01*
X204497000Y-74409000D02*
X207403000Y-74409000D01*
X204604000Y-74369000D02*
X207296000Y-74369000D01*
X204721000Y-74329000D02*
X207179000Y-74329000D01*
X204852000Y-74289000D02*
X207048000Y-74289000D01*
X205002000Y-74249000D02*
X206898000Y-74249000D01*
X205182000Y-74209000D02*
X206718000Y-74209000D01*
X205417000Y-74169000D02*
X206483000Y-74169000D01*
X206990000Y-75489000D02*
X208969000Y-75489000D01*
X206990000Y-75529000D02*
X209005000Y-75529000D01*
X206990000Y-75569000D02*
X209040000Y-75569000D01*
X206990000Y-75609000D02*
X209074000Y-75609000D01*
X206990000Y-75649000D02*
X209106000Y-75649000D01*
X206990000Y-75689000D02*
X209139000Y-75689000D01*
X206990000Y-75729000D02*
X209170000Y-75729000D01*
X206990000Y-75769000D02*
X209200000Y-75769000D01*
X206990000Y-75809000D02*
X209230000Y-75809000D01*
X206990000Y-75849000D02*
X209259000Y-75849000D01*
X206990000Y-75889000D02*
X209288000Y-75889000D01*
X206990000Y-75929000D02*
X209315000Y-75929000D01*
X206990000Y-75969000D02*
X209342000Y-75969000D01*
X206990000Y-76009000D02*
X209368000Y-76009000D01*
X206990000Y-76049000D02*
X209394000Y-76049000D01*
X206990000Y-76089000D02*
X209419000Y-76089000D01*
X206990000Y-76129000D02*
X209443000Y-76129000D01*
X206990000Y-76169000D02*
X209467000Y-76169000D01*
X206990000Y-76209000D02*
X209490000Y-76209000D01*
X206990000Y-76249000D02*
X209512000Y-76249000D01*
X206990000Y-76289000D02*
X209534000Y-76289000D01*
X206990000Y-76329000D02*
X209556000Y-76329000D01*
X206990000Y-76369000D02*
X209577000Y-76369000D01*
X206990000Y-76409000D02*
X209597000Y-76409000D01*
X206990000Y-76449000D02*
X209616000Y-76449000D01*
X206990000Y-76489000D02*
X209636000Y-76489000D01*
X206990000Y-76529000D02*
X209654000Y-76529000D01*
X206990000Y-76569000D02*
X209672000Y-76569000D01*
X206990000Y-76609000D02*
X209690000Y-76609000D01*
X206990000Y-76649000D02*
X209707000Y-76649000D01*
X206990000Y-76689000D02*
X209724000Y-76689000D01*
X206990000Y-76729000D02*
X209740000Y-76729000D01*
X206990000Y-76769000D02*
X209755000Y-76769000D01*
X206990000Y-76809000D02*
X209771000Y-76809000D01*
X206990000Y-76849000D02*
X209785000Y-76849000D01*
X206990000Y-76889000D02*
X209800000Y-76889000D01*
X206990000Y-76929000D02*
X209813000Y-76929000D01*
X206990000Y-76969000D02*
X209827000Y-76969000D01*
X206990000Y-77009000D02*
X209839000Y-77009000D01*
X206990000Y-77049000D02*
X209852000Y-77049000D01*
X206990000Y-77089000D02*
X209864000Y-77089000D01*
X206990000Y-77129000D02*
X209875000Y-77129000D01*
X206990000Y-77169000D02*
X209886000Y-77169000D01*
X206990000Y-77209000D02*
X209897000Y-77209000D01*
X206990000Y-77249000D02*
X209907000Y-77249000D01*
X206990000Y-77289000D02*
X209917000Y-77289000D01*
X206990000Y-77329000D02*
X209926000Y-77329000D01*
X206990000Y-77369000D02*
X209935000Y-77369000D01*
X206990000Y-77409000D02*
X209944000Y-77409000D01*
X206990000Y-77449000D02*
X209952000Y-77449000D01*
X206990000Y-77489000D02*
X209960000Y-77489000D01*
X206990000Y-77529000D02*
X209967000Y-77529000D01*
X210070000Y-78250000D02*
G75*
G02*
X201830000Y-78250000I-4120000J0D01*
G01*
X201830000Y-78250000D02*
G75*
G02*
X210070000Y-78250000I4120000J0D01*
G01*
%TO.C,R3*%
X201765000Y-72727064D02*
X201765000Y-72272936D01*
X203235000Y-72727064D02*
X203235000Y-72272936D01*
%TD*%
D17*
X243000000Y-130000000D02*
X240500000Y-132500000D01*
X188000000Y-130000000D02*
X188000000Y-61000000D01*
X240500000Y-58500000D02*
X243000000Y-61000000D01*
X190500000Y-132500000D02*
X188000000Y-130000000D01*
X240500000Y-132500000D02*
X190500000Y-132500000D01*
X188000000Y-61000000D02*
X190500000Y-58500000D01*
X243000000Y-61000000D02*
X243000000Y-130000000D01*
X190500000Y-58500000D02*
X240500000Y-58500000D01*
M02*
