%TF.GenerationSoftware,KiCad,Pcbnew,8.0.1-8.0.1-0~ubuntu20.04.1*%
%TF.CreationDate,2024-05-13T17:34:50+05:00*%
%TF.ProjectId,DeltaAnomalain,44656c74-6141-46e6-9f6d-616c61696e2e,rev?*%
%TF.SameCoordinates,Original*%
%TF.FileFunction,Soldermask,Top*%
%TF.FilePolarity,Negative*%
%FSLAX46Y46*%
G04 Gerber Fmt 4.6, Leading zero omitted, Abs format (unit mm)*
G04 Created by KiCad (PCBNEW 8.0.1-8.0.1-0~ubuntu20.04.1) date 2024-05-13 17:34:50*
%MOMM*%
%LPD*%
G01*
G04 APERTURE LIST*
G04 Aperture macros list*
%AMRoundRect*
0 Rectangle with rounded corners*
0 $1 Rounding radius*
0 $2 $3 $4 $5 $6 $7 $8 $9 X,Y pos of 4 corners*
0 Add a 4 corners polygon primitive as box body*
4,1,4,$2,$3,$4,$5,$6,$7,$8,$9,$2,$3,0*
0 Add four circle primitives for the rounded corners*
1,1,$1+$1,$2,$3*
1,1,$1+$1,$4,$5*
1,1,$1+$1,$6,$7*
1,1,$1+$1,$8,$9*
0 Add four rect primitives between the rounded corners*
20,1,$1+$1,$2,$3,$4,$5,0*
20,1,$1+$1,$4,$5,$6,$7,0*
20,1,$1+$1,$6,$7,$8,$9,0*
20,1,$1+$1,$8,$9,$2,$3,0*%
%AMFreePoly0*
4,1,9,3.862500,-0.866500,0.737500,-0.866500,0.737500,-0.450000,-0.737500,-0.450000,-0.737500,0.450000,0.737500,0.450000,0.737500,0.866500,3.862500,0.866500,3.862500,-0.866500,3.862500,-0.866500,$1*%
G04 Aperture macros list end*
%ADD10R,1.600000X1.600000*%
%ADD11C,1.600000*%
%ADD12R,1.700000X1.700000*%
%ADD13O,1.700000X1.700000*%
%ADD14RoundRect,0.250000X-0.350000X-0.450000X0.350000X-0.450000X0.350000X0.450000X-0.350000X0.450000X0*%
%ADD15C,0.800000*%
%ADD16C,6.400000*%
%ADD17RoundRect,0.250000X-0.600000X-0.725000X0.600000X-0.725000X0.600000X0.725000X-0.600000X0.725000X0*%
%ADD18O,1.700000X1.950000*%
%ADD19R,1.800000X1.800000*%
%ADD20C,1.800000*%
%ADD21C,1.500000*%
%ADD22C,1.700000*%
%ADD23RoundRect,0.500000X0.500000X-0.750000X0.500000X0.750000X-0.500000X0.750000X-0.500000X-0.750000X0*%
%ADD24O,2.000000X2.500000*%
%ADD25RoundRect,0.250000X0.337500X0.475000X-0.337500X0.475000X-0.337500X-0.475000X0.337500X-0.475000X0*%
%ADD26RoundRect,0.250000X0.475000X-0.337500X0.475000X0.337500X-0.475000X0.337500X-0.475000X-0.337500X0*%
%ADD27RoundRect,0.250000X-0.850000X-0.350000X0.850000X-0.350000X0.850000X0.350000X-0.850000X0.350000X0*%
%ADD28RoundRect,0.249997X-2.950003X-2.650003X2.950003X-2.650003X2.950003X2.650003X-2.950003X2.650003X0*%
%ADD29RoundRect,0.250000X0.600000X0.725000X-0.600000X0.725000X-0.600000X-0.725000X0.600000X-0.725000X0*%
%ADD30RoundRect,0.250000X-0.325000X-0.650000X0.325000X-0.650000X0.325000X0.650000X-0.325000X0.650000X0*%
%ADD31R,5.000000X3.100000*%
%ADD32RoundRect,0.250000X-0.337500X-0.475000X0.337500X-0.475000X0.337500X0.475000X-0.337500X0.475000X0*%
%ADD33RoundRect,0.250000X2.050000X0.300000X-2.050000X0.300000X-2.050000X-0.300000X2.050000X-0.300000X0*%
%ADD34RoundRect,0.250002X4.449998X5.149998X-4.449998X5.149998X-4.449998X-5.149998X4.449998X-5.149998X0*%
%ADD35RoundRect,0.250000X0.450000X-0.350000X0.450000X0.350000X-0.450000X0.350000X-0.450000X-0.350000X0*%
%ADD36RoundRect,0.250000X0.650000X-0.325000X0.650000X0.325000X-0.650000X0.325000X-0.650000X-0.325000X0*%
%ADD37R,1.600000X2.400000*%
%ADD38O,1.600000X2.400000*%
%ADD39RoundRect,0.250000X-0.475000X0.337500X-0.475000X-0.337500X0.475000X-0.337500X0.475000X0.337500X0*%
%ADD40C,1.440000*%
%ADD41RoundRect,0.075000X-0.075000X0.350000X-0.075000X-0.350000X0.075000X-0.350000X0.075000X0.350000X0*%
%ADD42RoundRect,0.075000X-0.350000X-0.075000X0.350000X-0.075000X0.350000X0.075000X-0.350000X0.075000X0*%
%ADD43RoundRect,0.250000X0.325000X0.650000X-0.325000X0.650000X-0.325000X-0.650000X0.325000X-0.650000X0*%
%ADD44RoundRect,0.225000X0.225000X-0.425000X0.225000X0.425000X-0.225000X0.425000X-0.225000X-0.425000X0*%
%ADD45FreePoly0,90.000000*%
%ADD46RoundRect,0.125000X-0.625000X-0.125000X0.625000X-0.125000X0.625000X0.125000X-0.625000X0.125000X0*%
%ADD47RoundRect,0.125000X-0.125000X-0.625000X0.125000X-0.625000X0.125000X0.625000X-0.125000X0.625000X0*%
%ADD48RoundRect,0.250000X-0.450000X0.350000X-0.450000X-0.350000X0.450000X-0.350000X0.450000X0.350000X0*%
%TA.AperFunction,Profile*%
%ADD49C,0.050000*%
%TD*%
G04 APERTURE END LIST*
D10*
%TO.C,C6*%
X198500000Y-117000000D03*
D11*
X202000000Y-117000000D03*
%TD*%
D12*
%TO.C,J9*%
X238500000Y-102000000D03*
D13*
X238500000Y-104540000D03*
X238500000Y-107080000D03*
X238500000Y-109620000D03*
X238500000Y-112160000D03*
X238500000Y-114700000D03*
X238500000Y-117240000D03*
X238500000Y-119780000D03*
%TD*%
D14*
%TO.C,R6*%
X236800000Y-75500000D03*
X238800000Y-75500000D03*
%TD*%
D15*
%TO.C,H1*%
X190600000Y-127500000D03*
X191302944Y-125802944D03*
X191302944Y-129197056D03*
X193000000Y-125100000D03*
D16*
X193000000Y-127500000D03*
D15*
X193000000Y-129900000D03*
X194697056Y-125802944D03*
X194697056Y-129197056D03*
X195400000Y-127500000D03*
%TD*%
D17*
%TO.C,J8*%
X229250000Y-93950000D03*
D18*
X231750000Y-93950000D03*
X234250000Y-93950000D03*
X236750000Y-93950000D03*
%TD*%
D17*
%TO.C,J6*%
X229250000Y-80350000D03*
D18*
X231750000Y-80350000D03*
X234250000Y-80350000D03*
X236750000Y-80350000D03*
%TD*%
D19*
%TO.C,D3*%
X228000000Y-128000000D03*
D20*
X225460000Y-128000000D03*
%TD*%
D21*
%TO.C,Y1*%
X217450000Y-102620000D03*
X217450000Y-107500000D03*
%TD*%
D22*
%TO.C,J1*%
X191297349Y-119500000D03*
X193797349Y-119500000D03*
D23*
X191297349Y-114500000D03*
D24*
X193797349Y-114500000D03*
%TD*%
D25*
%TO.C,C3*%
X229037500Y-72500000D03*
X226962500Y-72500000D03*
%TD*%
D26*
%TO.C,C12*%
X212450000Y-109037500D03*
X212450000Y-106962500D03*
%TD*%
D27*
%TO.C,D1*%
X190750000Y-77195000D03*
D28*
X197050000Y-79475000D03*
D27*
X190750000Y-81755000D03*
%TD*%
D29*
%TO.C,J2*%
X219450000Y-94900000D03*
D18*
X216950000Y-94900000D03*
X214450000Y-94900000D03*
%TD*%
D30*
%TO.C,C5*%
X204975000Y-110000000D03*
X207925000Y-110000000D03*
%TD*%
D31*
%TO.C,L1*%
X196450000Y-109500000D03*
X196450000Y-98400000D03*
%TD*%
D32*
%TO.C,C2*%
X232462500Y-75500000D03*
X234537500Y-75500000D03*
%TD*%
D17*
%TO.C,J7*%
X229250000Y-87150000D03*
D18*
X231750000Y-87150000D03*
X234250000Y-87150000D03*
X236750000Y-87150000D03*
%TD*%
D33*
%TO.C,U4*%
X203450000Y-92800000D03*
X203450000Y-91100000D03*
X203450000Y-89400000D03*
D34*
X194300000Y-89400000D03*
D33*
X203450000Y-87700000D03*
X203450000Y-86000000D03*
%TD*%
D35*
%TO.C,R1*%
X208500000Y-93500000D03*
X208500000Y-91500000D03*
%TD*%
D15*
%TO.C,H2*%
X235600000Y-63500000D03*
X236302944Y-61802944D03*
X236302944Y-65197056D03*
X238000000Y-61100000D03*
D16*
X238000000Y-63500000D03*
D15*
X238000000Y-65900000D03*
X239697056Y-61802944D03*
X239697056Y-65197056D03*
X240400000Y-63500000D03*
%TD*%
D27*
%TO.C,Q1*%
X190750000Y-69635000D03*
D28*
X197050000Y-71915000D03*
D27*
X190750000Y-74195000D03*
%TD*%
D29*
%TO.C,J5*%
X219450000Y-74500000D03*
D18*
X216950000Y-74500000D03*
X214450000Y-74500000D03*
%TD*%
D15*
%TO.C,H4*%
X235600000Y-127500000D03*
X236302944Y-125802944D03*
X236302944Y-129197056D03*
X238000000Y-125100000D03*
D16*
X238000000Y-127500000D03*
D15*
X238000000Y-129900000D03*
X239697056Y-125802944D03*
X239697056Y-129197056D03*
X240400000Y-127500000D03*
%TD*%
D36*
%TO.C,C9*%
X206600000Y-128475000D03*
X206600000Y-125525000D03*
%TD*%
D37*
%TO.C,U3*%
X222500000Y-123120000D03*
D38*
X225040000Y-123120000D03*
X227580000Y-123120000D03*
X230120000Y-123120000D03*
X230120000Y-115500000D03*
X227580000Y-115500000D03*
X225040000Y-115500000D03*
X222500000Y-115500000D03*
%TD*%
D39*
%TO.C,C11*%
X212450000Y-100925000D03*
X212450000Y-103000000D03*
%TD*%
D10*
%TO.C,BZ1*%
X207500000Y-118000000D03*
D11*
X215100000Y-118000000D03*
%TD*%
D35*
%TO.C,R7*%
X213000000Y-129000000D03*
X213000000Y-127000000D03*
%TD*%
D40*
%TO.C,RV1*%
X207450000Y-99120000D03*
X207450000Y-101660000D03*
X207450000Y-104200000D03*
%TD*%
D41*
%TO.C,U2*%
X234650000Y-68950000D03*
X234150000Y-68950000D03*
X233650000Y-68950000D03*
X233150000Y-68950000D03*
X232650000Y-68950000D03*
X232150000Y-68950000D03*
D42*
X231450000Y-69650000D03*
X231450000Y-70150000D03*
X231450000Y-70650000D03*
X231450000Y-71150000D03*
X231450000Y-71650000D03*
X231450000Y-72150000D03*
D41*
X232150000Y-72850000D03*
X232650000Y-72850000D03*
X233150000Y-72850000D03*
X233650000Y-72850000D03*
X234150000Y-72850000D03*
X234650000Y-72850000D03*
D42*
X235350000Y-72150000D03*
X235350000Y-71650000D03*
X235350000Y-71150000D03*
X235350000Y-70650000D03*
X235350000Y-70150000D03*
X235350000Y-69650000D03*
%TD*%
D43*
%TO.C,C8*%
X208925000Y-72000000D03*
X205975000Y-72000000D03*
%TD*%
D44*
%TO.C,U5*%
X199000000Y-128500000D03*
D45*
X200500000Y-128412500D03*
D44*
X202000000Y-128500000D03*
%TD*%
D25*
%TO.C,C4*%
X229037500Y-69700000D03*
X226962500Y-69700000D03*
%TD*%
D29*
%TO.C,J3*%
X219450000Y-88100000D03*
D18*
X216950000Y-88100000D03*
X214450000Y-88100000D03*
%TD*%
D14*
%TO.C,R5*%
X227175000Y-75500000D03*
X229175000Y-75500000D03*
%TD*%
%TO.C,R4*%
X216050000Y-69500000D03*
X218050000Y-69500000D03*
%TD*%
D46*
%TO.C,U1*%
X222775000Y-104200000D03*
X222775000Y-105000000D03*
X222775000Y-105800000D03*
X222775000Y-106600000D03*
X222775000Y-107400000D03*
X222775000Y-108200000D03*
X222775000Y-109000000D03*
X222775000Y-109800000D03*
D47*
X224150000Y-111175000D03*
X224950000Y-111175000D03*
X225750000Y-111175000D03*
X226550000Y-111175000D03*
X227350000Y-111175000D03*
X228150000Y-111175000D03*
X228950000Y-111175000D03*
X229750000Y-111175000D03*
D46*
X231125000Y-109800000D03*
X231125000Y-109000000D03*
X231125000Y-108200000D03*
X231125000Y-107400000D03*
X231125000Y-106600000D03*
X231125000Y-105800000D03*
X231125000Y-105000000D03*
X231125000Y-104200000D03*
D47*
X229750000Y-102825000D03*
X228950000Y-102825000D03*
X228150000Y-102825000D03*
X227350000Y-102825000D03*
X226550000Y-102825000D03*
X225750000Y-102825000D03*
X224950000Y-102825000D03*
X224150000Y-102825000D03*
%TD*%
D15*
%TO.C,H3*%
X190600000Y-63500000D03*
X191302944Y-61802944D03*
X191302944Y-65197056D03*
X193000000Y-61100000D03*
D16*
X193000000Y-63500000D03*
D15*
X193000000Y-65900000D03*
X194697056Y-61802944D03*
X194697056Y-65197056D03*
X195400000Y-63500000D03*
%TD*%
D19*
%TO.C,D2*%
X218500000Y-128000000D03*
D20*
X215960000Y-128000000D03*
%TD*%
D26*
%TO.C,C1*%
X238600000Y-71837500D03*
X238600000Y-69762500D03*
%TD*%
D35*
%TO.C,R2*%
X208500000Y-87000000D03*
X208500000Y-85000000D03*
%TD*%
D29*
%TO.C,J4*%
X219450000Y-81300000D03*
D18*
X216950000Y-81300000D03*
X214450000Y-81300000D03*
%TD*%
D39*
%TO.C,C10*%
X219000000Y-112962500D03*
X219000000Y-115037500D03*
%TD*%
D48*
%TO.C,R8*%
X219000000Y-121000000D03*
X219000000Y-123000000D03*
%TD*%
D10*
%TO.C,C7*%
X205950000Y-80000000D03*
D11*
X205950000Y-76500000D03*
%TD*%
D35*
%TO.C,R3*%
X202500000Y-73500000D03*
X202500000Y-71500000D03*
%TD*%
D49*
X243000000Y-130000000D02*
X240500000Y-132500000D01*
X188000000Y-130000000D02*
X188000000Y-61000000D01*
X240500000Y-58500000D02*
X243000000Y-61000000D01*
X190500000Y-132500000D02*
X188000000Y-130000000D01*
X240500000Y-132500000D02*
X190500000Y-132500000D01*
X188000000Y-61000000D02*
X190500000Y-58500000D01*
X243000000Y-61000000D02*
X243000000Y-130000000D01*
X190500000Y-58500000D02*
X240500000Y-58500000D01*
M02*
