%TF.GenerationSoftware,KiCad,Pcbnew,8.0.1-8.0.1-0~ubuntu20.04.1*%
%TF.CreationDate,2024-05-13T17:34:49+05:00*%
%TF.ProjectId,DeltaAnomalain,44656c74-6141-46e6-9f6d-616c61696e2e,rev?*%
%TF.SameCoordinates,Original*%
%TF.FileFunction,Paste,Top*%
%TF.FilePolarity,Positive*%
%FSLAX46Y46*%
G04 Gerber Fmt 4.6, Leading zero omitted, Abs format (unit mm)*
G04 Created by KiCad (PCBNEW 8.0.1-8.0.1-0~ubuntu20.04.1) date 2024-05-13 17:34:49*
%MOMM*%
%LPD*%
G01*
G04 APERTURE LIST*
G04 Aperture macros list*
%AMRoundRect*
0 Rectangle with rounded corners*
0 $1 Rounding radius*
0 $2 $3 $4 $5 $6 $7 $8 $9 X,Y pos of 4 corners*
0 Add a 4 corners polygon primitive as box body*
4,1,4,$2,$3,$4,$5,$6,$7,$8,$9,$2,$3,0*
0 Add four circle primitives for the rounded corners*
1,1,$1+$1,$2,$3*
1,1,$1+$1,$4,$5*
1,1,$1+$1,$6,$7*
1,1,$1+$1,$8,$9*
0 Add four rect primitives between the rounded corners*
20,1,$1+$1,$2,$3,$4,$5,0*
20,1,$1+$1,$4,$5,$6,$7,0*
20,1,$1+$1,$6,$7,$8,$9,0*
20,1,$1+$1,$8,$9,$2,$3,0*%
%AMFreePoly0*
4,1,9,3.862500,-0.866500,0.737500,-0.866500,0.737500,-0.450000,-0.737500,-0.450000,-0.737500,0.450000,0.737500,0.450000,0.737500,0.866500,3.862500,0.866500,3.862500,-0.866500,3.862500,-0.866500,$1*%
G04 Aperture macros list end*
%ADD10RoundRect,0.250000X-0.350000X-0.450000X0.350000X-0.450000X0.350000X0.450000X-0.350000X0.450000X0*%
%ADD11C,1.700000*%
%ADD12RoundRect,0.500000X0.500000X-0.750000X0.500000X0.750000X-0.500000X0.750000X-0.500000X-0.750000X0*%
%ADD13O,2.000000X2.500000*%
%ADD14RoundRect,0.250000X0.337500X0.475000X-0.337500X0.475000X-0.337500X-0.475000X0.337500X-0.475000X0*%
%ADD15RoundRect,0.250000X0.475000X-0.337500X0.475000X0.337500X-0.475000X0.337500X-0.475000X-0.337500X0*%
%ADD16RoundRect,0.250000X-0.850000X-0.350000X0.850000X-0.350000X0.850000X0.350000X-0.850000X0.350000X0*%
%ADD17RoundRect,0.250000X-1.275000X-1.125000X1.275000X-1.125000X1.275000X1.125000X-1.275000X1.125000X0*%
%ADD18RoundRect,0.250000X-0.325000X-0.650000X0.325000X-0.650000X0.325000X0.650000X-0.325000X0.650000X0*%
%ADD19R,5.000000X3.100000*%
%ADD20RoundRect,0.250000X-0.337500X-0.475000X0.337500X-0.475000X0.337500X0.475000X-0.337500X0.475000X0*%
%ADD21RoundRect,0.250000X2.050000X0.300000X-2.050000X0.300000X-2.050000X-0.300000X2.050000X-0.300000X0*%
%ADD22RoundRect,0.250000X2.025000X2.375000X-2.025000X2.375000X-2.025000X-2.375000X2.025000X-2.375000X0*%
%ADD23RoundRect,0.250000X0.450000X-0.350000X0.450000X0.350000X-0.450000X0.350000X-0.450000X-0.350000X0*%
%ADD24RoundRect,0.250000X0.650000X-0.325000X0.650000X0.325000X-0.650000X0.325000X-0.650000X-0.325000X0*%
%ADD25RoundRect,0.250000X-0.475000X0.337500X-0.475000X-0.337500X0.475000X-0.337500X0.475000X0.337500X0*%
%ADD26RoundRect,0.075000X-0.075000X0.350000X-0.075000X-0.350000X0.075000X-0.350000X0.075000X0.350000X0*%
%ADD27RoundRect,0.075000X-0.350000X-0.075000X0.350000X-0.075000X0.350000X0.075000X-0.350000X0.075000X0*%
%ADD28RoundRect,0.250000X0.325000X0.650000X-0.325000X0.650000X-0.325000X-0.650000X0.325000X-0.650000X0*%
%ADD29RoundRect,0.225000X0.225000X-0.425000X0.225000X0.425000X-0.225000X0.425000X-0.225000X-0.425000X0*%
%ADD30FreePoly0,90.000000*%
%ADD31RoundRect,0.125000X-0.625000X-0.125000X0.625000X-0.125000X0.625000X0.125000X-0.625000X0.125000X0*%
%ADD32RoundRect,0.125000X-0.125000X-0.625000X0.125000X-0.625000X0.125000X0.625000X-0.125000X0.625000X0*%
%ADD33RoundRect,0.250000X-0.450000X0.350000X-0.450000X-0.350000X0.450000X-0.350000X0.450000X0.350000X0*%
%TA.AperFunction,Profile*%
%ADD34C,0.050000*%
%TD*%
G04 APERTURE END LIST*
D10*
%TO.C,R6*%
X236800000Y-75500000D03*
X238800000Y-75500000D03*
%TD*%
D11*
%TO.C,J1*%
X191297349Y-119500000D03*
X193797349Y-119500000D03*
D12*
X191297349Y-114500000D03*
D13*
X193797349Y-114500000D03*
%TD*%
D14*
%TO.C,C3*%
X229037500Y-72500000D03*
X226962500Y-72500000D03*
%TD*%
D15*
%TO.C,C12*%
X212450000Y-109037500D03*
X212450000Y-106962500D03*
%TD*%
D16*
%TO.C,D1*%
X190750000Y-77195000D03*
D17*
X195375000Y-77950000D03*
X195375000Y-81000000D03*
X198725000Y-77950000D03*
X198725000Y-81000000D03*
D16*
X190750000Y-81755000D03*
%TD*%
D18*
%TO.C,C5*%
X204975000Y-110000000D03*
X207925000Y-110000000D03*
%TD*%
D19*
%TO.C,L1*%
X196450000Y-109500000D03*
X196450000Y-98400000D03*
%TD*%
D20*
%TO.C,C2*%
X232462500Y-75500000D03*
X234537500Y-75500000D03*
%TD*%
D21*
%TO.C,U4*%
X203450000Y-92800000D03*
X203450000Y-91100000D03*
X203450000Y-89400000D03*
D22*
X196725000Y-92175000D03*
X196725000Y-86625000D03*
X191875000Y-92175000D03*
X191875000Y-86625000D03*
D21*
X203450000Y-87700000D03*
X203450000Y-86000000D03*
%TD*%
D23*
%TO.C,R1*%
X208500000Y-93500000D03*
X208500000Y-91500000D03*
%TD*%
D16*
%TO.C,Q1*%
X190750000Y-69635000D03*
D17*
X195375000Y-70390000D03*
X195375000Y-73440000D03*
X198725000Y-70390000D03*
X198725000Y-73440000D03*
D16*
X190750000Y-74195000D03*
%TD*%
D24*
%TO.C,C9*%
X206600000Y-128475000D03*
X206600000Y-125525000D03*
%TD*%
D25*
%TO.C,C11*%
X212450000Y-100925000D03*
X212450000Y-103000000D03*
%TD*%
D23*
%TO.C,R7*%
X213000000Y-129000000D03*
X213000000Y-127000000D03*
%TD*%
D26*
%TO.C,U2*%
X234650000Y-68950000D03*
X234150000Y-68950000D03*
X233650000Y-68950000D03*
X233150000Y-68950000D03*
X232650000Y-68950000D03*
X232150000Y-68950000D03*
D27*
X231450000Y-69650000D03*
X231450000Y-70150000D03*
X231450000Y-70650000D03*
X231450000Y-71150000D03*
X231450000Y-71650000D03*
X231450000Y-72150000D03*
D26*
X232150000Y-72850000D03*
X232650000Y-72850000D03*
X233150000Y-72850000D03*
X233650000Y-72850000D03*
X234150000Y-72850000D03*
X234650000Y-72850000D03*
D27*
X235350000Y-72150000D03*
X235350000Y-71650000D03*
X235350000Y-71150000D03*
X235350000Y-70650000D03*
X235350000Y-70150000D03*
X235350000Y-69650000D03*
%TD*%
D28*
%TO.C,C8*%
X208925000Y-72000000D03*
X205975000Y-72000000D03*
%TD*%
D29*
%TO.C,U5*%
X199000000Y-128500000D03*
D30*
X200500000Y-128412500D03*
D29*
X202000000Y-128500000D03*
%TD*%
D14*
%TO.C,C4*%
X229037500Y-69700000D03*
X226962500Y-69700000D03*
%TD*%
D10*
%TO.C,R5*%
X227175000Y-75500000D03*
X229175000Y-75500000D03*
%TD*%
%TO.C,R4*%
X216050000Y-69500000D03*
X218050000Y-69500000D03*
%TD*%
D31*
%TO.C,U1*%
X222775000Y-104200000D03*
X222775000Y-105000000D03*
X222775000Y-105800000D03*
X222775000Y-106600000D03*
X222775000Y-107400000D03*
X222775000Y-108200000D03*
X222775000Y-109000000D03*
X222775000Y-109800000D03*
D32*
X224150000Y-111175000D03*
X224950000Y-111175000D03*
X225750000Y-111175000D03*
X226550000Y-111175000D03*
X227350000Y-111175000D03*
X228150000Y-111175000D03*
X228950000Y-111175000D03*
X229750000Y-111175000D03*
D31*
X231125000Y-109800000D03*
X231125000Y-109000000D03*
X231125000Y-108200000D03*
X231125000Y-107400000D03*
X231125000Y-106600000D03*
X231125000Y-105800000D03*
X231125000Y-105000000D03*
X231125000Y-104200000D03*
D32*
X229750000Y-102825000D03*
X228950000Y-102825000D03*
X228150000Y-102825000D03*
X227350000Y-102825000D03*
X226550000Y-102825000D03*
X225750000Y-102825000D03*
X224950000Y-102825000D03*
X224150000Y-102825000D03*
%TD*%
D15*
%TO.C,C1*%
X238600000Y-71837500D03*
X238600000Y-69762500D03*
%TD*%
D23*
%TO.C,R2*%
X208500000Y-87000000D03*
X208500000Y-85000000D03*
%TD*%
D25*
%TO.C,C10*%
X219000000Y-112962500D03*
X219000000Y-115037500D03*
%TD*%
D33*
%TO.C,R8*%
X219000000Y-121000000D03*
X219000000Y-123000000D03*
%TD*%
D23*
%TO.C,R3*%
X202500000Y-73500000D03*
X202500000Y-71500000D03*
%TD*%
D34*
X243000000Y-130000000D02*
X240500000Y-132500000D01*
X188000000Y-130000000D02*
X188000000Y-61000000D01*
X240500000Y-58500000D02*
X243000000Y-61000000D01*
X190500000Y-132500000D02*
X188000000Y-130000000D01*
X240500000Y-132500000D02*
X190500000Y-132500000D01*
X188000000Y-61000000D02*
X190500000Y-58500000D01*
X243000000Y-61000000D02*
X243000000Y-130000000D01*
X190500000Y-58500000D02*
X240500000Y-58500000D01*
M02*
