%TF.GenerationSoftware,KiCad,Pcbnew,8.0.1-8.0.1-0~ubuntu20.04.1*%
%TF.CreationDate,2024-05-13T17:34:49+05:00*%
%TF.ProjectId,DeltaAnomalain,44656c74-6141-46e6-9f6d-616c61696e2e,rev?*%
%TF.SameCoordinates,Original*%
%TF.FileFunction,Copper,L2,Bot*%
%TF.FilePolarity,Positive*%
%FSLAX46Y46*%
G04 Gerber Fmt 4.6, Leading zero omitted, Abs format (unit mm)*
G04 Created by KiCad (PCBNEW 8.0.1-8.0.1-0~ubuntu20.04.1) date 2024-05-13 17:34:49*
%MOMM*%
%LPD*%
G01*
G04 APERTURE LIST*
G04 Aperture macros list*
%AMRoundRect*
0 Rectangle with rounded corners*
0 $1 Rounding radius*
0 $2 $3 $4 $5 $6 $7 $8 $9 X,Y pos of 4 corners*
0 Add a 4 corners polygon primitive as box body*
4,1,4,$2,$3,$4,$5,$6,$7,$8,$9,$2,$3,0*
0 Add four circle primitives for the rounded corners*
1,1,$1+$1,$2,$3*
1,1,$1+$1,$4,$5*
1,1,$1+$1,$6,$7*
1,1,$1+$1,$8,$9*
0 Add four rect primitives between the rounded corners*
20,1,$1+$1,$2,$3,$4,$5,0*
20,1,$1+$1,$4,$5,$6,$7,0*
20,1,$1+$1,$6,$7,$8,$9,0*
20,1,$1+$1,$8,$9,$2,$3,0*%
G04 Aperture macros list end*
%TA.AperFunction,ComponentPad*%
%ADD10R,1.600000X1.600000*%
%TD*%
%TA.AperFunction,ComponentPad*%
%ADD11C,1.600000*%
%TD*%
%TA.AperFunction,ComponentPad*%
%ADD12R,1.700000X1.700000*%
%TD*%
%TA.AperFunction,ComponentPad*%
%ADD13O,1.700000X1.700000*%
%TD*%
%TA.AperFunction,ComponentPad*%
%ADD14C,0.800000*%
%TD*%
%TA.AperFunction,ComponentPad*%
%ADD15C,6.400000*%
%TD*%
%TA.AperFunction,ComponentPad*%
%ADD16RoundRect,0.250000X-0.600000X-0.725000X0.600000X-0.725000X0.600000X0.725000X-0.600000X0.725000X0*%
%TD*%
%TA.AperFunction,ComponentPad*%
%ADD17O,1.700000X1.950000*%
%TD*%
%TA.AperFunction,ComponentPad*%
%ADD18R,1.800000X1.800000*%
%TD*%
%TA.AperFunction,ComponentPad*%
%ADD19C,1.800000*%
%TD*%
%TA.AperFunction,ComponentPad*%
%ADD20C,1.500000*%
%TD*%
%TA.AperFunction,ComponentPad*%
%ADD21RoundRect,0.500000X0.500000X-0.750000X0.500000X0.750000X-0.500000X0.750000X-0.500000X-0.750000X0*%
%TD*%
%TA.AperFunction,ComponentPad*%
%ADD22O,2.000000X2.500000*%
%TD*%
%TA.AperFunction,ComponentPad*%
%ADD23RoundRect,0.250000X0.600000X0.725000X-0.600000X0.725000X-0.600000X-0.725000X0.600000X-0.725000X0*%
%TD*%
%TA.AperFunction,ComponentPad*%
%ADD24R,1.600000X2.400000*%
%TD*%
%TA.AperFunction,ComponentPad*%
%ADD25O,1.600000X2.400000*%
%TD*%
%TA.AperFunction,ComponentPad*%
%ADD26C,1.440000*%
%TD*%
%TA.AperFunction,ViaPad*%
%ADD27C,0.700000*%
%TD*%
%TA.AperFunction,Conductor*%
%ADD28C,0.800000*%
%TD*%
%TA.AperFunction,Conductor*%
%ADD29C,0.400000*%
%TD*%
%TA.AperFunction,Conductor*%
%ADD30C,1.000000*%
%TD*%
%TA.AperFunction,Conductor*%
%ADD31C,0.300000*%
%TD*%
%TA.AperFunction,Conductor*%
%ADD32C,1.500000*%
%TD*%
%TA.AperFunction,Profile*%
%ADD33C,0.050000*%
%TD*%
G04 APERTURE END LIST*
D10*
%TO.P,C6,1*%
%TO.N,3V7*%
X198500000Y-117000000D03*
D11*
%TO.P,C6,2*%
%TO.N,GND*%
X202000000Y-117000000D03*
%TD*%
D12*
%TO.P,J9,1,Pin_1*%
%TO.N,GND*%
X238500000Y-102000000D03*
D13*
%TO.P,J9,2,Pin_2*%
%TO.N,3V3*%
X238500000Y-104540000D03*
%TO.P,J9,3,Pin_3*%
%TO.N,NRES*%
X238500000Y-107080000D03*
%TO.P,J9,4,Pin_4*%
%TO.N,SWD*%
X238500000Y-109620000D03*
%TO.P,J9,5,Pin_5*%
%TO.N,SWC*%
X238500000Y-112160000D03*
%TO.P,J9,6,Pin_6*%
%TO.N,SCK*%
X238500000Y-114700000D03*
%TO.P,J9,7,Pin_7*%
%TO.N,MISO*%
X238500000Y-117240000D03*
%TO.P,J9,8,Pin_8*%
%TO.N,MOSI*%
X238500000Y-119780000D03*
%TD*%
D14*
%TO.P,H1,1*%
%TO.N,N/C*%
X190600000Y-127500000D03*
X191302944Y-125802944D03*
X191302944Y-129197056D03*
X193000000Y-125100000D03*
D15*
X193000000Y-127500000D03*
D14*
X193000000Y-129900000D03*
X194697056Y-125802944D03*
X194697056Y-129197056D03*
X195400000Y-127500000D03*
%TD*%
D16*
%TO.P,J8,1,Pin_1*%
%TO.N,TXD6*%
X229250000Y-93950000D03*
D17*
%TO.P,J8,2,Pin_2*%
%TO.N,RXD*%
X231750000Y-93950000D03*
%TO.P,J8,3,Pin_3*%
%TO.N,SERVOB*%
X234250000Y-93950000D03*
%TO.P,J8,4,Pin_4*%
%TO.N,GND*%
X236750000Y-93950000D03*
%TD*%
D16*
%TO.P,J6,1,Pin_1*%
%TO.N,3V3*%
X229250000Y-80350000D03*
D17*
%TO.P,J6,2,Pin_2*%
%TO.N,GND*%
X231750000Y-80350000D03*
%TO.P,J6,3,Pin_3*%
%TO.N,SCL*%
X234250000Y-80350000D03*
%TO.P,J6,4,Pin_4*%
%TO.N,SDA*%
X236750000Y-80350000D03*
%TD*%
D18*
%TO.P,D3,1,K*%
%TO.N,GND*%
X228000000Y-128000000D03*
D19*
%TO.P,D3,2,A*%
%TO.N,Net-(D3-A)*%
X225460000Y-128000000D03*
%TD*%
D20*
%TO.P,Y1,1,1*%
%TO.N,XTAL0*%
X217450000Y-102620000D03*
%TO.P,Y1,2,2*%
%TO.N,XTAL1*%
X217450000Y-107500000D03*
%TD*%
D21*
%TO.P,J1,1,Pin_1*%
%TO.N,GND*%
X191297349Y-114500000D03*
D22*
%TO.P,J1,2,Pin_2*%
%TO.N,3V7*%
X193797349Y-114500000D03*
%TD*%
D23*
%TO.P,J2,1,Pin_1*%
%TO.N,SERVOA*%
X219450000Y-94900000D03*
D17*
%TO.P,J2,2,Pin_2*%
%TO.N,SERVO_6V*%
X216950000Y-94900000D03*
%TO.P,J2,3,Pin_3*%
%TO.N,SERVO_GND*%
X214450000Y-94900000D03*
%TD*%
D16*
%TO.P,J7,1,Pin_1*%
%TO.N,3V3*%
X229250000Y-87150000D03*
D17*
%TO.P,J7,2,Pin_2*%
%TO.N,GND*%
X231750000Y-87150000D03*
%TO.P,J7,3,Pin_3*%
%TO.N,SCL*%
X234250000Y-87150000D03*
%TO.P,J7,4,Pin_4*%
%TO.N,SDA*%
X236750000Y-87150000D03*
%TD*%
D14*
%TO.P,H2,1*%
%TO.N,N/C*%
X235600000Y-63500000D03*
X236302944Y-61802944D03*
X236302944Y-65197056D03*
X238000000Y-61100000D03*
D15*
X238000000Y-63500000D03*
D14*
X238000000Y-65900000D03*
X239697056Y-61802944D03*
X239697056Y-65197056D03*
X240400000Y-63500000D03*
%TD*%
D23*
%TO.P,J5,1,Pin_1*%
%TO.N,SERVOD*%
X219450000Y-74500000D03*
D17*
%TO.P,J5,2,Pin_2*%
%TO.N,SERVO_6V*%
X216950000Y-74500000D03*
%TO.P,J5,3,Pin_3*%
%TO.N,SERVO_GND*%
X214450000Y-74500000D03*
%TD*%
D14*
%TO.P,H4,1*%
%TO.N,N/C*%
X235600000Y-127500000D03*
X236302944Y-125802944D03*
X236302944Y-129197056D03*
X238000000Y-125100000D03*
D15*
X238000000Y-127500000D03*
D14*
X238000000Y-129900000D03*
X239697056Y-125802944D03*
X239697056Y-129197056D03*
X240400000Y-127500000D03*
%TD*%
D24*
%TO.P,U3,1,~{CS}*%
%TO.N,W25NE*%
X222500000Y-123120000D03*
D25*
%TO.P,U3,2,DO(IO1)*%
%TO.N,MISO*%
X225040000Y-123120000D03*
%TO.P,U3,3,IO2*%
%TO.N,3V3*%
X227580000Y-123120000D03*
%TO.P,U3,4,GND*%
%TO.N,GND*%
X230120000Y-123120000D03*
%TO.P,U3,5,DI(IO0)*%
%TO.N,MOSI*%
X230120000Y-115500000D03*
%TO.P,U3,6,CLK*%
%TO.N,SCK*%
X227580000Y-115500000D03*
%TO.P,U3,7,IO3*%
%TO.N,3V3*%
X225040000Y-115500000D03*
%TO.P,U3,8,VCC*%
X222500000Y-115500000D03*
%TD*%
D10*
%TO.P,BZ1,1,+*%
%TO.N,BUZ*%
X207500000Y-118000000D03*
D11*
%TO.P,BZ1,2,-*%
%TO.N,GND*%
X215100000Y-118000000D03*
%TD*%
D26*
%TO.P,RV1,1,1*%
%TO.N,Net-(R1-Pad1)*%
X207450000Y-99120000D03*
%TO.P,RV1,2,2*%
%TO.N,SERVO_6V*%
X207450000Y-101660000D03*
%TO.P,RV1,3,3*%
%TO.N,unconnected-(RV1-Pad3)*%
X207450000Y-104200000D03*
%TD*%
D23*
%TO.P,J3,1,Pin_1*%
%TO.N,SERVOB*%
X219450000Y-88100000D03*
D17*
%TO.P,J3,2,Pin_2*%
%TO.N,SERVO_6V*%
X216950000Y-88100000D03*
%TO.P,J3,3,Pin_3*%
%TO.N,SERVO_GND*%
X214450000Y-88100000D03*
%TD*%
D14*
%TO.P,H3,1*%
%TO.N,N/C*%
X190600000Y-63500000D03*
X191302944Y-61802944D03*
X191302944Y-65197056D03*
X193000000Y-61100000D03*
D15*
X193000000Y-63500000D03*
D14*
X193000000Y-65900000D03*
X194697056Y-61802944D03*
X194697056Y-65197056D03*
X195400000Y-63500000D03*
%TD*%
D18*
%TO.P,D2,1,K*%
%TO.N,GND*%
X218500000Y-128000000D03*
D19*
%TO.P,D2,2,A*%
%TO.N,Net-(D2-A)*%
X215960000Y-128000000D03*
%TD*%
D23*
%TO.P,J4,1,Pin_1*%
%TO.N,SERVOC*%
X219450000Y-81300000D03*
D17*
%TO.P,J4,2,Pin_2*%
%TO.N,SERVO_6V*%
X216950000Y-81300000D03*
%TO.P,J4,3,Pin_3*%
%TO.N,SERVO_GND*%
X214450000Y-81300000D03*
%TD*%
D10*
%TO.P,C7,1*%
%TO.N,SERVO_6V*%
X205950000Y-80000000D03*
D11*
%TO.P,C7,2*%
%TO.N,GND*%
X205950000Y-76500000D03*
%TD*%
D27*
%TO.N,3V3*%
X224700000Y-107100000D03*
%TO.N,GND*%
X202500000Y-94500000D03*
X192500000Y-70800000D03*
X201500000Y-94500000D03*
X224700000Y-108300000D03*
X233400000Y-74400000D03*
X227900000Y-71100000D03*
X203500000Y-94500000D03*
X229000000Y-71100000D03*
X204500000Y-94500000D03*
X192500000Y-71900000D03*
X219600000Y-69500000D03*
X221100000Y-107000000D03*
X192500000Y-73000000D03*
%TO.N,SCL*%
X236700000Y-70800000D03*
%TO.N,SDA*%
X236700000Y-69800000D03*
%TO.N,BUZ*%
X221100000Y-104200000D03*
%TO.N,SERVOB*%
X224400000Y-96200000D03*
%TO.N,SERVOC*%
X225700000Y-105600000D03*
X225800000Y-98200000D03*
%TO.N,SERVOD*%
X226700000Y-97200000D03*
X226900000Y-105600000D03*
%TO.N,TXD6*%
X228800000Y-105500000D03*
%TO.N,NRES*%
X229600000Y-104400000D03*
%TO.N,SERVOEN*%
X227500000Y-96300000D03*
X224600000Y-104600000D03*
%TD*%
D28*
%TO.N,3V3*%
X224556497Y-107100000D02*
X224700000Y-107100000D01*
X235940000Y-107100000D02*
X238500000Y-104540000D01*
D29*
X229250000Y-80350000D02*
X229250000Y-87150000D01*
D28*
X222500000Y-115500000D02*
X222500000Y-109156497D01*
X222500000Y-109156497D02*
X224556497Y-107100000D01*
D30*
X225040000Y-118140000D02*
X225040000Y-115500000D01*
X227580000Y-123120000D02*
X227580000Y-120680000D01*
D28*
X224700000Y-107100000D02*
X235940000Y-107100000D01*
D30*
X227580000Y-120680000D02*
X225040000Y-118140000D01*
X222500000Y-115500000D02*
X225040000Y-115500000D01*
D31*
%TO.N,GND*%
X197700000Y-115500000D02*
X200500000Y-115500000D01*
X219600000Y-69500000D02*
X226300000Y-69500000D01*
X215100000Y-118000000D02*
X215100000Y-123100000D01*
X200500000Y-115500000D02*
X202000000Y-117000000D01*
X218900000Y-126200000D02*
X227700000Y-126200000D01*
X218500000Y-128000000D02*
X218500000Y-126600000D01*
X203500000Y-94500000D02*
X201500000Y-94500000D01*
X240400000Y-103900000D02*
X238500000Y-102000000D01*
X197100000Y-116100000D02*
X197700000Y-115500000D01*
X193200000Y-73700000D02*
X192500000Y-73000000D01*
X203500000Y-78925000D02*
X205925000Y-76500000D01*
X221100000Y-107000000D02*
X215100000Y-113000000D01*
X226300000Y-69500000D02*
X227900000Y-71100000D01*
X240400000Y-107400000D02*
X240400000Y-103900000D01*
X227700000Y-126200000D02*
X228000000Y-126500000D01*
X233400000Y-74400000D02*
X231750000Y-76050000D01*
X202000000Y-117000000D02*
X202000000Y-96000000D01*
X228000000Y-126500000D02*
X228000000Y-128000000D01*
X236750000Y-95950000D02*
X238500000Y-97700000D01*
X229000000Y-71100000D02*
X232300000Y-74400000D01*
X236750000Y-92150000D02*
X235200000Y-90600000D01*
X205950000Y-76500000D02*
X203150000Y-73700000D01*
X191297349Y-114500000D02*
X192897349Y-116100000D01*
X215100000Y-123100000D02*
X218500000Y-126500000D01*
X203500000Y-94500000D02*
X203500000Y-78925000D01*
X203150000Y-73700000D02*
X193200000Y-73700000D01*
X204500000Y-94500000D02*
X203500000Y-94500000D01*
X238500000Y-97700000D02*
X238500000Y-102000000D01*
X235200000Y-90600000D02*
X233200000Y-90600000D01*
X231750000Y-89150000D02*
X231750000Y-87150000D01*
X205925000Y-76500000D02*
X205950000Y-76500000D01*
X218500000Y-126500000D02*
X218500000Y-128000000D01*
X231750000Y-76050000D02*
X231750000Y-80350000D01*
D29*
X231750000Y-87150000D02*
X231750000Y-80350000D01*
D31*
X192897349Y-116100000D02*
X197100000Y-116100000D01*
X233200000Y-90600000D02*
X231750000Y-89150000D01*
X224700000Y-108300000D02*
X224720000Y-108280000D01*
X236750000Y-93950000D02*
X236750000Y-92150000D01*
X236750000Y-93950000D02*
X236750000Y-95950000D01*
X218500000Y-126600000D02*
X218900000Y-126200000D01*
X239520000Y-108280000D02*
X240400000Y-107400000D01*
X215100000Y-113000000D02*
X215100000Y-118000000D01*
X202000000Y-96000000D02*
X203500000Y-94500000D01*
X232300000Y-74400000D02*
X233400000Y-74400000D01*
X224720000Y-108280000D02*
X239520000Y-108280000D01*
D29*
X192500000Y-70800000D02*
X192500000Y-73000000D01*
D31*
%TO.N,SCL*%
X236700000Y-70800000D02*
X234250000Y-73250000D01*
D29*
X234250000Y-80350000D02*
X234250000Y-87150000D01*
D31*
X234250000Y-73250000D02*
X234250000Y-80350000D01*
%TO.N,SDA*%
X236700000Y-69800000D02*
X237400000Y-70500000D01*
X237400000Y-70500000D02*
X237400000Y-79700000D01*
X237400000Y-79700000D02*
X236750000Y-80350000D01*
D29*
X236750000Y-87150000D02*
X236750000Y-80350000D01*
D31*
%TO.N,BUZ*%
X208505635Y-118000000D02*
X207500000Y-118000000D01*
X221100000Y-105405635D02*
X208505635Y-118000000D01*
X221100000Y-104200000D02*
X221100000Y-105405635D01*
D32*
%TO.N,SERVO_6V*%
X216950000Y-74050000D02*
X216950000Y-74500000D01*
X205950000Y-80000000D02*
X213375000Y-72575000D01*
D30*
X207450000Y-101660000D02*
X212540000Y-101660000D01*
X216950000Y-97250000D02*
X216950000Y-94900000D01*
D32*
X215475000Y-72575000D02*
X216950000Y-74050000D01*
X213375000Y-72575000D02*
X215475000Y-72575000D01*
X216950000Y-74500000D02*
X216950000Y-94900000D01*
D30*
X212540000Y-101660000D02*
X216950000Y-97250000D01*
D32*
%TO.N,SERVO_GND*%
X214450000Y-94900000D02*
X214450000Y-74500000D01*
D31*
%TO.N,SERVOB*%
X224819544Y-96200000D02*
X228394544Y-92625000D01*
X224400000Y-96200000D02*
X224819544Y-96200000D01*
X232925000Y-92625000D02*
X234250000Y-93950000D01*
X228394544Y-92625000D02*
X232925000Y-92625000D01*
%TO.N,SERVOC*%
X225800000Y-105500000D02*
X225700000Y-105600000D01*
X225800000Y-98200000D02*
X225800000Y-105500000D01*
%TO.N,SERVOD*%
X226700000Y-97200000D02*
X226700000Y-105400000D01*
X226700000Y-105400000D02*
X226900000Y-105600000D01*
%TO.N,TXD6*%
X228800000Y-94400000D02*
X229250000Y-93950000D01*
X228800000Y-105500000D02*
X228800000Y-94400000D01*
%TO.N,NRES*%
X239700000Y-105880000D02*
X238500000Y-107080000D01*
X229600000Y-104400000D02*
X230700000Y-103300000D01*
X230700000Y-103300000D02*
X238957057Y-103300000D01*
X239700000Y-104042943D02*
X239700000Y-105880000D01*
X238957057Y-103300000D02*
X239700000Y-104042943D01*
%TO.N,MISO*%
X226590000Y-124670000D02*
X231070000Y-124670000D01*
X225040000Y-123120000D02*
X226590000Y-124670000D01*
X231070000Y-124670000D02*
X238500000Y-117240000D01*
%TO.N,SERVOEN*%
X227800000Y-106000000D02*
X227500000Y-106300000D01*
X227500000Y-106300000D02*
X225300000Y-106300000D01*
X224600000Y-105600000D02*
X224600000Y-104600000D01*
X225300000Y-106300000D02*
X224600000Y-105600000D01*
X227500000Y-96300000D02*
X227800000Y-96600000D01*
X227800000Y-96600000D02*
X227800000Y-106000000D01*
%TD*%
%TA.AperFunction,Conductor*%
%TO.N,GND*%
G36*
X232000000Y-81802230D02*
G01*
X232066126Y-81791757D01*
X232066129Y-81791757D01*
X232268217Y-81726095D01*
X232457557Y-81629620D01*
X232629459Y-81504727D01*
X232629464Y-81504723D01*
X232779723Y-81354464D01*
X232779727Y-81354459D01*
X232904620Y-81182557D01*
X233001095Y-80993217D01*
X233040759Y-80871144D01*
X233080196Y-80813469D01*
X233144555Y-80786270D01*
X233213401Y-80798184D01*
X233264877Y-80845428D01*
X233273251Y-80862009D01*
X233319057Y-80972596D01*
X233434024Y-81144657D01*
X233580342Y-81290975D01*
X233580345Y-81290977D01*
X233752402Y-81405941D01*
X233772952Y-81414453D01*
X233827356Y-81458293D01*
X233849421Y-81524587D01*
X233849500Y-81529014D01*
X233849500Y-85970985D01*
X233829815Y-86038024D01*
X233777011Y-86083779D01*
X233772954Y-86085546D01*
X233752402Y-86094059D01*
X233752395Y-86094062D01*
X233580344Y-86209022D01*
X233434024Y-86355342D01*
X233319057Y-86527404D01*
X233273251Y-86637990D01*
X233229409Y-86692394D01*
X233163115Y-86714458D01*
X233095416Y-86697178D01*
X233047806Y-86646041D01*
X233040759Y-86628855D01*
X233001095Y-86506782D01*
X232904620Y-86317442D01*
X232779727Y-86145540D01*
X232779723Y-86145535D01*
X232629464Y-85995276D01*
X232629459Y-85995272D01*
X232457557Y-85870379D01*
X232268215Y-85773903D01*
X232066124Y-85708241D01*
X232000000Y-85697768D01*
X232000000Y-86745854D01*
X231933343Y-86707370D01*
X231812535Y-86675000D01*
X231687465Y-86675000D01*
X231566657Y-86707370D01*
X231500000Y-86745854D01*
X231500000Y-85697768D01*
X231499999Y-85697768D01*
X231433875Y-85708241D01*
X231231784Y-85773903D01*
X231042442Y-85870379D01*
X230870540Y-85995272D01*
X230870535Y-85995276D01*
X230720276Y-86145535D01*
X230720272Y-86145540D01*
X230595379Y-86317442D01*
X230534985Y-86435971D01*
X230487010Y-86486767D01*
X230419189Y-86503562D01*
X230353054Y-86481024D01*
X230309603Y-86426309D01*
X230300500Y-86379676D01*
X230300500Y-86370730D01*
X230297646Y-86340300D01*
X230297646Y-86340298D01*
X230252793Y-86212119D01*
X230252792Y-86212117D01*
X230203656Y-86145540D01*
X230172150Y-86102850D01*
X230062882Y-86022207D01*
X230062880Y-86022206D01*
X229934700Y-85977353D01*
X229904270Y-85974500D01*
X229904266Y-85974500D01*
X229774500Y-85974500D01*
X229707461Y-85954815D01*
X229661706Y-85902011D01*
X229650500Y-85850500D01*
X229650500Y-81649500D01*
X229670185Y-81582461D01*
X229722989Y-81536706D01*
X229774500Y-81525500D01*
X229904270Y-81525500D01*
X229934699Y-81522646D01*
X229934701Y-81522646D01*
X229998790Y-81500219D01*
X230062882Y-81477793D01*
X230172150Y-81397150D01*
X230252793Y-81287882D01*
X230289648Y-81182557D01*
X230297646Y-81159701D01*
X230297646Y-81159699D01*
X230300500Y-81129269D01*
X230300500Y-81120323D01*
X230320185Y-81053284D01*
X230372989Y-81007529D01*
X230442147Y-80997585D01*
X230505703Y-81026610D01*
X230534985Y-81064028D01*
X230595379Y-81182557D01*
X230720272Y-81354459D01*
X230720276Y-81354464D01*
X230870535Y-81504723D01*
X230870540Y-81504727D01*
X231042442Y-81629620D01*
X231231782Y-81726095D01*
X231433871Y-81791757D01*
X231500000Y-81802231D01*
X231500000Y-80754145D01*
X231566657Y-80792630D01*
X231687465Y-80825000D01*
X231812535Y-80825000D01*
X231933343Y-80792630D01*
X232000000Y-80754145D01*
X232000000Y-81802230D01*
G37*
%TD.AperFunction*%
%TA.AperFunction,Conductor*%
G36*
X240308363Y-59020185D02*
G01*
X240329005Y-59036819D01*
X242463181Y-61170995D01*
X242496666Y-61232318D01*
X242499500Y-61258676D01*
X242499500Y-129741324D01*
X242479815Y-129808363D01*
X242463181Y-129829005D01*
X240329005Y-131963181D01*
X240267682Y-131996666D01*
X240241324Y-131999500D01*
X190758676Y-131999500D01*
X190691637Y-131979815D01*
X190670995Y-131963181D01*
X188536819Y-129829005D01*
X188503334Y-129767682D01*
X188500500Y-129741324D01*
X188500500Y-127500000D01*
X189594506Y-127500000D01*
X189608060Y-127750000D01*
X189614469Y-127868196D01*
X189614470Y-127868213D01*
X189674122Y-128232068D01*
X189674128Y-128232094D01*
X189772768Y-128587365D01*
X189772770Y-128587371D01*
X189772772Y-128587377D01*
X189772773Y-128587379D01*
X189812271Y-128686511D01*
X189909255Y-128929926D01*
X189909261Y-128929938D01*
X190081973Y-129255708D01*
X190081976Y-129255713D01*
X190081978Y-129255716D01*
X190141398Y-129343354D01*
X190288909Y-129560916D01*
X190485777Y-129792686D01*
X190527627Y-129841956D01*
X190795330Y-130095538D01*
X191088881Y-130318690D01*
X191404838Y-130508795D01*
X191404840Y-130508796D01*
X191404842Y-130508797D01*
X191404846Y-130508799D01*
X191739486Y-130663620D01*
X191739497Y-130663625D01*
X192088934Y-130781364D01*
X192449052Y-130860632D01*
X192815630Y-130900500D01*
X192815636Y-130900500D01*
X193184364Y-130900500D01*
X193184370Y-130900500D01*
X193550948Y-130860632D01*
X193911066Y-130781364D01*
X194260503Y-130663625D01*
X194595162Y-130508795D01*
X194911119Y-130318690D01*
X195204670Y-130095538D01*
X195472373Y-129841956D01*
X195711090Y-129560917D01*
X195918022Y-129255716D01*
X196090743Y-128929930D01*
X196227227Y-128587379D01*
X196325875Y-128232081D01*
X196344237Y-128120077D01*
X196363923Y-128000000D01*
X214854785Y-128000000D01*
X214873602Y-128203082D01*
X214929417Y-128399247D01*
X214929422Y-128399260D01*
X215020327Y-128581821D01*
X215143237Y-128744581D01*
X215293958Y-128881980D01*
X215293960Y-128881982D01*
X215371393Y-128929926D01*
X215467363Y-128989348D01*
X215657544Y-129063024D01*
X215858024Y-129100500D01*
X215858026Y-129100500D01*
X216061974Y-129100500D01*
X216061976Y-129100500D01*
X216262456Y-129063024D01*
X216452637Y-128989348D01*
X216626041Y-128881981D01*
X216776764Y-128744579D01*
X216877046Y-128611783D01*
X216933155Y-128570148D01*
X217002867Y-128565457D01*
X217064049Y-128599199D01*
X217097276Y-128660662D01*
X217100000Y-128686511D01*
X217100000Y-128947844D01*
X217106401Y-129007372D01*
X217106403Y-129007379D01*
X217156645Y-129142086D01*
X217156649Y-129142093D01*
X217242809Y-129257187D01*
X217242812Y-129257190D01*
X217357906Y-129343350D01*
X217357913Y-129343354D01*
X217492620Y-129393596D01*
X217492627Y-129393598D01*
X217552155Y-129399999D01*
X217552172Y-129400000D01*
X218250000Y-129400000D01*
X218250000Y-128375277D01*
X218326306Y-128419333D01*
X218440756Y-128450000D01*
X218559244Y-128450000D01*
X218673694Y-128419333D01*
X218750000Y-128375277D01*
X218750000Y-129400000D01*
X219447828Y-129400000D01*
X219447844Y-129399999D01*
X219507372Y-129393598D01*
X219507379Y-129393596D01*
X219642086Y-129343354D01*
X219642093Y-129343350D01*
X219757187Y-129257190D01*
X219757190Y-129257187D01*
X219843350Y-129142093D01*
X219843354Y-129142086D01*
X219893596Y-129007379D01*
X219893598Y-129007372D01*
X219899999Y-128947844D01*
X219900000Y-128947827D01*
X219900000Y-128250000D01*
X218875278Y-128250000D01*
X218919333Y-128173694D01*
X218950000Y-128059244D01*
X218950000Y-128000000D01*
X224354785Y-128000000D01*
X224373602Y-128203082D01*
X224429417Y-128399247D01*
X224429422Y-128399260D01*
X224520327Y-128581821D01*
X224643237Y-128744581D01*
X224793958Y-128881980D01*
X224793960Y-128881982D01*
X224871393Y-128929926D01*
X224967363Y-128989348D01*
X225157544Y-129063024D01*
X225358024Y-129100500D01*
X225358026Y-129100500D01*
X225561974Y-129100500D01*
X225561976Y-129100500D01*
X225762456Y-129063024D01*
X225952637Y-128989348D01*
X226126041Y-128881981D01*
X226276764Y-128744579D01*
X226377046Y-128611783D01*
X226433155Y-128570148D01*
X226502867Y-128565457D01*
X226564049Y-128599199D01*
X226597276Y-128660662D01*
X226600000Y-128686511D01*
X226600000Y-128947844D01*
X226606401Y-129007372D01*
X226606403Y-129007379D01*
X226656645Y-129142086D01*
X226656649Y-129142093D01*
X226742809Y-129257187D01*
X226742812Y-129257190D01*
X226857906Y-129343350D01*
X226857913Y-129343354D01*
X226992620Y-129393596D01*
X226992627Y-129393598D01*
X227052155Y-129399999D01*
X227052172Y-129400000D01*
X227750000Y-129400000D01*
X227750000Y-128375277D01*
X227826306Y-128419333D01*
X227940756Y-128450000D01*
X228059244Y-128450000D01*
X228173694Y-128419333D01*
X228250000Y-128375277D01*
X228250000Y-129400000D01*
X228947828Y-129400000D01*
X228947844Y-129399999D01*
X229007372Y-129393598D01*
X229007379Y-129393596D01*
X229142086Y-129343354D01*
X229142093Y-129343350D01*
X229257187Y-129257190D01*
X229257190Y-129257187D01*
X229343350Y-129142093D01*
X229343354Y-129142086D01*
X229393596Y-129007379D01*
X229393598Y-129007372D01*
X229399999Y-128947844D01*
X229400000Y-128947827D01*
X229400000Y-128250000D01*
X228375278Y-128250000D01*
X228419333Y-128173694D01*
X228450000Y-128059244D01*
X228450000Y-127940756D01*
X228419333Y-127826306D01*
X228375278Y-127750000D01*
X229400000Y-127750000D01*
X229400000Y-127500000D01*
X234594506Y-127500000D01*
X234608060Y-127750000D01*
X234614469Y-127868196D01*
X234614470Y-127868213D01*
X234674122Y-128232068D01*
X234674128Y-128232094D01*
X234772768Y-128587365D01*
X234772770Y-128587371D01*
X234772772Y-128587377D01*
X234772773Y-128587379D01*
X234812271Y-128686511D01*
X234909255Y-128929926D01*
X234909261Y-128929938D01*
X235081973Y-129255708D01*
X235081976Y-129255713D01*
X235081978Y-129255716D01*
X235141398Y-129343354D01*
X235288909Y-129560916D01*
X235485777Y-129792686D01*
X235527627Y-129841956D01*
X235795330Y-130095538D01*
X236088881Y-130318690D01*
X236404838Y-130508795D01*
X236404840Y-130508796D01*
X236404842Y-130508797D01*
X236404846Y-130508799D01*
X236739486Y-130663620D01*
X236739497Y-130663625D01*
X237088934Y-130781364D01*
X237449052Y-130860632D01*
X237815630Y-130900500D01*
X237815636Y-130900500D01*
X238184364Y-130900500D01*
X238184370Y-130900500D01*
X238550948Y-130860632D01*
X238911066Y-130781364D01*
X239260503Y-130663625D01*
X239595162Y-130508795D01*
X239911119Y-130318690D01*
X240204670Y-130095538D01*
X240472373Y-129841956D01*
X240711090Y-129560917D01*
X240918022Y-129255716D01*
X241090743Y-128929930D01*
X241227227Y-128587379D01*
X241325875Y-128232081D01*
X241344237Y-128120077D01*
X241385529Y-127868213D01*
X241385529Y-127868210D01*
X241385531Y-127868199D01*
X241405494Y-127500000D01*
X241385531Y-127131801D01*
X241383271Y-127118017D01*
X241325877Y-126767931D01*
X241325876Y-126767930D01*
X241325875Y-126767919D01*
X241227227Y-126412621D01*
X241090743Y-126070070D01*
X240918022Y-125744284D01*
X240711090Y-125439083D01*
X240472373Y-125158044D01*
X240204670Y-124904462D01*
X239911119Y-124681310D01*
X239595162Y-124491205D01*
X239595161Y-124491204D01*
X239595157Y-124491202D01*
X239595153Y-124491200D01*
X239260513Y-124336379D01*
X239260508Y-124336377D01*
X239260503Y-124336375D01*
X239071270Y-124272615D01*
X238911065Y-124218635D01*
X238550946Y-124139367D01*
X238184371Y-124099500D01*
X238184370Y-124099500D01*
X237815630Y-124099500D01*
X237815628Y-124099500D01*
X237449053Y-124139367D01*
X237088934Y-124218635D01*
X236855954Y-124297136D01*
X236739497Y-124336375D01*
X236739494Y-124336376D01*
X236739486Y-124336379D01*
X236404846Y-124491200D01*
X236404842Y-124491202D01*
X236356149Y-124520500D01*
X236088881Y-124681310D01*
X235988410Y-124757685D01*
X235795330Y-124904461D01*
X235795330Y-124904462D01*
X235527626Y-125158044D01*
X235288909Y-125439083D01*
X235081979Y-125744282D01*
X235081973Y-125744291D01*
X234909261Y-126070061D01*
X234909255Y-126070073D01*
X234772770Y-126412628D01*
X234772768Y-126412634D01*
X234674128Y-126767905D01*
X234674122Y-126767931D01*
X234614470Y-127131786D01*
X234614469Y-127131799D01*
X234614469Y-127131801D01*
X234594506Y-127500000D01*
X229400000Y-127500000D01*
X229400000Y-127052172D01*
X229399999Y-127052155D01*
X229393598Y-126992627D01*
X229393596Y-126992620D01*
X229343354Y-126857913D01*
X229343350Y-126857906D01*
X229257190Y-126742812D01*
X229257187Y-126742809D01*
X229142093Y-126656649D01*
X229142086Y-126656645D01*
X229007379Y-126606403D01*
X229007372Y-126606401D01*
X228947844Y-126600000D01*
X228250000Y-126600000D01*
X228250000Y-127624722D01*
X228173694Y-127580667D01*
X228059244Y-127550000D01*
X227940756Y-127550000D01*
X227826306Y-127580667D01*
X227750000Y-127624722D01*
X227750000Y-126600000D01*
X227052155Y-126600000D01*
X226992627Y-126606401D01*
X226992620Y-126606403D01*
X226857913Y-126656645D01*
X226857906Y-126656649D01*
X226742812Y-126742809D01*
X226742809Y-126742812D01*
X226656649Y-126857906D01*
X226656645Y-126857913D01*
X226606403Y-126992620D01*
X226606401Y-126992627D01*
X226600000Y-127052155D01*
X226600000Y-127313488D01*
X226580315Y-127380527D01*
X226527511Y-127426282D01*
X226458353Y-127436226D01*
X226394797Y-127407201D01*
X226377046Y-127388215D01*
X226276762Y-127255419D01*
X226126041Y-127118019D01*
X226126039Y-127118017D01*
X225952642Y-127010655D01*
X225952635Y-127010651D01*
X225857546Y-126973814D01*
X225762456Y-126936976D01*
X225561976Y-126899500D01*
X225358024Y-126899500D01*
X225157544Y-126936976D01*
X225157541Y-126936976D01*
X225157541Y-126936977D01*
X224967364Y-127010651D01*
X224967357Y-127010655D01*
X224793960Y-127118017D01*
X224793958Y-127118019D01*
X224643237Y-127255418D01*
X224520327Y-127418178D01*
X224429422Y-127600739D01*
X224429417Y-127600752D01*
X224373602Y-127796917D01*
X224354785Y-127999999D01*
X224354785Y-128000000D01*
X218950000Y-128000000D01*
X218950000Y-127940756D01*
X218919333Y-127826306D01*
X218875278Y-127750000D01*
X219900000Y-127750000D01*
X219900000Y-127052172D01*
X219899999Y-127052155D01*
X219893598Y-126992627D01*
X219893596Y-126992620D01*
X219843354Y-126857913D01*
X219843350Y-126857906D01*
X219757190Y-126742812D01*
X219757187Y-126742809D01*
X219642093Y-126656649D01*
X219642086Y-126656645D01*
X219507379Y-126606403D01*
X219507372Y-126606401D01*
X219447844Y-126600000D01*
X218750000Y-126600000D01*
X218750000Y-127624722D01*
X218673694Y-127580667D01*
X218559244Y-127550000D01*
X218440756Y-127550000D01*
X218326306Y-127580667D01*
X218250000Y-127624722D01*
X218250000Y-126600000D01*
X217552155Y-126600000D01*
X217492627Y-126606401D01*
X217492620Y-126606403D01*
X217357913Y-126656645D01*
X217357906Y-126656649D01*
X217242812Y-126742809D01*
X217242809Y-126742812D01*
X217156649Y-126857906D01*
X217156645Y-126857913D01*
X217106403Y-126992620D01*
X217106401Y-126992627D01*
X217100000Y-127052155D01*
X217100000Y-127313488D01*
X217080315Y-127380527D01*
X217027511Y-127426282D01*
X216958353Y-127436226D01*
X216894797Y-127407201D01*
X216877046Y-127388215D01*
X216776762Y-127255419D01*
X216626041Y-127118019D01*
X216626039Y-127118017D01*
X216452642Y-127010655D01*
X216452635Y-127010651D01*
X216357546Y-126973814D01*
X216262456Y-126936976D01*
X216061976Y-126899500D01*
X215858024Y-126899500D01*
X215657544Y-126936976D01*
X215657541Y-126936976D01*
X215657541Y-126936977D01*
X215467364Y-127010651D01*
X215467357Y-127010655D01*
X215293960Y-127118017D01*
X215293958Y-127118019D01*
X215143237Y-127255418D01*
X215020327Y-127418178D01*
X214929422Y-127600739D01*
X214929417Y-127600752D01*
X214873602Y-127796917D01*
X214854785Y-127999999D01*
X214854785Y-128000000D01*
X196363923Y-128000000D01*
X196385529Y-127868213D01*
X196385529Y-127868210D01*
X196385531Y-127868199D01*
X196405494Y-127500000D01*
X196385531Y-127131801D01*
X196383271Y-127118017D01*
X196325877Y-126767931D01*
X196325876Y-126767930D01*
X196325875Y-126767919D01*
X196227227Y-126412621D01*
X196090743Y-126070070D01*
X195918022Y-125744284D01*
X195711090Y-125439083D01*
X195472373Y-125158044D01*
X195204670Y-124904462D01*
X194911119Y-124681310D01*
X194595162Y-124491205D01*
X194595161Y-124491204D01*
X194595157Y-124491202D01*
X194595153Y-124491200D01*
X194267804Y-124339752D01*
X221499500Y-124339752D01*
X221511131Y-124398229D01*
X221511132Y-124398230D01*
X221555447Y-124464552D01*
X221621769Y-124508867D01*
X221621770Y-124508868D01*
X221680247Y-124520499D01*
X221680250Y-124520500D01*
X221680252Y-124520500D01*
X223319750Y-124520500D01*
X223319751Y-124520499D01*
X223334568Y-124517552D01*
X223378229Y-124508868D01*
X223378229Y-124508867D01*
X223378231Y-124508867D01*
X223444552Y-124464552D01*
X223488867Y-124398231D01*
X223488867Y-124398229D01*
X223488868Y-124398229D01*
X223500499Y-124339752D01*
X223500500Y-124339750D01*
X223500500Y-121900249D01*
X223500499Y-121900247D01*
X223488868Y-121841770D01*
X223488867Y-121841769D01*
X223444552Y-121775447D01*
X223378230Y-121731132D01*
X223378229Y-121731131D01*
X223319752Y-121719500D01*
X223319748Y-121719500D01*
X221680252Y-121719500D01*
X221680247Y-121719500D01*
X221621770Y-121731131D01*
X221621769Y-121731132D01*
X221555447Y-121775447D01*
X221511132Y-121841769D01*
X221511131Y-121841770D01*
X221499500Y-121900247D01*
X221499500Y-124339752D01*
X194267804Y-124339752D01*
X194260513Y-124336379D01*
X194260508Y-124336377D01*
X194260503Y-124336375D01*
X194071270Y-124272615D01*
X193911065Y-124218635D01*
X193550946Y-124139367D01*
X193184371Y-124099500D01*
X193184370Y-124099500D01*
X192815630Y-124099500D01*
X192815628Y-124099500D01*
X192449053Y-124139367D01*
X192088934Y-124218635D01*
X191855954Y-124297136D01*
X191739497Y-124336375D01*
X191739494Y-124336376D01*
X191739486Y-124336379D01*
X191404846Y-124491200D01*
X191404842Y-124491202D01*
X191356149Y-124520500D01*
X191088881Y-124681310D01*
X190988410Y-124757685D01*
X190795330Y-124904461D01*
X190795330Y-124904462D01*
X190527626Y-125158044D01*
X190288909Y-125439083D01*
X190081979Y-125744282D01*
X190081973Y-125744291D01*
X189909261Y-126070061D01*
X189909255Y-126070073D01*
X189772770Y-126412628D01*
X189772768Y-126412634D01*
X189674128Y-126767905D01*
X189674122Y-126767931D01*
X189614470Y-127131786D01*
X189614469Y-127131799D01*
X189614469Y-127131801D01*
X189594506Y-127500000D01*
X188500500Y-127500000D01*
X188500500Y-119586611D01*
X190196849Y-119586611D01*
X190223947Y-119757701D01*
X190277476Y-119922445D01*
X190356117Y-120076788D01*
X190457935Y-120216928D01*
X190580421Y-120339414D01*
X190720561Y-120441232D01*
X190874904Y-120519873D01*
X191039648Y-120573402D01*
X191210738Y-120600500D01*
X191210739Y-120600500D01*
X191383959Y-120600500D01*
X191383960Y-120600500D01*
X191555050Y-120573402D01*
X191719794Y-120519873D01*
X191874137Y-120441232D01*
X192014277Y-120339414D01*
X192136763Y-120216928D01*
X192238581Y-120076788D01*
X192317222Y-119922445D01*
X192370751Y-119757701D01*
X192397849Y-119586611D01*
X192696849Y-119586611D01*
X192723947Y-119757701D01*
X192777476Y-119922445D01*
X192856117Y-120076788D01*
X192957935Y-120216928D01*
X193080421Y-120339414D01*
X193220561Y-120441232D01*
X193374904Y-120519873D01*
X193539648Y-120573402D01*
X193710738Y-120600500D01*
X193710739Y-120600500D01*
X193883959Y-120600500D01*
X193883960Y-120600500D01*
X194055050Y-120573402D01*
X194219794Y-120519873D01*
X194374137Y-120441232D01*
X194514277Y-120339414D01*
X194636763Y-120216928D01*
X194738581Y-120076788D01*
X194817222Y-119922445D01*
X194870751Y-119757701D01*
X194897849Y-119586611D01*
X194897849Y-119413389D01*
X194870751Y-119242299D01*
X194817222Y-119077555D01*
X194738581Y-118923212D01*
X194663413Y-118819752D01*
X206499500Y-118819752D01*
X206511131Y-118878229D01*
X206511132Y-118878230D01*
X206555447Y-118944552D01*
X206621769Y-118988867D01*
X206621770Y-118988868D01*
X206680247Y-119000499D01*
X206680250Y-119000500D01*
X206680252Y-119000500D01*
X208319750Y-119000500D01*
X208319751Y-119000499D01*
X208334568Y-118997552D01*
X208378229Y-118988868D01*
X208378229Y-118988867D01*
X208378231Y-118988867D01*
X208444552Y-118944552D01*
X208488867Y-118878231D01*
X208488867Y-118878229D01*
X208488868Y-118878229D01*
X208500499Y-118819752D01*
X208500500Y-118819750D01*
X208500500Y-118459388D01*
X208520185Y-118392349D01*
X208572989Y-118346594D01*
X208592398Y-118339616D01*
X208640923Y-118326614D01*
X208720847Y-118280470D01*
X209001315Y-118000002D01*
X213795034Y-118000002D01*
X213814858Y-118226599D01*
X213814860Y-118226610D01*
X213873730Y-118446317D01*
X213873735Y-118446331D01*
X213969863Y-118652478D01*
X214020974Y-118725472D01*
X214617037Y-118129409D01*
X214634075Y-118192993D01*
X214699901Y-118307007D01*
X214792993Y-118400099D01*
X214907007Y-118465925D01*
X214970590Y-118482962D01*
X214374526Y-119079025D01*
X214447513Y-119130132D01*
X214447521Y-119130136D01*
X214653668Y-119226264D01*
X214653682Y-119226269D01*
X214873389Y-119285139D01*
X214873400Y-119285141D01*
X215099998Y-119304966D01*
X215100002Y-119304966D01*
X215326599Y-119285141D01*
X215326610Y-119285139D01*
X215546317Y-119226269D01*
X215546331Y-119226264D01*
X215752478Y-119130136D01*
X215825471Y-119079024D01*
X215229409Y-118482962D01*
X215292993Y-118465925D01*
X215407007Y-118400099D01*
X215500099Y-118307007D01*
X215565925Y-118192993D01*
X215582962Y-118129409D01*
X216179024Y-118725471D01*
X216230136Y-118652478D01*
X216326264Y-118446331D01*
X216326269Y-118446317D01*
X216385139Y-118226610D01*
X216385141Y-118226599D01*
X216404966Y-118000002D01*
X216404966Y-117999997D01*
X216385141Y-117773400D01*
X216385139Y-117773389D01*
X216326269Y-117553682D01*
X216326264Y-117553668D01*
X216230136Y-117347521D01*
X216230132Y-117347513D01*
X216179025Y-117274526D01*
X215582962Y-117870589D01*
X215565925Y-117807007D01*
X215500099Y-117692993D01*
X215407007Y-117599901D01*
X215292993Y-117534075D01*
X215229410Y-117517037D01*
X215825472Y-116920974D01*
X215752478Y-116869863D01*
X215546331Y-116773735D01*
X215546317Y-116773730D01*
X215326610Y-116714860D01*
X215326599Y-116714858D01*
X215100002Y-116695034D01*
X215099998Y-116695034D01*
X214873400Y-116714858D01*
X214873389Y-116714860D01*
X214653682Y-116773730D01*
X214653673Y-116773734D01*
X214447516Y-116869866D01*
X214447512Y-116869868D01*
X214374526Y-116920973D01*
X214374526Y-116920974D01*
X214970590Y-117517037D01*
X214907007Y-117534075D01*
X214792993Y-117599901D01*
X214699901Y-117692993D01*
X214634075Y-117807007D01*
X214617037Y-117870589D01*
X214020974Y-117274526D01*
X214020973Y-117274526D01*
X213969868Y-117347512D01*
X213969866Y-117347516D01*
X213873734Y-117553673D01*
X213873730Y-117553682D01*
X213814860Y-117773389D01*
X213814858Y-117773400D01*
X213795034Y-117999997D01*
X213795034Y-118000002D01*
X209001315Y-118000002D01*
X211002774Y-115998543D01*
X221499499Y-115998543D01*
X221537947Y-116191829D01*
X221537950Y-116191839D01*
X221613364Y-116373907D01*
X221613371Y-116373920D01*
X221722860Y-116537781D01*
X221722863Y-116537785D01*
X221862214Y-116677136D01*
X221862218Y-116677139D01*
X222026079Y-116786628D01*
X222026092Y-116786635D01*
X222168463Y-116845606D01*
X222208165Y-116862051D01*
X222208169Y-116862051D01*
X222208170Y-116862052D01*
X222401456Y-116900500D01*
X222401459Y-116900500D01*
X222598543Y-116900500D01*
X222728582Y-116874632D01*
X222791835Y-116862051D01*
X222973914Y-116786632D01*
X223137782Y-116677139D01*
X223277139Y-116537782D01*
X223386632Y-116373914D01*
X223391437Y-116362315D01*
X223426755Y-116277048D01*
X223470595Y-116222644D01*
X223536889Y-116200579D01*
X223541316Y-116200500D01*
X223998684Y-116200500D01*
X224065723Y-116220185D01*
X224111478Y-116272989D01*
X224113245Y-116277048D01*
X224153364Y-116373907D01*
X224153371Y-116373920D01*
X224262860Y-116537781D01*
X224262863Y-116537785D01*
X224303180Y-116578101D01*
X224336666Y-116639424D01*
X224339500Y-116665783D01*
X224339500Y-118071006D01*
X224339500Y-118208994D01*
X224339500Y-118208996D01*
X224339499Y-118208996D01*
X224366418Y-118344322D01*
X224366421Y-118344332D01*
X224419222Y-118471807D01*
X224495887Y-118586545D01*
X224495888Y-118586546D01*
X226843181Y-120933837D01*
X226876666Y-120995160D01*
X226879500Y-121021518D01*
X226879500Y-121954216D01*
X226859815Y-122021255D01*
X226843181Y-122041897D01*
X226802863Y-122082214D01*
X226802860Y-122082218D01*
X226693371Y-122246079D01*
X226693364Y-122246092D01*
X226617950Y-122428160D01*
X226617947Y-122428170D01*
X226579500Y-122621456D01*
X226579500Y-122621459D01*
X226579500Y-123618541D01*
X226579500Y-123618543D01*
X226579499Y-123618543D01*
X226617947Y-123811829D01*
X226617950Y-123811839D01*
X226655464Y-123902407D01*
X226662933Y-123971877D01*
X226631657Y-124034356D01*
X226571568Y-124070007D01*
X226501743Y-124067513D01*
X226453222Y-124037540D01*
X226076819Y-123661137D01*
X226043334Y-123599814D01*
X226040500Y-123573456D01*
X226040500Y-122621456D01*
X226002052Y-122428170D01*
X226002051Y-122428169D01*
X226002051Y-122428165D01*
X225996839Y-122415581D01*
X225926635Y-122246092D01*
X225926628Y-122246079D01*
X225817139Y-122082218D01*
X225817136Y-122082214D01*
X225677785Y-121942863D01*
X225677781Y-121942860D01*
X225513920Y-121833371D01*
X225513907Y-121833364D01*
X225331839Y-121757950D01*
X225331829Y-121757947D01*
X225138543Y-121719500D01*
X225138541Y-121719500D01*
X224941459Y-121719500D01*
X224941457Y-121719500D01*
X224748170Y-121757947D01*
X224748160Y-121757950D01*
X224566092Y-121833364D01*
X224566079Y-121833371D01*
X224402218Y-121942860D01*
X224402214Y-121942863D01*
X224262863Y-122082214D01*
X224262860Y-122082218D01*
X224153371Y-122246079D01*
X224153364Y-122246092D01*
X224077950Y-122428160D01*
X224077947Y-122428170D01*
X224039500Y-122621456D01*
X224039500Y-122621459D01*
X224039500Y-123618541D01*
X224039500Y-123618543D01*
X224039499Y-123618543D01*
X224077947Y-123811829D01*
X224077950Y-123811839D01*
X224153364Y-123993907D01*
X224153371Y-123993920D01*
X224262860Y-124157781D01*
X224262863Y-124157785D01*
X224402214Y-124297136D01*
X224402218Y-124297139D01*
X224566079Y-124406628D01*
X224566092Y-124406635D01*
X224705918Y-124464552D01*
X224748165Y-124482051D01*
X224748169Y-124482051D01*
X224748170Y-124482052D01*
X224941456Y-124520500D01*
X224941459Y-124520500D01*
X225138543Y-124520500D01*
X225285840Y-124491200D01*
X225331835Y-124482051D01*
X225513914Y-124406632D01*
X225619351Y-124336180D01*
X225686026Y-124315304D01*
X225753406Y-124333788D01*
X225775921Y-124351603D01*
X226374788Y-124950470D01*
X226454712Y-124996614D01*
X226543856Y-125020500D01*
X226543858Y-125020500D01*
X231116142Y-125020500D01*
X231116144Y-125020500D01*
X231205288Y-124996614D01*
X231285212Y-124950470D01*
X236455680Y-119780000D01*
X237444417Y-119780000D01*
X237464699Y-119985932D01*
X237464700Y-119985934D01*
X237524768Y-120183954D01*
X237622315Y-120366450D01*
X237622317Y-120366452D01*
X237753589Y-120526410D01*
X237810850Y-120573402D01*
X237913550Y-120657685D01*
X238096046Y-120755232D01*
X238294066Y-120815300D01*
X238294065Y-120815300D01*
X238312529Y-120817118D01*
X238500000Y-120835583D01*
X238705934Y-120815300D01*
X238903954Y-120755232D01*
X239086450Y-120657685D01*
X239246410Y-120526410D01*
X239377685Y-120366450D01*
X239475232Y-120183954D01*
X239535300Y-119985934D01*
X239555583Y-119780000D01*
X239535300Y-119574066D01*
X239475232Y-119376046D01*
X239377685Y-119193550D01*
X239325640Y-119130132D01*
X239246410Y-119033589D01*
X239086452Y-118902317D01*
X239086453Y-118902317D01*
X239086450Y-118902315D01*
X238903954Y-118804768D01*
X238705934Y-118744700D01*
X238705932Y-118744699D01*
X238705934Y-118744699D01*
X238500000Y-118724417D01*
X238294067Y-118744699D01*
X238096043Y-118804769D01*
X237985898Y-118863643D01*
X237913550Y-118902315D01*
X237913548Y-118902316D01*
X237913547Y-118902317D01*
X237753589Y-119033589D01*
X237622317Y-119193547D01*
X237524769Y-119376043D01*
X237464699Y-119574067D01*
X237444417Y-119780000D01*
X236455680Y-119780000D01*
X237985491Y-118250189D01*
X238046812Y-118216706D01*
X238109162Y-118219210D01*
X238294066Y-118275300D01*
X238294065Y-118275300D01*
X238312529Y-118277118D01*
X238500000Y-118295583D01*
X238705934Y-118275300D01*
X238903954Y-118215232D01*
X239086450Y-118117685D01*
X239246410Y-117986410D01*
X239377685Y-117826450D01*
X239475232Y-117643954D01*
X239535300Y-117445934D01*
X239555583Y-117240000D01*
X239535300Y-117034066D01*
X239475232Y-116836046D01*
X239377685Y-116653550D01*
X239295719Y-116553673D01*
X239246410Y-116493589D01*
X239100591Y-116373920D01*
X239086450Y-116362315D01*
X238903954Y-116264768D01*
X238705934Y-116204700D01*
X238705932Y-116204699D01*
X238705934Y-116204699D01*
X238500000Y-116184417D01*
X238294067Y-116204699D01*
X238096043Y-116264769D01*
X237985898Y-116323643D01*
X237913550Y-116362315D01*
X237913548Y-116362316D01*
X237913547Y-116362317D01*
X237753589Y-116493589D01*
X237628144Y-116646447D01*
X237622315Y-116653550D01*
X237608220Y-116679920D01*
X237524769Y-116836043D01*
X237464699Y-117034067D01*
X237444417Y-117240000D01*
X237464699Y-117445932D01*
X237520788Y-117630832D01*
X237521411Y-117700699D01*
X237489808Y-117754508D01*
X231631681Y-123612635D01*
X231570358Y-123646120D01*
X231500666Y-123641136D01*
X231444733Y-123599264D01*
X231420316Y-123533800D01*
X231420000Y-123524954D01*
X231420000Y-123370000D01*
X230435686Y-123370000D01*
X230440080Y-123365606D01*
X230492741Y-123274394D01*
X230520000Y-123172661D01*
X230520000Y-123067339D01*
X230492741Y-122965606D01*
X230440080Y-122874394D01*
X230435686Y-122870000D01*
X231420000Y-122870000D01*
X231420000Y-122617682D01*
X231387990Y-122415582D01*
X231324755Y-122220968D01*
X231231859Y-122038650D01*
X231111582Y-121873105D01*
X231111582Y-121873104D01*
X230966895Y-121728417D01*
X230801349Y-121608140D01*
X230619029Y-121515244D01*
X230424413Y-121452009D01*
X230370000Y-121443390D01*
X230370000Y-122804314D01*
X230365606Y-122799920D01*
X230274394Y-122747259D01*
X230172661Y-122720000D01*
X230067339Y-122720000D01*
X229965606Y-122747259D01*
X229874394Y-122799920D01*
X229870000Y-122804314D01*
X229870000Y-121443390D01*
X229815586Y-121452009D01*
X229620970Y-121515244D01*
X229438650Y-121608140D01*
X229273105Y-121728417D01*
X229273104Y-121728417D01*
X229128417Y-121873104D01*
X229128417Y-121873105D01*
X229008140Y-122038650D01*
X228915244Y-122220968D01*
X228852010Y-122415581D01*
X228822124Y-122604269D01*
X228792194Y-122667403D01*
X228732883Y-122704334D01*
X228663020Y-122703336D01*
X228604788Y-122664726D01*
X228578034Y-122609061D01*
X228542052Y-122428172D01*
X228542052Y-122428170D01*
X228542051Y-122428165D01*
X228536839Y-122415581D01*
X228466635Y-122246092D01*
X228466628Y-122246079D01*
X228357139Y-122082218D01*
X228357136Y-122082214D01*
X228316819Y-122041897D01*
X228283334Y-121980574D01*
X228280500Y-121954216D01*
X228280500Y-120611004D01*
X228253581Y-120475677D01*
X228253580Y-120475676D01*
X228253580Y-120475672D01*
X228208339Y-120366450D01*
X228200778Y-120348195D01*
X228200771Y-120348182D01*
X228124115Y-120233459D01*
X228107584Y-120216928D01*
X228026542Y-120135886D01*
X226924245Y-119033589D01*
X225776819Y-117886162D01*
X225743334Y-117824839D01*
X225740500Y-117798481D01*
X225740500Y-116665783D01*
X225760185Y-116598744D01*
X225776820Y-116578101D01*
X225817136Y-116537785D01*
X225817139Y-116537782D01*
X225926632Y-116373914D01*
X226002051Y-116191835D01*
X226022451Y-116089278D01*
X226040500Y-115998543D01*
X226579499Y-115998543D01*
X226617947Y-116191829D01*
X226617950Y-116191839D01*
X226693364Y-116373907D01*
X226693371Y-116373920D01*
X226802860Y-116537781D01*
X226802863Y-116537785D01*
X226942214Y-116677136D01*
X226942218Y-116677139D01*
X227106079Y-116786628D01*
X227106092Y-116786635D01*
X227248463Y-116845606D01*
X227288165Y-116862051D01*
X227288169Y-116862051D01*
X227288170Y-116862052D01*
X227481456Y-116900500D01*
X227481459Y-116900500D01*
X227678543Y-116900500D01*
X227808582Y-116874632D01*
X227871835Y-116862051D01*
X228053914Y-116786632D01*
X228217782Y-116677139D01*
X228357139Y-116537782D01*
X228466632Y-116373914D01*
X228542051Y-116191835D01*
X228562451Y-116089278D01*
X228580500Y-115998543D01*
X229119499Y-115998543D01*
X229157947Y-116191829D01*
X229157950Y-116191839D01*
X229233364Y-116373907D01*
X229233371Y-116373920D01*
X229342860Y-116537781D01*
X229342863Y-116537785D01*
X229482214Y-116677136D01*
X229482218Y-116677139D01*
X229646079Y-116786628D01*
X229646092Y-116786635D01*
X229788463Y-116845606D01*
X229828165Y-116862051D01*
X229828169Y-116862051D01*
X229828170Y-116862052D01*
X230021456Y-116900500D01*
X230021459Y-116900500D01*
X230218543Y-116900500D01*
X230348582Y-116874632D01*
X230411835Y-116862051D01*
X230593914Y-116786632D01*
X230757782Y-116677139D01*
X230897139Y-116537782D01*
X231006632Y-116373914D01*
X231082051Y-116191835D01*
X231102451Y-116089278D01*
X231120500Y-115998543D01*
X231120500Y-115001456D01*
X231082052Y-114808170D01*
X231082051Y-114808169D01*
X231082051Y-114808165D01*
X231069290Y-114777356D01*
X231037248Y-114700000D01*
X237444417Y-114700000D01*
X237464699Y-114905932D01*
X237464700Y-114905934D01*
X237524768Y-115103954D01*
X237622315Y-115286450D01*
X237622317Y-115286452D01*
X237753589Y-115446410D01*
X237850209Y-115525702D01*
X237913550Y-115577685D01*
X238096046Y-115675232D01*
X238294066Y-115735300D01*
X238294065Y-115735300D01*
X238312529Y-115737118D01*
X238500000Y-115755583D01*
X238705934Y-115735300D01*
X238903954Y-115675232D01*
X239086450Y-115577685D01*
X239246410Y-115446410D01*
X239377685Y-115286450D01*
X239475232Y-115103954D01*
X239535300Y-114905934D01*
X239555583Y-114700000D01*
X239535300Y-114494066D01*
X239475232Y-114296046D01*
X239377685Y-114113550D01*
X239312462Y-114034075D01*
X239246410Y-113953589D01*
X239086452Y-113822317D01*
X239086453Y-113822317D01*
X239086450Y-113822315D01*
X238903954Y-113724768D01*
X238705934Y-113664700D01*
X238705932Y-113664699D01*
X238705934Y-113664699D01*
X238500000Y-113644417D01*
X238294067Y-113664699D01*
X238096043Y-113724769D01*
X237985898Y-113783643D01*
X237913550Y-113822315D01*
X237913548Y-113822316D01*
X237913547Y-113822317D01*
X237753589Y-113953589D01*
X237633845Y-114099500D01*
X237622315Y-114113550D01*
X237609273Y-114137950D01*
X237524769Y-114296043D01*
X237464699Y-114494067D01*
X237444417Y-114700000D01*
X231037248Y-114700000D01*
X231006635Y-114626092D01*
X231006628Y-114626079D01*
X230897139Y-114462218D01*
X230897136Y-114462214D01*
X230757785Y-114322863D01*
X230757781Y-114322860D01*
X230593920Y-114213371D01*
X230593907Y-114213364D01*
X230411839Y-114137950D01*
X230411829Y-114137947D01*
X230218543Y-114099500D01*
X230218541Y-114099500D01*
X230021459Y-114099500D01*
X230021457Y-114099500D01*
X229828170Y-114137947D01*
X229828160Y-114137950D01*
X229646092Y-114213364D01*
X229646079Y-114213371D01*
X229482218Y-114322860D01*
X229482214Y-114322863D01*
X229342863Y-114462214D01*
X229342860Y-114462218D01*
X229233371Y-114626079D01*
X229233364Y-114626092D01*
X229157950Y-114808160D01*
X229157947Y-114808170D01*
X229119500Y-115001456D01*
X229119500Y-115001459D01*
X229119500Y-115998541D01*
X229119500Y-115998543D01*
X229119499Y-115998543D01*
X228580500Y-115998543D01*
X228580500Y-115001456D01*
X228542052Y-114808170D01*
X228542051Y-114808169D01*
X228542051Y-114808165D01*
X228529290Y-114777356D01*
X228466635Y-114626092D01*
X228466628Y-114626079D01*
X228357139Y-114462218D01*
X228357136Y-114462214D01*
X228217785Y-114322863D01*
X228217781Y-114322860D01*
X228053920Y-114213371D01*
X228053907Y-114213364D01*
X227871839Y-114137950D01*
X227871829Y-114137947D01*
X227678543Y-114099500D01*
X227678541Y-114099500D01*
X227481459Y-114099500D01*
X227481457Y-114099500D01*
X227288170Y-114137947D01*
X227288160Y-114137950D01*
X227106092Y-114213364D01*
X227106079Y-114213371D01*
X226942218Y-114322860D01*
X226942214Y-114322863D01*
X226802863Y-114462214D01*
X226802860Y-114462218D01*
X226693371Y-114626079D01*
X226693364Y-114626092D01*
X226617950Y-114808160D01*
X226617947Y-114808170D01*
X226579500Y-115001456D01*
X226579500Y-115001459D01*
X226579500Y-115998541D01*
X226579500Y-115998543D01*
X226579499Y-115998543D01*
X226040500Y-115998543D01*
X226040500Y-115001456D01*
X226002052Y-114808170D01*
X226002051Y-114808169D01*
X226002051Y-114808165D01*
X225989290Y-114777356D01*
X225926635Y-114626092D01*
X225926628Y-114626079D01*
X225817139Y-114462218D01*
X225817136Y-114462214D01*
X225677785Y-114322863D01*
X225677781Y-114322860D01*
X225513920Y-114213371D01*
X225513907Y-114213364D01*
X225331839Y-114137950D01*
X225331829Y-114137947D01*
X225138543Y-114099500D01*
X225138541Y-114099500D01*
X224941459Y-114099500D01*
X224941457Y-114099500D01*
X224748170Y-114137947D01*
X224748160Y-114137950D01*
X224566092Y-114213364D01*
X224566079Y-114213371D01*
X224402218Y-114322860D01*
X224402214Y-114322863D01*
X224262863Y-114462214D01*
X224262860Y-114462218D01*
X224153371Y-114626079D01*
X224153364Y-114626092D01*
X224113245Y-114722952D01*
X224069405Y-114777356D01*
X224003111Y-114799421D01*
X223998684Y-114799500D01*
X223541316Y-114799500D01*
X223474277Y-114779815D01*
X223428522Y-114727011D01*
X223426755Y-114722952D01*
X223386635Y-114626092D01*
X223386628Y-114626079D01*
X223277139Y-114462218D01*
X223277136Y-114462214D01*
X223136819Y-114321897D01*
X223103334Y-114260574D01*
X223100500Y-114234216D01*
X223100500Y-112160000D01*
X237444417Y-112160000D01*
X237464699Y-112365932D01*
X237464700Y-112365934D01*
X237524768Y-112563954D01*
X237622315Y-112746450D01*
X237633934Y-112760608D01*
X237753589Y-112906410D01*
X237850209Y-112985702D01*
X237913550Y-113037685D01*
X238096046Y-113135232D01*
X238294066Y-113195300D01*
X238294065Y-113195300D01*
X238310006Y-113196870D01*
X238500000Y-113215583D01*
X238705934Y-113195300D01*
X238903954Y-113135232D01*
X239086450Y-113037685D01*
X239246410Y-112906410D01*
X239377685Y-112746450D01*
X239475232Y-112563954D01*
X239535300Y-112365934D01*
X239555583Y-112160000D01*
X239535300Y-111954066D01*
X239475232Y-111756046D01*
X239377685Y-111573550D01*
X239325702Y-111510209D01*
X239246410Y-111413589D01*
X239086452Y-111282317D01*
X239086453Y-111282317D01*
X239086450Y-111282315D01*
X238903954Y-111184768D01*
X238705934Y-111124700D01*
X238705932Y-111124699D01*
X238705934Y-111124699D01*
X238500000Y-111104417D01*
X238294067Y-111124699D01*
X238096043Y-111184769D01*
X237985898Y-111243643D01*
X237913550Y-111282315D01*
X237913548Y-111282316D01*
X237913547Y-111282317D01*
X237753589Y-111413589D01*
X237622317Y-111573547D01*
X237524769Y-111756043D01*
X237464699Y-111954067D01*
X237444417Y-112160000D01*
X223100500Y-112160000D01*
X223100500Y-109620000D01*
X237444417Y-109620000D01*
X237464699Y-109825932D01*
X237464700Y-109825934D01*
X237524768Y-110023954D01*
X237622315Y-110206450D01*
X237622317Y-110206452D01*
X237753589Y-110366410D01*
X237850209Y-110445702D01*
X237913550Y-110497685D01*
X238096046Y-110595232D01*
X238294066Y-110655300D01*
X238294065Y-110655300D01*
X238312529Y-110657118D01*
X238500000Y-110675583D01*
X238705934Y-110655300D01*
X238903954Y-110595232D01*
X239086450Y-110497685D01*
X239246410Y-110366410D01*
X239377685Y-110206450D01*
X239475232Y-110023954D01*
X239535300Y-109825934D01*
X239555583Y-109620000D01*
X239535300Y-109414066D01*
X239475232Y-109216046D01*
X239377685Y-109033550D01*
X239325702Y-108970209D01*
X239246410Y-108873589D01*
X239086452Y-108742317D01*
X239086453Y-108742317D01*
X239086450Y-108742315D01*
X238903954Y-108644768D01*
X238705934Y-108584700D01*
X238705932Y-108584699D01*
X238705934Y-108584699D01*
X238500000Y-108564417D01*
X238294067Y-108584699D01*
X238096043Y-108644769D01*
X237985898Y-108703643D01*
X237913550Y-108742315D01*
X237913548Y-108742316D01*
X237913547Y-108742317D01*
X237753589Y-108873589D01*
X237622317Y-109033547D01*
X237524769Y-109216043D01*
X237464699Y-109414067D01*
X237444417Y-109620000D01*
X223100500Y-109620000D01*
X223100500Y-109456594D01*
X223120185Y-109389555D01*
X223136819Y-109368913D01*
X224768913Y-107736819D01*
X224830236Y-107703334D01*
X224856594Y-107700500D01*
X235853331Y-107700500D01*
X235853347Y-107700501D01*
X235860943Y-107700501D01*
X236019054Y-107700501D01*
X236019057Y-107700501D01*
X236171785Y-107659577D01*
X236221904Y-107630639D01*
X236308716Y-107580520D01*
X236420520Y-107468716D01*
X236420520Y-107468714D01*
X236430728Y-107458507D01*
X236430729Y-107458504D01*
X237310399Y-106578835D01*
X237371721Y-106545351D01*
X237441413Y-106550335D01*
X237497346Y-106592207D01*
X237521763Y-106657671D01*
X237516740Y-106702512D01*
X237464699Y-106874067D01*
X237444417Y-107080000D01*
X237464699Y-107285932D01*
X237464700Y-107285934D01*
X237524768Y-107483954D01*
X237622315Y-107666450D01*
X237650259Y-107700500D01*
X237753589Y-107826410D01*
X237801224Y-107865502D01*
X237913550Y-107957685D01*
X238096046Y-108055232D01*
X238294066Y-108115300D01*
X238294065Y-108115300D01*
X238312529Y-108117118D01*
X238500000Y-108135583D01*
X238705934Y-108115300D01*
X238903954Y-108055232D01*
X239086450Y-107957685D01*
X239246410Y-107826410D01*
X239377685Y-107666450D01*
X239475232Y-107483954D01*
X239535300Y-107285934D01*
X239555583Y-107080000D01*
X239535300Y-106874066D01*
X239479210Y-106689163D01*
X239478588Y-106619298D01*
X239510191Y-106565489D01*
X239717828Y-106357853D01*
X239980469Y-106095212D01*
X240026614Y-106015288D01*
X240026958Y-106014004D01*
X240050500Y-105926144D01*
X240050500Y-103996799D01*
X240026614Y-103907655D01*
X240007712Y-103874916D01*
X239980470Y-103827731D01*
X239609784Y-103457045D01*
X239576299Y-103395722D01*
X239581283Y-103326030D01*
X239623154Y-103270097D01*
X239707190Y-103207186D01*
X239793350Y-103092093D01*
X239793354Y-103092086D01*
X239843596Y-102957379D01*
X239843598Y-102957372D01*
X239849999Y-102897844D01*
X239850000Y-102897827D01*
X239850000Y-102250000D01*
X238933012Y-102250000D01*
X238965925Y-102192993D01*
X239000000Y-102065826D01*
X239000000Y-101934174D01*
X238965925Y-101807007D01*
X238933012Y-101750000D01*
X239850000Y-101750000D01*
X239850000Y-101102172D01*
X239849999Y-101102155D01*
X239843598Y-101042627D01*
X239843596Y-101042620D01*
X239793354Y-100907913D01*
X239793350Y-100907906D01*
X239707190Y-100792812D01*
X239707187Y-100792809D01*
X239592093Y-100706649D01*
X239592086Y-100706645D01*
X239457379Y-100656403D01*
X239457372Y-100656401D01*
X239397844Y-100650000D01*
X238750000Y-100650000D01*
X238750000Y-101566988D01*
X238692993Y-101534075D01*
X238565826Y-101500000D01*
X238434174Y-101500000D01*
X238307007Y-101534075D01*
X238250000Y-101566988D01*
X238250000Y-100650000D01*
X237602155Y-100650000D01*
X237542627Y-100656401D01*
X237542620Y-100656403D01*
X237407913Y-100706645D01*
X237407906Y-100706649D01*
X237292812Y-100792809D01*
X237292809Y-100792812D01*
X237206649Y-100907906D01*
X237206645Y-100907913D01*
X237156403Y-101042620D01*
X237156401Y-101042627D01*
X237150000Y-101102155D01*
X237150000Y-101750000D01*
X238066988Y-101750000D01*
X238034075Y-101807007D01*
X238000000Y-101934174D01*
X238000000Y-102065826D01*
X238034075Y-102192993D01*
X238066988Y-102250000D01*
X237150000Y-102250000D01*
X237150000Y-102825500D01*
X237130315Y-102892539D01*
X237077511Y-102938294D01*
X237026000Y-102949500D01*
X230653856Y-102949500D01*
X230564712Y-102973386D01*
X230564709Y-102973387D01*
X230484791Y-103019527D01*
X230484786Y-103019531D01*
X229695877Y-103808439D01*
X229634554Y-103841924D01*
X229608128Y-103843208D01*
X229608128Y-103844750D01*
X229600000Y-103844750D01*
X229456291Y-103863670D01*
X229321951Y-103919314D01*
X229252482Y-103926782D01*
X229190003Y-103895506D01*
X229154351Y-103835417D01*
X229150500Y-103804752D01*
X229150500Y-95249500D01*
X229170185Y-95182461D01*
X229222989Y-95136706D01*
X229274500Y-95125500D01*
X229904270Y-95125500D01*
X229934699Y-95122646D01*
X229934701Y-95122646D01*
X229998790Y-95100219D01*
X230062882Y-95077793D01*
X230172150Y-94997150D01*
X230252793Y-94887882D01*
X230289648Y-94782557D01*
X230297646Y-94759701D01*
X230297646Y-94759699D01*
X230300500Y-94729269D01*
X230300500Y-93170730D01*
X230297646Y-93140300D01*
X230296036Y-93132927D01*
X230297301Y-93132650D01*
X230294139Y-93070673D01*
X230328870Y-93010046D01*
X230390864Y-92977821D01*
X230414742Y-92975500D01*
X230822204Y-92975500D01*
X230889243Y-92995185D01*
X230934998Y-93047989D01*
X230944942Y-93117147D01*
X230925306Y-93168390D01*
X230819059Y-93327399D01*
X230819059Y-93327400D01*
X230739870Y-93518579D01*
X230739868Y-93518587D01*
X230699500Y-93721530D01*
X230699500Y-94178469D01*
X230739868Y-94381412D01*
X230739870Y-94381420D01*
X230757921Y-94425000D01*
X230819059Y-94572598D01*
X230832836Y-94593217D01*
X230934024Y-94744657D01*
X231080342Y-94890975D01*
X231080345Y-94890977D01*
X231252402Y-95005941D01*
X231443580Y-95085130D01*
X231632187Y-95122646D01*
X231646530Y-95125499D01*
X231646534Y-95125500D01*
X231646535Y-95125500D01*
X231853466Y-95125500D01*
X231853467Y-95125499D01*
X232056420Y-95085130D01*
X232247598Y-95005941D01*
X232419655Y-94890977D01*
X232565977Y-94744655D01*
X232680941Y-94572598D01*
X232760130Y-94381420D01*
X232800500Y-94178465D01*
X232800500Y-93721535D01*
X232760130Y-93518580D01*
X232680941Y-93327402D01*
X232680940Y-93327400D01*
X232680940Y-93327399D01*
X232574694Y-93168390D01*
X232553816Y-93101713D01*
X232572301Y-93034333D01*
X232624280Y-92987643D01*
X232677796Y-92975500D01*
X232728456Y-92975500D01*
X232795495Y-92995185D01*
X232816137Y-93011819D01*
X233206778Y-93402460D01*
X233240263Y-93463783D01*
X233240714Y-93514332D01*
X233199500Y-93721530D01*
X233199500Y-94178469D01*
X233239868Y-94381412D01*
X233239870Y-94381420D01*
X233257921Y-94425000D01*
X233319059Y-94572598D01*
X233332836Y-94593217D01*
X233434024Y-94744657D01*
X233580342Y-94890975D01*
X233580345Y-94890977D01*
X233752402Y-95005941D01*
X233943580Y-95085130D01*
X234132187Y-95122646D01*
X234146530Y-95125499D01*
X234146534Y-95125500D01*
X234146535Y-95125500D01*
X234353466Y-95125500D01*
X234353467Y-95125499D01*
X234556420Y-95085130D01*
X234747598Y-95005941D01*
X234919655Y-94890977D01*
X235065977Y-94744655D01*
X235180941Y-94572598D01*
X235226748Y-94462009D01*
X235270589Y-94407606D01*
X235336883Y-94385541D01*
X235404582Y-94402820D01*
X235452193Y-94453957D01*
X235459240Y-94471144D01*
X235498904Y-94593216D01*
X235595379Y-94782557D01*
X235720272Y-94954459D01*
X235720276Y-94954464D01*
X235870535Y-95104723D01*
X235870540Y-95104727D01*
X236042442Y-95229620D01*
X236231782Y-95326095D01*
X236433871Y-95391757D01*
X236500000Y-95402231D01*
X236500000Y-94354145D01*
X236566657Y-94392630D01*
X236687465Y-94425000D01*
X236812535Y-94425000D01*
X236933343Y-94392630D01*
X237000000Y-94354145D01*
X237000000Y-95402230D01*
X237066126Y-95391757D01*
X237066129Y-95391757D01*
X237268217Y-95326095D01*
X237457557Y-95229620D01*
X237629459Y-95104727D01*
X237629464Y-95104723D01*
X237779723Y-94954464D01*
X237779727Y-94954459D01*
X237904620Y-94782557D01*
X238001095Y-94593217D01*
X238066757Y-94391130D01*
X238066757Y-94391127D01*
X238097030Y-94200000D01*
X237154146Y-94200000D01*
X237192630Y-94133343D01*
X237225000Y-94012535D01*
X237225000Y-93887465D01*
X237192630Y-93766657D01*
X237154146Y-93700000D01*
X238097030Y-93700000D01*
X238066757Y-93508872D01*
X238066757Y-93508869D01*
X238001095Y-93306782D01*
X237904620Y-93117442D01*
X237779727Y-92945540D01*
X237779723Y-92945535D01*
X237629464Y-92795276D01*
X237629459Y-92795272D01*
X237457557Y-92670379D01*
X237268215Y-92573903D01*
X237066124Y-92508241D01*
X237000000Y-92497768D01*
X237000000Y-93545854D01*
X236933343Y-93507370D01*
X236812535Y-93475000D01*
X236687465Y-93475000D01*
X236566657Y-93507370D01*
X236500000Y-93545854D01*
X236500000Y-92497768D01*
X236499999Y-92497768D01*
X236433875Y-92508241D01*
X236231784Y-92573903D01*
X236042442Y-92670379D01*
X235870540Y-92795272D01*
X235870535Y-92795276D01*
X235720276Y-92945535D01*
X235720272Y-92945540D01*
X235595379Y-93117442D01*
X235498905Y-93306781D01*
X235459240Y-93428856D01*
X235419802Y-93486531D01*
X235355443Y-93513729D01*
X235286597Y-93501814D01*
X235235121Y-93454570D01*
X235226748Y-93437990D01*
X235180941Y-93327403D01*
X235180941Y-93327402D01*
X235065977Y-93155345D01*
X235065975Y-93155342D01*
X234919657Y-93009024D01*
X234785160Y-92919157D01*
X234747598Y-92894059D01*
X234715356Y-92880704D01*
X234556420Y-92814870D01*
X234556412Y-92814868D01*
X234353469Y-92774500D01*
X234353465Y-92774500D01*
X234146535Y-92774500D01*
X234146530Y-92774500D01*
X233943587Y-92814868D01*
X233943575Y-92814871D01*
X233784639Y-92880704D01*
X233715170Y-92888173D01*
X233652691Y-92856897D01*
X233649506Y-92853824D01*
X233140213Y-92344531D01*
X233140208Y-92344527D01*
X233060290Y-92298387D01*
X233060289Y-92298386D01*
X233060288Y-92298386D01*
X232971144Y-92274500D01*
X228348400Y-92274500D01*
X228259255Y-92298386D01*
X228179331Y-92344531D01*
X228179328Y-92344533D01*
X224825481Y-95698379D01*
X224764158Y-95731864D01*
X224694466Y-95726880D01*
X224681019Y-95720544D01*
X224543712Y-95663671D01*
X224543710Y-95663670D01*
X224543709Y-95663670D01*
X224471854Y-95654210D01*
X224400001Y-95644750D01*
X224399999Y-95644750D01*
X224256291Y-95663670D01*
X224256287Y-95663671D01*
X224122377Y-95719137D01*
X224007379Y-95807379D01*
X223919137Y-95922377D01*
X223863671Y-96056287D01*
X223863670Y-96056291D01*
X223850505Y-96156291D01*
X223844750Y-96200000D01*
X223857915Y-96300000D01*
X223863670Y-96343708D01*
X223863671Y-96343712D01*
X223919137Y-96477622D01*
X223919138Y-96477624D01*
X223919139Y-96477625D01*
X224007379Y-96592621D01*
X224122375Y-96680861D01*
X224122376Y-96680861D01*
X224122377Y-96680862D01*
X224167013Y-96699350D01*
X224256291Y-96736330D01*
X224383280Y-96753048D01*
X224399999Y-96755250D01*
X224400000Y-96755250D01*
X224400001Y-96755250D01*
X224414977Y-96753278D01*
X224543709Y-96736330D01*
X224677625Y-96680861D01*
X224792621Y-96592621D01*
X224792623Y-96592617D01*
X224792627Y-96592615D01*
X224798372Y-96586871D01*
X224800442Y-96588941D01*
X224845468Y-96556032D01*
X224857945Y-96553003D01*
X224857838Y-96552603D01*
X224865686Y-96550500D01*
X224865688Y-96550500D01*
X224954832Y-96526614D01*
X225034756Y-96480470D01*
X227987819Y-93527407D01*
X228049142Y-93493922D01*
X228118834Y-93498906D01*
X228174767Y-93540778D01*
X228199184Y-93606242D01*
X228199500Y-93615088D01*
X228199500Y-94729269D01*
X228202353Y-94759699D01*
X228202353Y-94759701D01*
X228247206Y-94887880D01*
X228247207Y-94887882D01*
X228327849Y-94997149D01*
X228327851Y-94997151D01*
X228399133Y-95049759D01*
X228441384Y-95105406D01*
X228449500Y-95149529D01*
X228449500Y-105013908D01*
X228429815Y-105080947D01*
X228411913Y-105100412D01*
X228413129Y-105101628D01*
X228407380Y-105107376D01*
X228372875Y-105152345D01*
X228316447Y-105193547D01*
X228246701Y-105197702D01*
X228185781Y-105163489D01*
X228153029Y-105101772D01*
X228150500Y-105076858D01*
X228150500Y-96553858D01*
X228150500Y-96553856D01*
X228126614Y-96464712D01*
X228114487Y-96443708D01*
X228109627Y-96435289D01*
X228109625Y-96435287D01*
X228076406Y-96377749D01*
X228077591Y-96377064D01*
X228055489Y-96319907D01*
X228055773Y-96308129D01*
X228055250Y-96308129D01*
X228055250Y-96300000D01*
X228055250Y-96299999D01*
X228036330Y-96156291D01*
X227980861Y-96022375D01*
X227892621Y-95907379D01*
X227777625Y-95819139D01*
X227777624Y-95819138D01*
X227777622Y-95819137D01*
X227643712Y-95763671D01*
X227643710Y-95763670D01*
X227643709Y-95763670D01*
X227571854Y-95754210D01*
X227500001Y-95744750D01*
X227499999Y-95744750D01*
X227356291Y-95763670D01*
X227356287Y-95763671D01*
X227222377Y-95819137D01*
X227107379Y-95907379D01*
X227019137Y-96022377D01*
X226963671Y-96156287D01*
X226963670Y-96156291D01*
X226944750Y-96300000D01*
X226962561Y-96435289D01*
X226963670Y-96443708D01*
X226963671Y-96443712D01*
X226984907Y-96494981D01*
X226992376Y-96564450D01*
X226961100Y-96626929D01*
X226901011Y-96662581D01*
X226852086Y-96662294D01*
X226851766Y-96664731D01*
X226843709Y-96663670D01*
X226751525Y-96651533D01*
X226700001Y-96644750D01*
X226699999Y-96644750D01*
X226556291Y-96663670D01*
X226556287Y-96663671D01*
X226422377Y-96719137D01*
X226307379Y-96807379D01*
X226219137Y-96922377D01*
X226163671Y-97056287D01*
X226163670Y-97056291D01*
X226144750Y-97200000D01*
X226160416Y-97318996D01*
X226163670Y-97343708D01*
X226163671Y-97343712D01*
X226219138Y-97477623D01*
X226219139Y-97477625D01*
X226299062Y-97581783D01*
X226324256Y-97646952D01*
X226310218Y-97715397D01*
X226261404Y-97765386D01*
X226193312Y-97781050D01*
X226127562Y-97757413D01*
X226125199Y-97755644D01*
X226077626Y-97719139D01*
X226077623Y-97719138D01*
X225943712Y-97663671D01*
X225943710Y-97663670D01*
X225943709Y-97663670D01*
X225816726Y-97646952D01*
X225800001Y-97644750D01*
X225799999Y-97644750D01*
X225656291Y-97663670D01*
X225656287Y-97663671D01*
X225522377Y-97719137D01*
X225407379Y-97807379D01*
X225319137Y-97922377D01*
X225263671Y-98056287D01*
X225263670Y-98056291D01*
X225244750Y-98199999D01*
X225244750Y-98200000D01*
X225263670Y-98343708D01*
X225263671Y-98343712D01*
X225319138Y-98477623D01*
X225319139Y-98477625D01*
X225407380Y-98592623D01*
X225413126Y-98598369D01*
X225410574Y-98600920D01*
X225442091Y-98643873D01*
X225449500Y-98686092D01*
X225449500Y-105037175D01*
X225429815Y-105104214D01*
X225400987Y-105135550D01*
X225307381Y-105207377D01*
X225307380Y-105207378D01*
X225307379Y-105207379D01*
X225295872Y-105222375D01*
X225219137Y-105322377D01*
X225189061Y-105394990D01*
X225145220Y-105449394D01*
X225078926Y-105471459D01*
X225011227Y-105454180D01*
X224963616Y-105403043D01*
X224950500Y-105347538D01*
X224950500Y-105086092D01*
X224970185Y-105019053D01*
X224988114Y-104999609D01*
X224986874Y-104998369D01*
X224992619Y-104992623D01*
X224992621Y-104992621D01*
X225080861Y-104877625D01*
X225136330Y-104743709D01*
X225155250Y-104600000D01*
X225136330Y-104456291D01*
X225085704Y-104334067D01*
X225080862Y-104322377D01*
X225080861Y-104322376D01*
X225080861Y-104322375D01*
X224992621Y-104207379D01*
X224877625Y-104119139D01*
X224877624Y-104119138D01*
X224877622Y-104119137D01*
X224743712Y-104063671D01*
X224743710Y-104063670D01*
X224743709Y-104063670D01*
X224671854Y-104054210D01*
X224600001Y-104044750D01*
X224599999Y-104044750D01*
X224456291Y-104063670D01*
X224456287Y-104063671D01*
X224322377Y-104119137D01*
X224207379Y-104207379D01*
X224119137Y-104322377D01*
X224063671Y-104456287D01*
X224063670Y-104456291D01*
X224044750Y-104600000D01*
X224061581Y-104727845D01*
X224063670Y-104743708D01*
X224063671Y-104743712D01*
X224119138Y-104877623D01*
X224119139Y-104877625D01*
X224207380Y-104992623D01*
X224213126Y-104998369D01*
X224210574Y-105000920D01*
X224242091Y-105043873D01*
X224249500Y-105086092D01*
X224249500Y-105646143D01*
X224267992Y-105715157D01*
X224268008Y-105715214D01*
X224273386Y-105735289D01*
X224319527Y-105815208D01*
X224319531Y-105815213D01*
X224792137Y-106287819D01*
X224825622Y-106349142D01*
X224820638Y-106418834D01*
X224778766Y-106474767D01*
X224713302Y-106499184D01*
X224704456Y-106499500D01*
X224643166Y-106499500D01*
X224643150Y-106499499D01*
X224635554Y-106499499D01*
X224477440Y-106499499D01*
X224370084Y-106528265D01*
X224324707Y-106540424D01*
X224324706Y-106540425D01*
X224274593Y-106569359D01*
X224274592Y-106569360D01*
X224258179Y-106578836D01*
X224187782Y-106619479D01*
X224187779Y-106619481D01*
X222019481Y-108787779D01*
X222019479Y-108787782D01*
X221972301Y-108869499D01*
X221972299Y-108869501D01*
X221940425Y-108924706D01*
X221940423Y-108924709D01*
X221915868Y-109016348D01*
X221899499Y-109077440D01*
X221899499Y-109077442D01*
X221899499Y-109245543D01*
X221899500Y-109245556D01*
X221899500Y-114234216D01*
X221879815Y-114301255D01*
X221863181Y-114321897D01*
X221722863Y-114462214D01*
X221722860Y-114462218D01*
X221613371Y-114626079D01*
X221613364Y-114626092D01*
X221537950Y-114808160D01*
X221537947Y-114808170D01*
X221499500Y-115001456D01*
X221499500Y-115001459D01*
X221499500Y-115998541D01*
X221499500Y-115998543D01*
X221499499Y-115998543D01*
X211002774Y-115998543D01*
X221380470Y-105620847D01*
X221426614Y-105540923D01*
X221450500Y-105451779D01*
X221450500Y-105359491D01*
X221450500Y-104686092D01*
X221470185Y-104619053D01*
X221488114Y-104599609D01*
X221486874Y-104598369D01*
X221492619Y-104592623D01*
X221492621Y-104592621D01*
X221580861Y-104477625D01*
X221636330Y-104343709D01*
X221655250Y-104200000D01*
X221636330Y-104056291D01*
X221593772Y-103953546D01*
X221580862Y-103922377D01*
X221580861Y-103922376D01*
X221580861Y-103922375D01*
X221492621Y-103807379D01*
X221377625Y-103719139D01*
X221377624Y-103719138D01*
X221377622Y-103719137D01*
X221243712Y-103663671D01*
X221243710Y-103663670D01*
X221243709Y-103663670D01*
X221143675Y-103650500D01*
X221100001Y-103644750D01*
X221099999Y-103644750D01*
X220956291Y-103663670D01*
X220956287Y-103663671D01*
X220822377Y-103719137D01*
X220707379Y-103807379D01*
X220619137Y-103922377D01*
X220563671Y-104056287D01*
X220563670Y-104056291D01*
X220544750Y-104200000D01*
X220562400Y-104334066D01*
X220563670Y-104343708D01*
X220563671Y-104343712D01*
X220619138Y-104477623D01*
X220619139Y-104477625D01*
X220707380Y-104592623D01*
X220713126Y-104598369D01*
X220710574Y-104600920D01*
X220742091Y-104643873D01*
X220749500Y-104686092D01*
X220749500Y-105209090D01*
X220729815Y-105276129D01*
X220713181Y-105296771D01*
X218599886Y-107410065D01*
X218538563Y-107443550D01*
X218468871Y-107438566D01*
X218412938Y-107396694D01*
X218388802Y-107334536D01*
X218386747Y-107313669D01*
X218386746Y-107313666D01*
X218332396Y-107134499D01*
X218244136Y-106969375D01*
X218244135Y-106969373D01*
X218125357Y-106824642D01*
X217980626Y-106705864D01*
X217980623Y-106705862D01*
X217815502Y-106617604D01*
X217636333Y-106563253D01*
X217636331Y-106563252D01*
X217450000Y-106544901D01*
X217263668Y-106563252D01*
X217263666Y-106563253D01*
X217084497Y-106617604D01*
X216919376Y-106705862D01*
X216919373Y-106705864D01*
X216774642Y-106824642D01*
X216655864Y-106969373D01*
X216655862Y-106969376D01*
X216567604Y-107134497D01*
X216513253Y-107313666D01*
X216513252Y-107313668D01*
X216494901Y-107500000D01*
X216513252Y-107686331D01*
X216513253Y-107686333D01*
X216567604Y-107865502D01*
X216655862Y-108030623D01*
X216655864Y-108030626D01*
X216774642Y-108175357D01*
X216919373Y-108294135D01*
X216919376Y-108294137D01*
X217084497Y-108382395D01*
X217084499Y-108382396D01*
X217263669Y-108436747D01*
X217284536Y-108438802D01*
X217349323Y-108464961D01*
X217389683Y-108521995D01*
X217392802Y-108591795D01*
X217360065Y-108649886D01*
X208712181Y-117297771D01*
X208650858Y-117331256D01*
X208581166Y-117326272D01*
X208525233Y-117284400D01*
X208500816Y-117218936D01*
X208500500Y-117210090D01*
X208500500Y-117180249D01*
X208500499Y-117180247D01*
X208488868Y-117121770D01*
X208488867Y-117121769D01*
X208444552Y-117055447D01*
X208378230Y-117011132D01*
X208378229Y-117011131D01*
X208319752Y-116999500D01*
X208319748Y-116999500D01*
X206680252Y-116999500D01*
X206680247Y-116999500D01*
X206621770Y-117011131D01*
X206621769Y-117011132D01*
X206555447Y-117055447D01*
X206511132Y-117121769D01*
X206511131Y-117121770D01*
X206499500Y-117180247D01*
X206499500Y-118819752D01*
X194663413Y-118819752D01*
X194636763Y-118783072D01*
X194514277Y-118660586D01*
X194374137Y-118558768D01*
X194219794Y-118480127D01*
X194055050Y-118426598D01*
X194055048Y-118426597D01*
X194055047Y-118426597D01*
X193923620Y-118405781D01*
X193883960Y-118399500D01*
X193710738Y-118399500D01*
X193671077Y-118405781D01*
X193539651Y-118426597D01*
X193374901Y-118480128D01*
X193220560Y-118558768D01*
X193140605Y-118616859D01*
X193080421Y-118660586D01*
X193080419Y-118660588D01*
X193080418Y-118660588D01*
X192957937Y-118783069D01*
X192957937Y-118783070D01*
X192957935Y-118783072D01*
X192914208Y-118843256D01*
X192856117Y-118923211D01*
X192777477Y-119077552D01*
X192723946Y-119242302D01*
X192696849Y-119413389D01*
X192696849Y-119586611D01*
X192397849Y-119586611D01*
X192397849Y-119413389D01*
X192370751Y-119242299D01*
X192317222Y-119077555D01*
X192238581Y-118923212D01*
X192136763Y-118783072D01*
X192014277Y-118660586D01*
X191874137Y-118558768D01*
X191719794Y-118480127D01*
X191555050Y-118426598D01*
X191555048Y-118426597D01*
X191555047Y-118426597D01*
X191423620Y-118405781D01*
X191383960Y-118399500D01*
X191210738Y-118399500D01*
X191171077Y-118405781D01*
X191039651Y-118426597D01*
X190874901Y-118480128D01*
X190720560Y-118558768D01*
X190640605Y-118616859D01*
X190580421Y-118660586D01*
X190580419Y-118660588D01*
X190580418Y-118660588D01*
X190457937Y-118783069D01*
X190457937Y-118783070D01*
X190457935Y-118783072D01*
X190414208Y-118843256D01*
X190356117Y-118923211D01*
X190277477Y-119077552D01*
X190223946Y-119242302D01*
X190196849Y-119413389D01*
X190196849Y-119586611D01*
X188500500Y-119586611D01*
X188500500Y-117819752D01*
X197499500Y-117819752D01*
X197511131Y-117878229D01*
X197511132Y-117878230D01*
X197555447Y-117944552D01*
X197621769Y-117988867D01*
X197621770Y-117988868D01*
X197680247Y-118000499D01*
X197680250Y-118000500D01*
X197680252Y-118000500D01*
X199319750Y-118000500D01*
X199319751Y-118000499D01*
X199334568Y-117997552D01*
X199378229Y-117988868D01*
X199378229Y-117988867D01*
X199378231Y-117988867D01*
X199444552Y-117944552D01*
X199488867Y-117878231D01*
X199488867Y-117878229D01*
X199488868Y-117878229D01*
X199500499Y-117819752D01*
X199500500Y-117819750D01*
X199500500Y-117000002D01*
X200695034Y-117000002D01*
X200714858Y-117226599D01*
X200714860Y-117226610D01*
X200773730Y-117446317D01*
X200773735Y-117446331D01*
X200869863Y-117652478D01*
X200920974Y-117725472D01*
X201600000Y-117046446D01*
X201600000Y-117052661D01*
X201627259Y-117154394D01*
X201679920Y-117245606D01*
X201754394Y-117320080D01*
X201845606Y-117372741D01*
X201947339Y-117400000D01*
X201953553Y-117400000D01*
X201274526Y-118079025D01*
X201347513Y-118130132D01*
X201347521Y-118130136D01*
X201553668Y-118226264D01*
X201553682Y-118226269D01*
X201773389Y-118285139D01*
X201773400Y-118285141D01*
X201999998Y-118304966D01*
X202000002Y-118304966D01*
X202226599Y-118285141D01*
X202226610Y-118285139D01*
X202446317Y-118226269D01*
X202446331Y-118226264D01*
X202652478Y-118130136D01*
X202725471Y-118079024D01*
X202046447Y-117400000D01*
X202052661Y-117400000D01*
X202154394Y-117372741D01*
X202245606Y-117320080D01*
X202320080Y-117245606D01*
X202372741Y-117154394D01*
X202400000Y-117052661D01*
X202400000Y-117046447D01*
X203079024Y-117725471D01*
X203130136Y-117652478D01*
X203226264Y-117446331D01*
X203226269Y-117446317D01*
X203285139Y-117226610D01*
X203285141Y-117226599D01*
X203304966Y-117000002D01*
X203304966Y-116999997D01*
X203285141Y-116773400D01*
X203285139Y-116773389D01*
X203226269Y-116553682D01*
X203226264Y-116553668D01*
X203130136Y-116347521D01*
X203130132Y-116347513D01*
X203079025Y-116274526D01*
X202400000Y-116953551D01*
X202400000Y-116947339D01*
X202372741Y-116845606D01*
X202320080Y-116754394D01*
X202245606Y-116679920D01*
X202154394Y-116627259D01*
X202052661Y-116600000D01*
X202046448Y-116600000D01*
X202725472Y-115920974D01*
X202652478Y-115869863D01*
X202446331Y-115773735D01*
X202446317Y-115773730D01*
X202226610Y-115714860D01*
X202226599Y-115714858D01*
X202000002Y-115695034D01*
X201999998Y-115695034D01*
X201773400Y-115714858D01*
X201773389Y-115714860D01*
X201553682Y-115773730D01*
X201553673Y-115773734D01*
X201347516Y-115869866D01*
X201347512Y-115869868D01*
X201274526Y-115920973D01*
X201274526Y-115920974D01*
X201953553Y-116600000D01*
X201947339Y-116600000D01*
X201845606Y-116627259D01*
X201754394Y-116679920D01*
X201679920Y-116754394D01*
X201627259Y-116845606D01*
X201600000Y-116947339D01*
X201600000Y-116953552D01*
X200920974Y-116274526D01*
X200920973Y-116274526D01*
X200869868Y-116347512D01*
X200869866Y-116347516D01*
X200773734Y-116553673D01*
X200773730Y-116553682D01*
X200714860Y-116773389D01*
X200714858Y-116773400D01*
X200695034Y-116999997D01*
X200695034Y-117000002D01*
X199500500Y-117000002D01*
X199500500Y-116180249D01*
X199500499Y-116180247D01*
X199488868Y-116121770D01*
X199488867Y-116121769D01*
X199444552Y-116055447D01*
X199378230Y-116011132D01*
X199378229Y-116011131D01*
X199319752Y-115999500D01*
X199319748Y-115999500D01*
X197680252Y-115999500D01*
X197680247Y-115999500D01*
X197621770Y-116011131D01*
X197621769Y-116011132D01*
X197555447Y-116055447D01*
X197511132Y-116121769D01*
X197511131Y-116121770D01*
X197499500Y-116180247D01*
X197499500Y-117819752D01*
X188500500Y-117819752D01*
X188500500Y-115308000D01*
X189797349Y-115308000D01*
X189807957Y-115427325D01*
X189807958Y-115427328D01*
X189863906Y-115622861D01*
X189958070Y-115803129D01*
X190086595Y-115960753D01*
X190244219Y-116089278D01*
X190424487Y-116183442D01*
X190620020Y-116239390D01*
X190620023Y-116239391D01*
X190739348Y-116249999D01*
X190739351Y-116250000D01*
X191047349Y-116250000D01*
X191047349Y-114933012D01*
X191104356Y-114965925D01*
X191231523Y-115000000D01*
X191363175Y-115000000D01*
X191490342Y-114965925D01*
X191547349Y-114933012D01*
X191547349Y-116250000D01*
X191855347Y-116250000D01*
X191855349Y-116249999D01*
X191974674Y-116239391D01*
X191974677Y-116239390D01*
X192170210Y-116183442D01*
X192350478Y-116089278D01*
X192508102Y-115960753D01*
X192636627Y-115803129D01*
X192733702Y-115617290D01*
X192735304Y-115618126D01*
X192773097Y-115569969D01*
X192839101Y-115547050D01*
X192907018Y-115563453D01*
X192932808Y-115583222D01*
X193015276Y-115665690D01*
X193168150Y-115776760D01*
X193247696Y-115817290D01*
X193336512Y-115862545D01*
X193336514Y-115862545D01*
X193336517Y-115862547D01*
X193359049Y-115869868D01*
X193516230Y-115920940D01*
X193702863Y-115950500D01*
X193702868Y-115950500D01*
X193891835Y-115950500D01*
X194078467Y-115920940D01*
X194258181Y-115862547D01*
X194426548Y-115776760D01*
X194579422Y-115665690D01*
X194713039Y-115532073D01*
X194824109Y-115379199D01*
X194909896Y-115210832D01*
X194968289Y-115031118D01*
X194997849Y-114844486D01*
X194997849Y-114155513D01*
X194968289Y-113968881D01*
X194909894Y-113789163D01*
X194860386Y-113691999D01*
X194824109Y-113620801D01*
X194713039Y-113467927D01*
X194579422Y-113334310D01*
X194426548Y-113223240D01*
X194374794Y-113196870D01*
X194258185Y-113137454D01*
X194078467Y-113079059D01*
X193891835Y-113049500D01*
X193891830Y-113049500D01*
X193702868Y-113049500D01*
X193702863Y-113049500D01*
X193516230Y-113079059D01*
X193336512Y-113137454D01*
X193168149Y-113223240D01*
X193015277Y-113334309D01*
X192932808Y-113416778D01*
X192871484Y-113450262D01*
X192801793Y-113445278D01*
X192745859Y-113403406D01*
X192734125Y-113382488D01*
X192733702Y-113382710D01*
X192636627Y-113196870D01*
X192508102Y-113039246D01*
X192350478Y-112910721D01*
X192170210Y-112816557D01*
X191974677Y-112760609D01*
X191974674Y-112760608D01*
X191855349Y-112750000D01*
X191547349Y-112750000D01*
X191547349Y-114066988D01*
X191490342Y-114034075D01*
X191363175Y-114000000D01*
X191231523Y-114000000D01*
X191104356Y-114034075D01*
X191047349Y-114066988D01*
X191047349Y-112750000D01*
X190739348Y-112750000D01*
X190620023Y-112760608D01*
X190620020Y-112760609D01*
X190424487Y-112816557D01*
X190244219Y-112910721D01*
X190086595Y-113039246D01*
X189958070Y-113196870D01*
X189863906Y-113377138D01*
X189807958Y-113572671D01*
X189807957Y-113572674D01*
X189797349Y-113691999D01*
X189797349Y-114250000D01*
X190864337Y-114250000D01*
X190831424Y-114307007D01*
X190797349Y-114434174D01*
X190797349Y-114565826D01*
X190831424Y-114692993D01*
X190864337Y-114750000D01*
X189797349Y-114750000D01*
X189797349Y-115308000D01*
X188500500Y-115308000D01*
X188500500Y-104200000D01*
X206524430Y-104200000D01*
X206544656Y-104392439D01*
X206544657Y-104392441D01*
X206604447Y-104576456D01*
X206604450Y-104576463D01*
X206701197Y-104744035D01*
X206830667Y-104887828D01*
X206830674Y-104887834D01*
X206987210Y-105001564D01*
X206987211Y-105001564D01*
X206987215Y-105001567D01*
X207105759Y-105054346D01*
X207163978Y-105080267D01*
X207163983Y-105080269D01*
X207353252Y-105120500D01*
X207546748Y-105120500D01*
X207736017Y-105080269D01*
X207912785Y-105001567D01*
X208069327Y-104887833D01*
X208074172Y-104882453D01*
X208155056Y-104792621D01*
X208198802Y-104744036D01*
X208295550Y-104576463D01*
X208355344Y-104392437D01*
X208375570Y-104200000D01*
X208355344Y-104007563D01*
X208295550Y-103823537D01*
X208198802Y-103655964D01*
X208188705Y-103644750D01*
X208069332Y-103512171D01*
X208069325Y-103512165D01*
X207912789Y-103398435D01*
X207912786Y-103398433D01*
X207912785Y-103398433D01*
X207848598Y-103369855D01*
X207736021Y-103319732D01*
X207736016Y-103319730D01*
X207546748Y-103279500D01*
X207353252Y-103279500D01*
X207163983Y-103319730D01*
X207163978Y-103319732D01*
X206987215Y-103398433D01*
X206987210Y-103398435D01*
X206830674Y-103512165D01*
X206830667Y-103512171D01*
X206701197Y-103655964D01*
X206604450Y-103823536D01*
X206604447Y-103823543D01*
X206544657Y-104007558D01*
X206544656Y-104007560D01*
X206524430Y-104200000D01*
X188500500Y-104200000D01*
X188500500Y-102620000D01*
X216494901Y-102620000D01*
X216513252Y-102806331D01*
X216513253Y-102806333D01*
X216567604Y-102985502D01*
X216655862Y-103150623D01*
X216655864Y-103150626D01*
X216774642Y-103295357D01*
X216919373Y-103414135D01*
X216919376Y-103414137D01*
X217084497Y-103502395D01*
X217084499Y-103502396D01*
X217263666Y-103556746D01*
X217263668Y-103556747D01*
X217280374Y-103558392D01*
X217450000Y-103575099D01*
X217636331Y-103556747D01*
X217815501Y-103502396D01*
X217980625Y-103414136D01*
X218125357Y-103295357D01*
X218244136Y-103150625D01*
X218332396Y-102985501D01*
X218386747Y-102806331D01*
X218405099Y-102620000D01*
X218386747Y-102433669D01*
X218332396Y-102254499D01*
X218244136Y-102089375D01*
X218244135Y-102089373D01*
X218125357Y-101944642D01*
X217980626Y-101825864D01*
X217980623Y-101825862D01*
X217815502Y-101737604D01*
X217636333Y-101683253D01*
X217636331Y-101683252D01*
X217450000Y-101664901D01*
X217263668Y-101683252D01*
X217263666Y-101683253D01*
X217084497Y-101737604D01*
X216919376Y-101825862D01*
X216919373Y-101825864D01*
X216774642Y-101944642D01*
X216655864Y-102089373D01*
X216655862Y-102089376D01*
X216567604Y-102254497D01*
X216513253Y-102433666D01*
X216513252Y-102433668D01*
X216494901Y-102620000D01*
X188500500Y-102620000D01*
X188500500Y-99120000D01*
X206524430Y-99120000D01*
X206544656Y-99312439D01*
X206544657Y-99312441D01*
X206604447Y-99496456D01*
X206604450Y-99496463D01*
X206701197Y-99664035D01*
X206830667Y-99807828D01*
X206830674Y-99807834D01*
X206987210Y-99921564D01*
X206987211Y-99921564D01*
X206987215Y-99921567D01*
X207131377Y-99985752D01*
X207163978Y-100000267D01*
X207163983Y-100000269D01*
X207353252Y-100040500D01*
X207546748Y-100040500D01*
X207736017Y-100000269D01*
X207912785Y-99921567D01*
X208069327Y-99807833D01*
X208198802Y-99664036D01*
X208295550Y-99496463D01*
X208355344Y-99312437D01*
X208375570Y-99120000D01*
X208355344Y-98927563D01*
X208295550Y-98743537D01*
X208198802Y-98575964D01*
X208069332Y-98432171D01*
X208069325Y-98432165D01*
X207912789Y-98318435D01*
X207912786Y-98318433D01*
X207912785Y-98318433D01*
X207848598Y-98289855D01*
X207736021Y-98239732D01*
X207736016Y-98239730D01*
X207546748Y-98199500D01*
X207353252Y-98199500D01*
X207163983Y-98239730D01*
X207163978Y-98239732D01*
X206987215Y-98318433D01*
X206987210Y-98318435D01*
X206830674Y-98432165D01*
X206830667Y-98432171D01*
X206701197Y-98575964D01*
X206604450Y-98743536D01*
X206604447Y-98743543D01*
X206544657Y-98927558D01*
X206544656Y-98927560D01*
X206524430Y-99120000D01*
X188500500Y-99120000D01*
X188500500Y-76500002D01*
X204645034Y-76500002D01*
X204664858Y-76726599D01*
X204664860Y-76726610D01*
X204723730Y-76946317D01*
X204723735Y-76946331D01*
X204819863Y-77152478D01*
X204870974Y-77225472D01*
X205550000Y-76546446D01*
X205550000Y-76552661D01*
X205577259Y-76654394D01*
X205629920Y-76745606D01*
X205704394Y-76820080D01*
X205795606Y-76872741D01*
X205897339Y-76900000D01*
X205903553Y-76900000D01*
X205224526Y-77579025D01*
X205297513Y-77630132D01*
X205297521Y-77630136D01*
X205503668Y-77726264D01*
X205503682Y-77726269D01*
X205723389Y-77785139D01*
X205723400Y-77785141D01*
X205949998Y-77804966D01*
X205950002Y-77804966D01*
X206176599Y-77785141D01*
X206176610Y-77785139D01*
X206396317Y-77726269D01*
X206396326Y-77726265D01*
X206602483Y-77630133D01*
X206602489Y-77630130D01*
X206686250Y-77571479D01*
X206752455Y-77549151D01*
X206820223Y-77566160D01*
X206868036Y-77617108D01*
X206880715Y-77685818D01*
X206854234Y-77750475D01*
X206845055Y-77760734D01*
X205642609Y-78963181D01*
X205581286Y-78996666D01*
X205554928Y-78999500D01*
X205130247Y-78999500D01*
X205071770Y-79011131D01*
X205071769Y-79011132D01*
X205005447Y-79055447D01*
X204961132Y-79121769D01*
X204961131Y-79121770D01*
X204949500Y-79180247D01*
X204949500Y-80819752D01*
X204961131Y-80878229D01*
X204961132Y-80878230D01*
X205005447Y-80944552D01*
X205071769Y-80988867D01*
X205071770Y-80988868D01*
X205130247Y-81000499D01*
X205130250Y-81000500D01*
X205130252Y-81000500D01*
X206769750Y-81000500D01*
X206769751Y-81000499D01*
X206784568Y-80997552D01*
X206828229Y-80988868D01*
X206828229Y-80988867D01*
X206828231Y-80988867D01*
X206894552Y-80944552D01*
X206938867Y-80878231D01*
X206938867Y-80878229D01*
X206938868Y-80878229D01*
X206950499Y-80819752D01*
X206950500Y-80819750D01*
X206950500Y-80395072D01*
X206970185Y-80328033D01*
X206986819Y-80307391D01*
X210068738Y-77225472D01*
X213204022Y-74090187D01*
X213265343Y-74056704D01*
X213335035Y-74061688D01*
X213390968Y-74103560D01*
X213415385Y-74169024D01*
X213413319Y-74202060D01*
X213399500Y-74271536D01*
X213399500Y-74728469D01*
X213439868Y-74931412D01*
X213439870Y-74931420D01*
X213490061Y-75052590D01*
X213499500Y-75100043D01*
X213499500Y-80699955D01*
X213490061Y-80747408D01*
X213439870Y-80868579D01*
X213439868Y-80868587D01*
X213399500Y-81071530D01*
X213399500Y-81528469D01*
X213439868Y-81731412D01*
X213439870Y-81731420D01*
X213490061Y-81852590D01*
X213499500Y-81900043D01*
X213499500Y-87499955D01*
X213490061Y-87547408D01*
X213439870Y-87668579D01*
X213439868Y-87668587D01*
X213399500Y-87871530D01*
X213399500Y-88328469D01*
X213439868Y-88531412D01*
X213439870Y-88531420D01*
X213490061Y-88652590D01*
X213499500Y-88700043D01*
X213499500Y-94299955D01*
X213490061Y-94347408D01*
X213439870Y-94468579D01*
X213439868Y-94468587D01*
X213399500Y-94671530D01*
X213399500Y-95128469D01*
X213439868Y-95331412D01*
X213439870Y-95331420D01*
X213519058Y-95522596D01*
X213634024Y-95694657D01*
X213780342Y-95840975D01*
X213780345Y-95840977D01*
X213952402Y-95955941D01*
X214143580Y-96035130D01*
X214332187Y-96072646D01*
X214346530Y-96075499D01*
X214346534Y-96075500D01*
X214346535Y-96075500D01*
X214553466Y-96075500D01*
X214553467Y-96075499D01*
X214756420Y-96035130D01*
X214947598Y-95955941D01*
X215119655Y-95840977D01*
X215265977Y-95694655D01*
X215380941Y-95522598D01*
X215460130Y-95331420D01*
X215500500Y-95128465D01*
X215500500Y-94671535D01*
X215460130Y-94468580D01*
X215409939Y-94347408D01*
X215400500Y-94299955D01*
X215400500Y-88700043D01*
X215409939Y-88652590D01*
X215460130Y-88531420D01*
X215500500Y-88328465D01*
X215500500Y-87871535D01*
X215460130Y-87668580D01*
X215409939Y-87547408D01*
X215400500Y-87499955D01*
X215400500Y-81900043D01*
X215409939Y-81852590D01*
X215460130Y-81731420D01*
X215500500Y-81528465D01*
X215500500Y-81071535D01*
X215460130Y-80868580D01*
X215409939Y-80747408D01*
X215400500Y-80699955D01*
X215400500Y-75100043D01*
X215409939Y-75052590D01*
X215460130Y-74931420D01*
X215500500Y-74728465D01*
X215500500Y-74271535D01*
X215499096Y-74264477D01*
X215505322Y-74194888D01*
X215548183Y-74139709D01*
X215614073Y-74116463D01*
X215682070Y-74132529D01*
X215708394Y-74152604D01*
X215863181Y-74307391D01*
X215896666Y-74368714D01*
X215899500Y-74395072D01*
X215899500Y-74728469D01*
X215939868Y-74931412D01*
X215939870Y-74931420D01*
X215990061Y-75052590D01*
X215999500Y-75100043D01*
X215999500Y-80699955D01*
X215990061Y-80747408D01*
X215939870Y-80868579D01*
X215939868Y-80868587D01*
X215899500Y-81071530D01*
X215899500Y-81528469D01*
X215939868Y-81731412D01*
X215939870Y-81731420D01*
X215990061Y-81852590D01*
X215999500Y-81900043D01*
X215999500Y-87499955D01*
X215990061Y-87547408D01*
X215939870Y-87668579D01*
X215939868Y-87668587D01*
X215899500Y-87871530D01*
X215899500Y-88328469D01*
X215939868Y-88531412D01*
X215939870Y-88531420D01*
X215990061Y-88652590D01*
X215999500Y-88700043D01*
X215999500Y-94299955D01*
X215990061Y-94347408D01*
X215939870Y-94468579D01*
X215939868Y-94468587D01*
X215899500Y-94671530D01*
X215899500Y-95128469D01*
X215939868Y-95331412D01*
X215939870Y-95331420D01*
X216019059Y-95522598D01*
X216134023Y-95694655D01*
X216213182Y-95773814D01*
X216246666Y-95835135D01*
X216249500Y-95861494D01*
X216249500Y-96908481D01*
X216229815Y-96975520D01*
X216213181Y-96996162D01*
X212286162Y-100923181D01*
X212224839Y-100956666D01*
X212198481Y-100959500D01*
X208092182Y-100959500D01*
X208025143Y-100939815D01*
X208019297Y-100935818D01*
X207912789Y-100858435D01*
X207912786Y-100858433D01*
X207912785Y-100858433D01*
X207848598Y-100829855D01*
X207736021Y-100779732D01*
X207736016Y-100779730D01*
X207546748Y-100739500D01*
X207353252Y-100739500D01*
X207163983Y-100779730D01*
X207163978Y-100779732D01*
X206987215Y-100858433D01*
X206987210Y-100858435D01*
X206830674Y-100972165D01*
X206830667Y-100972171D01*
X206701197Y-101115964D01*
X206604450Y-101283536D01*
X206604447Y-101283543D01*
X206544657Y-101467558D01*
X206544656Y-101467560D01*
X206524430Y-101660000D01*
X206544656Y-101852439D01*
X206544657Y-101852441D01*
X206604447Y-102036456D01*
X206604450Y-102036463D01*
X206701197Y-102204035D01*
X206830667Y-102347828D01*
X206830674Y-102347834D01*
X206987210Y-102461564D01*
X206987211Y-102461564D01*
X206987215Y-102461567D01*
X207131377Y-102525752D01*
X207163978Y-102540267D01*
X207163983Y-102540269D01*
X207353252Y-102580500D01*
X207546748Y-102580500D01*
X207736017Y-102540269D01*
X207912785Y-102461567D01*
X207951185Y-102433668D01*
X208019297Y-102384182D01*
X208085103Y-102360702D01*
X208092182Y-102360500D01*
X212608996Y-102360500D01*
X212700040Y-102342389D01*
X212744328Y-102333580D01*
X212808481Y-102307007D01*
X212871807Y-102280777D01*
X212871808Y-102280776D01*
X212871811Y-102280775D01*
X212986543Y-102204114D01*
X217494114Y-97696543D01*
X217570775Y-97581811D01*
X217623580Y-97454328D01*
X217645164Y-97345819D01*
X217650500Y-97318996D01*
X217650500Y-95861494D01*
X217670185Y-95794455D01*
X217686814Y-95773817D01*
X217765977Y-95694655D01*
X217776258Y-95679269D01*
X218399500Y-95679269D01*
X218402353Y-95709699D01*
X218402353Y-95709701D01*
X218447206Y-95837880D01*
X218447207Y-95837882D01*
X218527850Y-95947150D01*
X218637118Y-96027793D01*
X218658089Y-96035131D01*
X218765299Y-96072646D01*
X218795730Y-96075500D01*
X218795734Y-96075500D01*
X220104270Y-96075500D01*
X220134699Y-96072646D01*
X220134701Y-96072646D01*
X220198790Y-96050219D01*
X220262882Y-96027793D01*
X220372150Y-95947150D01*
X220452793Y-95837882D01*
X220475219Y-95773790D01*
X220497646Y-95709701D01*
X220497646Y-95709699D01*
X220500500Y-95679269D01*
X220500500Y-94120730D01*
X220497646Y-94090300D01*
X220497646Y-94090298D01*
X220452793Y-93962119D01*
X220452792Y-93962117D01*
X220372150Y-93852850D01*
X220262882Y-93772207D01*
X220262880Y-93772206D01*
X220134700Y-93727353D01*
X220104270Y-93724500D01*
X220104266Y-93724500D01*
X218795734Y-93724500D01*
X218795730Y-93724500D01*
X218765300Y-93727353D01*
X218765298Y-93727353D01*
X218637119Y-93772206D01*
X218637117Y-93772207D01*
X218527850Y-93852850D01*
X218447207Y-93962117D01*
X218447206Y-93962119D01*
X218402353Y-94090298D01*
X218402353Y-94090300D01*
X218399500Y-94120730D01*
X218399500Y-95679269D01*
X217776258Y-95679269D01*
X217880941Y-95522598D01*
X217960130Y-95331420D01*
X218000500Y-95128465D01*
X218000500Y-94671535D01*
X217960130Y-94468580D01*
X217909939Y-94347408D01*
X217900500Y-94299955D01*
X217900500Y-88879269D01*
X218399500Y-88879269D01*
X218402353Y-88909699D01*
X218402353Y-88909701D01*
X218447206Y-89037880D01*
X218447207Y-89037882D01*
X218527850Y-89147150D01*
X218637118Y-89227793D01*
X218679845Y-89242744D01*
X218765299Y-89272646D01*
X218795730Y-89275500D01*
X218795734Y-89275500D01*
X220104270Y-89275500D01*
X220134699Y-89272646D01*
X220134701Y-89272646D01*
X220198790Y-89250219D01*
X220262882Y-89227793D01*
X220372150Y-89147150D01*
X220452793Y-89037882D01*
X220475219Y-88973790D01*
X220497646Y-88909701D01*
X220497646Y-88909699D01*
X220500500Y-88879269D01*
X220500500Y-87929269D01*
X228199500Y-87929269D01*
X228202353Y-87959699D01*
X228202353Y-87959701D01*
X228247206Y-88087880D01*
X228247207Y-88087882D01*
X228327850Y-88197150D01*
X228437118Y-88277793D01*
X228458089Y-88285131D01*
X228565299Y-88322646D01*
X228595730Y-88325500D01*
X228595734Y-88325500D01*
X229904270Y-88325500D01*
X229934699Y-88322646D01*
X229934701Y-88322646D01*
X229998790Y-88300219D01*
X230062882Y-88277793D01*
X230172150Y-88197150D01*
X230252793Y-88087882D01*
X230289648Y-87982557D01*
X230297646Y-87959701D01*
X230297646Y-87959699D01*
X230300500Y-87929269D01*
X230300500Y-87920323D01*
X230320185Y-87853284D01*
X230372989Y-87807529D01*
X230442147Y-87797585D01*
X230505703Y-87826610D01*
X230534985Y-87864028D01*
X230595379Y-87982557D01*
X230720272Y-88154459D01*
X230720276Y-88154464D01*
X230870535Y-88304723D01*
X230870540Y-88304727D01*
X231042442Y-88429620D01*
X231231782Y-88526095D01*
X231433871Y-88591757D01*
X231500000Y-88602231D01*
X231500000Y-87554145D01*
X231566657Y-87592630D01*
X231687465Y-87625000D01*
X231812535Y-87625000D01*
X231933343Y-87592630D01*
X232000000Y-87554145D01*
X232000000Y-88602230D01*
X232066126Y-88591757D01*
X232066129Y-88591757D01*
X232268217Y-88526095D01*
X232457557Y-88429620D01*
X232629459Y-88304727D01*
X232629464Y-88304723D01*
X232779723Y-88154464D01*
X232779727Y-88154459D01*
X232904620Y-87982557D01*
X233001095Y-87793217D01*
X233040759Y-87671144D01*
X233080196Y-87613469D01*
X233144555Y-87586270D01*
X233213401Y-87598184D01*
X233264877Y-87645428D01*
X233273251Y-87662009D01*
X233319057Y-87772596D01*
X233434024Y-87944657D01*
X233580342Y-88090975D01*
X233580345Y-88090977D01*
X233752402Y-88205941D01*
X233943580Y-88285130D01*
X234132187Y-88322646D01*
X234146530Y-88325499D01*
X234146534Y-88325500D01*
X234146535Y-88325500D01*
X234353466Y-88325500D01*
X234353467Y-88325499D01*
X234556420Y-88285130D01*
X234747598Y-88205941D01*
X234919655Y-88090977D01*
X235065977Y-87944655D01*
X235180941Y-87772598D01*
X235260130Y-87581420D01*
X235300500Y-87378465D01*
X235300500Y-86921535D01*
X235260130Y-86718580D01*
X235180941Y-86527402D01*
X235065977Y-86355345D01*
X235065975Y-86355342D01*
X234919655Y-86209022D01*
X234747604Y-86094062D01*
X234747599Y-86094060D01*
X234747598Y-86094059D01*
X234727045Y-86085545D01*
X234672643Y-86041704D01*
X234650579Y-85975410D01*
X234650500Y-85970985D01*
X234650500Y-81529014D01*
X234670185Y-81461975D01*
X234722989Y-81416220D01*
X234727048Y-81414453D01*
X234747598Y-81405941D01*
X234919655Y-81290977D01*
X235065977Y-81144655D01*
X235180941Y-80972598D01*
X235260130Y-80781420D01*
X235300500Y-80578465D01*
X235300500Y-80121535D01*
X235260130Y-79918580D01*
X235180941Y-79727402D01*
X235065977Y-79555345D01*
X235065975Y-79555342D01*
X234919655Y-79409022D01*
X234747604Y-79294062D01*
X234747598Y-79294059D01*
X234677046Y-79264835D01*
X234622643Y-79220993D01*
X234600579Y-79154699D01*
X234600500Y-79150274D01*
X234600500Y-73446543D01*
X234620185Y-73379504D01*
X234636814Y-73358867D01*
X236604123Y-71391557D01*
X236665444Y-71358074D01*
X236691871Y-71357144D01*
X236691871Y-71355250D01*
X236700000Y-71355250D01*
X236843709Y-71336330D01*
X236878050Y-71322105D01*
X236947516Y-71314637D01*
X237009995Y-71345911D01*
X237045648Y-71406000D01*
X237049500Y-71436667D01*
X237049500Y-79062399D01*
X237029815Y-79129438D01*
X236977011Y-79175193D01*
X236907853Y-79185137D01*
X236901309Y-79184016D01*
X236853469Y-79174500D01*
X236853465Y-79174500D01*
X236646535Y-79174500D01*
X236646530Y-79174500D01*
X236443587Y-79214868D01*
X236443579Y-79214870D01*
X236252403Y-79294058D01*
X236080342Y-79409024D01*
X235934024Y-79555342D01*
X235819058Y-79727403D01*
X235739870Y-79918579D01*
X235739868Y-79918587D01*
X235699500Y-80121530D01*
X235699500Y-80578469D01*
X235739868Y-80781412D01*
X235739870Y-80781420D01*
X235757921Y-80825000D01*
X235819059Y-80972598D01*
X235872971Y-81053284D01*
X235934024Y-81144657D01*
X236080342Y-81290975D01*
X236080345Y-81290977D01*
X236252402Y-81405941D01*
X236272952Y-81414453D01*
X236327356Y-81458293D01*
X236349421Y-81524587D01*
X236349500Y-81529014D01*
X236349500Y-85970985D01*
X236329815Y-86038024D01*
X236277011Y-86083779D01*
X236272954Y-86085546D01*
X236252402Y-86094059D01*
X236252395Y-86094062D01*
X236080344Y-86209022D01*
X235934024Y-86355342D01*
X235819058Y-86527403D01*
X235739870Y-86718579D01*
X235739868Y-86718587D01*
X235699500Y-86921530D01*
X235699500Y-87378469D01*
X235739868Y-87581412D01*
X235739870Y-87581420D01*
X235757921Y-87625000D01*
X235819059Y-87772598D01*
X235872971Y-87853284D01*
X235934024Y-87944657D01*
X236080342Y-88090975D01*
X236080345Y-88090977D01*
X236252402Y-88205941D01*
X236443580Y-88285130D01*
X236632187Y-88322646D01*
X236646530Y-88325499D01*
X236646534Y-88325500D01*
X236646535Y-88325500D01*
X236853466Y-88325500D01*
X236853467Y-88325499D01*
X237056420Y-88285130D01*
X237247598Y-88205941D01*
X237419655Y-88090977D01*
X237565977Y-87944655D01*
X237680941Y-87772598D01*
X237760130Y-87581420D01*
X237800500Y-87378465D01*
X237800500Y-86921535D01*
X237760130Y-86718580D01*
X237680941Y-86527402D01*
X237565977Y-86355345D01*
X237565975Y-86355342D01*
X237419655Y-86209022D01*
X237247604Y-86094062D01*
X237247599Y-86094060D01*
X237247598Y-86094059D01*
X237227045Y-86085545D01*
X237172643Y-86041704D01*
X237150579Y-85975410D01*
X237150500Y-85970985D01*
X237150500Y-81529014D01*
X237170185Y-81461975D01*
X237222989Y-81416220D01*
X237227048Y-81414453D01*
X237247598Y-81405941D01*
X237419655Y-81290977D01*
X237565977Y-81144655D01*
X237680941Y-80972598D01*
X237760130Y-80781420D01*
X237800500Y-80578465D01*
X237800500Y-80121535D01*
X237760130Y-79918580D01*
X237751265Y-79897178D01*
X237742335Y-79875618D01*
X237734866Y-79806149D01*
X237737116Y-79796091D01*
X237750500Y-79746144D01*
X237750500Y-79653856D01*
X237750500Y-70453856D01*
X237726614Y-70364712D01*
X237723829Y-70359888D01*
X237717831Y-70349499D01*
X237717830Y-70349499D01*
X237680469Y-70284787D01*
X237291560Y-69895878D01*
X237258075Y-69834555D01*
X237256983Y-69808129D01*
X237255250Y-69808129D01*
X237255250Y-69800000D01*
X237255250Y-69799999D01*
X237236330Y-69656291D01*
X237180861Y-69522375D01*
X237092621Y-69407379D01*
X236977625Y-69319139D01*
X236977624Y-69319138D01*
X236977622Y-69319137D01*
X236843712Y-69263671D01*
X236843710Y-69263670D01*
X236843709Y-69263670D01*
X236771854Y-69254210D01*
X236700001Y-69244750D01*
X236699999Y-69244750D01*
X236556291Y-69263670D01*
X236556287Y-69263671D01*
X236422377Y-69319137D01*
X236307379Y-69407379D01*
X236219137Y-69522377D01*
X236163671Y-69656287D01*
X236163670Y-69656291D01*
X236144750Y-69799999D01*
X236144750Y-69800000D01*
X236163670Y-69943708D01*
X236163671Y-69943712D01*
X236219137Y-70077622D01*
X236219138Y-70077624D01*
X236219139Y-70077625D01*
X236307379Y-70192621D01*
X236316711Y-70199782D01*
X236319113Y-70201625D01*
X236360316Y-70258053D01*
X236364470Y-70327799D01*
X236330257Y-70388719D01*
X236319113Y-70398375D01*
X236307381Y-70407377D01*
X236219137Y-70522377D01*
X236163671Y-70656287D01*
X236163670Y-70656291D01*
X236144750Y-70800000D01*
X236144750Y-70808128D01*
X236141456Y-70808128D01*
X236132192Y-70862588D01*
X236108439Y-70895877D01*
X233969531Y-73034786D01*
X233969529Y-73034789D01*
X233932171Y-73099497D01*
X233932169Y-73099499D01*
X233923387Y-73114709D01*
X233899500Y-73203856D01*
X233899500Y-79150274D01*
X233879815Y-79217313D01*
X233827011Y-79263068D01*
X233822954Y-79264835D01*
X233752401Y-79294059D01*
X233752395Y-79294062D01*
X233580344Y-79409022D01*
X233434024Y-79555342D01*
X233319057Y-79727404D01*
X233273251Y-79837990D01*
X233229409Y-79892394D01*
X233163115Y-79914458D01*
X233095416Y-79897178D01*
X233047806Y-79846041D01*
X233040759Y-79828855D01*
X233001095Y-79706782D01*
X232904620Y-79517442D01*
X232779727Y-79345540D01*
X232779723Y-79345535D01*
X232629464Y-79195276D01*
X232629459Y-79195272D01*
X232457557Y-79070379D01*
X232268215Y-78973903D01*
X232066124Y-78908241D01*
X232000000Y-78897768D01*
X232000000Y-79945854D01*
X231933343Y-79907370D01*
X231812535Y-79875000D01*
X231687465Y-79875000D01*
X231566657Y-79907370D01*
X231500000Y-79945854D01*
X231500000Y-78897768D01*
X231499999Y-78897768D01*
X231433875Y-78908241D01*
X231231784Y-78973903D01*
X231042442Y-79070379D01*
X230870540Y-79195272D01*
X230870535Y-79195276D01*
X230720276Y-79345535D01*
X230720272Y-79345540D01*
X230595379Y-79517442D01*
X230534985Y-79635971D01*
X230487010Y-79686767D01*
X230419189Y-79703562D01*
X230353054Y-79681024D01*
X230309603Y-79626309D01*
X230300500Y-79579676D01*
X230300500Y-79570730D01*
X230297646Y-79540300D01*
X230297646Y-79540298D01*
X230252793Y-79412119D01*
X230252792Y-79412117D01*
X230172150Y-79302850D01*
X230062882Y-79222207D01*
X230062880Y-79222206D01*
X229934700Y-79177353D01*
X229904270Y-79174500D01*
X229904266Y-79174500D01*
X228595734Y-79174500D01*
X228595730Y-79174500D01*
X228565300Y-79177353D01*
X228565298Y-79177353D01*
X228437119Y-79222206D01*
X228437117Y-79222207D01*
X228327850Y-79302850D01*
X228247207Y-79412117D01*
X228247206Y-79412119D01*
X228202353Y-79540298D01*
X228202353Y-79540300D01*
X228199500Y-79570730D01*
X228199500Y-81129269D01*
X228202353Y-81159699D01*
X228202353Y-81159701D01*
X228247206Y-81287880D01*
X228247207Y-81287882D01*
X228327850Y-81397150D01*
X228437118Y-81477793D01*
X228479845Y-81492744D01*
X228565299Y-81522646D01*
X228595730Y-81525500D01*
X228595734Y-81525500D01*
X228725500Y-81525500D01*
X228792539Y-81545185D01*
X228838294Y-81597989D01*
X228849500Y-81649500D01*
X228849500Y-85850500D01*
X228829815Y-85917539D01*
X228777011Y-85963294D01*
X228725500Y-85974500D01*
X228595730Y-85974500D01*
X228565300Y-85977353D01*
X228565298Y-85977353D01*
X228437119Y-86022206D01*
X228437117Y-86022207D01*
X228327850Y-86102850D01*
X228247207Y-86212117D01*
X228247206Y-86212119D01*
X228202353Y-86340298D01*
X228202353Y-86340300D01*
X228199500Y-86370730D01*
X228199500Y-87929269D01*
X220500500Y-87929269D01*
X220500500Y-87320730D01*
X220497646Y-87290300D01*
X220497646Y-87290298D01*
X220452793Y-87162119D01*
X220452792Y-87162117D01*
X220372150Y-87052850D01*
X220262882Y-86972207D01*
X220262880Y-86972206D01*
X220134700Y-86927353D01*
X220104270Y-86924500D01*
X220104266Y-86924500D01*
X218795734Y-86924500D01*
X218795730Y-86924500D01*
X218765300Y-86927353D01*
X218765298Y-86927353D01*
X218637119Y-86972206D01*
X218637117Y-86972207D01*
X218527850Y-87052850D01*
X218447207Y-87162117D01*
X218447206Y-87162119D01*
X218402353Y-87290298D01*
X218402353Y-87290300D01*
X218399500Y-87320730D01*
X218399500Y-88879269D01*
X217900500Y-88879269D01*
X217900500Y-88700043D01*
X217909939Y-88652590D01*
X217960130Y-88531420D01*
X218000500Y-88328465D01*
X218000500Y-87871535D01*
X217960130Y-87668580D01*
X217909939Y-87547408D01*
X217900500Y-87499955D01*
X217900500Y-82079269D01*
X218399500Y-82079269D01*
X218402353Y-82109699D01*
X218402353Y-82109701D01*
X218447206Y-82237880D01*
X218447207Y-82237882D01*
X218527850Y-82347150D01*
X218637118Y-82427793D01*
X218679845Y-82442744D01*
X218765299Y-82472646D01*
X218795730Y-82475500D01*
X218795734Y-82475500D01*
X220104270Y-82475500D01*
X220134699Y-82472646D01*
X220134701Y-82472646D01*
X220198790Y-82450219D01*
X220262882Y-82427793D01*
X220372150Y-82347150D01*
X220452793Y-82237882D01*
X220475219Y-82173790D01*
X220497646Y-82109701D01*
X220497646Y-82109699D01*
X220500500Y-82079269D01*
X220500500Y-80520730D01*
X220497646Y-80490300D01*
X220497646Y-80490298D01*
X220452793Y-80362119D01*
X220452792Y-80362117D01*
X220427637Y-80328033D01*
X220372150Y-80252850D01*
X220262882Y-80172207D01*
X220262880Y-80172206D01*
X220134700Y-80127353D01*
X220104270Y-80124500D01*
X220104266Y-80124500D01*
X218795734Y-80124500D01*
X218795730Y-80124500D01*
X218765300Y-80127353D01*
X218765298Y-80127353D01*
X218637119Y-80172206D01*
X218637117Y-80172207D01*
X218527850Y-80252850D01*
X218447207Y-80362117D01*
X218447206Y-80362119D01*
X218402353Y-80490298D01*
X218402353Y-80490300D01*
X218399500Y-80520730D01*
X218399500Y-82079269D01*
X217900500Y-82079269D01*
X217900500Y-81900043D01*
X217909939Y-81852590D01*
X217960130Y-81731420D01*
X218000500Y-81528465D01*
X218000500Y-81071535D01*
X217960130Y-80868580D01*
X217909939Y-80747408D01*
X217900500Y-80699955D01*
X217900500Y-75279269D01*
X218399500Y-75279269D01*
X218402353Y-75309699D01*
X218402353Y-75309701D01*
X218447206Y-75437880D01*
X218447207Y-75437882D01*
X218527850Y-75547150D01*
X218637118Y-75627793D01*
X218679845Y-75642744D01*
X218765299Y-75672646D01*
X218795730Y-75675500D01*
X218795734Y-75675500D01*
X220104270Y-75675500D01*
X220134699Y-75672646D01*
X220134701Y-75672646D01*
X220198790Y-75650219D01*
X220262882Y-75627793D01*
X220372150Y-75547150D01*
X220452793Y-75437882D01*
X220476594Y-75369863D01*
X220497646Y-75309701D01*
X220497646Y-75309699D01*
X220500500Y-75279269D01*
X220500500Y-73720730D01*
X220497646Y-73690300D01*
X220497646Y-73690298D01*
X220452793Y-73562119D01*
X220452792Y-73562117D01*
X220443313Y-73549273D01*
X220372150Y-73452850D01*
X220262882Y-73372207D01*
X220262880Y-73372206D01*
X220134700Y-73327353D01*
X220104270Y-73324500D01*
X220104266Y-73324500D01*
X218795734Y-73324500D01*
X218795730Y-73324500D01*
X218765300Y-73327353D01*
X218765298Y-73327353D01*
X218637119Y-73372206D01*
X218637117Y-73372207D01*
X218527850Y-73452850D01*
X218447207Y-73562117D01*
X218447206Y-73562119D01*
X218402353Y-73690298D01*
X218402353Y-73690300D01*
X218399500Y-73720730D01*
X218399500Y-75279269D01*
X217900500Y-75279269D01*
X217900500Y-75100043D01*
X217909939Y-75052590D01*
X217960130Y-74931420D01*
X218000500Y-74728465D01*
X218000500Y-74271535D01*
X217960130Y-74068580D01*
X217893018Y-73906558D01*
X217885962Y-73883296D01*
X217863974Y-73772757D01*
X217863973Y-73772750D01*
X217863971Y-73772745D01*
X217859411Y-73761735D01*
X217859394Y-73761696D01*
X217816309Y-73657678D01*
X217792323Y-73599770D01*
X217792321Y-73599768D01*
X217792321Y-73599766D01*
X217688302Y-73444092D01*
X217688299Y-73444088D01*
X216080911Y-71836700D01*
X216080907Y-71836697D01*
X215925236Y-71732680D01*
X215925227Y-71732675D01*
X215823903Y-71690706D01*
X215823901Y-71690705D01*
X215752251Y-71661027D01*
X215752247Y-71661026D01*
X215752243Y-71661024D01*
X215660433Y-71642763D01*
X215568620Y-71624500D01*
X215568617Y-71624500D01*
X215568616Y-71624500D01*
X213281384Y-71624500D01*
X213281379Y-71624500D01*
X213097756Y-71661024D01*
X213097752Y-71661026D01*
X213097750Y-71661026D01*
X213097749Y-71661027D01*
X213026099Y-71690705D01*
X213026097Y-71690706D01*
X212924772Y-71732675D01*
X212924763Y-71732680D01*
X212769092Y-71836697D01*
X212769088Y-71836700D01*
X207210734Y-77395054D01*
X207149411Y-77428539D01*
X207079719Y-77423555D01*
X207023786Y-77381683D01*
X206999369Y-77316219D01*
X207014221Y-77247946D01*
X207021479Y-77236248D01*
X207080133Y-77152483D01*
X207176265Y-76946326D01*
X207176269Y-76946317D01*
X207235139Y-76726610D01*
X207235141Y-76726599D01*
X207254966Y-76500002D01*
X207254966Y-76499997D01*
X207235141Y-76273400D01*
X207235139Y-76273389D01*
X207176269Y-76053682D01*
X207176264Y-76053668D01*
X207080136Y-75847521D01*
X207080132Y-75847513D01*
X207029025Y-75774526D01*
X206350000Y-76453552D01*
X206350000Y-76447339D01*
X206322741Y-76345606D01*
X206270080Y-76254394D01*
X206195606Y-76179920D01*
X206104394Y-76127259D01*
X206002661Y-76100000D01*
X205996448Y-76100000D01*
X206675472Y-75420974D01*
X206602478Y-75369863D01*
X206396331Y-75273735D01*
X206396317Y-75273730D01*
X206176610Y-75214860D01*
X206176599Y-75214858D01*
X205950002Y-75195034D01*
X205949998Y-75195034D01*
X205723400Y-75214858D01*
X205723389Y-75214860D01*
X205503682Y-75273730D01*
X205503673Y-75273734D01*
X205297516Y-75369866D01*
X205297512Y-75369868D01*
X205224526Y-75420973D01*
X205224526Y-75420974D01*
X205903553Y-76100000D01*
X205897339Y-76100000D01*
X205795606Y-76127259D01*
X205704394Y-76179920D01*
X205629920Y-76254394D01*
X205577259Y-76345606D01*
X205550000Y-76447339D01*
X205550000Y-76453552D01*
X204870974Y-75774526D01*
X204870973Y-75774526D01*
X204819868Y-75847512D01*
X204819866Y-75847516D01*
X204723734Y-76053673D01*
X204723730Y-76053682D01*
X204664860Y-76273389D01*
X204664858Y-76273400D01*
X204645034Y-76499997D01*
X204645034Y-76500002D01*
X188500500Y-76500002D01*
X188500500Y-63500002D01*
X189594506Y-63500002D01*
X189614469Y-63868196D01*
X189614470Y-63868213D01*
X189674122Y-64232068D01*
X189674128Y-64232094D01*
X189772768Y-64587365D01*
X189772770Y-64587371D01*
X189909255Y-64929926D01*
X189909261Y-64929938D01*
X190081973Y-65255708D01*
X190081976Y-65255713D01*
X190081978Y-65255716D01*
X190288910Y-65560917D01*
X190527627Y-65841956D01*
X190795330Y-66095538D01*
X191088881Y-66318690D01*
X191404838Y-66508795D01*
X191404840Y-66508796D01*
X191404842Y-66508797D01*
X191404846Y-66508799D01*
X191739486Y-66663620D01*
X191739497Y-66663625D01*
X192088934Y-66781364D01*
X192449052Y-66860632D01*
X192815630Y-66900500D01*
X192815636Y-66900500D01*
X193184364Y-66900500D01*
X193184370Y-66900500D01*
X193550948Y-66860632D01*
X193911066Y-66781364D01*
X194260503Y-66663625D01*
X194595162Y-66508795D01*
X194911119Y-66318690D01*
X195204670Y-66095538D01*
X195472373Y-65841956D01*
X195711090Y-65560917D01*
X195918022Y-65255716D01*
X196090743Y-64929930D01*
X196227227Y-64587379D01*
X196325875Y-64232081D01*
X196385531Y-63868199D01*
X196405494Y-63500002D01*
X234594506Y-63500002D01*
X234614469Y-63868196D01*
X234614470Y-63868213D01*
X234674122Y-64232068D01*
X234674128Y-64232094D01*
X234772768Y-64587365D01*
X234772770Y-64587371D01*
X234909255Y-64929926D01*
X234909261Y-64929938D01*
X235081973Y-65255708D01*
X235081976Y-65255713D01*
X235081978Y-65255716D01*
X235288910Y-65560917D01*
X235527627Y-65841956D01*
X235795330Y-66095538D01*
X236088881Y-66318690D01*
X236404838Y-66508795D01*
X236404840Y-66508796D01*
X236404842Y-66508797D01*
X236404846Y-66508799D01*
X236739486Y-66663620D01*
X236739497Y-66663625D01*
X237088934Y-66781364D01*
X237449052Y-66860632D01*
X237815630Y-66900500D01*
X237815636Y-66900500D01*
X238184364Y-66900500D01*
X238184370Y-66900500D01*
X238550948Y-66860632D01*
X238911066Y-66781364D01*
X239260503Y-66663625D01*
X239595162Y-66508795D01*
X239911119Y-66318690D01*
X240204670Y-66095538D01*
X240472373Y-65841956D01*
X240711090Y-65560917D01*
X240918022Y-65255716D01*
X241090743Y-64929930D01*
X241227227Y-64587379D01*
X241325875Y-64232081D01*
X241385531Y-63868199D01*
X241405494Y-63500000D01*
X241385531Y-63131801D01*
X241325875Y-62767919D01*
X241227227Y-62412621D01*
X241090743Y-62070070D01*
X240918022Y-61744284D01*
X240711090Y-61439083D01*
X240472373Y-61158044D01*
X240204670Y-60904462D01*
X239911119Y-60681310D01*
X239595162Y-60491205D01*
X239595161Y-60491204D01*
X239595157Y-60491202D01*
X239595153Y-60491200D01*
X239260513Y-60336379D01*
X239260508Y-60336377D01*
X239260503Y-60336375D01*
X239090172Y-60278983D01*
X238911065Y-60218635D01*
X238550946Y-60139367D01*
X238184371Y-60099500D01*
X238184370Y-60099500D01*
X237815630Y-60099500D01*
X237815628Y-60099500D01*
X237449053Y-60139367D01*
X237088934Y-60218635D01*
X236818812Y-60309650D01*
X236739497Y-60336375D01*
X236739494Y-60336376D01*
X236739486Y-60336379D01*
X236404846Y-60491200D01*
X236404842Y-60491202D01*
X236224850Y-60599500D01*
X236088881Y-60681310D01*
X235988410Y-60757685D01*
X235795330Y-60904461D01*
X235795330Y-60904462D01*
X235527626Y-61158044D01*
X235288909Y-61439083D01*
X235081979Y-61744282D01*
X235081973Y-61744291D01*
X234909261Y-62070061D01*
X234909255Y-62070073D01*
X234772770Y-62412628D01*
X234772768Y-62412634D01*
X234674128Y-62767905D01*
X234674122Y-62767931D01*
X234614470Y-63131786D01*
X234614469Y-63131803D01*
X234594506Y-63499997D01*
X234594506Y-63500002D01*
X196405494Y-63500002D01*
X196405494Y-63500000D01*
X196385531Y-63131801D01*
X196325875Y-62767919D01*
X196227227Y-62412621D01*
X196090743Y-62070070D01*
X195918022Y-61744284D01*
X195711090Y-61439083D01*
X195472373Y-61158044D01*
X195204670Y-60904462D01*
X194911119Y-60681310D01*
X194595162Y-60491205D01*
X194595161Y-60491204D01*
X194595157Y-60491202D01*
X194595153Y-60491200D01*
X194260513Y-60336379D01*
X194260508Y-60336377D01*
X194260503Y-60336375D01*
X194090172Y-60278983D01*
X193911065Y-60218635D01*
X193550946Y-60139367D01*
X193184371Y-60099500D01*
X193184370Y-60099500D01*
X192815630Y-60099500D01*
X192815628Y-60099500D01*
X192449053Y-60139367D01*
X192088934Y-60218635D01*
X191818812Y-60309650D01*
X191739497Y-60336375D01*
X191739494Y-60336376D01*
X191739486Y-60336379D01*
X191404846Y-60491200D01*
X191404842Y-60491202D01*
X191224850Y-60599500D01*
X191088881Y-60681310D01*
X190988410Y-60757685D01*
X190795330Y-60904461D01*
X190795330Y-60904462D01*
X190527626Y-61158044D01*
X190288909Y-61439083D01*
X190081979Y-61744282D01*
X190081973Y-61744291D01*
X189909261Y-62070061D01*
X189909255Y-62070073D01*
X189772770Y-62412628D01*
X189772768Y-62412634D01*
X189674128Y-62767905D01*
X189674122Y-62767931D01*
X189614470Y-63131786D01*
X189614469Y-63131803D01*
X189594506Y-63499997D01*
X189594506Y-63500002D01*
X188500500Y-63500002D01*
X188500500Y-61258676D01*
X188520185Y-61191637D01*
X188536819Y-61170995D01*
X190670995Y-59036819D01*
X190732318Y-59003334D01*
X190758676Y-59000500D01*
X240241324Y-59000500D01*
X240308363Y-59020185D01*
G37*
%TD.AperFunction*%
%TD*%
D33*
X243000000Y-130000000D02*
X240500000Y-132500000D01*
X188000000Y-130000000D02*
X188000000Y-61000000D01*
X240500000Y-58500000D02*
X243000000Y-61000000D01*
X190500000Y-132500000D02*
X188000000Y-130000000D01*
X240500000Y-132500000D02*
X190500000Y-132500000D01*
X188000000Y-61000000D02*
X190500000Y-58500000D01*
X243000000Y-61000000D02*
X243000000Y-130000000D01*
X190500000Y-58500000D02*
X240500000Y-58500000D01*
M02*
