%TF.GenerationSoftware,KiCad,Pcbnew,8.0.1-8.0.1-0~ubuntu20.04.1*%
%TF.CreationDate,2024-05-13T17:34:50+05:00*%
%TF.ProjectId,DeltaAnomalain,44656c74-6141-46e6-9f6d-616c61696e2e,rev?*%
%TF.SameCoordinates,Original*%
%TF.FileFunction,Soldermask,Bot*%
%TF.FilePolarity,Negative*%
%FSLAX46Y46*%
G04 Gerber Fmt 4.6, Leading zero omitted, Abs format (unit mm)*
G04 Created by KiCad (PCBNEW 8.0.1-8.0.1-0~ubuntu20.04.1) date 2024-05-13 17:34:50*
%MOMM*%
%LPD*%
G01*
G04 APERTURE LIST*
G04 Aperture macros list*
%AMRoundRect*
0 Rectangle with rounded corners*
0 $1 Rounding radius*
0 $2 $3 $4 $5 $6 $7 $8 $9 X,Y pos of 4 corners*
0 Add a 4 corners polygon primitive as box body*
4,1,4,$2,$3,$4,$5,$6,$7,$8,$9,$2,$3,0*
0 Add four circle primitives for the rounded corners*
1,1,$1+$1,$2,$3*
1,1,$1+$1,$4,$5*
1,1,$1+$1,$6,$7*
1,1,$1+$1,$8,$9*
0 Add four rect primitives between the rounded corners*
20,1,$1+$1,$2,$3,$4,$5,0*
20,1,$1+$1,$4,$5,$6,$7,0*
20,1,$1+$1,$6,$7,$8,$9,0*
20,1,$1+$1,$8,$9,$2,$3,0*%
G04 Aperture macros list end*
%ADD10R,1.600000X1.600000*%
%ADD11C,1.600000*%
%ADD12R,1.700000X1.700000*%
%ADD13O,1.700000X1.700000*%
%ADD14C,0.800000*%
%ADD15C,6.400000*%
%ADD16RoundRect,0.250000X-0.600000X-0.725000X0.600000X-0.725000X0.600000X0.725000X-0.600000X0.725000X0*%
%ADD17O,1.700000X1.950000*%
%ADD18R,1.800000X1.800000*%
%ADD19C,1.800000*%
%ADD20C,1.500000*%
%ADD21RoundRect,0.500000X0.500000X-0.750000X0.500000X0.750000X-0.500000X0.750000X-0.500000X-0.750000X0*%
%ADD22O,2.000000X2.500000*%
%ADD23RoundRect,0.250000X0.600000X0.725000X-0.600000X0.725000X-0.600000X-0.725000X0.600000X-0.725000X0*%
%ADD24R,1.600000X2.400000*%
%ADD25O,1.600000X2.400000*%
%ADD26C,1.440000*%
%TA.AperFunction,Profile*%
%ADD27C,0.050000*%
%TD*%
G04 APERTURE END LIST*
D10*
%TO.C,C6*%
X198500000Y-117000000D03*
D11*
X202000000Y-117000000D03*
%TD*%
D12*
%TO.C,J9*%
X238500000Y-102000000D03*
D13*
X238500000Y-104540000D03*
X238500000Y-107080000D03*
X238500000Y-109620000D03*
X238500000Y-112160000D03*
X238500000Y-114700000D03*
X238500000Y-117240000D03*
X238500000Y-119780000D03*
%TD*%
D14*
%TO.C,H1*%
X190600000Y-127500000D03*
X191302944Y-125802944D03*
X191302944Y-129197056D03*
X193000000Y-125100000D03*
D15*
X193000000Y-127500000D03*
D14*
X193000000Y-129900000D03*
X194697056Y-125802944D03*
X194697056Y-129197056D03*
X195400000Y-127500000D03*
%TD*%
D16*
%TO.C,J8*%
X229250000Y-93950000D03*
D17*
X231750000Y-93950000D03*
X234250000Y-93950000D03*
X236750000Y-93950000D03*
%TD*%
D16*
%TO.C,J6*%
X229250000Y-80350000D03*
D17*
X231750000Y-80350000D03*
X234250000Y-80350000D03*
X236750000Y-80350000D03*
%TD*%
D18*
%TO.C,D3*%
X228000000Y-128000000D03*
D19*
X225460000Y-128000000D03*
%TD*%
D20*
%TO.C,Y1*%
X217450000Y-102620000D03*
X217450000Y-107500000D03*
%TD*%
D21*
%TO.C,J1*%
X191297349Y-114500000D03*
D22*
X193797349Y-114500000D03*
%TD*%
D23*
%TO.C,J2*%
X219450000Y-94900000D03*
D17*
X216950000Y-94900000D03*
X214450000Y-94900000D03*
%TD*%
D16*
%TO.C,J7*%
X229250000Y-87150000D03*
D17*
X231750000Y-87150000D03*
X234250000Y-87150000D03*
X236750000Y-87150000D03*
%TD*%
D14*
%TO.C,H2*%
X235600000Y-63500000D03*
X236302944Y-61802944D03*
X236302944Y-65197056D03*
X238000000Y-61100000D03*
D15*
X238000000Y-63500000D03*
D14*
X238000000Y-65900000D03*
X239697056Y-61802944D03*
X239697056Y-65197056D03*
X240400000Y-63500000D03*
%TD*%
D23*
%TO.C,J5*%
X219450000Y-74500000D03*
D17*
X216950000Y-74500000D03*
X214450000Y-74500000D03*
%TD*%
D14*
%TO.C,H4*%
X235600000Y-127500000D03*
X236302944Y-125802944D03*
X236302944Y-129197056D03*
X238000000Y-125100000D03*
D15*
X238000000Y-127500000D03*
D14*
X238000000Y-129900000D03*
X239697056Y-125802944D03*
X239697056Y-129197056D03*
X240400000Y-127500000D03*
%TD*%
D24*
%TO.C,U3*%
X222500000Y-123120000D03*
D25*
X225040000Y-123120000D03*
X227580000Y-123120000D03*
X230120000Y-123120000D03*
X230120000Y-115500000D03*
X227580000Y-115500000D03*
X225040000Y-115500000D03*
X222500000Y-115500000D03*
%TD*%
D10*
%TO.C,BZ1*%
X207500000Y-118000000D03*
D11*
X215100000Y-118000000D03*
%TD*%
D26*
%TO.C,RV1*%
X207450000Y-99120000D03*
X207450000Y-101660000D03*
X207450000Y-104200000D03*
%TD*%
D23*
%TO.C,J3*%
X219450000Y-88100000D03*
D17*
X216950000Y-88100000D03*
X214450000Y-88100000D03*
%TD*%
D14*
%TO.C,H3*%
X190600000Y-63500000D03*
X191302944Y-61802944D03*
X191302944Y-65197056D03*
X193000000Y-61100000D03*
D15*
X193000000Y-63500000D03*
D14*
X193000000Y-65900000D03*
X194697056Y-61802944D03*
X194697056Y-65197056D03*
X195400000Y-63500000D03*
%TD*%
D18*
%TO.C,D2*%
X218500000Y-128000000D03*
D19*
X215960000Y-128000000D03*
%TD*%
D23*
%TO.C,J4*%
X219450000Y-81300000D03*
D17*
X216950000Y-81300000D03*
X214450000Y-81300000D03*
%TD*%
D10*
%TO.C,C7*%
X205950000Y-80000000D03*
D11*
X205950000Y-76500000D03*
%TD*%
D27*
X243000000Y-130000000D02*
X240500000Y-132500000D01*
X188000000Y-130000000D02*
X188000000Y-61000000D01*
X240500000Y-58500000D02*
X243000000Y-61000000D01*
X190500000Y-132500000D02*
X188000000Y-130000000D01*
X240500000Y-132500000D02*
X190500000Y-132500000D01*
X188000000Y-61000000D02*
X190500000Y-58500000D01*
X243000000Y-61000000D02*
X243000000Y-130000000D01*
X190500000Y-58500000D02*
X240500000Y-58500000D01*
M02*
