M48
; DRILL file {KiCad 8.0.1-8.0.1-0~ubuntu20.04.1} date 2024-05-16T17:15:29+0500
; FORMAT={-:-/ absolute / metric / decimal}
; #@! TF.CreationDate,2024-05-16T17:15:29+05:00
; #@! TF.GenerationSoftware,Kicad,Pcbnew,8.0.1-8.0.1-0~ubuntu20.04.1
; #@! TF.FileFunction,Plated,1,2,PTH
FMAT,2
METRIC
; #@! TA.AperFunction,Plated,PTH,ViaDrill
T1C0.400
; #@! TA.AperFunction,Plated,PTH,ComponentDrill
T2C0.500
; #@! TA.AperFunction,Plated,PTH,ComponentDrill
T3C0.800
; #@! TA.AperFunction,Plated,PTH,ComponentDrill
T4C0.900
; #@! TA.AperFunction,Plated,PTH,ComponentDrill
T5C0.950
; #@! TA.AperFunction,Plated,PTH,ComponentDrill
T6C1.000
; #@! TA.AperFunction,Plated,PTH,ComponentDrill
T7C3.200
%
G90
G05
T1
X192.5Y-70.8
X192.5Y-71.9
X192.5Y-73.0
X201.5Y-94.5
X202.5Y-94.5
X203.5Y-94.5
X204.5Y-94.5
X219.6Y-69.5
X221.1Y-104.2
X221.1Y-107.0
X224.4Y-96.2
X224.6Y-104.6
X224.7Y-107.1
X224.7Y-108.3
X225.7Y-105.6
X225.8Y-98.2
X226.7Y-97.2
X226.9Y-105.6
X227.5Y-96.3
X227.9Y-71.1
X228.8Y-105.5
X229.0Y-71.1
X229.6Y-104.4
X233.4Y-74.4
X236.7Y-69.8
X236.7Y-70.8
T2
X190.6Y-63.5
X190.6Y-127.5
X191.303Y-61.803
X191.303Y-65.197
X191.303Y-125.803
X191.303Y-129.197
X193.0Y-61.1
X193.0Y-65.9
X193.0Y-125.1
X193.0Y-129.9
X194.697Y-61.803
X194.697Y-65.197
X194.697Y-125.803
X194.697Y-129.197
X195.4Y-63.5
X195.4Y-127.5
X235.6Y-63.5
X235.6Y-127.5
X236.303Y-61.803
X236.303Y-65.197
X236.303Y-125.803
X236.303Y-129.197
X238.0Y-61.1
X238.0Y-65.9
X238.0Y-125.1
X238.0Y-129.9
X239.697Y-61.803
X239.697Y-65.197
X239.697Y-125.803
X239.697Y-129.197
X240.4Y-63.5
X240.4Y-127.5
T3
X198.5Y-117.0
X202.0Y-117.0
X205.95Y-76.5
X205.95Y-80.0
X207.45Y-99.12
X207.45Y-101.66
X207.45Y-104.2
X217.45Y-102.62
X217.45Y-107.5
X222.5Y-115.5
X222.5Y-123.12
X225.04Y-115.5
X225.04Y-123.12
X227.58Y-115.5
X227.58Y-123.12
X230.12Y-115.5
X230.12Y-123.12
T4
X215.96Y-128.0
X218.5Y-128.0
X225.46Y-128.0
X228.0Y-128.0
T5
X214.45Y-74.5
X214.45Y-81.3
X214.45Y-88.1
X214.45Y-94.9
X216.95Y-74.5
X216.95Y-81.3
X216.95Y-88.1
X216.95Y-94.9
X219.45Y-74.5
X219.45Y-81.3
X219.45Y-88.1
X219.45Y-94.9
X229.25Y-80.35
X229.25Y-87.15
X229.25Y-93.95
X231.75Y-80.35
X231.75Y-87.15
X231.75Y-93.95
X234.25Y-80.35
X234.25Y-87.15
X234.25Y-93.95
X236.75Y-80.35
X236.75Y-87.15
X236.75Y-93.95
T6
X191.297Y-114.5
X193.797Y-114.5
X207.5Y-118.0
X215.1Y-118.0
X238.5Y-102.0
X238.5Y-104.54
X238.5Y-107.08
X238.5Y-109.62
X238.5Y-112.16
X238.5Y-114.7
X238.5Y-117.24
X238.5Y-119.78
T7
X193.0Y-63.5
X193.0Y-127.5
X238.0Y-63.5
X238.0Y-127.5
M30
